<?xml version="1.0" encoding="utf-8" ?>
<svg baseProfile="full" height="200mm" version="1.1" viewBox="0,0,200,200" width="200mm" xmlns="http://www.w3.org/2000/svg" xmlns:ev="http://www.w3.org/2001/xml-events" xmlns:xlink="http://www.w3.org/1999/xlink"><defs /><rect fill="#1a1a1a" height="200" width="200" x="0" y="0" /><text alignment-baseline="middle" fill="#e1ed5e" style="dominant-baseline: central; font-size:9.0px; font-family:Arial;" text-anchor="middle" x="100.0" y="100.0">2025</text><line stroke="#e1ed5e" stroke-width="0.3" x1="100.0" x2="100.0" y1="15.0" y2="10.0" /><path d="M 100.0 14.0 a86.0,86.0 0 0,1 42.46469731375804,11.215312516191453" fill="none" id="id61" stroke="none" /><text fill="#e1ed5e" style="font-size:6.75px; font-family:Arial;" text-anchor="middle"><textPath startOffset="22.20632615414155" xlink:href="#id61">January</textPath></text><path d="M 100.0 79.0 l 0.0 -37.62215938841763 a58.62215938841763,58.62215938841763 0 0,0 1.0090841081769406,0.008685505498301539 l -0.6476036289044123 37.61658525952789" fill="#8cff24" stroke="none" /><path d="M 100.36148047927253 79.00311137660856 l 0.6436035831080151 -37.38423933522115 a58.389779034453866,58.389779034453866 0 0,0 1.0047862342813694,0.025950664023345192 l -1.2870164525842522 37.36762187905545" fill="#8fff24" stroke="none" /><path d="M 100.72285384407766 79.0124445844662 l 1.2743998811443518 -37.001308558017755 a58.02324850769714,58.02324850769714 0 0,0 0.9978870539574696,0.042971115654586375 l -1.9111277674911529 36.97388971583897" fill="#94ff23" stroke="none" /><path d="M 101.08401301168833 79.027996857942 l 1.950595270936223 -37.73745306548 a58.787831186511674,58.787831186511674 0 0,0 1.0101371694525543,0.060934232626331346 l -2.5998944892283893 37.69828556347336" fill="#89ff24" stroke="none" /><path d="M 101.44485096284872 79.0497635885617 l 2.698295865586047 -39.12509853651473 a60.21803330191642,60.21803330191642 0 0,0 1.03348428472933,0.08021827110225828 l -3.3713703396777186 39.072855003224" fill="#76ff27" stroke="none" /><path d="M 101.80526077348638 79.07773832637324 l 3.2417434534047596 -37.570530422547144 a58.71012671483925,58.71012671483925 0 0,0 1.0061094947627824,0.09554221961545334 l -3.887978075257786 37.50916265841651" fill="#8bff24" stroke="none" /><path d="M 102.16513564639614 79.11191278185805 l 3.8887338736472845 -37.51645420280794 a58.71745732537438,58.71745732537438 0 0,0 1.0044412265010128,0.11286067521759154 l -4.533941803658023 37.44395757411975" fill="#8aff24" stroke="none" /><path d="M 102.52436894288641 79.15227682838746 l 4.558967837091882 -37.65063727463772 a58.92564666457221,58.92564666457221 0 0,0 1.0059036401142811,0.13059516211460886 l -5.20638620571401 37.56658378935897" fill="#87ff25" stroke="none" /><path d="M 102.88285421437855 79.19881850522331 l 8.214529403123995 -59.271785633945285 a80.83830767619645,80.83830767619645 0 0,0 1.3766803045076266,0.20288689074420177 l -9.233578688060277 59.12160425904011" fill="#48f8ff" stroke="none" /><path d="M 103.2404852339499 79.25152402106235 l 5.812331231055536 -37.21572734407628 a58.666876112681955,58.666876112681955 0 0,0 0.996417203641073,0.16441737623282848 l -6.452077640835484 37.110163704903826" fill="#8bff24" stroke="none" /><path d="M 103.59715602781102 79.31037775812273 l 6.602508503449986 -37.975391039206514 a59.54508325479108,59.54508325479108 0 0,0 1.008310577130365,0.1842623130115618 l -7.255214201683252 37.85611324484422" fill="#7fff26" stroke="none" /><path d="M 103.95276090670814 79.375362276772 l 7.212577865586179 -37.63364621316628 a59.31856738925541,59.31856738925541 0 0,0 1.0011663250019087,0.20082454631159907 l -7.859310600055213 37.50391771077747" fill="#82ff25" stroke="none" /><path d="M 104.307194497241 79.44645832069477 l 8.052816353465662 -38.42730962411101 a60.26201696512723,60.26201696512723 0 0,0 1.0134271308770595,0.22149591843930833 l -8.71308620849625 38.28300020757583" fill="#75ff27" stroke="none" /><path d="M 104.66035177308747 79.52364482259891 l 8.33647733654814 -36.62828026357878 a58.56498062624358,58.56498062624358 0 0,0 0.9810368075148178,0.23217971631074327 l -8.965737831025482 36.47935463512717" fill="#8dff24" stroke="none" /><path d="M 105.01212808612495 79.60689891045804 l 9.612396308573492 -39.11044695288984 a61.27437428002932,61.27437428002932 0 0,0 1.0220889838895804,0.2605532397540002 l -10.284194181148099 38.93919071696697" fill="#67ff28" stroke="none" /><path d="M 105.36241919743992 79.69619591428918 l 10.108235998944254 -38.27295774874802 a60.58529688972667,60.58529688972667 0 0,0 1.006010519402659,0.27498067722027825 l -10.765544407570623 38.09329053070145" fill="#71ff27" stroke="none" /><path d="M 105.71112130821622 79.79150937346287 l 9.985839885755645 -35.33434869245009 a57.71829510943554,57.71829510943554 0 0,0 0.9537530009190575,0.27842665459758303 l -10.59258310439813 35.157223708933806" fill="#99ff23" stroke="none" /><path d="M 106.0581310904928 79.89281104454417 l 11.431928316747275 -37.94304536440224 a60.627814430830455,60.627814430830455 0 0,0 0.996648017242994,0.30966339039135465 l -12.083361706700988 37.740641839128365" fill="#70ff27" stroke="none" /><path d="M 106.40334571778207 80.00007090966166 l 11.442513025412156 -35.73904318300382 a58.52612839040738,58.52612839040738 0 0,0 0.9568107249558375,0.31544545266838064 l -12.05600657261041 35.5367840060762" fill="#8dff24" stroke="none" /><path d="M 106.74666289553966 80.11325718540242 l 12.061187798696976 -35.55205640255475 a58.54225573358467,58.54225573358467 0 0,0 0.9515012097429736,0.3319600888633194 l -12.671371012503222 35.33917546051922" fill="#8dff24" stroke="none" /><path d="M 107.08798089147638 80.2323363322302 l 5.614813082356739 -15.659147261936674 a37.63535448738088,37.63535448738088 0 0,0 0.6079322579968557,0.22390658117161621 l -5.883527666126171 15.560177412958733" fill="#ff1b02" stroke="none" /><path d="M 107.4271985657038 80.35727306442388 l 14.11626628641306 -37.33331774570854 a60.91297518064719,60.91297518064719 0 0,0 0.9775570526588357,0.3792769491716027 l -14.756806504071564 37.084798092646395" fill="#6cff28" stroke="none" /><path d="M 107.76421540070413 80.48803036053334 l 13.860237071128171 -34.831661793300704 a58.488009215624665,58.488009215624665 0 0,0 0.9322323866729819,0.3802809974851447 l -14.45775332738954 34.587919909631985" fill="#8eff24" stroke="none" /><path d="M 108.09893153111575 80.62456947434976 l 15.394670250422239 -36.82934752027202 a60.91737354696827,60.91737354696827 0 0,0 0.9639920315434357,0.41273107921569735 l -16.02634603975599 36.558896913093534" fill="#6cff28" stroke="none" /><path d="M 108.43124777332544 80.76684994638697 l 14.935613877646723 -34.07074617833282 a58.20064928264739,58.20064928264739 0 0,0 0.9140768976314605,0.4101196592652116 l -15.519872893744964 33.808606188551074" fill="#92ff23" stroke="none" /><path d="M 108.76106565485865 80.91482961587045 l 16.77927417020351 -36.55209526740211 a61.21939470101581,61.21939470101581 0 0,0 0.9539199922486813,0.4478782270313846 l -17.405972373751787 36.25785205773072" fill="#68ff28" stroke="none" /><path d="M 109.08828744355905 81.06846463323043 l 16.294007857757986 -33.94155256876059 a58.65001570845114,58.65001570845114 0 0,0 0.9063626327467581,0.4447482075991377 l -16.875841757515175 33.656049201026626" fill="#8bff24" stroke="none" /><path d="M 109.41281617654863 81.2277094730956 l 17.281637407252937 -34.46534088255443 a59.55534610954027,59.55534610954027 0 0,0 0.9124432389888757,0.46738886649777744 l -17.872341133830567 34.16275949074415" fill="#7fff26" stroke="none" /><path d="M 109.73455568895987 81.39251694778311 l 29.203667066879603 -55.82244915665069 a84.0,84.0 0 0,0 1.2754198138867554,0.6812850939929835 l -30.16023192729467 55.311485336155954" fill="#4dd2ff" stroke="none" /><path d="M 110.05341064243156 81.56283822128135 l 18.446518783751525 -33.829459788975754 a59.531888155827836,59.531888155827836 0 0,0 0.8954614000230401,0.4983232996173348 l -19.0261042728466 33.50692109179824" fill="#7fff26" stroke="none" /><path d="M 110.36928655335952 81.73862282372117 l 26.76714390108504 -47.13968585920491 a75.20913184626662,75.20913184626662 0 0,0 1.1202696280932445,0.6489324769927209 l -27.574610261643613 46.671949224822136" fill="#3fffbd" stroke="none" /><line stroke="#e1ed5e" stroke-width="0.3" x1="143.23703022742887" x2="145.7803849466894" y1="26.81831364943548" y2="22.513508569990506" /><path d="M 143.74570117128098 25.957352633546492 a86.0,86.0 0 0,1 28.547481713284135,27.462654790039103" fill="none" id="id62" stroke="none" /><text fill="#e1ed5e" style="font-size:6.75px; font-family:Arial;" text-anchor="middle"><textPath startOffset="19.985693538727396" xlink:href="#id62">February</textPath></text><path d="M 110.68208982089419 81.91981866633111 l 16.465192101490697 -27.86848490136779 a53.369043878940204,53.369043878940204 0 0,0 0.7869085940292992,0.4741036231222984 l -16.942462761737634 27.580934668786877" fill="#d9ff1c" stroke="none" /><path d="M 110.99172775467656 82.1063720568725 l 19.577300423320484 -31.870233481418445 a58.40297413341711,58.40297413341711 0 0,0 0.8520739389989105,0.5335686224317043 l -20.122993514691657 31.528520517663797" fill="#8fff24" stroke="none" /><path d="M 111.2981086023043 82.29822771554956 l 20.950425072887434 -32.824932646430405 a59.94093622368835,59.94093622368835 0 0,0 0.86495619910186,0.5625915722178139 l -21.512348297773574 32.459442150053064" fill="#79ff26" stroke="none" /><path d="M 111.90073688211348 82.69761687909136 l 22.521958645823283 -32.744489772644286 a60.74217195517855,60.74217195517855 0 0,0 0.8563745538087443,0.599945102235401 l -23.08226433921568 32.35195982764495" fill="#6eff28" stroke="none" /><path d="M 112.48926042617603 83.11751280151076 l 23.13392767110618 -31.271526450009947 a59.89841868258456,59.89841868258456 0 0,0 0.8236142275422392,0.6203291608711982 l -23.6687880524068 30.8686806996329" fill="#7aff26" stroke="none" /><path d="M 112.77801427241765 83.33499621200491 l 24.026520710153825 -31.33523332426976 a60.486333647502356,60.486333647502356 0 0,0 0.8207921879668058,0.6406413218980397 l -24.56234545328006 30.917013613148494" fill="#72ff27" stroke="none" /><path d="M 113.06298171725822 83.55741782278167 l 24.73836077575228 -31.138566889945587 a60.769295214158554,60.769295214158554 0 0,0 0.8134305883967192,0.6577376321778328 l -25.270694762713493 30.70812316050363" fill="#6eff28" stroke="none" /><path d="M 113.34407831869373 83.78471172551755 l 24.600859016482417 -29.894160632535403 a59.7151534192062,59.7151534192062 0 0,0 0.7880764142601424,0.659991333078489 l -25.11179296770168 29.466268142063093" fill="#7dff26" stroke="none" /><path d="M 113.6212207817346 84.01681056812373 l 25.560650873170218 -29.992959621928037 a60.4071630537229,60.4071630537229 0 0,0 0.7855986112441806,0.6812633742536816 l -26.073143283061164 29.54853125425468" fill="#73ff27" stroke="none" /><path d="M 113.89432698308785 84.25364557470405 l 26.47279858497985 -30.00145812430893 a61.01120536181799,61.01120536181799 0 0,0 0.7814925655168409,0.7016317414790068 l -26.985302138092678 29.541327374060625" fill="#6bff28" stroke="none" /><path d="M 114.42810811169701 84.74124197986012 l 26.577192618638573 -28.107285299150384 a59.6828987328516,59.6828987328516 0 0,0 0.7403997709376672,0.7122639930240662 l -27.05707563318866 27.645638219364013" fill="#7dff26" stroke="none" /><path d="M 114.68862486808459 84.99185889309783 l 26.737635088181626 -27.319249002007925 a59.226201696512724,59.226201696512724 0 0,0 0.7224586936531403,0.7193562264259835 l -27.20392958200209 26.854956924931827" fill="#83ff25" stroke="none" /><path d="M 114.94478906791727 85.2469230424477 l 27.84143201649767 -27.484281463003143 a60.12200230390617,60.12200230390617 0 0,0 0.7207074532198664,0.7427523825167447 l -28.310403733420646 27.00096488493628" fill="#77ff27" stroke="none" /><path d="M 115.19652480421416 85.50635884689758 l 10.98402075596252 -10.475977718998099 a36.17876217404964,36.17876217404964 0 0,0 0.4259320123849528,0.45435457356153736 l -11.162720090317936 10.285353728558507" fill="#ff0000" stroke="none" /><path d="M 115.4437574822437 85.77008943001954 l 27.097063648201026 -24.9672913386717 a57.84584773274688,57.84584773274688 0 0,0 0.6684125150622622,0.7380777937152192 l -27.522819803879326 24.49716075768693" fill="#97ff23" stroke="none" /><path d="M 115.68641384162765 86.03803664274999 l 28.06272988339358 -24.977717041774216 a58.56864593151115,58.56864593151115 0 0,0 0.6638006795679975,0.7588389262962713 l -28.488522426539422 24.490962559274998" fill="#8cff24" stroke="none" /><path d="M 115.92442197804982 86.31012108654704 l 16.983381864536522 -14.600243675212583 a43.39648130694313,43.39648130694313 0 0,0 0.4820923095673546,0.5706452347857199 l -17.232184787591 14.305739490797757" fill="#ff830c" stroke="none" /><path d="M 116.15771136456269 86.58626213691792 l 29.473285417503526 -24.46800265421697 a59.306105351345686,59.306105351345686 0 0,0 0.6453111667551356,0.7910751879905548 l -29.89009507633507 23.957043296618313" fill="#82ff25" stroke="none" /><path d="M 116.38621287248628 86.86637796730983 l 28.963447788541313 -23.21433140033046 a58.11854644465389,58.11854644465389 0 0,0 0.6189512263884296,0.7860052020321573 l -29.358753095523706 22.712333804345267" fill="#93ff23" stroke="none" /><line stroke="#e1ed5e" stroke-width="0.3" x1="172.23445277983987" x2="176.4835382374775" y1="55.19839476539836" y2="52.563006222186495" /><path d="M 173.08426987136738 54.67131705675599 a86.0,86.0 0 0,1 12.851231095245387,41.99856678651699" fill="none" id="id63" stroke="none" /><text fill="#e1ed5e" style="font-size:6.75px; font-family:Arial;" text-anchor="middle"><textPath startOffset="22.20632615414155" xlink:href="#id63">March</textPath></text><line stroke="#e1ed5e" stroke-width="0.3" x1="184.98032266829074" x2="189.97916517819016" y1="98.17113171792111" y2="98.06355123074" /><path d="M 185.9800911702706 98.14961562048488 a86.0,86.0 0 0,1 -9.607161424134198,41.387399972396054" fill="none" id="id64" stroke="none" /><text fill="#e1ed5e" style="font-size:6.75px; font-family:Arial;" text-anchor="middle"><textPath startOffset="21.466115282336823" xlink:href="#id64">April</textPath></text><line stroke="#e1ed5e" stroke-width="0.3" x1="174.80103733775053" x2="179.2010983576182" y1="140.37084112569926" y2="142.7455964860345" /><path d="M 175.68104954172406 140.8457921977663 a86.0,86.0 0 0,1 -30.038265399797805,32.042727171017184" fill="none" id="id65" stroke="none" /><text fill="#e1ed5e" style="font-size:6.75px; font-family:Arial;" text-anchor="middle"><textPath startOffset="22.206326154141568" xlink:href="#id65">May</textPath></text><line stroke="#e1ed5e" stroke-width="0.3" x1="143.8653032363475" x2="146.44561519142675" y1="172.8068346515853" y2="177.08958963109032" /><path d="M 144.38136562736335 173.6633856474863 a86.0,86.0 0 0,1 -40.68145358897372,12.25698825130547" fill="none" id="id66" stroke="none" /><text fill="#e1ed5e" style="font-size:6.75px; font-family:Arial;" text-anchor="middle"><textPath startOffset="21.466115282336833" xlink:href="#id66">June</textPath></text><line stroke="#e1ed5e" stroke-width="0.3" x1="102.19456741930631" x2="102.32365962044197" y1="184.97166512339345" y2="189.96999836594603" /><path d="M 102.22038585953345 185.97133177190398 a86.0,86.0 0 0,1 -42.740103519485714,-10.115201625700543" fill="none" id="id67" stroke="none" /><text fill="#e1ed5e" style="font-size:6.75px; font-family:Arial;" text-anchor="middle"><textPath startOffset="22.20632615414155" xlink:href="#id67">July</textPath></text><line stroke="#e1ed5e" stroke-width="0.3" x1="58.666819895761336" x2="56.23545636021788" y1="174.27360380694188" y2="178.64263932499728" /><path d="M 58.180547188652646 175.14741091055294 a86.0,86.0 0 0,1 -31.652253787137756,-30.449443065178592" fill="none" id="id68" stroke="none" /><text fill="#e1ed5e" style="font-size:6.75px; font-family:Arial;" text-anchor="middle"><textPath startOffset="22.20632615414155" xlink:href="#id68">August</textPath></text><line stroke="#e1ed5e" stroke-width="0.3" x1="26.63291911575756" x2="22.317208475507996" y1="142.92168965132927" y2="145.44649492493687" /><path d="M 25.769776987707644 143.4266507060508 a86.0,86.0 0 0,1 -11.730757126820373,-40.83630448921669" fill="none" id="id69" stroke="none" /><text fill="#e1ed5e" style="font-size:6.75px; font-family:Arial;" text-anchor="middle"><textPath startOffset="21.46611528233685" xlink:href="#id69">September</textPath></text><line stroke="#e1ed5e" stroke-width="0.3" x1="15.007084014347285" x2="10.007500721073583" y1="101.09737516637583" y2="101.16192664675087" /><path d="M 14.007167355692545 101.11028546245083 a86.0,86.0 0 0,1 10.666146001902534,-42.60595125391555" fill="none" id="id70" stroke="none" /><text fill="#e1ed5e" style="font-size:6.75px; font-family:Arial;" text-anchor="middle"><textPath startOffset="22.20632615414155" xlink:href="#id70">October</textPath></text><line stroke="#e1ed5e" stroke-width="0.3" x1="26.266209847984257" x2="21.92892807433627" y1="57.711370442889674" y2="55.22380399835377" /><path d="M 25.39875349325466 57.213857153982495 a86.0,86.0 0 0,1 29.58750427330802,-30.492523968695096" fill="none" id="id71" stroke="none" /><text fill="#e1ed5e" style="font-size:6.75px; font-family:Arial;" text-anchor="middle"><textPath startOffset="21.46611528233685" xlink:href="#id71">November</textPath></text><line stroke="#e1ed5e" stroke-width="0.3" x1="56.762969772571076" x2="54.21961505331055" y1="26.818313649435495" y2="22.513508569990535" /><path d="M 56.25429882871897 25.957352633546506 a86.0,86.0 0 0,1 42.265352541879196,-11.944610805530505" fill="none" id="id72" stroke="none" /><text fill="#e1ed5e" style="font-size:6.75px; font-family:Arial;" text-anchor="middle"><textPath startOffset="22.20632615414155" xlink:href="#id72">December</textPath></text></svg>