<?xml version="1.0" encoding="utf-8" ?>
<svg baseProfile="full" height="200mm" version="1.1" viewBox="0,0,200,200" width="200mm" xmlns="http://www.w3.org/2000/svg" xmlns:ev="http://www.w3.org/2001/xml-events" xmlns:xlink="http://www.w3.org/1999/xlink"><defs /><rect fill="#1a1a1a" height="200" width="200" x="0" y="0" /><text alignment-baseline="middle" fill="#e1ed5e" style="dominant-baseline: central; font-size:9.0px; font-family:Arial;" text-anchor="middle" x="100.0" y="100.0">2024</text><line stroke="#e1ed5e" stroke-width="0.3" x1="100.0" x2="100.0" y1="15.0" y2="10.0" /><path d="M 100.0 14.0 a86.0,86.0 0 0,1 42.35913384403234,11.155469271406648" fill="none" id="id49" stroke="none" /><text fill="#e1ed5e" style="font-size:6.75px; font-family:Arial;" text-anchor="middle"><textPath startOffset="22.145653131862478" xlink:href="#id49">January</textPath></text><path d="M 100.0 79.0 l 0.0 -57.35421095666395 a78.35421095666395,78.35421095666395 0 0,0 1.3450542229519986,0.011545672805270144 l -0.9845612981031439 57.345759682053114" fill="#45ffeb" stroke="none" /><path d="M 100.72087961077811 79.0123766808444 l 1.9995616786287438 -58.21505656011084 a79.2493867538839,79.2493867538839 0 0,0 1.3592184569966808,0.05837068890050288 l -2.9986058962262607 58.1721533027845" fill="#46fff6" stroke="none" /><path d="M 107.74402155503746 80.48000691201159 l 21.12224620056744 -53.24185849788367 a78.27865903515945,78.27865903515945 0 0,0 1.2448004270850561,0.5062494968980509 l -22.033101088842933 52.87142174440633" fill="#44ffea" stroke="none" /><path d="M 108.07796709384702 80.6158196554323 l 4.919435724854674 -11.804854881957503 a33.78887980376125,33.78887980376125 0 0,0 0.5334860662956893,0.22771347865922292 l -5.121356866320793 11.71866675363888" fill="#ff1101" stroke="none" /><path d="M 108.4095320186766 80.7573450057729 l 23.52468597080652 -53.82908525449695 a79.74505314799674,79.74505314799674 0 0,0 1.2496680085510024,0.5589606050895034 l -24.445267382213153 53.41732089849759" fill="#47fffc" stroke="none" /><path d="M 109.06512990194946 81.05736502329252 l 24.759738286567437 -51.73833023400956 a78.35764513491415,78.35764513491415 0 0,0 1.2083485842334285,0.5910638436683083 l -25.644247120062932 51.30567264024403" fill="#45ffeb" stroke="none" /><path d="M 109.71004243097381 81.37971332152246 l 26.51484685403118 -50.84571495620898 a78.34390842191331,78.34390842191331 0 0,0 1.1871384702307795,0.632084369557635 l -27.38377414004852 50.38306011892877" fill="#44ffeb" stroke="none" /><line stroke="#e1ed5e" stroke-width="0.3" x1="143.13028292997686" x2="145.6673583964461" y1="26.7553504044142" y2="22.446841604673864" /><path d="M 143.63769802327073 25.89364864446614 a86.0,86.0 0 0,1 29.32050498858742,28.57503671076993" fill="none" id="id50" stroke="none" /><text fill="#e1ed5e" style="font-size:6.75px; font-family:Arial;" text-anchor="middle"><textPath startOffset="20.669276256404974" xlink:href="#id50">February</textPath></text><path d="M 110.96478420261332 82.08984904055464 l 29.980571033147136 -48.97100965526187 a78.41946034341782,78.41946034341782 0 0,0 1.1420706654271322,0.712736562407737 l -30.81680582736398 48.44913729601258" fill="#45ffec" stroke="none" /><path d="M 111.27062007382361 82.28071324371311 l 30.753525703755155 -48.34965043115035 a78.30155355682747,78.30155355682747 0 0,0 1.1279688079779877,0.7311357535988114 l -31.57898014399015 47.81460083584765" fill="#44ffeb" stroke="none" /><path d="M 113.31354834802062 83.75963576809568 l 36.34101572783497 -44.33013022145594 a78.3221586263287,78.3221586263287 0 0,0 1.032456367219586,0.8613118221177346 l -37.09664642921645 43.69975621542633" fill="#44ffeb" stroke="none" /><path d="M 113.59037401385872 83.9905735841838 l 37.13220587062638 -43.74164514799429 a78.37710547833197,78.37710547833197 0 0,0 1.0182325091085573,0.8795249898285937 l -37.877617859497796 43.09777602570097" fill="#45ffec" stroke="none" /><path d="M 113.86319453409587 84.22622945171908 l 37.97661368855021 -43.21041510674893 a78.52706459525756,78.52706459525756 0 0,0 1.004903266554552,0.8985906974941236 l -38.71278198192814 42.55212887937142" fill="#45ffed" stroke="none" /><path d="M 116.35404254752997 86.82634096563983 l 44.668065188691024 -35.98143142958031 a78.35764513491415,78.35764513491415 0 0,0 0.8348207444074475,1.0547687391167273 l -45.27915236374003 35.209342746548906" fill="#45ffeb" stroke="none" /><path d="M 116.57777611688842 87.10902102172516 l 45.25927168374157 -35.193883409534884 a78.3324611610793,78.3324611610793 0 0,0 0.8163287730510842,1.0686005684295277 l -45.856752434146955 34.411761927864475" fill="#44ffeb" stroke="none" /><path d="M 116.7966241395341 87.39550010848427 l 45.856752434146955 -34.411761927864475 a78.3324611610793,78.3324611610793 0 0,0 0.7978645353992033,1.0824564765898146 l -46.440718989129984 33.619499142005786" fill="#44ffeb" stroke="none" /><path d="M 117.01052211995028 87.68569379921539 l 9.56928799552395 -6.927426546312191 a32.81357318070319,32.81357318070319 0 0,0 0.32639333336814813,0.4591130987392787 l -9.68679642742206 6.7621362208634075" fill="#ff0000" stroke="none" /><path d="M 117.62189284568427 88.57770195909679 l 29.53792341263512 -19.14612508900376 a56.20032706459526,56.20032706459526 0 0,0 0.5177985243732316,0.8140652843636196 l -29.862239628634242 18.636246129961467" fill="#94ff23" stroke="none" /><line stroke="#e1ed5e" stroke-width="0.3" x1="172.87174338648825" x2="177.1583165268699" y1="56.24261187166439" y2="53.66864786411523" /><path d="M 173.72905801456457 55.72781907015455 a86.0,86.0 0 0,1 12.242430191666344,42.057860355516425" fill="none" id="id51" stroke="none" /><text fill="#e1ed5e" style="font-size:6.75px; font-family:Arial;" text-anchor="middle"><textPath startOffset="22.145653131862474" xlink:href="#id51">March</textPath></text><path d="M 118.53625476483649 90.13048839642627 l 50.61928345347581 -26.951917296496745 a78.34734260016353,78.34734260016353 0 0,0 0.621898563271564,1.1925724954724368 l -51.07449008572232 26.07899855791981" fill="#44ffeb" stroke="none" /><path d="M 118.70294669586156 90.45014215332178 l 51.00210473737639 -26.042038083288354 a78.26606704824204,78.26606704824204 0 0,0 0.6007110228291268,1.2018244460195313 l -51.44163567341726 25.162681781105075" fill="#44ffea" stroke="none" /><path d="M 119.0197475246899 91.09779779509293 l 51.938581193614894 -24.309878531317793 a78.34619787408013,78.34619787408013 0 0,0 0.5596736571739126,1.2229879459386643 l -52.34823931564386 23.414701603164442" fill="#44ffeb" stroke="none" /><path d="M 119.16976305983485 91.42560881287824 l 52.334654855585114 -23.408625446967523 a78.33131643499593,78.33131643499593 0 0,0 0.5384946700105073,1.2321811877556927 l -52.728783407612596 22.50678218943598" fill="#44ffeb" stroke="none" /><path d="M 119.31412917781788 91.75594674310238 l 52.749839967086906 -22.51576998257514 a78.35421095666395,78.35421095666395 0 0,0 0.5174144776869337,1.2416063883217998 l -53.12858028931032 21.606931084812064" fill="#45ffeb" stroke="none" /><path d="M 119.58574465831526 92.42381321644754 l 53.49913681265621 -20.6946154114916 a78.36222403924775,78.36222403924775 0 0,0 0.47453668789765424,1.258764942998579 l -53.84650418436831 19.77318218829886" fill="#45ffeb" stroke="none" /><path d="M 119.94978838288452 93.4421083053983 l 21.949660873270165 -7.215289504706486 a44.105151267375305,44.105151267375305 0 0,0 0.23026099023265512,0.7212892723305832 l -22.070286579280076 6.8374311986845155" fill="#ffbc11" stroke="none" /><path d="M 120.26092885502905 94.47779374421319 l 55.33790353127451 -15.082591684175432 a78.35650040883075,78.35650040883075 0 0,0 0.34256909451710077,1.3007906500780562 l -55.588662106596345 14.130420529724576" fill="#45ffeb" stroke="none" /><path d="M 120.35273937422433 94.82641323984039 l 55.57312989884277 -14.126472303251845 a78.34047424366312,78.34047424366312 0 0,0 0.3201233270826435,1.3062124168503906 l -55.80744075244171 13.170404061793358" fill="#44ffeb" stroke="none" /><path d="M 120.43855184770803 95.1765574152323 l 55.815239600244055 -13.17224456863955 a78.34848732624694,78.34848732624694 0 0,0 0.29768372866768267,1.3116494348438934 l -56.033134190469404 12.212160799856631" fill="#44ffeb" stroke="none" /><line stroke="#e1ed5e" stroke-width="0.3" x1="184.99686870605535" x2="189.99668451229388" y1="99.2704041080226" y2="99.22748670261217" /><path d="M 185.99683186730306 99.26182062694052 a86.0,86.0 0 0,1 -10.086455211305974,41.156179273409016" fill="none" id="id52" stroke="none" /><text fill="#e1ed5e" style="font-size:6.75px; font-family:Arial;" text-anchor="middle"><textPath startOffset="21.40746469413373" xlink:href="#id52">April</textPath></text><path d="M 120.99922638620191 99.81974689727618 l 57.323481001265705 -0.4920531413575289 a78.32559280457892,78.32559280457892 0 0,0 0.0,1.3446124881627046 l -57.323481001265705 -0.492053141357522" fill="#44ffeb" stroke="none" /><path d="M 120.86939407059847 102.33845913500097 l 62.6081822117954 7.015377405002943 a84.0,84.0 0 0,0 -0.17287165496134538,1.4316252923063657 l -62.478528470574396 -8.089096374232717" fill="#4dd2ff" stroke="none" /><path d="M 120.82617615685814 102.69636545807757 l 57.5685687061475 7.453403781908624 a79.04905968928864,79.04905968928864 0 0,0 -0.18578593127718504,1.3442544495635393 l -57.432138258315106 -8.44054653967225" fill="#46fff4" stroke="none" /><path d="M 120.7213421655516 103.40968896794604 l 61.56085414907214 10.129815123577377 a83.38871627146362,83.38871627146362 0 0,0 -0.2445480624126846,1.4104882378777241 l -61.37789126916722 -11.18509639437569" fill="#4cd9ff" stroke="none" /><path d="M 119.71291397450082 107.23885506374661 l 53.83575852398429 19.76923623296294 a78.35077677841375,78.35077677841375 0 0,0 -0.47446736692944197,1.2585810608945651 l -53.4884604732404 -20.690485574051664" fill="#45ffeb" stroke="none" /><path d="M 119.16976305983485 108.57439118712176 l 50.639732223638966 22.650508112243546 a76.47457072771874,76.47457072771874 0 0,0 -0.5463035072713615,1.193771755473726 l -50.24344425151254 -23.51646884993196" fill="#42ffd4" stroke="none" /><path d="M 118.8641267826498 109.22738970284198 l 56.24173073045782 27.510648809334345 a83.60964840556008,83.60964840556008 0 0,0 -0.6417243041116533,1.2838784822925138 l -55.76118651313443 -28.472059147790606" fill="#4cd6ff" stroke="none" /><path d="M 118.70294669586154 109.54985784667822 l 54.35731856000273 27.755234167966364 a82.03336058871628,82.03336058871628 0 0,0 -0.6511571088098767,1.248679614426008 l -53.87285338221791 -28.684260025496876" fill="#4ae8ff" stroke="none" /><line stroke="#e1ed5e" stroke-width="0.3" x1="174.33088141563837" x2="178.70328620479359" y1="141.23008692659167" y2="143.65538615756765" /><path d="M 175.20536237346943 141.71514677278685 a86.0,86.0 0 0,1 -30.301960400862466,31.631185727798858" fill="none" id="id53" stroke="none" /><text fill="#e1ed5e" style="font-size:6.75px; font-family:Arial;" text-anchor="middle"><textPath startOffset="22.145653131862474" xlink:href="#id53">May</textPath></text><line stroke="#e1ed5e" stroke-width="0.3" x1="143.1302829299769" x2="145.66735839644613" y1="173.24464959558577" y2="177.55315839532614" /><path d="M 143.63769802327073 174.10635135553383 a86.0,86.0 0 0,1 -40.68552437913181,11.842963189579606" fill="none" id="id54" stroke="none" /><text fill="#e1ed5e" style="font-size:6.75px; font-family:Arial;" text-anchor="middle"><textPath startOffset="21.407464694133747" xlink:href="#id54">June</textPath></text><line stroke="#e1ed5e" stroke-width="0.3" x1="101.45913802915013" x2="101.54496967792366" y1="184.9874750549273" y2="189.98673829345242" /><path d="M 101.47630435890484 185.9873277026323 a86.0,86.0 0 0,1 -42.54439059252881,-10.42667462771756" fill="none" id="id55" stroke="none" /><text fill="#e1ed5e" style="font-size:6.75px; font-family:Arial;" text-anchor="middle"><textPath startOffset="22.145653131862474" xlink:href="#id55">July</textPath></text><line stroke="#e1ed5e" stroke-width="0.3" x1="58.13341422392154" x2="55.670673884152215" y1="173.97424548756322" y2="178.32567169271397" /><path d="M 57.64086615596767 174.84453072859336 a86.0,86.0 0 0,1 -31.369924170532244,-30.572349798747897" fill="none" id="id56" stroke="none" /><text fill="#e1ed5e" style="font-size:6.75px; font-family:Arial;" text-anchor="middle"><textPath startOffset="22.145653131862474" xlink:href="#id56">August</textPath></text><line stroke="#e1ed5e" stroke-width="0.3" x1="26.387840678322732" x2="22.057713659400548" y1="142.50000000000003" y2="145.00000000000006" /><path d="M 25.521815274538298 143.00000000000003 a86.0,86.0 0 0,1 -11.493303480769221,-40.785679425670985" fill="none" id="id57" stroke="none" /><text fill="#e1ed5e" style="font-size:6.75px; font-family:Arial;" text-anchor="middle"><textPath startOffset="21.40746469413373" xlink:href="#id57">September</textPath></text><line stroke="#e1ed5e" stroke-width="0.3" x1="15.003131293944662" x2="10.003315487706104" y1="100.72959589197737" y2="100.7725132973878" /><path d="M 14.003168132696942 100.73817937305945 a86.0,86.0 0 0,1 10.791469493833615,-42.45332614584628" fill="none" id="id58" stroke="none" /><text fill="#e1ed5e" style="font-size:6.75px; font-family:Arial;" text-anchor="middle"><textPath startOffset="22.145653131862435" xlink:href="#id58">October</textPath></text><line stroke="#e1ed5e" stroke-width="0.3" x1="26.387840678322718" x2="22.05771365940052" y1="57.49999999999999" y2="54.99999999999999" /><path d="M 25.521815274538284 56.99999999999999 a86.0,86.0 0 0,1 29.574782752854787,-30.34633250058573" fill="none" id="id59" stroke="none" /><text fill="#e1ed5e" style="font-size:6.75px; font-family:Arial;" text-anchor="middle"><textPath startOffset="21.40746469413373" xlink:href="#id59">November</textPath></text><line stroke="#e1ed5e" stroke-width="0.3" x1="56.869717070023135" x2="54.33264160355391" y1="26.7553504044142" y2="22.446841604673864" /><path d="M 56.362301976729285 25.89364864446614 a86.0,86.0 0 0,1 42.16139366436587,-11.88097634709845" fill="none" id="id60" stroke="none" /><text fill="#e1ed5e" style="font-size:6.75px; font-family:Arial;" text-anchor="middle"><textPath startOffset="22.145653131862474" xlink:href="#id60">December</textPath></text></svg>