<?xml version="1.0" encoding="utf-8" ?>
<svg baseProfile="full" height="200mm" version="1.1" viewBox="0,0,200,200" width="200mm" xmlns="http://www.w3.org/2000/svg" xmlns:ev="http://www.w3.org/2001/xml-events" xmlns:xlink="http://www.w3.org/1999/xlink"><defs /><rect fill="#1a1a1a" height="200" width="200" x="0" y="0" /><text alignment-baseline="middle" fill="#e1ed5e" style="dominant-baseline: central; font-size:9.0px; font-family:Arial;" text-anchor="middle" x="100.0" y="100.0">2025</text><line stroke="#e1ed5e" stroke-width="0.3" x1="100.0" x2="100.0" y1="15.0" y2="10.0" /><path d="M 100.0 14.0 a86.0,86.0 0 0,1 42.46469731375804,11.215312516191453" fill="none" id="id61" stroke="none" /><text fill="#e1ed5e" style="font-size:6.75px; font-family:Arial;" text-anchor="middle"><textPath startOffset="22.20632615414155" xlink:href="#id61">January</textPath></text><path d="M 100.0 79.0 l 0.0 -4.950364469540268 a25.95036446954027,25.95036446954027 0 0,0 0.44669286598791463,0.003844826523528799 l -0.08521238671538628 4.949631019625299" fill="#ff2b04" stroke="none" /><path d="M 100.36148047927253 79.00311137660856 l 0.08468605635825335 -4.919058691321235 a25.919787610944653,25.919787610944653 0 0,0 0.4460343268572118,0.011519750733277991 l -0.16934701841033295 4.916872148445597" fill="#ff2b04" stroke="none" /><path d="M 100.72285384407766 79.0124445844662 l 0.16768691627906793 -4.868672245019992 a25.871559127355347,25.871559127355347 0 0,0 0.44494051234408805,0.019160074418766448 l -0.25146826101248754 4.8650644440770305" fill="#ff2a04" stroke="none" /><path d="M 101.08401301168833 79.027996857942 l 0.25666143785113776 -4.965534936407938 a25.972163744122632,25.972163744122632 0 0,0 0.4462734453633964,0.026920432944235725 l -0.34209693205414604 4.960381234083398" fill="#ff2c04" stroke="none" /><path d="M 101.44485096284872 79.0497635885617 l 0.3550446917041352 -5.148122830026921 a26.160351287088087,26.160351287088087 0 0,0 0.4489736787425739,0.03484899849114066 l -0.4436085598090503 5.141248569347315" fill="#ff2e04" stroke="none" /><path d="M 101.80526077348638 79.07773832637324 l 0.426552113753475 -4.943571074307268 a25.9619393056017,25.9619393056017 0 0,0 0.44490712419496214,0.0422492923380443 l -0.5115843650386814 4.935496237454046" fill="#ff2b04" stroke="none" /><path d="M 102.16513564639614 79.11191278185805 l 0.511683813809149 -4.936455666760344 a25.962903875273486,25.962903875273486 0 0,0 0.4441304545511725,0.04990323143142177 l -0.5965809718700467 4.9269164818583215" fill="#ff2b04" stroke="none" /><path d="M 102.52436894288641 79.15227682838746 l 0.5998739244474218 -4.954111620644916 a25.99029765395221,25.99029765395221 0 0,0 0.4436732814589976,0.05760152544181619 l -0.6850619344142655 4.943051772038963" fill="#ff2c04" stroke="none" /><path d="M 102.88285421437855 79.19881850522331 l 1.080876673541975 -7.799045733106467 a28.87358931685501,28.87358931685501 0 0,0 0.491718627908149,0.07246654376519902 l -1.21496428187878 7.779284705180299" fill="#ff5507" stroke="none" /><path d="M 103.2404852339499 79.25152402106235 l 0.7647928369649799 -4.896885701061885 a25.956248344538164,25.956248344538164 0 0,0 0.4408493191763302,0.07274391500682151 l -0.8489713622801853 4.882995523115438" fill="#ff2b04" stroke="none" /><path d="M 103.59715602781102 79.31037775812273 l 0.8687652180692919 -4.996843072629719 a26.07180379121813,26.07180379121813 0 0,0 0.44148860141928825,0.0806792199852524 l -0.954648940591481 4.981148371293728" fill="#ff2d04" stroke="none" /><path d="M 103.95276090670814 79.375362276772 l 0.9490388053212737 -4.951875918378612 a26.04199858835994,26.04199858835994 0 0,0 0.43953138401545083,0.08816586073691987 l -1.0341365988038498 4.934806101564483" fill="#ff2d04" stroke="none" /><path d="M 104.307194497241 79.44645832069477 l 1.0595982953653085 -5.056307009368155 a26.166138705118804,26.166138705118804 0 0,0 0.4400362983105098,0.09617489118982706 l -1.1464773178293455 5.037318620082457" fill="#ff2e04" stroke="none" /><path d="M 104.66035177308747 79.52364482259891 l 1.0969227146669462 -4.819588778123292 a25.942840826100337,25.942840826100337 0 0,0 0.4345750902630325,0.10284988330721986 l -1.1797214918925027 4.799992982675203" fill="#ff2b04" stroke="none" /><path d="M 105.01212808612495 79.60689891045804 l 1.264809514569005 -5.146194958788846 a26.299345776792453,26.299345776792453 0 0,0 0.43868700280997247,0.11183108478983356 l -1.3532054060640024 5.123660877830145" fill="#ff3004" stroke="none" /><path d="M 105.36241919743992 79.69619591428918 l 1.3300526379223907 -5.035997222475934 a26.208676227644567,26.208676227644567 0 0,0 0.43519146291581007,0.11895426626764234 l -1.4165419900619116 5.012356415381998" fill="#ff2f04" stroke="none" /><path d="M 105.71112130821622 79.79150937346287 l 1.3139476248187234 -4.6493318609272 a25.831433029009048,25.831433029009048 0 0,0 0.42684571196610965,0.12460796820301016 l -1.3937835545082602 4.626025563805486" fill="#ff2a04" stroke="none" /><path d="M 106.0581310904928 79.89281104454417 l 1.5042255063907752 -4.992586993715127 a26.214270731740925,26.214270731740925 0 0,0 0.43093093811039385,0.13389234013522 l -1.5899418172118873 4.965954518697387" fill="#ff2f04" stroke="none" /><path d="M 106.40334571778207 80.00007090966166 l 1.505618253818006 -4.702582000196791 a25.937728606839872,25.937728606839872 0 0,0 0.4240413229877323,0.13979975724680355 l -1.5863423990481558 4.67596851869075" fill="#ff2b04" stroke="none" /><path d="M 106.74666289553966 80.11325718540242 l 1.5870241503868483 -4.677978077156322 a25.9398506601178,25.9398506601178 0 0,0 0.42160656391473217,0.14709025168796086 l -1.667312718364854 4.649966972296153" fill="#ff2b04" stroke="none" /><path d="M 107.08798089147638 80.2323363322302 l 0.7388031850868654 -2.0604475524245136 a23.18889795618404,23.18889795618404 0 0,0 0.3745754301235145,0.13795929208658236 l -0.7741609409829563 2.047424992531606" fill="#ff0300" stroke="none" /><path d="M 107.4271985657038 80.35727306442388 l 1.8574336030361367 -4.912358373435352 a26.251792491973404,26.251792491973404 0 0,0 0.4212998104157324,0.1634577811560422 l -1.941716578451536 4.8796578883887625" fill="#ff3004" stroke="none" /><path d="M 107.76421540070413 80.48803036053334 l 1.8237450016609371 -4.583187774428579 a25.932712844546582,25.932712844546582 0 0,0 0.4133379664001025,0.16861093479286193 l -1.9023668376494272 4.551115953452137" fill="#ff2b04" stroke="none" /><path d="M 108.09893153111575 80.62456947434976 l 2.0256473808741724 -4.846045425474283 a26.252371233776476,26.252371233776476 0 0,0 0.41543282654772495,0.17786665577322705 l -2.108763965212213 4.810459241738265" fill="#ff3004" stroke="none" /><path d="M 108.43124777332544 80.76684994638697 l 1.9652442462788857 -4.48306567389293 a25.894901713412573,25.894901713412573 0 0,0 0.40669531550612753,0.18247233318370004 l -2.0421216802517934 4.448573010192699" fill="#ff2a04" stroke="none" /><path d="M 108.76106565485865 80.91482961587045 l 2.207835063885838 -4.809564273833377 a26.29211150425406,26.29211150425406 0 0,0 0.40968341691106813,0.19235185749462147 l -2.290296692096504 4.770847433698752" fill="#ff3004" stroke="none" /><path d="M 109.08828744355905 81.06846463323043 l 2.1439831970486902 -4.466066238854785 a25.954029834293053,25.954029834293053 0 0,0 0.40108706752840845,0.1968116821341805 l -2.2205415315875303 4.428499396585773" fill="#ff2b04" stroke="none" /><path d="M 109.41281617654863 81.2277094730956 l 2.273936562574887 -4.5349868723409035 a26.07315418875863,26.07315418875863 0 0,0 0.39946494836735225,0.20462146185652896 l -2.351661998530995 4.495172885171874" fill="#ff2d04" stroke="none" /><path d="M 109.73455568895987 81.39251694778311 l 3.842650134342662 -7.3451783044881855 a29.28960821629633,29.28960821629633 0 0,0 0.4447207935719601,0.23755444626972747 l -3.968515974442933 7.277945131716704" fill="#ff5b08" stroke="none" /><path d="M 110.05341064243156 81.56283822128135 l 2.4272129154262085 -4.451316949516818 a26.070067565808912,26.070067565808912 0 0,0 0.3921383971573087,0.21822459345880799 l -2.5034754016555523 4.408876958497831" fill="#ff2d04" stroke="none" /><path d="M 110.36928655335952 81.73862282372117 l 3.522049777924138 -6.202690908128458 a28.13289626589052,28.13289626589052 0 0,0 0.41905056558021514,0.24274113542649342 l -3.6282970759696815 6.141145615311915" fill="#ff4b06" stroke="none" /><line stroke="#e1ed5e" stroke-width="0.3" x1="143.23703022742887" x2="145.7803849466894" y1="26.81831364943548" y2="22.513508569990506" /><path d="M 143.74570117128098 25.957352633546492 a86.0,86.0 0 0,1 28.547481713284135,27.462654790039103" fill="none" id="id62" stroke="none" /><text fill="#e1ed5e" style="font-size:6.75px; font-family:Arial;" text-anchor="middle"><textPath startOffset="19.985693538727396" xlink:href="#id62">February</textPath></text><path d="M 110.68208982089419 81.91981866633111 l 2.1665078051970594 -3.666965419271566 a25.2591538427384,25.2591538427384 0 0,0 0.37243772404554,0.2243895615033006 l -2.2293075954602366 3.6291292483096513" fill="#ff2103" stroke="none" /><path d="M 110.99172775467656 82.1063720568725 l 2.5760023879691922 -4.193519830521408 a25.921523836353867,25.921523836353867 0 0,0 0.37818373546593714,0.2368186204541273 l -2.6478052758073924 4.148556868744337" fill="#ff2b04" stroke="none" /><path d="M 111.2981086023043 82.29822771554956 l 2.756679616176322 -4.319140180400367 a26.123890553494576,26.123890553494576 0 0,0 0.37697144059578136,0.24519271110631066 l -2.830618082556384 4.271048545134528" fill="#ff2e04" stroke="none" /><path d="M 111.90073688211348 82.69761687909136 l 2.9634637053571877 -4.308555419964177 a26.229318018620788,26.229318018620788 0 0,0 0.3697944902510032,0.25906467242985565 l -3.037189335191842 4.256905904770385" fill="#ff2f04" stroke="none" /><path d="M 112.48926042617603 83.11751280151076 l 3.0439872523429656 -4.11474131104969 a26.118296049398218,26.118296049398218 0 0,0 0.35913135435909366,0.2704902905294799 l -3.1143647604604423 4.061734431014363" fill="#ff2e04" stroke="none" /><path d="M 112.77801427241765 83.33499621200491 l 3.1614356109191273 -4.123123930546494 a26.195654537075455,26.195654537075455 0 0,0 0.35547184473126997,0.27745141321372474 l -3.2319400108098275 4.068094128109543" fill="#ff2f04" stroke="none" /><path d="M 113.06298171725822 83.55741782278167 l 3.2551002975298244 -4.097246348168029 a26.232886926406398,26.232886926406398 0 0,0 0.35114168385023,0.2839321547396077 l -3.3251453799445456 4.040608096164293" fill="#ff2f04" stroke="none" /><path d="M 113.34407831869373 83.78471172551755 l 3.2370076671584167 -3.9335060253769476 a26.094181807603565,26.094181807603565 0 0,0 0.3443717055807544,0.2884013998238115 l -3.3042369096982886 3.877203468159317" fill="#ff2d04" stroke="none" /><path d="M 113.6212207817346 84.01681056812373 l 3.3632981189224416 -3.9465061033806146 a26.185237184620167,26.185237184620167 0 0,0 0.34054050757262444,0.29531337242509165 l -3.43073242514183 3.8880277375358494" fill="#ff2f04" stroke="none" /><path d="M 113.89432698308785 84.25364557470405 l 3.4833195025143944 -3.9476243455260573 a26.264717725575338,26.264717725575338 0 0,0 0.33642478486060023,0.3020454935771957 l -3.5507552749709848 3.8870798431795666" fill="#ff3004" stroke="none" /><path d="M 114.42810811169701 84.74124197986012 l 3.4970557825008965 -3.698387034184477 a26.089937701047706,26.089937701047706 0 0,0 0.3236602830586205,0.3113609358666867 l -3.560199309171935 3.6376430115554883" fill="#ff2d04" stroke="none" /><path d="M 114.68862486808459 84.99185889309783 l 3.5181669763702117 -3.5946963649220653 a26.029845010495436,26.029845010495436 0 0,0 0.31751973423248453,0.31615620358625385 l -3.579522510770019 3.533604310685695" fill="#ff2c04" stroke="none" /><path d="M 114.94478906791727 85.2469230424477 l 3.663405771387536 -3.6164115148366944 a26.14771542438769,26.14771542438769 0 0,0 0.31344354261141943,0.3230311231263164 l -3.7251135777020647 3.5528161961602613" fill="#ff2e04" stroke="none" /><path d="M 115.19652480421416 85.50635884689758 l 1.4452893445491484 -1.3784404916372053 a22.997237962400156,22.997237962400156 0 0,0 0.27074612993936786,0.2888130941913299 l -1.4688027964589792 1.3533579805678206" fill="#ff0000" stroke="none" /><path d="M 115.4437574822437 85.77008943001954 l 3.56546097548622 -3.285223228884399 a25.84821654129813,25.84821654129813 0 0,0 0.29867781535617954,0.32980750363304623 l -3.6214824314584355 3.223362937981804" fill="#ff2a04" stroke="none" /><path d="M 115.68641384162765 86.03803664274999 l 3.692524384334666 -3.286595054187562 a25.94332311093623,25.94332311093623 0 0,0 0.2940343802967493,0.3361321256612521 l -3.748550628209261 3.2225473723233624" fill="#ff2b04" stroke="none" /><path d="M 115.92442197804982 86.31012108654704 l 2.23469177531365 -1.9211158719042962 a23.94695326124068,23.94695326124068 0 0,0 0.2660271445317838,0.31489222984484255 l -2.267429533332553 1.8823646924303472" fill="#ff0e01" stroke="none" /><path d="M 116.15771136456269 86.58626213691792 l 3.8781268088600642 -3.2195262831548797 a26.040358819917905,26.040358819917905 0 0,0 0.28334577415345846,0.34734841593068183 l -3.932971075089932 3.152293697616097" fill="#ff2d04" stroke="none" /><path d="M 116.38621287248628 86.86637796730983 l 3.8110418215898707 -3.0545668620953226 a25.88409853308857,25.88409853308857 0 0,0 0.27566061973471523,0.35006099328886453 l -3.86305652191855 2.9885134748534194" fill="#ff2a04" stroke="none" /><path d="M 116.60985879189232 87.15038557335679 l 3.9018129692995034 -3.018495993767718 a25.933098672415298,25.933098672415298 0 0,0 0.27010441067616126,0.3554257431666895 l -3.9531933201997758 2.950885474719995" fill="#ff2b04" stroke="none" /><path d="M 116.82858285166822 87.43820079747576 l 3.98542611089495 -2.974945839637153 a25.973321227728775,25.973321227728775 0 0,0 0.26435570588376467,0.36058088573654123 l -4.036044429292343 2.9059025102291183" fill="#ff2c04" stroke="none" /><path d="M 117.04232023915458 87.72973835380427 l 3.998392424434126 -2.87879352831639 a25.926925426515865,25.926925426515865 0 0,0 0.25764867351427106,0.3644257768467288 l -4.04735371775228 2.809541251137868" fill="#ff2b04" stroke="none" /><path d="M 117.2510076193507 88.02491185347247 l 4.207650445781664 -2.9208140237264457 a26.12205787111818,26.12205787111818 0 0,0 0.2532291375688168,0.37158251254786956 l -4.257304049019214 2.8479534879081694" fill="#ff2e04" stroke="none" /><path d="M 117.45458315368197 88.32363383020206 l 4.111631165567218 -2.7505045879132703 a25.94679556175466,25.94679556175466 0 0,0 0.24513959719677073,0.373364424591739 l -4.158367398121913 2.6793220993438576" fill="#ff2b04" stroke="none" /><path d="M 117.65298651832404 88.62581576622439 l 4.339589025007018 -2.7960869407601305 a26.16237688339884,26.16237688339884 0 0,0 0.24065948716597124,0.3806655141957138 l -4.3870761084189445 2.720973778850211" fill="#ff2e04" stroke="none" /><line stroke="#e1ed5e" stroke-width="0.3" x1="172.23445277983987" x2="176.4835382374775" y1="55.19839476539836" y2="52.563006222186495" /><path d="M 173.08426987136738 54.67131705675599 a86.0,86.0 0 0,1 12.851231095245387,41.99856678651699" fill="none" id="id63" stroke="none" /><text fill="#e1ed5e" style="font-size:6.75px; font-family:Arial;" text-anchor="middle"><textPath startOffset="22.20632615414155" xlink:href="#id63">March</textPath></text><path d="M 117.84615892207809 88.93136811851018 l 4.1283763289314575 -2.560521737631015 a25.857958694983164,25.857958694983164 0 0,0 0.2313477108264146,0.38027480781385525 l -4.171839838044096 2.4890791566100785" fill="#ff2a04" stroke="none" /><path d="M 118.03404312379186 89.2402003453031 l 4.499116051214462 -2.6843446587101196 a26.239060172305827,26.239060172305827 0 0,0 0.22808031359263692,0.3898631892497317 l -4.544656039277426 2.6065020571064923" fill="#ff2f04" stroke="none" /><path d="M 118.21658344932153 89.55222093294921 l 3.640912508388435 -2.0881769403098938 a25.197228469809733,25.197228469809733 0 0,0 0.21254745162074073,0.3780981997513108 l -3.6763176013016086 2.025195230623789" fill="#ff2003" stroke="none" /><path d="M 118.3937258080291 89.86733742301442 l 4.547366791663781 -2.505035347085876 a26.19169980142113,26.19169980142113 0 0,0 0.21413822493358817,0.3967656088418807 l -4.589813115815834 2.4263887549115353" fill="#ff2f04" stroke="none" /><path d="M 118.56541770881063 90.18545643968196 l 4.417729233761059 -2.335417208623422 a25.997049641654712,25.997049641654712 0 0,0 0.20573640076719957,0.397417241701101 l -4.457275067688374 2.2590272446619775" fill="#ff2c04" stroke="none" /><path d="M 118.73160827565052 90.50648371742162 l 4.50984417293405 -2.2856702135553184 a26.055984848600836,26.055984848600836 0 0,0 0.19931586040787774,0.4018086121636201 l -4.548520046295336 2.207702012892748" fill="#ff2d04" stroke="none" /><path d="M 118.89224826269711 90.83032412892265 l 2.648740406606997 -1.2856114665383045 a23.944252466159682,23.944252466159682 0 0,0 0.17677905473630384,0.37234177355438763 l -2.670477655185057 1.2398272773433765" fill="#ff0e01" stroke="none" /><path d="M 119.04729006885535 91.15688171328212 l 4.679897481691752 -2.172744093816403 a26.159676088317838,26.159676088317838 0 0,0 0.18610452364685806,0.4100566487664186 l -4.716604322301957 2.091865436207921" fill="#ff2e04" stroke="none" /><path d="M 119.196687751892 91.48605970444005 l 4.767833424060302 -2.114586101324888 a26.215717586248605,26.215717586248605 0 0,0 0.1794020078706923,0.41408456898260493 l -4.803526141773675 2.0322023877556803" fill="#ff2f04" stroke="none" /><path d="M 119.34039704204932 91.81776055985345 l 4.737788909792605 -2.004391284858871 a26.14433943053644,26.14433943053644 0 0,0 0.17177865962381392,0.4159756496401254 l -4.771589256302616 1.9225410647654426" fill="#ff2e04" stroke="none" /><path d="M 119.47837535516314 92.15188598940014 l 2.273825604202481 -0.9161566227478989 a23.451453820844197,23.451453820844197 0 0,0 0.14763968856033544,0.375726903555409 l -2.2892588426445166 0.8768807142967056" fill="#ff0701" stroke="none" /><path d="M 119.7369772167798 92.82701384747503 l 4.925866209827347 -1.7902016972610664 a26.24108576861658,26.24108576861658 0 0,0 0.1506324783624895,0.4258583007184436 l -4.955951768999645 1.7051457701160082" fill="#ff2f04" stroke="none" /><path d="M 119.85752413597 93.16781622104841 l 4.993347606479214 -1.71801218953863 a26.280633125159806,26.280633125159806 0 0,0 0.14349564359628988,0.42903370988264694 l -5.022180543847274 1.6318053767336689" fill="#ff3004" stroke="none" /><path d="M 119.97218684219823 93.5106431181261 l 4.945856169235776 -1.6070060841197342 a26.200380928467204,26.200380928467204 0 0,0 0.13567370234070872,0.4301227126025472 l -4.972785355344691 1.5216332050907677" fill="#ff2f04" stroke="none" /><path d="M 120.08093135843002 93.85539295169968 l 5.044267876589491 -1.5435062943430096 a26.275135078030623,26.275135078030623 0 0,0 0.12861566374357145,0.4336280798719446 l -5.070089437444764 1.4564488277245349" fill="#ff3004" stroke="none" /><path d="M 120.18372546131832 94.20196356495316 l 5.05840827177858 -1.4530932616638415 a26.26298150016612,26.26298150016612 0 0,0 0.1210763835041402,0.43557617119166847 l -5.0826714258490835 1.365805787053221" fill="#ff3004" stroke="none" /><path d="M 120.28053869075195 94.5502522615342 l 5.033207530404812 -1.3525139432593454 a26.211762850594283,26.211762850594283 0 0,0 0.11333924833236338,0.4367423578137521 l -5.05574311060748 1.2656751598967428" fill="#ff2f04" stroke="none" /><path d="M 120.37134235888165 94.90015583598534 l 5.150528936988983 -1.2894042266900394 a26.309473758346208,26.309473758346208 0 0,0 0.10619906748126304,0.44026369647391267 l -5.1719608047310635 1.2005552985567205" fill="#ff3004" stroke="none" /><path d="M 120.45610955862082 95.25157060432595 l 5.031868270261916 -1.1680359425725602 a26.165656420282907,26.165656420282907 0 0,0 0.0980659060977351,0.4396102282443312 l -5.051228563361689 1.081247544778265" fill="#ff2e04" stroke="none" /><path d="M 120.53481517161879 95.60439243477599 l 5.2131764933630365 -1.1159135274197916 a26.33127303292857,26.33127303292857 0 0,0 0.09105693271932037,0.44402594215085145 l -5.231612721997354 1.0260119291055283" fill="#ff3104" stroke="none" /><path d="M 120.6074358757038 95.95851677861258 l 5.080450529943116 -0.9963663455122963 a26.177231256344342,26.177231256344342 0 0,0 0.08291236128856898,0.44292114936720783 l -5.096848615141544 0.9087671186825256" fill="#ff2f04" stroke="none" /><path d="M 120.67395015179393 96.31383870115 l 4.873409244283624 -0.8689279222324758 a25.95026801257309,25.95026801257309 0 0,0 0.0746232561109805,0.44043068174733174 l -4.887644361914828 0.7849114521693062" fill="#ff2b04" stroke="none" /><path d="M 120.73433829027371 96.67025291283417 l 5.090117655760055 -0.8174268308118102 a26.1553355247948,26.1553355247948 0 0,0 0.0675606098732302,0.4451400062973604 l -5.103434159072585 0.7296877121223677" fill="#ff2e04" stroke="none" /><path d="M 120.78858239683441 97.02765380044208 l 5.161776035533252 -0.7380294187121996 a26.214270731740925,26.214270731740925 0 0,0 0.06002319136015084,0.4472424942539944 l -5.173715225951239 0.6490685823935409" fill="#ff2f04" stroke="none" /><path d="M 120.83666639777658 97.38593545837742 l 2.0025679342151728 -0.2512322138814322 a23.018265581245092,23.018265581245092 0 0,0 0.0459374945228391,0.39356439951655114 l -2.006595781741601 0.21672407604002833" fill="#ff0000" stroke="none" /><path d="M 120.91429891909075 98.10471618934814 l 3.189398483999929 -0.28902787207105013 a24.202467767296802,24.202467767296802 0 0,0 0.03402811207959422,0.41522915741831445 l -3.1939010798990184 0.23408479744496688" fill="#ff1202" stroke="none" /><path d="M 120.94382443527127 98.46500227214037 l 5.222159577190993 -0.3827382678021754 a26.23616646329047,26.23616646329047 0 0,0 0.029133899820652755,0.45068853525621616 l -5.227974068016062 0.292790668292924" fill="#ff2f04" stroke="none" /><path d="M 120.96714384426684 98.82574320788733 l 5.244731321176876 -0.29372915178344566 a26.252949975579547,26.252949975579547 0 0,0 0.0213853927289849,0.4514118406935126 l -5.249010322139357 0.20340620446693333" fill="#ff3004" stroke="none" /><path d="M 120.98425023603335 99.18683210126433 l 5.321202406666843 -0.20620374476597908 a26.32519624399632,26.32519624399632 0 0,0 0.013649370486654138,0.4529561560881504 l -5.323963471609142 0.1145774412528296" fill="#ff3104" stroke="none" /><line stroke="#e1ed5e" stroke-width="0.3" x1="184.98032266829074" x2="189.97916517819016" y1="98.17113171792111" y2="98.06355123074" /><path d="M 185.9800911702706 98.14961562048488 a86.0,86.0 0 0,1 -9.607161424134198,41.387399972396054" fill="none" id="id64" stroke="none" /><text fill="#e1ed5e" style="font-size:6.75px; font-family:Arial;" text-anchor="middle"><textPath startOffset="21.466115282336823" xlink:href="#id64">April</textPath></text><path d="M 120.99980553446 99.90962569577887 l 5.276340157849671 -0.022707142207444905 a26.276389018603947,26.276389018603947 0 0,0 -0.001946583315157877,0.4523174084408624 l -5.27594927724501 -0.06811974443710217" fill="#ff3004" stroke="none" /><path d="M 120.99824983174949 100.27111621757518 l 5.229267995935614 0.06751702504279196 a26.229703846489503,26.229703846489503 0 0,0 -0.009714904395657819,0.45141343328240496 l -5.227331028854949 -0.15752027411531178" fill="#ff2f04" stroke="none" /><path d="M 120.9904718944345 100.63252640178507 l 7.114715886667198 0.21439468641531076 a28.117945435977838,28.117945435977838 0 0,0 -0.01874244117666358,0.48365912660447025 l -7.10997131263933 -0.33683106003378716" fill="#ff4a06" stroke="none" /><path d="M 120.9764740272857 100.99374915477107 l 3.169975420185198 0.15017587752624367 a24.17353067714322,24.17353067714322 0 0,0 -0.02326834604368187,0.41547194940068066 l -3.1669207232539867 -0.20471954326234768" fill="#ff1101" stroke="none" /><path d="M 120.89721153311464 102.0752229133903 l 5.044867223014508 0.5009866526747554 a26.0696817379402,26.0696817379402 0 0,0 -0.04818881169842364,0.446168547805171 l -5.035496109815033 -0.5877515223647178" fill="#ff2d04" stroke="none" /><path d="M 120.76222939487914 103.15116336523771 l 8.465250918386248 1.2848036722945977 a29.56219560554306,29.56219560554306 0 0,0 -0.0806882471113408,0.5024457917852657 l -8.441880916913618 -1.4303286937730686" fill="#ff5f08" stroke="none" /><path d="M 120.70491114924044 103.5080841355445 l 5.140810378233833 0.8710201749591289 a26.21407781780657,26.21407781780657 0 0,0 -0.07920840468272301,0.4442427981989348 l -5.12505553121192 -0.9593817238912821" fill="#ff2f04" stroke="none" /><path d="M 120.5718875245553 104.21870165774334 l 5.070080283912953 1.0397274471340836 a26.175591487902306,26.175591487902306 0 0,0 -0.09431434723278158,0.44060523140862967 l -5.051431897955728 -1.1268464979588824" fill="#ff2f04" stroke="none" /><path d="M 120.13307415673323 105.97154293290107 l 5.044881859566727 1.4963302862390442 a26.26211338746151,26.26211338746151 0 0,0 -0.1322775473238907,0.43229067818214145 l -5.018377539736704 -1.5829479369732429" fill="#ff3004" stroke="none" /><path d="M 119.9155931802556 106.66101706037122 l 4.965047291678519 1.6606216252804624 a26.23539480755304,26.23539480755304 0 0,0 -0.14692966586631384,0.4270463852595648 l -4.935726794868975 -1.7458407136293277" fill="#ff2f04" stroke="none" /><path d="M 119.54520255179757 107.68017299344265 l 8.095084182273684 3.18091596910185 a29.69762118746182,29.69762118746182 0 0,0 -0.19105099929525543,0.47417291227240965 l -8.039130568721037 -3.319788249217073" fill="#ff6108" stroke="none" /><line stroke="#e1ed5e" stroke-width="0.3" x1="174.80103733775053" x2="179.2010983576182" y1="140.37084112569926" y2="142.7455964860345" /><path d="M 175.68104954172406 140.8457921977663 a86.0,86.0 0 0,1 -30.038265399797805,32.042727171017184" fill="none" id="id65" stroke="none" /><text fill="#e1ed5e" style="font-size:6.75px; font-family:Arial;" text-anchor="middle"><textPath startOffset="22.206326154141568" xlink:href="#id65">May</textPath></text><path d="M 118.48025628344425 109.97397251340804 l 4.5985532258222594 2.4818835178646617 a26.225556196900822,26.225556196900822 0 0,0 -0.21782646076165316,0.39541829825494945 l -4.5551503556091 -2.5606723345174163" fill="#ff2f04" stroke="none" /><path d="M 118.30583269289576 110.29060199501025 l 4.444161920548573 2.4982803182449103 a26.098233000225065,26.098233000225065 0 0,0 -0.2235102432876434,0.3897089489064849 l -4.400499681108547 -2.57440911300971" fill="#ff2d04" stroke="none" /><path d="M 117.94076556474637 110.91462005526583 l 4.405965537840806 2.6804563968342108 a26.15726466413837,26.15726466413837 0 0,0 -0.2373278022896222,0.38264798410823164 l -4.359173095883221 -2.7559007123077137" fill="#ff2e04" stroke="none" /><path d="M 117.14729908036423 112.12312394758627 l 11.489544413278855 8.123096842871316 a35.07104591504744,35.07104591504744 0 0,0 -0.35274826665624226,0.4899364901502525 l -11.34801635424701 -8.3196669384727" fill="#ffaa0f" stroke="none" /><path d="M 116.93607887273984 112.41649034213515 l 4.1927582822832985 3.0738722410340182 a26.19883761699235,26.19883761699235 0 0,0 -0.26977159335044754,0.3614031347366454 l -4.139225422237759 -3.1455882552799785" fill="#ff2f04" stroke="none" /><path d="M 116.27256486870786 113.27417163493432 l 4.025058126696941 3.2833983361225982 a26.194400596502135,26.194400596502135 0 0,0 -0.2880186608630141,0.34693703107473356 l -3.9679434659403836 -3.352196624311102" fill="#ff2f04" stroke="none" /><path d="M 116.0416608686014 113.55231037782055 l 32.914287045103215 27.80663657919651 a64.08780952351789,64.08780952351789 0 0,0 -0.71917963616277,0.8365683930938179 l -32.43076489936967 -28.369082071451857" fill="#34ff5b" stroke="none" /><path d="M 115.07121518719521 114.62390073753431 l 18.135134040507072 17.596882320118393 a46.26921751964737,46.26921751964737 0 0,0 -0.5595476933551956,0.5668188591907456 l -17.82954572209634 -17.9064416732898" fill="#c9ff1d" stroke="none" /><path d="M 113.75828350139079 115.86535959552629 l 41.27485050417237 47.59607878657886 a84.0,84.0 0 0,0 -1.100538093691811,0.9379024391082127 l -40.449446933903516 -48.299505615910014" fill="#4dd2ff" stroke="none" /><path d="M 113.48314897796784 116.09983520530334 l 3.173016873322217 3.788806965465572 a25.941972713395728,25.941972713395728 0 0,0 -0.34481807184701335,0.28376179803528034 l -3.1073286729305125 -3.8428638823580306" fill="#ff2b04" stroke="none" /><path d="M 113.20401910651253 116.32954008644616 l 3.282360400266856 4.05932733828631 a26.22034752067318,26.22034752067318 0 0,0 -0.35340347162255825,0.28076509144757983 l -3.2119994359269466 -4.115226343739016" fill="#ff2f04" stroke="none" /><path d="M 112.92097659922987 116.55440617244103 l 3.20351260236257 4.104352979108747 a26.206554174366637,26.206554174366637 0 0,0 -0.35799559608593795,0.27449575736334914 l -3.1323882777831384 -4.158888078299468" fill="#ff2f04" stroke="none" /><path d="M 112.63410532772338 116.77436683061366 l 3.1307634144725687 4.156730738898371 a26.203853379285636,26.203853379285636 0 0,0 -0.3626301726175571,0.2682651324394379 l -3.058748271436447 -4.210005820077578" fill="#ff2f04" stroke="none" /><path d="M 112.34349029814194 116.9893568818739 l 36.436296994802944 50.150260432564906 a82.98913098396824,82.98913098396824 0 0,0 -1.1629253968643456,0.8297163930783726 l -35.56764427008971 -50.7700210874875" fill="#4cdbff" stroke="none" /><path d="M 112.04921762599082 117.19931262002967 l 35.99512389673918 51.38021470882092 a83.73416459845578,83.73416459845578 0 0,0 -1.187602116547826,0.8168435648958445 l -35.10536489556847 -51.99219906308186" fill="#4dd4ff" stroke="none" /><path d="M 111.7513745106137 117.40417183066458 l 34.59820373939365 51.24107672416457 a82.82785493484562,82.82785493484562 0 0,0 -1.1884823019507098,0.7876612637738036 l -33.711046738702976 -51.82903600902969" fill="#4cddff" stroke="none" /><line stroke="#e1ed5e" stroke-width="0.3" x1="143.8653032363475" x2="146.44561519142675" y1="172.8068346515853" y2="177.08958963109032" /><path d="M 144.38136562736335 173.6633856474863 a86.0,86.0 0 0,1 -40.68145358897372,12.25698825130547" fill="none" id="id66" stroke="none" /><text fill="#e1ed5e" style="font-size:6.75px; font-family:Arial;" text-anchor="middle"><textPath startOffset="21.466115282336833" xlink:href="#id66">June</textPath></text><path d="M 110.8373102113329 117.98757091392108 l 5.533202149940105 9.18390856331009 a31.72196355763916,31.72196355763916 0 0,0 -0.4701378215811483,0.2777657118392542 l -5.3742964573305745 -9.277792847443093" fill="#ff7d0b" stroke="none" /><path d="M 110.5260780823613 118.17145234162733 l 31.25251198478124 53.95205390308036 a83.35016941211775,83.35016941211775 0 0,0 -1.2476775491441032,0.7084638747878292 l -30.31918566871594 -54.48202094366282" fill="#4cd8ff" stroke="none" /><path d="M 110.21172684928248 118.3499491758327 l 30.111586836144152 54.108976493602725 a82.92325087538526,82.92325087538526 0 0,0 -1.2532356282638282,0.683363988116915 l -29.175728396011674 -54.61928113347941" fill="#4cdcff" stroke="none" /><path d="M 109.57404056367764 118.69057910512821 l 4.5018472914032674 8.788570756468445 a30.874492644007958,30.874492644007958 0 0,0 -0.4750938881042156,0.23822193828278473 l -4.349899495616291 -8.864760535660531" fill="#ff710a" stroke="none" /><path d="M 109.2508944713604 118.85261126421891 l 2.33514121714032 4.758838158849686 a26.30088908826731,26.30088908826731 0 0,0 -0.4081488844855822,0.19593626771994313 l -2.252879664654505 -4.798328703069189" fill="#ff3004" stroke="none" /><path d="M 108.92500713936063 119.00905698771935 l 8.661837758634345 18.448541833217508 a41.380778423035764,41.380778423035764 0 0,0 -0.6473766700963935,0.29717887742069266 l -8.342993092770532 -18.594907780972278" fill="#fffa17" stroke="none" /><path d="M 108.2653958097858 119.30500536409082 l 3.800742430983903 8.877173544526636 a30.65659635515149,30.65659635515149 0 0,0 -0.486897611386149,0.20352324104797578 l -3.6473733601002927 -8.941281828594585" fill="#ff6e0a" stroke="none" /><path d="M 107.59598834532513 119.57807347666477 l 3.5136480405884396 9.056156537169525 a30.713891793655584,30.713891793655584 0 0,0 -0.4945372119895986,0.18699165770735504 l -3.357240607838566 -9.11529644498351" fill="#ff6f0a" stroke="none" /><path d="M 107.2578585660854 119.70592522655815 l 3.3955444939478383 9.21929592481397 a30.824720848943798,30.824720848943798 0 0,0 -0.4994785501878271,0.17909523750173525 l -3.236346383130276 -9.276378703355665" fill="#ff700a" stroke="none" /><path d="M 106.91757812671514 119.82793768551818 l 3.17826398063693 9.109896411986139 a30.648397512941308,30.648397512941308 0 0,0 -0.4996130526500584,0.16949587350057133 l -3.020981195049645 -9.163255272384832" fill="#ff6e0a" stroke="none" /><path d="M 105.88484417918355 120.15858648285463 l 2.7394297848139173 9.383941281949237 a30.77562425264989,30.77562425264989 0 0,0 -0.5098038314105182,0.1440756550494452 l -2.5774947852987933 -9.429705730337202" fill="#ff700a" stroke="none" /><path d="M 105.53697534728816 120.25689768951611 l 2.5672455386661794 9.392209095909678 a30.73675209487691,30.73675209487691 0 0,0 -0.511561362575867,0.13510800536515838 l -2.4051937332788147 -9.435008450578419" fill="#ff6f0a" stroke="none" /><path d="M 105.18746579009965 120.34920634021253 l 2.39575823717822 9.397995221991982 a30.69855513587418,30.69855513587418 0 0,0 -0.5131727115989551,0.12612536708098085 l -2.233632240836054 -9.437841847386993" fill="#ff6e0a" stroke="none" /><path d="M 104.48393922423573 120.51570834832081 l 2.0647068882353046 9.446810544365588 a30.66981095965496,30.66981095965496 0 0,0 -0.5167257616129889,0.10828490737647599 l -1.9017896651929378 -9.480951432468606" fill="#ff6e0a" stroke="none" /><path d="M 103.41894727170886 120.7198165907248 l 9.96646154194896 60.399660713246426 a82.21641421990046,82.21641421990046 0 0,0 -1.3983216467645323,0.21838908328750145 l -8.92530403157591 -60.56226810388103" fill="#4be3ff" stroke="none" /><path d="M 103.06178313531738 120.77559828337769 l 0.7316738247077913 4.964741389176109 a26.018366631401182,26.018366631401182 0 0,0 -0.44363967593920867,0.061484416631240664 l -0.6461055575817523 -4.976600371299953" fill="#ff2c04" stroke="none" /><path d="M 102.34483914955558 120.86867818915974 l 0.5717838825495105 5.088781395063093 a26.12080393054486,26.12080393054486 0 0,0 -0.44724712589905635,0.04635899328260548 l -0.4841041600448515 -5.097869756801457" fill="#ff2e04" stroke="none" /><path d="M 101.98527174616119 120.90594882070398 l 0.4805387373287042 5.060323992614725 a26.083089256378024,26.083089256378024 0 0,0 -0.4473320384066234,0.038597690548776584 l -0.3933623811805391 -5.067845935442165" fill="#ff2d04" stroke="none" /><path d="M 100.90346689309514 120.98055641714683 l 0.2125566044601072 4.936047868267393 a25.94062231585523,25.94062231585523 0 0,0 -0.44627709083870687,0.015370685353750309 l -0.12755916194674805 -4.938975352047238" fill="#ff2b04" stroke="none" /><line stroke="#e1ed5e" stroke-width="0.3" x1="102.19456741930631" x2="102.32365962044197" y1="184.97166512339345" y2="189.96999836594603" /><path d="M 102.22038585953345 185.97133177190398 a86.0,86.0 0 0,1 -42.740103519485714,-10.115201625700543" fill="none" id="id67" stroke="none" /><text fill="#e1ed5e" style="font-size:6.75px; font-family:Arial;" text-anchor="middle"><textPath startOffset="22.20632615414155" xlink:href="#id67">July</textPath></text><path d="M 100.54218724476979 120.99299961872073 l 0.2495822348478386 9.66359834456223 a30.66682079367242,30.66682079367242 0 0,0 -0.5278202484605209,0.009086904245931697 l -0.08320229649464973 -9.666462726087321" fill="#ff6e0a" stroke="none" /><path d="M 100.18074693466247 120.99922214144158 l 0.08322388181987611 9.668970514339833 a30.669328674819067,30.669328674819067 0 0,0 -0.5279416329646565,0.0 l 0.08322388181986945 -9.668970514339833" fill="#ff6e0a" stroke="none" /><path d="M 99.81925306533755 120.99922214144158 l -0.08307859597699972 9.652091170332556 a30.65244870556281,30.65244870556281 0 0,0 -0.5275728840803672,-0.009082645643797984 l 0.24921116995003487 -9.649231047409598" fill="#ff6e0a" stroke="none" /><path d="M 98.37488393609728 120.93702456842531 l -0.3893912857539913 5.0166847141879405 a26.03177414983901,26.03177414983901 0 0,0 -0.44645197044444607,-0.03852175458186706 l 0.475687573939979 -5.00923870732741" fill="#ff2c04" stroke="none" /><path d="M 98.01472825383883 120.90594882070398 l -0.9238092326090811 9.72819392325715 a30.7719588878971,30.7719588878971 0 0,0 -0.526885397841933,-0.05461382579072816 l 1.0911272270566075 -9.71085072901066" fill="#ff6f0a" stroke="none" /><path d="M 97.65516085044442 120.86867818915974 l -0.5643631533009531 5.0227381397522315 a26.054345080158804,26.054345080158804 0 0,0 -0.4452471409345212,-0.053913228088838853 l 0.6507377172868637 -5.012279382938044" fill="#ff2d04" stroke="none" /><path d="M 97.2962882734958 120.8252237178851 l -1.2513288906347129 9.638307159992427 a30.719196926850408,30.719196926850408 0 0,0 -0.523793624819357,-0.07259302358158036 l 1.4170511066409008 -9.615339570918243" fill="#ff6f0a" stroke="none" /><path d="M 96.93821686468263 120.77559828337769 l -1.4273876676795962 9.685477862978987 a30.79009279772668,30.79009279772668 0 0,0 -0.5236722335006507,-0.08178683300937532 l 1.5938957647887642 -9.659472722622505" fill="#ff700a" stroke="none" /><path d="M 96.58105272829116 120.7198165907248 l -5.652623963580011 34.2565481342374 a55.71978179290536,55.71978179290536 0 0,0 -0.9449836949950566,-0.16429752824362184 l 6.241456630047117 -34.15417202747277" fill="#60ff29" stroke="none" /><path d="M 95.86986931433489 120.58985236759428 l -1.1457215643823175 5.711741264478219 a26.825518532751733,26.825518532751733 0 0,0 -0.4519570242129425,-0.09471198871966054 l 1.2438700500246467 -5.6911732950320175" fill="#ff3805" stroke="none" /><path d="M 95.51606077576429 120.51570834832081 l -2.0644803368560405 9.445773986600123 a30.668749933015995,30.668749933015995 0 0,0 -0.5147674473665301,-0.11715939508169733 l 2.226767933615433 -9.408837857940739" fill="#ff6e0a" stroke="none" /><path d="M 95.16358092515715 120.4354850818985 l -2.226390285645368 9.40724216920098 a30.667110164573963,30.667110164573963 0 0,0 -0.5126470614138947,-0.12599617505449826 l 2.3879906318024733 -9.367524735832452" fill="#ff6e0a" stroke="none" /><path d="M 94.81253420990036 120.34920634021253 l -2.384654850352767 9.354439250978658 a30.653606189168954,30.653606189168954 0 0,0 -0.5101775393051159,-0.13474252506197928 l 2.545322832469372 -9.312005376613097" fill="#ff6e0a" stroke="none" /><path d="M 94.46302465271185 120.25689768951611 l -2.552672788491271 9.338895022641768 a30.681482252683573,30.681482252683573 0 0,0 -0.5082443520028597,-0.14363493059162208 l 2.713048308598745 -9.293571298711624" fill="#ff6e0a" stroke="none" /><path d="M 94.11515582081647 120.15858648285463 l -6.775579404125907 23.209807979736638 a45.1785785917589,45.1785785917589 0 0,0 -0.7446398414202815,-0.2243538758461688 l 7.174094219986435 -23.089738734784746" fill="#d6ff1c" stroke="none" /><path d="M 93.42475214034765 119.94407469862007 l -3.1626557540329014 9.59298325337773 a31.100877145976135,31.100877145976135 0 0,0 -0.5069891228223115,-0.1719982369800998 l 3.3273146097924386 -9.537122029499507" fill="#ff740a" stroke="none" /><path d="M 93.08242187328487 119.8279376855182 l -3.18725594995072 9.135670202170811 a30.675694834652855,30.675694834652855 0 0,0 -0.4970637579201952,-0.17822937890875523 l 3.3440392685006417 -9.079453282222099" fill="#ff6e0a" stroke="none" /><line stroke="#e1ed5e" stroke-width="0.3" x1="58.666819895761336" x2="56.23545636021788" y1="174.27360380694188" y2="178.64263932499728" /><path d="M 58.180547188652646 175.14741091055294 a86.0,86.0 0 0,1 -31.652253787137756,-30.449443065178592" fill="none" id="id68" stroke="none" /><text fill="#e1ed5e" style="font-size:6.75px; font-family:Arial;" text-anchor="middle"><textPath startOffset="22.20632615414155" xlink:href="#id68">August</textPath></text><line stroke="#e1ed5e" stroke-width="0.3" x1="26.63291911575756" x2="22.317208475507996" y1="142.92168965132927" y2="145.44649492493687" /><path d="M 25.769776987707644 143.4266507060508 a86.0,86.0 0 0,1 -11.730757126820373,-40.83630448921669" fill="none" id="id69" stroke="none" /><text fill="#e1ed5e" style="font-size:6.75px; font-family:Arial;" text-anchor="middle"><textPath startOffset="21.46611528233685" xlink:href="#id69">September</textPath></text><line stroke="#e1ed5e" stroke-width="0.3" x1="15.007084014347285" x2="10.007500721073583" y1="101.09737516637583" y2="101.16192664675087" /><path d="M 14.007167355692545 101.11028546245083 a86.0,86.0 0 0,1 10.666146001902534,-42.60595125391555" fill="none" id="id70" stroke="none" /><text fill="#e1ed5e" style="font-size:6.75px; font-family:Arial;" text-anchor="middle"><textPath startOffset="22.20632615414155" xlink:href="#id70">October</textPath></text><line stroke="#e1ed5e" stroke-width="0.3" x1="26.266209847984257" x2="21.92892807433627" y1="57.711370442889674" y2="55.22380399835377" /><path d="M 25.39875349325466 57.213857153982495 a86.0,86.0 0 0,1 29.58750427330802,-30.492523968695096" fill="none" id="id71" stroke="none" /><text fill="#e1ed5e" style="font-size:6.75px; font-family:Arial;" text-anchor="middle"><textPath startOffset="21.46611528233685" xlink:href="#id71">November</textPath></text><line stroke="#e1ed5e" stroke-width="0.3" x1="56.762969772571076" x2="54.21961505331055" y1="26.818313649435495" y2="22.513508569990535" /><path d="M 56.25429882871897 25.957352633546506 a86.0,86.0 0 0,1 42.265352541879196,-11.944610805530505" fill="none" id="id72" stroke="none" /><text fill="#e1ed5e" style="font-size:6.75px; font-family:Arial;" text-anchor="middle"><textPath startOffset="22.20632615414155" xlink:href="#id72">December</textPath></text></svg>