<?xml version="1.0" encoding="utf-8" ?>
<svg baseProfile="full" height="200mm" version="1.1" viewBox="0,0,200,200" width="200mm" xmlns="http://www.w3.org/2000/svg" xmlns:ev="http://www.w3.org/2001/xml-events" xmlns:xlink="http://www.w3.org/1999/xlink"><defs /><rect fill="#1a1a1a" height="200" width="200" x="0" y="0" /><text alignment-baseline="middle" fill="#e1ed5e" style="dominant-baseline: central; font-size:9.0px; font-family:Arial;" text-anchor="middle" x="100.0" y="100.0">2023</text><line stroke="#e1ed5e" stroke-width="0.3" x1="100.0" x2="100.0" y1="15.0" y2="10.0" /><path d="M 100.0 14.0 a86.0,86.0 0 0,1 42.46469731375804,11.215312516191453" fill="none" id="id37" stroke="none" /><text fill="#e1ed5e" style="font-size:6.75px; font-family:Arial;" text-anchor="middle"><textPath startOffset="22.20632615414155" xlink:href="#id37">January</textPath></text><path d="M 106.0581310904928 79.89281104454417 l 4.538084137286799 -15.06208992198615 a36.73088555851484,36.73088555851484 0 0,0 0.6038113794327602,0.1876071347929464 l -4.796680889430277 14.981742652310684" fill="#ffa80f" stroke="none" /><path d="M 107.4271985657038 80.35727306442388 l 5.457134144667332 -14.432493611991037 a36.42974999580538,36.42974999580538 0 0,0 0.5846399544495106,0.22683121939975598 l -5.70475726411651 14.336419688700733" fill="#ffa40f" stroke="none" /><path d="M 108.09893153111575 80.62456947434976 l 6.037953738268336 -14.444862599893035 a36.65601931767003,36.65601931767003 0 0,0 0.5800662187625579,0.24835408245348334 l -6.28570371482121 14.338788989476761" fill="#ffa70f" stroke="none" /><path d="M 109.73455568895987 81.39251694778311 l 7.156975089635135 -13.680469549992763 a36.43947989868626,36.43947989868626 0 0,0 0.5532813651251499,0.2955437439027607 l -7.391401501288596 13.555247079588247" fill="#ffa40f" stroke="none" /><line stroke="#e1ed5e" stroke-width="0.3" x1="143.23703022742887" x2="145.7803849466894" y1="26.81831364943548" y2="22.513508569990506" /><path d="M 143.74570117128098 25.957352633546492 a86.0,86.0 0 0,1 28.547481713284135,27.462654790039103" fill="none" id="id38" stroke="none" /><text fill="#e1ed5e" style="font-size:6.75px; font-family:Arial;" text-anchor="middle"><textPath startOffset="19.985693538727396" xlink:href="#id38">February</textPath></text><path d="M 113.6212207817346 84.01681056812373 l 5.901629590094314 -6.924993376638563 a30.0986133605712,30.0986133605712 0 0,0 0.39143418861454055,0.33944787110998004 l -6.019957577355619 6.822380512108909" fill="#ff4a06" stroke="none" /><path d="M 115.19652480421416 85.50635884689758 l 11.480580579302991 -10.949570200388903 a36.86495565739513,36.86495565739513 0 0,0 0.434010557743711,0.4629722024899747 l -11.667358459017164 10.750328581020874" fill="#ffaa0f" stroke="none" /><path d="M 115.4437574822437 85.77008943001954 l 11.34734330277339 -10.455465944151388 a36.42980778040691,36.42980778040691 0 0,0 0.4209487870976743,0.4648221645269585 l -11.525635730487101 10.25859099235488" fill="#ffa40f" stroke="none" /><path d="M 115.92442197804982 86.31012108654704 l 11.561619091248227 -9.939272246165242 a36.246644509350446,36.246644509350446 0 0,0 0.4026646409874682,0.47662792796344805 l -11.730994345722815 9.738785368572687" fill="#ffa10e" stroke="none" /><path d="M 116.38621287248628 86.86637796730983 l 12.09035898411449 -9.690476156545031 a36.49458319882551,36.49458319882551 0 0,0 0.38866021965911446,0.4935590099038143 l -12.255373284367568 9.480924752688178" fill="#ffa50f" stroke="none" /><path d="M 116.82858285166822 87.43820079747576 l 12.385066112807156 -9.244908795374204 a36.45503805409069,36.45503805409069 0 0,0 0.371038314018933,0.506095843340586 l -12.542367039339716 9.030350508362126" fill="#ffa40f" stroke="none" /><line stroke="#e1ed5e" stroke-width="0.3" x1="172.23445277983987" x2="176.4835382374775" y1="55.19839476539836" y2="52.563006222186495" /><path d="M 173.08426987136738 54.67131705675599 a86.0,86.0 0 0,1 12.851231095245387,41.99856678651699" fill="none" id="id39" stroke="none" /><text fill="#e1ed5e" style="font-size:6.75px; font-family:Arial;" text-anchor="middle"><textPath startOffset="22.20632615414155" xlink:href="#id39">March</textPath></text><path d="M 118.21658344932153 89.55222093294921 l 13.394011218009213 -7.681883401279182 a36.440559222353485,36.440559222353485 0 0,0 0.3073888863462133,0.5468105294362526 l -13.524257745647859 7.450189361908135" fill="#ffa40f" stroke="none" /><path d="M 118.3937258080291 89.86733742301442 l 13.639991464205734 -7.513944292864803 a36.57269167420587,36.57269167420587 0 0,0 0.2990111881067349,0.5540223196325478 l -13.767310751530934 7.278040989899796" fill="#ffa60f" stroke="none" /><path d="M 118.73160827565052 90.50648371742162 l 13.727224351934819 -6.95720442056778 a36.38958679620477,36.38958679620477 0 0,0 0.2783629881701507,0.5611627982112444 l -13.844947353058377 6.719882033857585" fill="#ffa30f" stroke="none" /><path d="M 118.89224826269711 90.83032412892265 l 13.862053033468866 -6.728184568459999 a36.40860090631095,36.40860090631095 0 0,0 0.26880263067662485,0.5661668934225018 l -13.975813857987248 6.488575259396957" fill="#ffa40f" stroke="none" /><path d="M 119.04729006885535 91.15688171328212 l 13.963268835735855 -6.482750960230118 a36.39476978039609,36.39476978039609 0 0,0 0.2589187752306463,0.5704932002364945 l -14.072789927929849 6.241435751151561" fill="#ffa40f" stroke="none" /><path d="M 119.34039704204932 91.81776055985345 l 13.99149225301186 -5.919306593871659 a36.19210472641442,36.19210472641442 0 0,0 0.23779645515184494,0.5758429779958217 l -14.091310395049902 5.677589045422534" fill="#ffa10e" stroke="none" /><path d="M 119.47837535516314 92.15188598940014 l 14.250038694573709 -5.741542931137201 a36.36323266851542,36.36323266851542 0 0,0 0.22892637647286693,0.5825926579299112 l -14.346758620928277 5.495401268311505" fill="#ffa30f" stroke="none" /><path d="M 119.61058180528143 92.48833698450437 l 14.394591018139957 -5.513723052572934 a36.41445401173813,36.41445401173813 0 0,0 0.2191723761572516,0.5872730024516705 l -14.487367982798833 5.2651269130919305" fill="#ffa40f" stroke="none" /><path d="M 119.97218684219823 93.5106431181261 l 14.734942990366719 -4.787673200439148 a36.493235930675056,36.493235930675056 0 0,0 0.18897329938161786,0.5990970006505546 l -14.815171773516543 4.533326033362173" fill="#ffa50f" stroke="none" /><path d="M 120.08093135843002 93.85539295169968 l 14.721728648266895 -4.504733172016469 a36.39551607917928,36.39551607917928 0 0,0 0.17815449640551662,0.6006483965351284 l -14.797089041784114 4.250655388734811" fill="#ffa40f" stroke="none" /><path d="M 120.18372546131832 94.20196356495316 l 14.825533727998977 -4.2588264930918 a36.425111131473116,36.425111131473116 0 0,0 0.16792536386271564,0.6041168799428857 l -14.896645862428056 4.002998309729962" fill="#ffa40f" stroke="none" /><path d="M 120.37134235888165 94.90015583598534 l 9.67144949062449 -2.4211897465274097 a30.969909479949663,30.969909479949663 0 0,0 0.1250110715614908,0.5182515983536035 l -9.711693362446796 2.2543529165144003" fill="#ff5708" stroke="none" /><path d="M 120.67395015179393 96.31383870115 l 9.100993307419134 -1.6227053400334417 a30.244525504441043,30.244525504441043 0 0,0 0.08697193306749201,0.5133132721631852 l -9.12757710200685 1.4658062795544187" fill="#ff4c07" stroke="none" /><line stroke="#e1ed5e" stroke-width="0.3" x1="184.98032266829074" x2="189.97916517819016" y1="98.17113171792111" y2="98.06355123074" /><path d="M 185.9800911702706 98.14961562048488 a86.0,86.0 0 0,1 -9.607161424134198,41.387399972396054" fill="none" id="id40" stroke="none" /><text fill="#e1ed5e" style="font-size:6.75px; font-family:Arial;" text-anchor="middle"><textPath startOffset="21.466115282336823" xlink:href="#id40">April</textPath></text><path d="M 120.92983693683757 101.71520430193887 l 12.264453302414596 1.0050743887165887 a33.305567412109134,33.305567412109134 0 0,0 -0.051743218240054456,0.5709821015861671 l -12.245335487897465 -1.2160378788513264" fill="#ff780b" stroke="none" /><path d="M 120.89721153311464 102.0752229133903 l 15.328434127999042 1.5222087252363823 a36.40383108903728,36.40383108903728 0 0,0 -0.0672910923533754,0.6230319424230847 l -15.299960734144614 -1.7858369895442585" fill="#ffa40f" stroke="none" /><path d="M 120.8583938346157 102.4346265915055 l 15.336940062986871 1.7901532786147032 a36.44106146793629,36.44106146793629 0 0,0 -0.07808536988095095,0.622417226831927 l -15.303853183859072 -2.053888259734025" fill="#ffa40f" stroke="none" /><path d="M 120.81339534386255 102.79330883721812 l 14.273455874077095 1.915601456273652 a35.401426024130515,35.401426024130515 0 0,0 -0.08625464561382017,0.6032647905278895 l -14.238367177446674 -2.1610117187819506" fill="#ff960d" stroke="none" /><path d="M 120.5718875245553 104.21870165774334 l 15.08705503022836 3.0939204771811633 a36.40102507641163,36.40102507641163 0 0,0 -0.1311580263724923,0.612726634457 l -15.031562965131425 -3.353160931054332" fill="#ffa40f" stroke="none" /><path d="M 120.41448212921028 104.9243191809786 l 15.039562989542226 3.6277975622496768 a36.470920142935036,36.470920142935036 0 0,0 -0.15246353075228847,0.6090160174137172 l -14.974888144494876 -3.88614141906079" fill="#ffa50f" stroke="none" /><path d="M 119.9155931802556 106.66101706037122 l 12.946326761028597 4.330059498797476 a34.65125605453401,34.65125605453401 0 0,0 -0.1940621633974804,0.5640354853181845 l -12.869873766687887 -4.552267687204961" fill="#ff8b0c" stroke="none" /><path d="M 119.79798401119884 107.00284435728193 l 9.176139269186917 3.245738306814986 a30.733259939189974,30.733259939189974 0 0,0 -0.18070533250999726,0.49722346521538147 l -9.118909675671693 -3.4032095690364987" fill="#ff5307" stroke="none" /><path d="M 119.67450827220406 107.3425965602758 l 14.461788510013582 5.397190979308067 a36.43609398052128,36.43609398052128 0 0,0 -0.22435216099761884,0.5857126973560348 l -14.366742069422456 -5.6453272434972455" fill="#ffa40f" stroke="none" /><path d="M 119.54520255179757 107.68017299344265 l 14.423646232752272 5.66768740155966 a36.49723366054042,36.49723366054042 0 0,0 -0.23479432639886233,0.5827402627794165 l -14.323949292096017 -5.91512703218189" fill="#ffa50f" stroke="none" /><path d="M 119.26925614724726 108.34839909993367 l 14.092161400479716 6.105424446739293 a36.357904173812656,36.357904173812656 0 0,0 -0.25374166653134805,0.5721204721845641 l -13.984978649217094 -6.347093255416545" fill="#ffa30f" stroke="none" /><path d="M 119.12269723197855 108.67885076344098 l 14.013658317947758 6.36010954500367 a36.38939936698743,36.38939936698743 0 0,0 -0.2637804886480029,0.5681597055338858 l -13.902103212459924 -6.600389317816386" fill="#ffa30f" stroke="none" /><path d="M 118.97047184881838 109.00673069616215 l 13.944683664526526 6.6206055078901525 a36.43653522636535,36.43653522636535 0 0,0 -0.2738756393202388,0.5642649362844903 l -13.828654768591573 -6.859659400139917" fill="#ffa40f" stroke="none" /><path d="M 118.81262510543309 109.33194174019688 l 13.847383732028947 6.868949841780695 a36.4574418372174,36.4574418372174 0 0,0 -0.283710649582276,0.5597880272621304 l -13.727094412660401 -7.106292080745519" fill="#ffa40f" stroke="none" /><path d="M 118.64920377521936 109.65438752849418 l 13.730547664245238 7.108079772565247 a36.46133038303178,36.46133038303178 0 0,0 -0.293335729285558,0.5548806533524134 l -13.606159426734788 -7.343375441003795" fill="#ffa40f" stroke="none" /><line stroke="#e1ed5e" stroke-width="0.3" x1="174.80103733775053" x2="179.2010983576182" y1="140.37084112569926" y2="142.7455964860345" /><path d="M 175.68104954172406 140.8457921977663 a86.0,86.0 0 0,1 -30.038265399797805,32.042727171017184" fill="none" id="id41" stroke="none" /><text fill="#e1ed5e" style="font-size:6.75px; font-family:Arial;" text-anchor="middle"><textPath startOffset="22.206326154141568" xlink:href="#id41">May</textPath></text><path d="M 118.48025628344425 109.97397251340804 l 13.578810660678649 7.328615048250805 a36.430252670776596,36.430252670776596 0 0,0 -0.3025854988297939,0.5492805722754749 l -13.450648752397347 -7.561266138924085" fill="#ffa40f" stroke="none" /><path d="M 118.12598468904814 110.60418214915192 l 13.320399784569261 7.792787428560617 a36.43245237567527,36.43245237567527 0 0,0 -0.32133271072326736,0.5385721061951839 l -13.184286198147767 -8.020921628641904" fill="#ffa40f" stroke="none" /><path d="M 117.75023020441432 111.22182372390056 l 5.564756691601957 3.518079368008604 a27.58357042009399,27.58357042009399 0 0,0 -0.25717756852148194,0.39914529751009686 l -5.503374259703428 -3.6133462654401565" fill="#ff2403" stroke="none" /><path d="M 117.55443506779137 111.5257021239791 l 12.873696144486003 8.452472917696243 a36.4005308624392,36.4005308624392 0 0,0 -0.3483996983214953,0.5208102774988211 l -12.726293340753783 -8.672820109400872" fill="#ffa40f" stroke="none" /><path d="M 117.35343817320211 111.8261652097733 l 12.727904705938583 8.673918235933408 a36.40248083157748,36.40248083157748 0 0,0 -0.35733211312710034,0.5147635600479268 l -12.576711685649347 -8.891723058168354" fill="#ffa40f" stroke="none" /><path d="M 116.93607887273984 112.41649034213515 l 12.43294931317587 9.115072988930292 a36.416315520173,36.416315520173 0 0,0 -0.3749818066530509,0.5023494086628171 l -12.274206239827727 -9.327735277102425" fill="#ffa40f" stroke="none" /><path d="M 116.498646956653 112.99209946851258 l 12.092064336886926 9.522071904274437 a36.39116218086163,36.39116218086163 0 0,0 -0.39178047279045863,0.4888063788076612 l -11.926365952041614 -9.728806116660348" fill="#ffa30f" stroke="none" /><path d="M 116.27256486870786 113.27417163493432 l 11.95604879147439 9.7530195770719 a36.42946835036334,36.42946835036334 0 0,0 -0.4005576173262121,0.4824974538563688 l -11.786395174254633 -9.957378288042039" fill="#ffa40f" stroke="none" /><path d="M 116.0416608686014 113.55231037782055 l 11.786761287078917 9.957687587351419 a36.429947625506536,36.429947625506536 0 0,0 -0.4088090492330875,0.47553728192845035 l -11.613609728275051 -10.159101968441398" fill="#ffa40f" stroke="none" /><path d="M 115.80600337817218 113.82643327865902 l 11.640779658870148 10.18286909182932 a36.466045842674134,36.466045842674134 0 0,0 -0.4173472098383206,0.46889401452074797 l -11.46377359938349 -10.381737276090934" fill="#ffa40f" stroke="none" /><path d="M 115.56566222782051 114.09645910891815 l 11.447592671026662 10.367083624252166 a36.44421577270859,36.44421577270859 0 0,0 -0.4251019791097111,0.4613642396630467 l -11.267444283921229 -10.562599118716546" fill="#ffa40f" stroke="none" /><path d="M 115.07121518719521 114.62390073753431 l 11.049769098173114 10.7218113773366 a36.39657872172016,36.39657872172016 0 0,0 -0.44015487534690695,0.44587456489255145 l -10.86357359777067 -10.910426436209816" fill="#ffa40f" stroke="none" /><path d="M 114.55890576462653 115.13401014063108 l 10.700493313368435 11.123183083425028 a36.43456377928561,36.43456377928561 0 0,0 -0.4557168711629027,0.43090874609743635 l -10.507440607814726 -11.305726466268386" fill="#ffa40f" stroke="none" /><path d="M 114.29624159901734 115.38237550388516 l 20.938130747126614 22.52887147093844 a51.756387449403626,51.756387449403626 0 0,0 -0.6578001489625417,0.6008848397862856 l -20.54723104869721 -22.88594907731131" fill="#98ff23" stroke="none" /><path d="M 114.0293411484842 115.62618273729858 l 10.328332960204172 11.503919998784257 a36.460098223338306,36.460098223338306 0 0,0 -0.47060897320060874,0.41525770208246715 l -10.128781634096976 -11.680000842639014" fill="#ffa40f" stroke="none" /><path d="M 113.75828350139079 115.86535959552629 l 10.114266684832172 11.663262934194718 a36.43794328413168,36.43794328413168 0 0,0 -0.4773969599996262,0.40684804621754544 l -9.9120042482555 -11.835635370635211" fill="#ffa40f" stroke="none" /><path d="M 113.48314897796784 116.09983520530334 l 9.896272330408268 11.81685034606731 a36.41344082737386,36.41344082737386 0 0,0 -0.4840037646376363,0.39830214748824194 l -9.69139843722594 -11.985447612412731" fill="#ffa40f" stroke="none" /><path d="M 113.20401910651253 116.32954008644616 l 16.555547155464335 20.474407735055788 a47.330353467397956,47.330353467397956 0 0,0 -0.6379286626660159,0.5068091110936996 l -16.200661000080967 -20.756350760154614" fill="#ccff1d" stroke="none" /><path d="M 112.92097659922987 116.55440617244103 l 9.47853421610267 12.143935416003762 a36.40512181950859,36.40512181950859 0 0,0 -0.4973135040815087,0.38131878839399186 l -9.268091983527668 -12.305293546225126" fill="#ffa40f" stroke="none" /><path d="M 112.63410532772338 116.77436683061366 l 9.258693765359652 12.292815483472355 a36.389500406166775,36.389500406166775 0 0,0 -0.5035874160472297,0.3725419313169519 l -9.045721378893857 -12.450367363529075" fill="#ffa30f" stroke="none" /><path d="M 112.34349029814194 116.9893568818739 l 9.059270476687368 12.46901609677076 a36.41255150814776,36.41255150814776 0 0,0 -0.5102485158163222,0.3640487680965976 l -8.843294633022161 -12.623109126711578" fill="#ffa40f" stroke="none" /><path d="M 111.7513745106137 117.40417183066458 l 8.640581577227238 12.796985267647981 a36.44093526743501,36.44093526743501 0 0,0 -0.5228845617932057,0.34653937553285413 l -8.419022316694068 -12.943822664272155" fill="#ffa40f" stroke="none" /><path d="M 111.45004920935366 117.60387380957326 l 8.393895877531088 12.905192029921022 a36.39485203995058,36.39485203995058 0 0,0 -0.5281035108753493,0.3370606469934685 l -8.170510564608808 -13.047767105738297" fill="#ffa40f" stroke="none" /><path d="M 111.1453310114006 117.79835938074945 l 8.222040174247233 13.130056497606178 a36.49194397928374,36.49194397928374 0 0,0 -0.5352513228821117,0.3287950794634863 l -7.994809651432812 -13.269640043898043" fill="#ffa50f" stroke="none" /><line stroke="#e1ed5e" stroke-width="0.3" x1="143.8653032363475" x2="146.44561519142675" y1="172.8068346515853" y2="177.08958963109032" /><path d="M 144.38136562736335 173.6633856474863 a86.0,86.0 0 0,1 -40.68145358897372,12.25698825130547" fill="none" id="id42" stroke="none" /><text fill="#e1ed5e" style="font-size:6.75px; font-family:Arial;" text-anchor="middle"><textPath startOffset="21.466115282336833" xlink:href="#id42">June</textPath></text><path d="M 110.8373102113329 117.98757091392108 l 7.978030249954095 13.2417898976804 a36.45942969075811,36.45942969075811 0 0,0 -0.5403498058926506,0.31924818975677427 l -7.748912573033063 -13.377156659730923" fill="#ffa40f" stroke="none" /><path d="M 110.5260780823613 118.17145234162733 l 7.670189326268362 13.241254596724186 a36.30237326678677,36.30237326678677 0 0,0 -0.5434140857191105,0.3085647001077691 l -7.441126473628053 -13.371322462626583" fill="#ffa20f" stroke="none" /><path d="M 110.21172684928248 118.3499491758327 l 7.479258541863218 13.439843832656553 a36.38079031071649,36.38079031071649 0 0,0 -0.5498301395624529,0.29981123141128824 l -7.246805590432117 -13.566595715827612" fill="#ffa30f" stroke="none" /><path d="M 109.89434966115114 118.52300852407294 l 7.24945757766831 13.57156044659457 a36.38641895068449,36.38641895068449 0 0,0 -0.5549952863993602,0.290347303147008 l -7.014771388742455 -13.694337168686294" fill="#ffa30f" stroke="none" /><path d="M 109.57404056367764 118.69057910512821 l 7.036553161162422 13.736859856756976 a36.43419577153426,36.43419577153426 0 0,0 -0.5606460947758375,0.281119590742613 l -6.799053158703824 -13.85594728840889" fill="#ffa40f" stroke="none" /><path d="M 109.2508944713604 118.85261126421891 l 6.941070572378269 14.145367852122266 a36.75658250898937,36.75658250898937 0 0,0 -0.5704049812992312,0.2738290544772599 l -6.696552923078805 -14.262751183099086" fill="#ffa80f" stroke="none" /><path d="M 108.92500713936063 119.00905698771935 l 6.553914142276312 13.958949889655232 a36.42096211674989,36.42096211674989 0 0,0 -0.5697834133473682,0.2615596189561306 l -6.312662733161525 -14.069696578945436" fill="#ffa40f" stroke="none" /><path d="M 108.59647513512805 119.15986991738527 l 10.164901156638905 22.655586251675878 a45.831447882299656,45.831447882299656 0 0,0 -0.7225640402061947,0.3167508410266422 l -9.773416441774957 -22.827201645996976" fill="#dfff1b" stroke="none" /><path d="M 108.2653958097858 119.30500536409082 l 6.093230702680578 14.231605370988255 a36.48115150212125,36.48115150212125 0 0,0 -0.5794050103025955,0.2421913412976226 l -5.847354232880522 -14.334381755305852" fill="#ffa50f" stroke="none" /><path d="M 107.93186726928326 119.44442032107085 l 4.377388258597127 10.73086252190578 a32.58934590175589,32.58934590175589 0 0,0 -0.5212416397133898,0.20741280564342005 l -4.192025542841871 -10.804622171955268" fill="#ff6e0a" stroke="none" /><path d="M 107.2578585660854 119.70592522655815 l 10.804217141312954 29.334698820542656 a52.26108863953057,52.26108863953057 0 0,0 -0.8468298192489446,0.3036430444208443 l -10.297667761434274 -29.516329406003457" fill="#92ff23" stroke="none" /><path d="M 106.91757812671514 119.82793768551818 l 10.215886850672849 29.281919794324452 a52.012822686543714,52.012822686543714 0 0,0 -0.8478839752844366,0.2876482795148919 l -9.710333142451184 -29.453431060737465" fill="#95ff23" stroke="none" /><path d="M 106.57524785965236 119.94407469862006 l 9.713370356110879 29.46264355240281 a52.02252292723654,52.02252292723654 0 0,0 -0.8528687723030814,0.2730616481833063 l -9.204780238716857 -29.625478047245824" fill="#95ff23" stroke="none" /><path d="M 106.2309692047433 120.05430185196036 l 9.194399430777858 29.592067537735133 a51.987536882601134,51.987536882601134 0 0,0 -0.8568660729656657,0.25816671880497793 l -8.683658383371947 -29.745949625645835" fill="#95ff23" stroke="none" /><path d="M 105.53697534728816 120.25689768951611 l 16.61092604186447 60.77069306854833 a84.0,84.0 0 0,0 -1.3980382287540103,0.3692346027856641 l -15.562397370298964 -61.04761902063758" fill="#4dd2ff" stroke="none" /><path d="M 105.18746579009965 120.34920634021253 l 7.778777114787462 30.51431026021132 a52.490196951717834,52.490196951717834 0 0,0 -0.8774529153848789,0.21565657827823598 l -7.252370914659371 -30.643688096803587" fill="#8fff24" stroke="none" /><path d="M 104.83641907484287 120.43548508189849 l 3.7381278220214655 15.7948379077616 a37.231158435128215,37.231158435128215 0 0,0 -0.6249158649116513,0.1422288163025111 l -3.4656918077169525 -15.856843457641796" fill="#ffaf10" stroke="none" /><path d="M 104.48393922423573 120.51570834832081 l 3.342116951817465 15.291442015731803 a36.65241018629762,36.65241018629762 0 0,0 -0.617520746814521,0.1294074765367414 l -3.078404743573566 -15.346705472995087" fill="#ffa70f" stroke="none" /><path d="M 104.13013068566511 120.58985236759428 l 3.0805523679237634 15.357411978836437 a36.66332996457744,36.66332996457744 0 0,0 -0.619841404527078,0.11879408041259086 l -2.8157433488249812 -15.408163257597495" fill="#ffa70f" stroke="none" /><path d="M 103.7750983002368 120.6578951692458 l 2.8299331159202863 15.48581175780011 a36.7422643618573,36.7422643618573 0 0,0 -0.6231331068057773,0.10833967798300857 l -2.5629510376424594 -15.532230014304126" fill="#ffa80f" stroke="none" /><path d="M 103.06178313531738 120.77559828337769 l 2.277378038737264 15.453051108169852 a36.6199628451233,36.6199628451233 0 0,0 -0.6244076993637725,0.08653721751590444 l -2.011041748186661 -15.48996289117836" fill="#ffa70f" stroke="none" /><path d="M 102.70371172650421 120.8252237178851 l 2.0219274430584995 15.573809489470767 a36.70451312837564,36.70451312837564 0 0,0 -0.6272496767630765,0.0759512005422371 l -1.753550343244043 -15.606306218738354" fill="#ffa80f" stroke="none" /><path d="M 102.34483914955558 120.86867818915974 l 1.747558395949105 15.552978885028423 a36.650850217971936,36.650850217971936 0 0,0 -0.6275452878606262,0.06504763496462947 l -1.4795805114828762 -15.580755888448811" fill="#ffa70f" stroke="none" /><path d="M 101.98527174616119 120.90594882070398 l 1.4784007168002486 15.568332033980704 a36.63837047136642,36.63837047136642 0 0,0 -0.6283579673311013,0.05421736941376432 l -1.2101984317276056 -15.591473655673132" fill="#ffa70f" stroke="none" /><path d="M 101.62511606390274 120.93702456842531 l 1.2117677976613357 15.611692428867983 a36.658650059600376,36.658650059600376 0 0,0 -0.6295463976697895,0.04341720546573538 l -0.9428586392126158 -15.630237978850003" fill="#ffa70f" stroke="none" /><path d="M 101.26447882468166 120.96189622390904 l 0.39306284859721397 6.515998908754483 a27.527843455677914,27.527843455677914 0 0,0 -0.47323237801645895,0.024460708490609804 l -0.28084240216727535 -6.521799424007295" fill="#ff2303" stroke="none" /><path d="M 100.90346689309514 120.98055641714683 l 0.6720325263733199 15.606123967011095 a36.62058683245357,36.62058683245357 0 0,0 -0.6300129872522231,0.021698921129093118 l -0.40329918744644455 -15.615379686566282" fill="#ffa70f" stroke="none" /><line stroke="#e1ed5e" stroke-width="0.3" x1="102.19456741930631" x2="102.32365962044197" y1="184.97166512339345" y2="189.96999836594603" /><path d="M 102.22038585953345 185.97133177190398 a86.0,86.0 0 0,1 -42.740103519485714,-10.115201625700543" fill="none" id="id43" stroke="none" /><text fill="#e1ed5e" style="font-size:6.75px; font-family:Arial;" text-anchor="middle"><textPath startOffset="22.20632615414155" xlink:href="#id43">July</textPath></text><path d="M 100.54218724476979 120.99299961872073 l 0.4054418679318093 15.698342336547842 a36.70357714738022,36.70357714738022 0 0,0 -0.6317215383903568,0.010875659177889987 l -0.13516063964878453 -15.702995473004892" fill="#ffa80f" stroke="none" /><path d="M 100.18074693466247 120.99922214144158 l 0.1614312084144861 18.75511644160217 a39.75581117342319,39.75581117342319 0 0,0 -0.6843562861538702,0.0 l 0.1614312084144732 -18.75511644160217" fill="#ffd113" stroke="none" /><path d="M 99.81925306533755 120.99922214144158 l -0.1347068191314065 15.650270496648666 a36.650850217971936,36.650850217971936 0 0,0 -0.630814031832436,-0.010860035629497453 l 0.40408054085651035 -15.64563298374001" fill="#ffa70f" stroke="none" /><path d="M 99.45781275523022 120.99299961872073 l -0.404169147944251 15.649063770017444 a36.65428214828845,36.65428214828845 0 0,0 -0.6305926744834315,-0.021718886729427875 l 0.6734821741023256 -15.639788084861921" fill="#ffa70f" stroke="none" /><path d="M 99.09653310690486 120.98055641714683 l -0.6728915768793957 15.626073073885657 a36.64055442702239,36.64055442702239 0 0,0 -0.6298893965761925,-0.03255808694991889 l 0.9417690418690771 -15.612175180173537" fill="#ffa70f" stroke="none" /><path d="M 98.73552117531835 120.96189622390904 l -0.9413181740027893 15.604700918652235 a36.633066579059076,36.633066579059076 0 0,0 -0.6291070473939767,-0.0433869052983974 l 1.209787982175696 -15.586185668837551" fill="#ffa70f" stroke="none" /><path d="M 98.37488393609728 120.93702456842531 l -1.2085083453374237 15.569699592232519 a36.61653091480677,36.61653091480677 0 0,0 -0.6279834130266745,-0.05418505129233606 l 1.4763360761056399 -15.54659028866152" fill="#ffa70f" stroke="none" /><path d="M 96.93821686468263 120.77559828337769 l -2.278697203086067 15.462002241339468 a36.62901066141229,36.62901066141229 0 0,0 -0.622979474274178,-0.0972965816616422 l 2.544512540968762 -15.420487352330719" fill="#ffa70f" stroke="none" /><path d="M 96.58105272829116 120.7198165907248 l -2.544410951455408 15.419871690281276 a36.62838667408201,36.62838667408201 0 0,0 -0.6212017898711317,-0.10800389377816155 l 2.8094617127985897 -15.373789217982107" fill="#ffa70f" stroke="none" /><path d="M 96.22490169976321 120.6578951692458 l -2.8109760357692357 15.382075816817967 a36.636810503040735,36.636810503040735 0 0,0 -0.6193930584466347,-0.11870815381919811 l 3.0753367087875656 -15.3314104646503" fill="#ffa70f" stroke="none" /><path d="M 95.86986931433489 120.58985236759428 l -3.0723300346972886 15.316421356472405 a36.62152281344898,36.62152281344898 0 0,0 -0.6170003555646075,-0.12929842349065587 l 3.335521851691283 -15.261266952255209" fill="#ffa70f" stroke="none" /><path d="M 95.51606077576429 120.51570834832081 l -3.3369874294970976 15.267972521916668 a36.62838667408201,36.62838667408201 0 0,0 -0.6147984887076613,-0.13992613441782809 l 3.5993060675976216 -15.208269653921155" fill="#ffa70f" stroke="none" /><path d="M 95.16358092515715 120.4354850818985 l -3.5998808988788813 15.21069850797433 a36.63088262340312,36.63088262340312 0 0,0 -0.6123405248525081,-0.1504984028377946 l 3.8611747084746 -15.146478846822506" fill="#ffa70f" stroke="none" /><path d="M 94.81253420990036 120.34920634021253 l -3.861020569763682 15.145874196968338 a36.63025863607284,36.63025863607284 0 0,0 -0.6096488321711637,-0.16101379758841475 l 4.121159844746335 -15.077169050076341" fill="#ffa70f" stroke="none" /><path d="M 94.11515582081647 120.15858648285463 l -4.389432962037091 15.036041954843034 a36.663641958242586,36.663641958242586 0 0,0 -0.6042954290433519,-0.18206925565976956 l 4.6476033655206885 -14.958257330077538" fill="#ffa70f" stroke="none" /><path d="M 93.76903079525671 120.05430185196036 l -4.639642128802537 14.932634182375383 a36.636810503040735,36.636810503040735 0 0,0 -0.6006319923878558,-0.1923033966294259 l 4.895995466281334 -14.85055793908625" fill="#ffa70f" stroke="none" /><path d="M 93.42475214034765 119.94407469862007 l -4.91035551603379 14.89411491382728 a36.68267357181599,36.68267357181599 0 0,0 -0.597980449543635,-0.20286743529627949 l 5.166005698514651 -14.807384491632877" fill="#ffa70f" stroke="none" /><path d="M 93.08242187328487 119.8279376855182 l -5.1461704400931865 14.75053045099139 a36.6224587944444,36.6224587944444 0 0,0 -0.593424112828251,-0.21278077384157065 l 5.399314113551164 -14.65976213610986" fill="#ffa70f" stroke="none" /><path d="M 92.7421414339146 119.70592522655815 l -5.4051368715670955 14.675571597403367 a36.639306452361836,36.639306452361836 0 0,0 -0.5899447905825451,-0.22306664022922787 l 5.656951882909923 -14.580356707067507" fill="#ffa70f" stroke="none" /><path d="M 92.40401165467489 119.57807347666478 l -5.662143092968651 14.593736650182496 a36.65365816095817,36.65365816095817 0 0,0 -0.586247202963438,-0.2332798608225424 l 5.912511371973947 -14.494109944953887" fill="#ffa70f" stroke="none" /><path d="M 92.06813273071674 119.44442032107085 l -5.903673185042768 14.472443745087991 a36.63025863607284,36.63025863607284 0 0,0 -0.5817731762438024,-0.24318123485311194 l 6.151917820784033 -14.368677467214907" fill="#ffa70f" stroke="none" /><path d="M 91.7346041902142 119.30500536409082 l -6.171197055441367 14.413706856858262 a36.67924164149947,36.67924164149947 0 0,0 -0.5782732655587264,-0.25349800573617887 l 6.418390995657837 -14.30534429782763" fill="#ffa70f" stroke="none" /><path d="M 91.40352486487194 119.15986991738527 l -6.4008938398244855 14.2663465430012 a36.6364985093756,36.6364985093756 0 0,0 -0.5731553468261483,-0.26310750823334533 l 6.645517182418053 -14.154051964433782" fill="#ffa70f" stroke="none" /><path d="M 91.07499286063937 119.00905698771935 l -6.645914974659309 14.154899208056698 a36.637434490371014,36.637434490371014 0 0,0 -0.5685559893991867,-0.2729414260021895 l 6.888583632058738 -14.038403505554946" fill="#ffa70f" stroke="none" /><line stroke="#e1ed5e" stroke-width="0.3" x1="58.666819895761336" x2="56.23545636021788" y1="174.27360380694188" y2="178.64263932499728" /><path d="M 58.180547188652646 175.14741091055294 a86.0,86.0 0 0,1 -31.652253787137756,-30.449443065178592" fill="none" id="id44" stroke="none" /><text fill="#e1ed5e" style="font-size:6.75px; font-family:Arial;" text-anchor="middle"><textPath startOffset="22.20632615414155" xlink:href="#id44">August</textPath></text><path d="M 89.4739219176387 118.17145234162733 l -7.83657217888811 13.52848580032985 a36.63431455371963,36.63431455371963 0 0,0 -0.5429417005700041,-0.3207795268179922 l 8.068281750486497 -13.391587701218109" fill="#ffa70f" stroke="none" /><path d="M 89.1626897886671 117.98757091392108 l -8.068120742289684 13.391320462733521 a36.6340025600545,36.6340025600545 0 0,0 -0.5373349894395161,-0.3300750376476682 l 8.29743493166151 -13.250456958257475" fill="#ffa70f" stroke="none" /><path d="M 88.8546689885994 117.79835938074946 l -8.298759606964907 13.252572377448574 a36.6364985093756,36.6364985093756 0 0,0 -0.5316098954803575,-0.33929858754722664 l 8.525651304492188 -13.107759361077544" fill="#ffa70f" stroke="none" /><path d="M 88.24862548938628 117.40417183066458 l -8.738493839412545 12.941996545593636 a36.6159069274765,36.6159069274765 0 0,0 -0.5193236091256099,-0.3571955138020798 l 8.959974333161046 -12.789660242426452" fill="#ffa70f" stroke="none" /><path d="M 87.95078237400918 117.19931262002967 l -8.97930777094538 12.817257207706204 a36.649602243311385,36.649602243311385 0 0,0 -0.5135703040673693,-0.36641877581477544 l 9.198605402861634 -12.660794170047211" fill="#ffa70f" stroke="none" /><path d="M 87.36589467227662 116.77436683061367 l -9.404102818580137 12.485875833686505 a36.63119461706825,36.63119461706825 0 0,0 -0.5004017798381387,-0.38368674655334056 l 9.617633326911761 -12.322149745305797" fill="#ffa70f" stroke="none" /><path d="M 87.07902340077011 116.55440617244103 l -9.611874379988404 12.314771359797346 a36.621834807114126,36.621834807114126 0 0,0 -0.49359694976649093,-0.39214326928697263 l 9.822428822472254 -12.147494176505242" fill="#ffa70f" stroke="none" /><path d="M 86.79598089348748 116.32954008644616 l -9.829294772998235 12.155985364941216 a36.63275458539395,36.63275458539395 0 0,0 -0.4869188608797607,-0.4007010732367612 l 10.037083762422686 -11.984989172847273" fill="#ffa70f" stroke="none" /><path d="M 86.51685102203217 116.09983520530335 l -10.041490736493119 11.990251412136029 a36.63961844602697,36.63961844602697 0 0,0 -0.48003923616886274,-0.4090998512919318 l 10.246395449239037 -11.815627170621147" fill="#ffa70f" stroke="none" /><path d="M 86.24171649860922 115.8653595955263 l -10.32815730248863 11.909910821838997 a36.764415912082086,36.764415912082086 0 0,0 -0.47453695589964656,-0.41872369011565075 l 10.531636611294864 -11.730363989951057" fill="#ffa90f" stroke="none" /><path d="M 85.70375840098266 115.38237550388516 l -10.638115698793072 11.446329386589175 a36.62651471209119,36.62651471209119 0 0,0 -0.45811775838209456,-0.43317893481900593 l 10.833569291565981 -11.261515815024241" fill="#ffa70f" stroke="none" /><path d="M 85.44109423537348 115.13401014063109 l -10.828378107143228 11.256119568976223 a36.619026864127875,36.619026864127875 0 0,0 -0.45050130163330987,-0.4409103416033478 l 11.020529361152333 -11.068059124450302" fill="#ffa70f" stroke="none" /><path d="M 85.18274418774928 114.88116024355367 l -11.043863948509657 11.091494350114319 a36.65209819263249,36.65209819263249 0 0,0 -0.44324494987638885,-0.4490047940766139 l 11.233149523441579 -10.899749062057042" fill="#ffa70f" stroke="none" /><path d="M 84.9287848128048 114.62390073753433 l -11.225536561318373 10.892362053045124 a36.6414904080178,36.6414904080178 0 0,0 -0.435324371643391,-0.4564358632641924 l 11.41136748434072 -10.697519073198432" fill="#ffa70f" stroke="none" /><path d="M 83.95833913139862 113.55231037782056 l -11.942874856371878 10.08957539888027 a36.63431455371963,36.63431455371963 0 0,0 -0.40280998912439525,-0.4852105807843154 l 12.11478084538981 -9.882503560982194" fill="#ffa70f" stroke="none" /><path d="M 83.50135304334701 112.99209946851258 l -12.276478783384226 9.667291741914376 a36.62589072476091,36.62589072476091 0 0,0 -0.385780825792052,-0.4986737211148787 l 12.441066426394347 -9.454540026686246" fill="#ffa70f" stroke="none" /><path d="M 83.28015986056508 112.70617746262583 l -12.440818022384557 9.454351253025463 a36.62557873109577,36.62557873109577 0 0,0 -0.37713660720817066,-0.505236116138874 l 12.601715896287812 -9.238802257377284" fill="#ffa70f" stroke="none" /><path d="M 83.06392112726016 112.41649034213515 l -12.61152894502601 9.24599658056155 a36.63774648403614,36.63774648403614 0 0,0 -0.3685063056784748,-0.5118230281150875 l 12.768815043080092 -9.027539946995322" fill="#ffa70f" stroke="none" /><path d="M 82.85270091963577 112.12312394758628 l -12.779005231055898 9.034744400087375 a36.65022623064166,36.65022623064166 0 0,0 -0.35976401845176775,-0.5182669010481845 l 12.932630156669797 -8.81343623685218" fill="#ffa70f" stroke="none" /><path d="M 82.64656182679789 111.8261652097733 l -3.4707361582291147 2.3652661102129917 a25.200058720084886,25.200058720084886 0 0,0 -0.2411968355335356,-0.36055654310624563 l 3.5109360991733833 -2.305172652900923" fill="#ff0000" stroke="none" /><path d="M 82.44556493220864 111.52570212397912 l -13.062601802347206 8.576502562263828 a36.62651471209119,36.62651471209119 0 0,0 -0.34149016438459723,-0.530000318626848 l 13.20829683010885 -8.350380643715532" fill="#ffa70f" stroke="none" /><path d="M 82.24976979558568 111.22182372390057 l -13.20407743248712 8.347713110067415 a36.62152281344898,36.62152281344898 0 0,0 -0.33227119262707977,-0.535726959965819 l 13.345813264782155 -8.11918981873633" fill="#ffa70f" stroke="none" /><path d="M 82.05923443525364 110.91462005526583 l -13.354875730350411 8.124703149150491 a36.63213059806367,36.63213059806367 0 0,0 -0.3230938643181599,-0.5415239009215908 l 13.492750470366804 -7.89361715434279" fill="#ffa70f" stroke="none" /><line stroke="#e1ed5e" stroke-width="0.3" x1="26.63291911575756" x2="22.317208475507996" y1="142.92168965132927" y2="145.44649492493687" /><path d="M 25.769776987707644 143.4266507060508 a86.0,86.0 0 0,1 -11.730757126820373,-40.83630448921669" fill="none" id="id45" stroke="none" /><text fill="#e1ed5e" style="font-size:6.75px; font-family:Arial;" text-anchor="middle"><textPath startOffset="21.46611528233685" xlink:href="#id45">September</textPath></text><path d="M 81.69416730710424 110.29060199501025 l -13.628802752015812 7.661415197131328 a36.63462654738477,36.63462654738477 0 0,0 -0.3042830047998837,-0.5523620386851337 l 13.758662166267214 -7.425682640048372" fill="#ffa70f" stroke="none" /><path d="M 81.51974371655577 109.97397251340807 l -13.755092909239723 7.42375627761381 a36.630570629737974,36.630570629737974 0 0,0 -0.29469728715168503,-0.5574562077186381 l 13.880842704616294 -7.185885054809046" fill="#ffa70f" stroke="none" /><path d="M 81.35079622478065 109.6543875284942 l -13.884998728500388 7.188036560344528 a36.63525053471504,36.63525053471504 0 0,0 -0.28509435119507215,-0.5625182018159895 l 14.006671749481727 -6.9479641468258535" fill="#ffa70f" stroke="none" /><path d="M 81.18737489456691 109.33194174019688 l -13.997448375419935 6.9433889220015494 a36.6249547437655,36.6249547437655 0 0,0 -0.2752918968065088,-0.5671828461878199 l 14.114893528841163 -6.701417119848446" fill="#ffa70f" stroke="none" /><path d="M 81.02952815118164 109.00673069616217 l -14.367423322612082 6.8213122844694425 a36.90450106772895,36.90450106772895 0 0,0 -0.26751437216047924,-0.5762021584378773 l 14.482712311612389 -6.572990058752738" fill="#ffab0f" stroke="none" /><path d="M 80.87730276802145 108.67885076344099 l -14.223610488668902 6.455396498253251 a36.6199628451233,36.6199628451233 0 0,0 -0.25557057294105257,-0.5762441733212698 l 14.332622146341233 -6.2096039884392855" fill="#ffa70f" stroke="none" /><path d="M 80.73074385275274 108.34839909993369 l -14.337202630798267 6.21158848187412 a36.6249547437655,36.6249547437655 0 0,0 -0.24564709235883556,-0.5806371633582664 l 14.44200070434941 -5.963876792849694" fill="#ffa70f" stroke="none" /><line stroke="#e1ed5e" stroke-width="0.3" x1="15.007084014347285" x2="10.007500721073583" y1="101.09737516637583" y2="101.16192664675087" /><path d="M 14.007167355692545 101.11028546245083 a86.0,86.0 0 0,1 10.666146001902534,-42.60595125391555" fill="none" id="id46" stroke="none" /><text fill="#e1ed5e" style="font-size:6.75px; font-family:Arial;" text-anchor="middle"><textPath startOffset="22.20632615414155" xlink:href="#id46">October</textPath></text><line stroke="#e1ed5e" stroke-width="0.3" x1="26.266209847984257" x2="21.92892807433627" y1="57.711370442889674" y2="55.22380399835377" /><path d="M 25.39875349325466 57.213857153982495 a86.0,86.0 0 0,1 29.58750427330802,-30.492523968695096" fill="none" id="id47" stroke="none" /><text fill="#e1ed5e" style="font-size:6.75px; font-family:Arial;" text-anchor="middle"><textPath startOffset="21.46611528233685" xlink:href="#id47">November</textPath></text><line stroke="#e1ed5e" stroke-width="0.3" x1="56.762969772571076" x2="54.21961505331055" y1="26.818313649435495" y2="22.513508569990535" /><path d="M 56.25429882871897 25.957352633546506 a86.0,86.0 0 0,1 42.265352541879196,-11.944610805530505" fill="none" id="id48" stroke="none" /><text fill="#e1ed5e" style="font-size:6.75px; font-family:Arial;" text-anchor="middle"><textPath startOffset="22.20632615414155" xlink:href="#id48">December</textPath></text></svg>