<?xml version="1.0" encoding="utf-8" ?>
<svg baseProfile="full" height="200mm" version="1.1" viewBox="0,0,200,200" width="200mm" xmlns="http://www.w3.org/2000/svg" xmlns:ev="http://www.w3.org/2001/xml-events" xmlns:xlink="http://www.w3.org/1999/xlink"><defs /><rect fill="#1a1a1a" height="200" width="200" x="0" y="0" /><text alignment-baseline="middle" fill="#e1ed5e" style="dominant-baseline: central; font-size:9.0px; font-family:Arial;" text-anchor="middle" x="100.0" y="100.0">2022</text><line stroke="#e1ed5e" stroke-width="0.3" x1="100.0" x2="100.0" y1="15.0" y2="10.0" /><path d="M 100.0 14.0 a86.0,86.0 0 0,1 42.46469731375804,11.215312516191453" fill="none" id="id25" stroke="none" /><text fill="#e1ed5e" style="font-size:6.75px; font-family:Arial;" text-anchor="middle"><textPath startOffset="22.20632615414155" xlink:href="#id25">January</textPath></text><path d="M 104.307194497241 79.44645832069477 l 12.37005118104265 -59.02876284959015 a81.31096923259291,81.31096923259291 0 0,0 1.3674076376485174,0.2988623467380069 l -13.384301542844694 58.807087004756276" fill="#49f0ff" stroke="none" /><path d="M 105.01212808612495 79.60689891045804 l 14.35898998225492 -58.42315464013559 a81.16182835831782,81.16182835831782 0 0,0 1.3538222405709714,0.34511943323116173 l -15.362521111510917 58.167332210735566" fill="#49f1ff" stroke="none" /><path d="M 105.36241919743992 79.69619591428918 l 6.9785686143721 -26.423053612173128 a48.32907210457894,48.32907210457894 0 0,0 0.8024975930821977,0.2193529067115665 l -7.4323640966780085 26.29901416463527" fill="#fdff18" stroke="none" /><line stroke="#e1ed5e" stroke-width="0.3" x1="143.23703022742887" x2="145.7803849466894" y1="26.81831364943548" y2="22.513508569990506" /><path d="M 143.74570117128098 25.957352633546492 a86.0,86.0 0 0,1 28.547481713284135,27.462654790039103" fill="none" id="id26" stroke="none" /><text fill="#e1ed5e" style="font-size:6.75px; font-family:Arial;" text-anchor="middle"><textPath startOffset="19.985693538727396" xlink:href="#id26">February</textPath></text><line stroke="#e1ed5e" stroke-width="0.3" x1="172.23445277983987" x2="176.4835382374775" y1="55.19839476539836" y2="52.563006222186495" /><path d="M 173.08426987136738 54.67131705675599 a86.0,86.0 0 0,1 12.851231095245387,41.99856678651699" fill="none" id="id27" stroke="none" /><text fill="#e1ed5e" style="font-size:6.75px; font-family:Arial;" text-anchor="middle"><textPath startOffset="22.20632615414155" xlink:href="#id27">March</textPath></text><path d="M 117.84615892207809 88.93136811851018 l 51.468664965441505 -31.922146856454585 a81.56440318578166,81.56440318578166 0 0,0 0.7297458467057695,1.199510298233351 l -52.0105266104335 31.03146878501415" fill="#49edff" stroke="none" /><path d="M 118.56541770881063 90.18545643968196 l 34.63825372469795 -18.31139246993952 a60.180552769004024,60.180552769004024 0 0,0 0.4762590560675385,0.9199809061095762 l -34.9483222139256 17.7124388415696" fill="#5eff2a" stroke="none" /><line stroke="#e1ed5e" stroke-width="0.3" x1="184.98032266829074" x2="189.97916517819016" y1="98.17113171792111" y2="98.06355123074" /><path d="M 185.9800911702706 98.14961562048488 a86.0,86.0 0 0,1 -9.607161424134198,41.387399972396054" fill="none" id="id28" stroke="none" /><text fill="#e1ed5e" style="font-size:6.75px; font-family:Arial;" text-anchor="middle"><textPath startOffset="21.466115282336823" xlink:href="#id28">April</textPath></text><path d="M 120.13307415673323 105.97154293290107 l 60.399222470199675 17.914628798703227 a84.0,84.0 0 0,0 -0.4230929099754692,1.3826921097917715 l -60.08190278771807 -18.951647881047055" fill="#4dd2ff" stroke="none" /><line stroke="#e1ed5e" stroke-width="0.3" x1="174.80103733775053" x2="179.2010983576182" y1="140.37084112569926" y2="142.7455964860345" /><path d="M 175.68104954172406 140.8457921977663 a86.0,86.0 0 0,1 -30.038265399797805,32.042727171017184" fill="none" id="id29" stroke="none" /><text fill="#e1ed5e" style="font-size:6.75px; font-family:Arial;" text-anchor="middle"><textPath startOffset="22.206326154141568" xlink:href="#id29">May</textPath></text><path d="M 118.12598468904814 110.60418214915192 l 17.076957013841064 9.990473115505967 a40.78464085911652,40.78464085911652 0 0,0 -0.35971883166132684,0.6029094528529226 l -16.90245730648151 -10.282944662244994" fill="#ff8e0d" stroke="none" /><path d="M 116.0416608686014 113.55231037782055 l 8.604411137254925 7.269175636214615 a32.26396046908248,32.26396046908248 0 0,0 -0.36205923597388456,0.421156687443937 l -8.47800939171026 -7.41620942282008" fill="#ff0000" stroke="none" /><path d="M 113.48314897796784 116.09983520530334 l 15.736171727479778 18.79010400231909 a45.5090821748735,45.5090821748735 0 0,0 -0.6049021075010251,0.49779325294753424 l -15.410399491434063 -19.058192374123802" fill="#ffd814" stroke="none" /><line stroke="#e1ed5e" stroke-width="0.3" x1="143.8653032363475" x2="146.44561519142675" y1="172.8068346515853" y2="177.08958963109032" /><path d="M 144.38136562736335 173.6633856474863 a86.0,86.0 0 0,1 -40.68145358897372,12.25698825130547" fill="none" id="id30" stroke="none" /><text fill="#e1ed5e" style="font-size:6.75px; font-family:Arial;" text-anchor="middle"><textPath startOffset="21.466115282336833" xlink:href="#id30">June</textPath></text><path d="M 110.5260780823613 118.17145234162733 l 21.213070539838604 36.62069550673367 a63.32103142794457,63.32103142794457 0 0,0 -0.9478592528188515,0.5382192213574735 l -20.579562520098555 -36.980417893885765" fill="#38ff2e" stroke="none" /><path d="M 109.57404056367764 118.69057910512821 l 19.301727228189755 37.68110832878175 a63.33701216284431,63.33701216284431 0 0,0 -0.9746241894986957,0.48869680148092653 l -18.650249131008298 -38.00777297117198" fill="#38ff2e" stroke="none" /><path d="M 108.92500713936063 119.00905698771935 l 18.09176426349656 38.533008716206744 a63.568823038571274,63.568823038571274 0 0,0 -0.9944948971222887,0.4565238303743677 l -17.425801370606855 -38.838719616915185" fill="#35ff2f" stroke="none" /><path d="M 108.2653958097858 119.30500536409082 l 16.98226269325957 39.66448551678876 a64.14705850338376,64.14705850338376 0 0,0 -1.0188035619125981,0.42585997150688143 l -16.29698767184951 -39.95093053131561" fill="#2fff30" stroke="none" /><path d="M 107.2578585660854 119.70592522655815 l 15.036302151433592 40.82529897519074 a64.50626872995335,64.50626872995335 0 0,0 -1.0452486412173774,0.3747889745751779 l -14.33133394958648 -41.07807549080588" fill="#30ff36" stroke="none" /><path d="M 106.57524785965236 119.94407469862006 l 13.499260208459093 40.9460235903338 a64.11388261379227,64.11388261379227 0 0,0 -1.0510972032035117,0.3365281319100978 l -12.792441660164641 -41.172324568903605" fill="#2fff30" stroke="none" /><path d="M 105.88484417918355 120.15858648285463 l 12.15426186220557 41.63453295011885 a64.3723462057288,64.3723462057288 0 0,0 -1.066339660997752,0.3013582395769431 l -11.43579103310321 -41.83757998303432" fill="#30ff34" stroke="none" /><path d="M 105.18746579009965 120.34920634021253 l 10.488162567923156 41.142591172685414 a63.45838388886129,63.45838388886129 0 0,0 -1.0608027247470995,0.2607195005407708 l -9.778406558432845 -41.317031931540214" fill="#37ff2e" stroke="none" /><path d="M 104.48393922423573 120.51570834832081 l 9.243432227972086 42.2921788728899 a64.29052359546634,64.29052359546634 0 0,0 -1.083168390345335,0.22698846764585787 l -8.514072376197372 -42.4450233212623" fill="#30ff32" stroke="none" /><path d="M 103.41894727170886 120.7198165907248 l 7.014728745574448 42.511299967882145 a64.08615838448868,64.08615838448868 0 0,0 -1.0899655911449375,0.17023020906229755 l -6.2819272908209935 -42.62574848429155" fill="#2fff30" stroke="none" /><path d="M 102.70371172650421 120.8252237178851 l 5.510266663367746 42.442592856675596 a63.79879352387111,63.79879352387111 0 0,0 -1.0902684494345016,0.13201632574001546 l -4.778870790881864 -42.53115471114096" fill="#33ff2f" stroke="none" /><path d="M 102.34483914955558 120.86867818915974 l 4.81654292503087 42.86643043544957 a64.1361790615013,64.1361790615013 0 0,0 -1.098156160418197,0.11382837611698654 l -4.07795416800707 -42.94298818002232" fill="#2fff30" stroke="none" /><path d="M 101.62511606390274 120.93702456842531 l 3.3740512174725743 43.46926032205955 a64.60000934134199,64.60000934134199 0 0,0 -1.1093890010722327,0.07650996078964849 l -2.6252994556214113 -43.52089862736548" fill="#30ff37" stroke="none" /><path d="M 100.90346689309514 120.98055641714683 l 1.8652842486869035 43.316143306061036 a64.356286236711,64.356286236711 0 0,0 -1.1071722123392556,0.03813324962816196 l -1.1193916846729957 -43.341833354115295" fill="#30ff33" stroke="none" /><line stroke="#e1ed5e" stroke-width="0.3" x1="102.19456741930631" x2="102.32365962044197" y1="184.97166512339345" y2="189.96999836594603" /><path d="M 102.22038585953345 185.97133177190398 a86.0,86.0 0 0,1 -42.740103519485714,-10.115201625700543" fill="none" id="id31" stroke="none" /><text fill="#e1ed5e" style="font-size:6.75px; font-family:Arial;" text-anchor="middle"><textPath startOffset="22.20632615414155" xlink:href="#id31">July</textPath></text><path d="M 100.18074693466247 120.99922214144158 l 0.38112133953969834 44.27876847141914 a65.28040865688791,65.28040865688791 0 0,0 -1.1237365484042772,0.0 l 0.38112133953966787 -44.27876847141914" fill="#31ff41" stroke="none" /><path d="M 99.45781275523022 120.99299961872073 l -1.1115270133038826 43.03732039361097 a64.05167173250798,64.05167173250798 0 0,0 -1.1019316875319853,-0.03795275535777465 l 1.8521790525105108 -43.0118108398271" fill="#30ff2f" stroke="none" /><path d="M 98.37488393609728 120.93702456842531 l -3.327872667815083 42.874323474047195 a64.00328301246807,64.00328301246807 0 0,0 -1.0976736219112684,-0.09471189886822692 l 4.065390607467893 -42.81068732290031" fill="#30ff2f" stroke="none" /><path d="M 97.65516085044442 120.86867818915974 l -4.773512342697983 42.48346541408889 a63.75080412899828,63.75080412899828 0 0,0 -1.0894483504914163,-0.13191702317902307 l 5.504088116240789 -42.39500286218452" fill="#33ff2f" stroke="none" /><path d="M 95.86986931433489 120.58985236759428 l -8.407610848337093 41.91428293837816 a63.74921092155379,63.74921092155379 0 0,0 -1.0740483405326058,-0.22507727253502263 l 9.127850650299086 -41.763349685116594" fill="#33ff2f" stroke="none" /><path d="M 95.16358092515715 120.4354850818985 l -9.680377594709036 40.90282683583387 a63.032736688661565,63.032736688661565 0 0,0 -1.0536873889619411,-0.258970724120038 l 10.383018268414187 -40.730134853399804" fill="#3bff2e" stroke="none" /><path d="M 94.46302465271185 120.25689768951611 l -11.38995016790608 41.66987222599117 a64.19848627160232,64.19848627160232 0 0,0 -1.0634596394644895,-0.3005443167238855 l 12.105540975475185 -41.46763911592876" fill="#30ff31" stroke="none" /><path d="M 93.42475214034765 119.94407469862007 l -13.436005650153882 40.75415954767041 a63.911860461508105,63.911860461508105 0 0,0 -1.041855440965087,-0.35345393218016663 l 14.135530824056195 -40.51684262859212" fill="#31ff2f" stroke="none" /><path d="M 92.06813273071674 119.44442032107085 l -16.262637498916597 39.86672347414568 a64.05611476881265,64.05611476881265 0 0,0 -1.0173591651954825,-0.42525621356198456 l 16.94646812360954 -39.580882217563726" fill="#30ff2f" stroke="none" /><path d="M 91.7346041902142 119.30500536409082 l -17.055181190150044 39.834797018622176 a64.33232348886543,64.33232348886543 0 0,0 -1.014242964685399,-0.4446143098648709 l 17.738344829493187 -39.53531815546285" fill="#30ff33" stroke="none" /><path d="M 91.07499286063937 119.00905698771935 l -18.287977686918317 38.95091674578471 a64.03050131260702,64.03050131260702 0 0,0 -0.9936537733034524,-0.477014195426025 l 18.955744128222012 -38.63034827385913" fill="#30ff2f" stroke="none" /><path d="M 90.7491055286396 118.85261126421891 l -18.88627559641691 38.48877675023271 a63.87280421937743,63.87280421937743 0 0,0 -0.9828689089921859,-0.4928308749925316 l 19.545998413091855 -38.157978034330874" fill="#32ff2f" stroke="none" /><line stroke="#e1ed5e" stroke-width="0.3" x1="58.666819895761336" x2="56.23545636021788" y1="174.27360380694188" y2="178.64263932499728" /><path d="M 58.180547188652646 175.14741091055294 a86.0,86.0 0 0,1 -31.652253787137756,-30.449443065178592" fill="none" id="id32" stroke="none" /><text fill="#e1ed5e" style="font-size:6.75px; font-family:Arial;" text-anchor="middle"><textPath startOffset="22.20632615414155" xlink:href="#id32">August</textPath></text><path d="M 89.7882731507175 118.34994917583269 l -21.193761251307016 38.0841014988118 a64.58410608179548,64.58410608179548 0 0,0 -0.9667663516239985,-0.5489551655040036 l 21.846176369852223 -37.71364316751316" fill="#30ff37" stroke="none" /><path d="M 89.1626897886671 117.98757091392108 l -12.601619347370743 20.9159392156213 a45.41879037642106,45.41879037642106 0 0,0 -0.6661872452310462,-0.40922661723443493 l 12.959785792534097 -20.69592413155849" fill="#ffd614" stroke="none" /><path d="M 87.65650970185807 116.9893568818739 l -25.24977846549243 34.75333857580616 a63.95748892476214,63.95748892476214 0 0,0 -0.8850955969440045,-0.6547725629719174 l 25.844259032855 -34.31355606409447" fill="#31ff2f" stroke="none" /><path d="M 87.36589467227662 116.77436683061367 l -34.66772069800683 46.02851164249512 a78.62356065376662,78.62356065376662 0 0,0 -1.0740400388150237,-0.823528102346593 l 35.45488946531535 -45.42494419832116" fill="#45ffef" stroke="none" /><path d="M 85.44109423537348 115.13401014063109 l -18.60330843460089 19.338174382761398 a47.83371150569712,47.83371150569712 0 0,0 -0.5884686497875891,-0.5759404300498524 l 18.933427036764275 -19.015083849788972" fill="#fffa17" stroke="none" /><line stroke="#e1ed5e" stroke-width="0.3" x1="26.63291911575756" x2="22.317208475507996" y1="142.92168965132927" y2="145.44649492493687" /><path d="M 25.769776987707644 143.4266507060508 a86.0,86.0 0 0,1 -11.730757126820373,-40.83630448921669" fill="none" id="id33" stroke="none" /><text fill="#e1ed5e" style="font-size:6.75px; font-family:Arial;" text-anchor="middle"><textPath startOffset="21.46611528233685" xlink:href="#id33">September</textPath></text><line stroke="#e1ed5e" stroke-width="0.3" x1="15.007084014347285" x2="10.007500721073583" y1="101.09737516637583" y2="101.16192664675087" /><path d="M 14.007167355692545 101.11028546245083 a86.0,86.0 0 0,1 10.666146001902534,-42.60595125391555" fill="none" id="id34" stroke="none" /><text fill="#e1ed5e" style="font-size:6.75px; font-family:Arial;" text-anchor="middle"><textPath startOffset="22.20632615414155" xlink:href="#id34">October</textPath></text><line stroke="#e1ed5e" stroke-width="0.3" x1="26.266209847984257" x2="21.92892807433627" y1="57.711370442889674" y2="55.22380399835377" /><path d="M 25.39875349325466 57.213857153982495 a86.0,86.0 0 0,1 29.58750427330802,-30.492523968695096" fill="none" id="id35" stroke="none" /><text fill="#e1ed5e" style="font-size:6.75px; font-family:Arial;" text-anchor="middle"><textPath startOffset="21.46611528233685" xlink:href="#id35">November</textPath></text><line stroke="#e1ed5e" stroke-width="0.3" x1="56.762969772571076" x2="54.21961505331055" y1="26.818313649435495" y2="22.513508569990535" /><path d="M 56.25429882871897 25.957352633546506 a86.0,86.0 0 0,1 42.265352541879196,-11.944610805530505" fill="none" id="id36" stroke="none" /><text fill="#e1ed5e" style="font-size:6.75px; font-family:Arial;" text-anchor="middle"><textPath startOffset="22.20632615414155" xlink:href="#id36">December</textPath></text></svg>