<?xml version="1.0" encoding="utf-8" ?>
<svg baseProfile="full" height="200mm" version="1.1" viewBox="0,0,200,200" width="200mm" xmlns="http://www.w3.org/2000/svg" xmlns:ev="http://www.w3.org/2001/xml-events" xmlns:xlink="http://www.w3.org/1999/xlink"><defs /><rect fill="#1a1a1a" height="200" width="200" x="0" y="0" /><text alignment-baseline="middle" fill="#e1ed5e" style="dominant-baseline: central; font-size:9.0px; font-family:Arial;" text-anchor="middle" x="100.0" y="100.0">2025</text><line stroke="#e1ed5e" stroke-width="0.3" x1="100.0" x2="100.0" y1="15.0" y2="10.0" /><path d="M 100.0 14.0 a86.0,86.0 0 0,1 42.46469731375804,11.215312516191453" fill="none" id="id61" stroke="none" /><text fill="#e1ed5e" style="font-size:6.75px; font-family:Arial;" text-anchor="middle"><textPath startOffset="22.20632615414155" xlink:href="#id61">January</textPath></text><path d="M 100.0 79.0 l 0.0 -36.424414478353434 a57.424414478353434,57.424414478353434 0 0,0 0.9884668984561674,0.008508046665149434 l -0.6269864191836391 36.41901780829684" fill="#99ff23" stroke="none" /><path d="M 100.36148047927253 79.00311137660856 l 0.6231137194665352 -36.19406888492617 a57.19943222143364,57.19943222143364 0 0,0 0.9843024422286939,0.02542162810769769 l -1.246042796890097 36.17798046467611" fill="#9cff22" stroke="none" /><path d="M 100.72285384407766 79.0124445844662 l 1.2338278885782639 -35.82332915142568 a56.84457061745919,56.84457061745919 0 0,0 0.9776160860660678,0.04209820513606896 l -1.850284807033663 35.79678321976542" fill="#a1ff22" stroke="none" /><path d="M 101.08401301168833 79.027996857942 l 1.888495816908648 -36.536037648004516 a57.584811923349896,57.584811923349896 0 0,0 0.9894659786846601,0.05968728994863861 l -2.5171238444329203 36.49811708867557" fill="#97ff23" stroke="none" /><path d="M 101.44485096284872 79.0497635885617 l 2.6123924992883674 -37.87950582228319 a58.96948190205819,58.96948190205819 0 0,0 1.01205618122484,0.07855503786153163 l -3.2640388698755487 37.8289255222332" fill="#83ff25" stroke="none" /><path d="M 101.80526077348638 79.07773832637324 l 3.1385388052886594 -36.37442918025982 a57.509581263307304,57.509581263307304 0 0,0 0.9855358689631424,0.09358850594445889 l -3.7641998013420457 36.31501512980018" fill="#98ff23" stroke="none" /><path d="M 102.16513564639614 79.11191278185805 l 3.7649315380166195 -36.32207453945179 a57.51667849538679,57.51667849538679 0 0,0 0.9839002866223377,0.11055266128591835 l -4.3895985281486825 36.25188592469527" fill="#98ff23" stroke="none" /><path d="M 102.52436894288641 79.15227682838746 l 4.413827828894898 -36.4519857381644 a57.71823988644429,57.71823988644429 0 0,0 0.9852923283686308,0.12791922230141548 l -5.040634885771374 36.37060819269885" fill="#95ff23" stroke="none" /><path d="M 102.88285421437855 79.19881850522331 l 7.953010369099771 -57.38479985993548 a78.9332860184528,78.9332860184528 0 0,0 1.3442376931855144,0.19810569316534915 l -8.939617042713941 57.23939968260916" fill="#45ffef" stroke="none" /><path d="M 103.2404852339499 79.25152402106235 l 5.627288951165904 -36.03092166770601 a57.46770759403832,57.46770759403832 0 0,0 0.9760501375687924,0.161056635819146 l -6.2466682948735714 35.92871876894724" fill="#98ff23" stroke="none" /><path d="M 103.59715602781102 79.31037775812273 l 6.392310017179754 -36.76640059144104 a58.31795599716111,58.31795599716111 0 0,0 0.9875309371379444,0.18046496662306313 l -7.024236075420599 36.65092014346724" fill="#8cff24" stroke="none" /><path d="M 103.95276090670814 79.375362276772 l 6.98295711634213 -36.435535606765164 a58.09865152590489,58.09865152590489 0 0,0 0.9805768412116547,0.19669448955908103 l -7.609100367020909 36.30993716112888" fill="#8fff24" stroke="none" /><path d="M 104.307194497241 79.44645832069477 l 7.796445641208923 -37.203931826080904 a59.01206529453512,59.01206529453512 0 0,0 0.992406677213914,0.21690166143920223 l -8.435695042576365 37.06421666654583" fill="#83ff25" stroke="none" /><path d="M 104.66035177308747 79.52364482259891 l 8.071075949173496 -35.4621766437102 a57.36905606813342,57.36905606813342 0 0,0 0.961003572670867,0.22743849687103868 l -8.680303208806887 35.317992234698295" fill="#9aff23" stroke="none" /><path d="M 105.01212808612495 79.60689891045804 l 9.306374566619514 -37.86532068875039 a59.99219304471256,59.99219304471256 0 0,0 1.0007015224692797,0.2551010996262722 l -9.95678497777382 37.69951659295524" fill="#75ff27" stroke="none" /><path d="M 105.36241919743992 79.69619591428918 l 9.78642862758985 -37.054493920997146 a59.325053229240595,59.325053229240595 0 0,0 0.9850843468072336,0.2692607637591991 l -10.422810863620793 36.88054661641166" fill="#7fff26" stroke="none" /><path d="M 105.71112130821622 79.79150937346287 l 9.667929136072257 -34.20943887906376 a56.54932576295244,56.54932576295244 0 0,0 0.9344366295661486,0.27278767610989024 l -10.25535598336183 34.03795287403517" fill="#a5ff21" stroke="none" /><path d="M 106.0581310904928 79.89281104454417 l 11.067979671156822 -36.73508467856403 a59.366217175301635,59.366217175301635 0 0,0 0.9759088826545863,0.3032196403218021 l -11.698673926522126 36.539124903359706" fill="#7eff26" stroke="none" /><path d="M 106.40334571778207 80.00007090966166 l 11.078227403392543 -34.601249452955834 a57.331440738112136,57.331440738112136 0 0,0 0.937279449094512,0.30900629809520086 l -11.672189674729474 34.4054294306014" fill="#9aff22" stroke="none" /><path d="M 106.74666289553966 80.11325718540242 l 11.677205950497559 -34.42021561269343 a57.34705464868701,57.34705464868701 0 0,0 0.9320753221697037,0.3251827781263068 l -12.267963276730535 34.214111981394915" fill="#9aff23" stroke="none" /><path d="M 107.08798089147638 80.2323363322302 l 5.4360590209291795 -15.160620217401732 a37.10574875798439,37.10574875798439 0 0,0 0.5993774187690749,0.22075576168676642 l -5.696218765470831 15.06480118790864" fill="#ff1a02" stroke="none" /><path d="M 107.4271985657038 80.35727306442388 l 13.666858640267494 -36.14476844304682 a59.64229950319375,59.64229950319375 0 0,0 0.9571647147956328,0.37136503889465705 l -14.287006520062794 35.90416070026162" fill="#7aff26" stroke="none" /><path d="M 107.76421540070413 80.48803036053334 l 13.41898041084892 -33.72275559811705 a57.29453513129879,57.29453513129879 0 0,0 0.9132097663276438,0.3725211930167295 l -13.997474046764953 33.48677351891674" fill="#9bff22" stroke="none" /><path d="M 108.09893153111575 80.62456947434976 l 14.904563137106553 -35.65684269198798 a59.646557842441446,59.646557842441446 0 0,0 0.9438819029972735,0.40412097167701283 l -15.516128797894142 35.39500219234818" fill="#7aff26" stroke="none" /><path d="M 108.43124777332544 80.76684994638697 l 14.460121354319027 -32.986064610858776 a57.01632363378282,57.01632363378282 0 0,0 0.8954763368431762,0.4017741298328414 l -15.025779809628983 32.7322701505094" fill="#9fff22" stroke="none" /><path d="M 108.76106565485865 80.91482961587045 l 16.24508659142992 -35.388417084905484 a59.93896380411639,59.93896380411639 0 0,0 0.9339683308967438,0.43851065450407894 l -16.851833133626265 35.1035414477614" fill="#76ff27" stroke="none" /><path d="M 109.08828744355905 81.06846463323043 l 15.775269292682855 -32.86098402910827 a57.4513839602555,57.4513839602555 0 0,0 0.8878392783389961,0.43565887803729375 l -16.338579838032285 32.58456999093615" fill="#99ff23" stroke="none" /><path d="M 109.41281617654863 81.2277094730956 l 16.731456514433567 -33.36809693678518 a58.32789212207239,58.32789212207239 0 0,0 0.8936375033967255,0.457755838308745 l -17.303354505419048 33.075148573163936" fill="#8cff24" stroke="none" /><path d="M 109.73455568895987 81.39251694778311 l 28.273934585991412 -54.04527699451054 a81.9943222143364,81.9943222143364 0 0,0 1.244966466409281,0.6650179704367281 l -29.200046098929008 53.550580297572054" fill="#4aeaff" stroke="none" /><path d="M 110.05341064243156 81.56283822128135 l 17.85925254649126 -32.75245985247181 a58.305180979418026,58.305180979418026 0 0,0 0.8770096263663582,0.4880549075547027 l -18.420386261929654 32.44018954735693" fill="#8dff24" stroke="none" /><path d="M 110.36928655335952 81.73862282372117 l 25.914980950163347 -45.63893949807845 a73.4833215046132,73.4833215046132 0 0,0 1.0945630036163723,0.6340415408479182 l -26.696740686245047 45.186093799840485" fill="#3cffa6" stroke="none" /><line stroke="#e1ed5e" stroke-width="0.3" x1="143.23703022742887" x2="145.7803849466894" y1="26.81831364943548" y2="22.513508569990506" /><path d="M 143.74570117128098 25.957352633546492 a86.0,86.0 0 0,1 28.547481713284135,27.462654790039103" fill="none" id="id62" stroke="none" /><text fill="#e1ed5e" style="font-size:6.75px; font-family:Arial;" text-anchor="middle"><textPath startOffset="19.985693538727396" xlink:href="#id62">February</textPath></text><path d="M 110.68208982089419 81.91981866633111 l 15.941003688242386 -26.981259487292004 a52.338537970191624,52.338537970191624 0 0,0 0.7717141311561837,0.4649491292532518 l -16.403079885616208 26.702863748580135" fill="#e3ff1b" stroke="none" /><path d="M 110.99172775467656 82.1063720568725 l 18.95403444614086 -30.855607777964586 a57.21220723917672,57.21220723917672 0 0,0 0.8347011689806048,0.5226897954400224 l -19.482354767493728 30.52477364120162" fill="#9cff22" stroke="none" /><path d="M 111.2981086023043 82.29822771554956 l 20.283444086079502 -31.77991299206772 a58.701206529453515,58.701206529453515 0 0,0 0.8470667240319777,0.5509557600042394 l -20.82747783589576 31.426058307903954" fill="#87ff25" stroke="none" /><path d="M 111.90073688211348 82.69761687909136 l 21.804946072084206 -31.702031110106482 a59.47693399574165,59.47693399574165 0 0,0 0.8385365747227448,0.5874484579355133 l -22.3474137863906 31.321997809407033" fill="#7cff26" stroke="none" /><path d="M 112.48926042617603 83.11751280151076 l 22.397432356422275 -30.275961276603972 a58.660042583392475,58.660042583392475 0 0,0 0.8065863293643628,0.6075041009889725 l -22.91526483954502 29.88594058610915" fill="#88ff25" stroke="none" /><path d="M 112.77801427241765 83.33499621200491 l 23.261608664834114 -30.337639968919387 a59.22924059616749,59.22924059616749 0 0,0 0.8037335882160567,0.6273268142135544 l -23.7803748082096 29.932734765482607" fill="#80ff26" stroke="none" /><path d="M 113.06298171725822 83.55741782278167 l 23.950786479535488 -30.147234637746163 a59.50319375443577,59.50319375443577 0 0,0 0.796483120901452,0.6440339587473577 l -24.46617299900143 29.73049458173468" fill="#7cff26" stroke="none" /><path d="M 113.34407831869373 83.78471172551755 l 23.817662247631613 -28.942445491238015 a58.482611781405254,58.482611781405254 0 0,0 0.7718102416267806,0.6463688812881306 l -24.31233002621751 28.528175452556066" fill="#8aff24" stroke="none" /><path d="M 113.6212207817346 84.01681056812373 l 24.746898021687358 -29.038099100658094 a59.152590489709006,59.152590489709006 0 0,0 0.7692828232784747,0.667114483708266 l -25.243074643612598 28.607819623530155" fill="#81ff25" stroke="none" /><path d="M 113.89432698308785 84.25364557470405 l 25.630006457261743 -29.046327043397135 a59.73740241305891,59.73740241305891 0 0,0 0.7651764227937923,0.6869829474429157 l -26.126193867651523 28.600845087184926" fill="#79ff26" stroke="none" /><path d="M 114.42810811169701 84.74124197986012 l 25.731076986249594 -27.212457398518403 a58.45138396025549,58.45138396025549 0 0,0 0.725122140747185,0.6975669248852727 l -26.195682370609198 26.765507386870826" fill="#8bff24" stroke="none" /><path d="M 114.68862486808459 84.99185889309783 l 25.886411584411068 -26.44950914733587 a58.00922640170334,58.00922640170334 0 0,0 0.707613669719284,0.7045749517426321 l -26.337861054297672 25.999998344943123" fill="#91ff24" stroke="none" /><path d="M 114.94478906791727 85.2469230424477 l 26.955067862266677 -26.60928760926868 a58.87650816181689,58.87650816181689 0 0,0 0.7057771967954707,0.7273654408648137 l -27.409109322765257 26.14135797285375" fill="#85ff25" stroke="none" /><path d="M 115.19652480421416 85.50635884689758 l 10.634331765049794 -10.142462865123477 a35.69552874378992,35.69552874378992 0 0,0 0.4202429126194048,0.4482858385926606 l -10.807341999639661 9.95790760965276" fill="#ff0000" stroke="none" /><path d="M 115.4437574822437 85.77008943001954 l 26.234397320964373 -24.17242877349448 a56.672817601135556,56.672817601135556 0 0,0 0.6548580759582385,0.7231106435145483 l -26.646599037538646 23.717265342710384" fill="#a4ff21" stroke="none" /><path d="M 115.68641384162765 86.03803664274999 l 27.16932045589833 -24.18252256229362 a57.37260468417316,57.37260468417316 0 0,0 0.650245082026905,0.7433425349848289 l -27.58155740150308 23.711264471105842" fill="#9aff23" stroke="none" /><path d="M 115.92442197804982 86.31012108654704 l 16.442696281502514 -14.135428049741963 a42.68346344925479,42.68346344925479 0 0,0 0.4741713810629336,0.5612693538259454 l -16.683578276052565 13.85029974628691" fill="#ff7e0b" stroke="none" /><path d="M 116.15771136456269 86.58626213691792 l 28.534969324925598 -23.689035521151563 a58.086586231369765,58.086586231369765 0 0,0 0.6320415497143665,0.7748082065157522 l -28.938509366716374 23.19434314502771" fill="#90ff24" stroke="none" /><path d="M 116.38621287248628 86.86637796730983 l 28.041362965911084 -22.47527634003403 a56.93683463449255,56.93683463449255 0 0,0 0.6063662252333579,0.7700235285920933 l -28.424083271738407 21.989260417488897" fill="#a0ff22" stroke="none" /><path d="M 116.60985879189232 87.15038557335679 l 28.709250336062354 -22.20986956713014 a57.29737402413059,57.29737402413059 0 0,0 0.5967768695740666,0.7852884069611139 l -29.08730314586053 21.71239638428799" fill="#9bff22" stroke="none" /><path d="M 116.82858285166822 87.43820079747576 l 29.32446962830825 -21.889430764207983 a57.59332860184528,57.59332860184528 0 0,0 0.5861832186667864,0.7995532514955543 l -29.696915459488668 21.381415069040933" fill="#97ff23" stroke="none" /><path d="M 117.04232023915458 87.72973835380427 l 29.41987480130375 -21.181949191457363 a57.25195173882185,57.25195173882185 0 0,0 0.568940943785203,0.8047266170277774 l -29.780128364892835 20.672396074097794" fill="#9bff22" stroke="none" /><path d="M 117.2510076193507 88.02491185347247 l 30.959579796639314 -21.491132879005875 a58.68772178850248,58.68772178850248 0 0,0 0.5689230629418625,0.8348243934484714 l -31.32492732524991 20.955030462287" fill="#87ff25" stroke="none" /><path d="M 117.45458315368197 88.32363383020206 l 30.25307705689883 -20.238008686271492 a57.39815471965933,57.39815471965933 0 0,0 0.5422850962203244,0.8259374055855079 l -30.59695878847708 19.71425321670831" fill="#99ff23" stroke="none" /><path d="M 117.65298651832404 88.62581576622439 l 31.930374073496996 -20.573400256570707 a58.98438608942512,58.98438608942512 0 0,0 0.5425788402309936,0.8582294246551095 l -32.279780509973946 20.02072318420139" fill="#83ff25" stroke="none" /><line stroke="#e1ed5e" stroke-width="0.3" x1="172.23445277983987" x2="176.4835382374775" y1="55.19839476539836" y2="52.563006222186495" /><path d="M 173.08426987136738 54.67131705675599 a86.0,86.0 0 0,1 12.851231095245387,41.99856678651699" fill="none" id="id63" stroke="none" /><text fill="#e1ed5e" style="font-size:6.75px; font-family:Arial;" text-anchor="middle"><textPath startOffset="22.20632615414155" xlink:href="#id63">March</textPath></text><path d="M 117.84615892207809 88.93136811851018 l 30.376286726538257 -18.84012896952763 a56.74449964513839,56.74449964513839 0 0,0 0.507685477022594,0.8345014373170507 l -30.696088001847077 18.314459759003498" fill="#a3ff22" stroke="none" /><path d="M 118.03404312379186 89.2402003453031 l 33.104162096345085 -19.75120883588029 a59.548616039744495,59.548616039744495 0 0,0 0.5176201788922119,0.8847806747730158 l -33.43924194970763 19.178448748753382" fill="#7bff26" stroke="none" /><path d="M 118.21658344932153 89.55222093294921 l 26.78956410198983 -15.36465099610153 a51.88289567068843,51.88289567068843 0 0,0 0.43765040550877926,0.778531237055553 l -27.050072148791042 14.901236249111184" fill="#eaff1a" stroke="none" /><path d="M 118.3937258080291 89.86733742301442 l 33.459187464644224 -18.43186422466701 a59.20014194464158,59.20014194464158 0 0,0 0.48400880461962864,0.8967948067622941 l -33.77150436848232 17.853188434572257" fill="#80ff25" stroke="none" /><path d="M 118.56541770881063 90.18545643968196 l 32.50532393195592 -17.183826546548946 a57.76792051100071,57.76792051100071 0 0,0 0.45716587880402615,0.8830989648727341 l -32.79629924392007 16.62175485941587" fill="#94ff23" stroke="none" /><path d="M 118.73160827565052 90.50648371742162 l 33.183098819993006 -16.817791847778278 a58.20156139105748,58.20156139105748 0 0,0 0.4452141937119474,0.8975246471849375 l -33.46767302665836 16.24410761209439" fill="#8eff24" stroke="none" /><path d="M 118.89224826269711 90.83032412892265 l 19.489235390535892 -9.459433785824622 a42.66359119943222,42.66359119943222 0 0,0 0.3149828684169965,0.6634342515326708 l -19.649176452794645 9.122557118651411" fill="#ff7e0b" stroke="none" /><path d="M 119.04729006885535 91.15688171328212 l 34.434338448856344 -15.986889837206828 a58.964513839602546,58.964513839602546 0 0,0 0.41948389281044196,0.9242771531107026 l -34.70442465863013 15.391790675254061" fill="#83ff25" stroke="none" /><path d="M 119.196687751892 91.48605970444005 l 35.08136458846384 -15.558967643442255 a59.37686302342087,59.37686302342087 0 0,0 0.40633365889829476,0.9378741074587056 l -35.343988957204814 14.952794391396948" fill="#7eff26" stroke="none" /><path d="M 119.34039704204932 91.81776055985345 l 34.86029928161197 -14.748162359705828 a58.85166784953868,58.85166784953868 0 0,0 0.3866787549434837,0.936373276179364 l -35.108999723441656 14.145914513073162" fill="#85ff25" stroke="none" /><path d="M 119.47837535516314 92.15188598940014 l 16.730640090961874 -6.741012456635748 a39.03761533002129,39.03761533002129 0 0,0 0.2457630735174203,0.625440215441964 l -16.844196714360994 6.452023236298" fill="#ff3e05" stroke="none" /><path d="M 119.7369772167798 92.82701384747503 l 36.24415810101549 -13.172171265794608 a59.563520227111425,59.563520227111425 0 0,0 0.3419142314048036,0.9666375748469489 l -36.465525413230104 12.546336064521045" fill="#7bff26" stroke="none" /><path d="M 119.85752413597 93.16781622104841 l 36.740681210849075 -12.641006224018497 a59.854506742370475,59.854506742370475 0 0,0 0.32681332014457304,0.9771302296477288 l -36.95283182476542 12.006702891448455" fill="#77ff27" stroke="none" /><path d="M 119.97218684219823 93.5106431181261 l 36.39124273920291 -11.824231536359768 a59.264017033356986,59.264017033356986 0 0,0 0.30688746963072355,0.9729171432929372 l -36.58938569260184 11.196064226640413" fill="#7fff26" stroke="none" /><path d="M 120.08093135843002 93.85539295169968 l 37.115348780329825 -11.357004794501197 a59.81405251951738,59.81405251951738 0 0,0 0.2927872318503482,0.9871329934697337 l -37.30534190929187 10.716442414284932" fill="#78ff26" stroke="none" /><path d="M 120.18372546131832 94.20196356495316 l 37.219392758995276 -10.691752408174018 a59.72462739531583,59.72462739531583 0 0,0 0.2753397168981518,0.9905434585382528 l -37.39791924645979 10.049497646216814" fill="#79ff26" stroke="none" /><path d="M 120.28053869075195 94.5502522615342 l 37.0339675737169 -9.951697245759705 a59.347764371894954,59.347764371894954 0 0,0 0.2566187952507088,0.9888568994957442 l -37.199782700837915 9.31274392071511" fill="#7eff26" stroke="none" /><path d="M 120.37134235888165 94.90015583598534 l 37.897209778790774 -9.48734063362014 a60.066713981547196,60.066713981547196 0 0,0 0.24246129246429435,1.0051585894669581 l -38.05490387151589 8.833596812493774" fill="#74ff27" stroke="none" /><path d="M 120.45610955862082 95.25157060432595 l 37.02411339695088 -8.59432180391119 a59.008516678495376,59.008516678495376 0 0,0 0.2211572132038794,0.991404422221344 l -37.1665649971568 7.955739212139882" fill="#83ff25" stroke="none" /><path d="M 120.53481517161879 95.60439243477599 l 38.358165850503305 -8.210808940400037 a60.22711142654365,60.22711142654365 0 0,0 0.20827310651435882,1.0156136340522788 l -38.49381825293266 7.549319650184347" fill="#72ff27" stroke="none" /><path d="M 120.6074358757038 95.95851677861258 l 37.381578059161356 -7.3311896456368535 a59.093683463449246,59.093683463449246 0 0,0 0.18717017033672598,0.9998705341929308 l -37.50223395340794 6.68664103398136" fill="#82ff25" stroke="none" /><path d="M 120.67395015179393 96.31383870115 l 35.85818364054941 -6.39350718234075 a57.42370475514549,57.42370475514549 0 0,0 0.16512907784645495,0.9746011648709169 l -35.96292457991609 5.775320229153996" fill="#99ff23" stroke="none" /><path d="M 120.73433829027371 96.67025291283417 l 37.45270805367735 -6.01456597275177 a58.93257629524485,58.93257629524485 0 0,0 0.1522259499264691,1.002978813187707 l -37.550689897043114 5.36898804717198" fill="#84ff25" stroke="none" /><path d="M 120.78858239683441 97.02765380044208 l 37.979965095409604 -5.430365705353396 a59.366217175301635,59.366217175301635 0 0,0 0.13593167821856691,1.012848891186489 l -38.06781277268601 4.775798472102243" fill="#7eff26" stroke="none" /><path d="M 120.83666639777658 97.38593545837742 l 14.734746280951608 -1.8485479897566934 a35.850248403122784,35.850248403122784 0 0,0 0.07154625025278696,0.6129645796071754 l -14.764382884207985 1.5946396718246652" fill="#ff0300" stroke="none" /><path d="M 120.91429891909075 98.10471618934814 l 23.46735741027856 -2.126645638495811 a44.563520227111425,44.563520227111425 0 0,0 0.06265528273932626,0.7645531494313494 l -23.50048717683738 1.7223785718566926" fill="#ff9e0e" stroke="none" /><path d="M 120.94382443527127 98.46500227214037 l 38.42426271481634 -2.8161597775139473 a59.52732434350603,59.52732434350603 0 0,0 0.06610200108471571,1.0225686993423542 l -38.46704530690547 2.154332013918558" fill="#7cff26" stroke="none" /><path d="M 120.96714384426684 98.82574320788733 l 38.590343932371084 -2.1612373058117473 a59.65081618168913,59.65081618168913 0 0,0 0.04859096337122201,1.0256784382895707 l -38.621828503975806 1.4966477608991768" fill="#7aff26" stroke="none" /><path d="M 120.98425023603335 99.18683210126433 l 39.153012505692296 -1.517231854858183 a60.18239886444287,60.18239886444287 0 0,0 0.031204016534680645,1.035509395680907 l -39.17332821668262 0.8430523117522769" fill="#73ff27" stroke="none" /><line stroke="#e1ed5e" stroke-width="0.3" x1="184.98032266829074" x2="189.97916517819016" y1="98.17113171792111" y2="98.06355123074" /><path d="M 185.9800911702706 98.14961562048488 a86.0,86.0 0 0,1 -9.607161424134198,41.387399972396054" fill="none" id="id64" stroke="none" /><text fill="#e1ed5e" style="font-size:6.75px; font-family:Arial;" text-anchor="middle"><textPath startOffset="21.466115282336823" xlink:href="#id64">April</textPath></text><path d="M 120.99980553446 99.90962569577887 l 38.822919407415945 -0.16707746762324702 a59.82327892122072,59.82327892122072 0 0,0 -0.004431773198502873,1.0297880148951708 l -38.82004333692794 -0.5012200254756085" fill="#78ff26" stroke="none" /><path d="M 120.99824983174949 100.27111621757518 l 38.47656593253554 0.4967852608905807 a59.47977288857346,59.47977288857346 0 0,0 -0.0220299973827294,1.023647413162927 l -38.4623138724678 -1.1590224898436225" fill="#7cff26" stroke="none" /><path d="M 120.9904718944345 100.63252640178507 l 52.34955162316738 1.577500195793284 a73.37331440738112,73.37331440738112 0 0,0 -0.04890809082578188,1.2621005059971948 l -52.31464139949039 -2.478377948804485" fill="#3cffa5" stroke="none" /><path d="M 120.9764740272857 100.99374915477107 l 23.324443947809222 1.1049829646531746 a44.35060326472676,44.35060326472676 0 0,0 -0.042689882491408766,0.7622565293250666 l -23.301967714430283 -1.5063112103136647" fill="#ff9a0e" stroke="none" /><path d="M 120.89721153311464 102.0752229133903 l 37.11975872685703 3.6862226200574795 a58.30234208658622,58.30234208658622 0 0,0 -0.10776965413807799,0.9978131518404864 l -37.05080677121789 -4.324632093782757" fill="#8dff24" stroke="none" /><path d="M 120.76222939487914 103.15116336523771 l 62.28668818463745 9.453490095713112 a84.0,84.0 0 0,0 -0.2292729825548463,1.4276830812271801 l -62.114733447721314 -10.524252406633499" fill="#4dd2ff" stroke="none" /><path d="M 120.70491114924044 103.5080841355445 l 37.82570134453145 6.408901822670366 a59.36479772888573,59.36479772888573 0 0,0 -0.17937655312915476,1.0060389703916979 l -37.70977834906311 -7.059059543795282" fill="#7eff26" stroke="none" /><path d="M 120.5718875245553 104.21870165774334 l 37.30527455828393 7.650237414226035 a59.08161816891412,59.08161816891412 0 0,0 -0.21287940154601406,0.9945016928210345 l -37.16806111801347 -8.291252926463239" fill="#82ff25" stroke="none" /><path d="M 120.13307415673323 105.97154293290107 l 37.119866421522325 11.009887227060233 a59.71823988644428,59.71823988644428 0 0,0 -0.3007900463353434,0.9829992750195091 l -36.92484960268085 -11.6472134746318" fill="#79ff26" stroke="none" /><line stroke="#e1ed5e" stroke-width="0.3" x1="174.80103733775053" x2="179.2010983576182" y1="140.37084112569926" y2="142.7455964860345" /><path d="M 175.68104954172406 140.8457921977663 a86.0,86.0 0 0,1 -30.038265399797805,32.042727171017184" fill="none" id="id65" stroke="none" /><text fill="#e1ed5e" style="font-size:6.75px; font-family:Arial;" text-anchor="middle"><textPath startOffset="22.206326154141568" xlink:href="#id65">May</textPath></text><line stroke="#e1ed5e" stroke-width="0.3" x1="143.8653032363475" x2="146.44561519142675" y1="172.8068346515853" y2="177.08958963109032" /><path d="M 144.38136562736335 173.6633856474863 a86.0,86.0 0 0,1 -40.68145358897372,12.25698825130547" fill="none" id="id66" stroke="none" /><text fill="#e1ed5e" style="font-size:6.75px; font-family:Arial;" text-anchor="middle"><textPath startOffset="21.466115282336833" xlink:href="#id66">June</textPath></text><line stroke="#e1ed5e" stroke-width="0.3" x1="102.19456741930631" x2="102.32365962044197" y1="184.97166512339345" y2="189.96999836594603" /><path d="M 102.22038585953345 185.97133177190398 a86.0,86.0 0 0,1 -42.740103519485714,-10.115201625700543" fill="none" id="id67" stroke="none" /><text fill="#e1ed5e" style="font-size:6.75px; font-family:Arial;" text-anchor="middle"><textPath startOffset="22.20632615414155" xlink:href="#id67">July</textPath></text><line stroke="#e1ed5e" stroke-width="0.3" x1="58.666819895761336" x2="56.23545636021788" y1="174.27360380694188" y2="178.64263932499728" /><path d="M 58.180547188652646 175.14741091055294 a86.0,86.0 0 0,1 -31.652253787137756,-30.449443065178592" fill="none" id="id68" stroke="none" /><text fill="#e1ed5e" style="font-size:6.75px; font-family:Arial;" text-anchor="middle"><textPath startOffset="22.20632615414155" xlink:href="#id68">August</textPath></text><line stroke="#e1ed5e" stroke-width="0.3" x1="26.63291911575756" x2="22.317208475507996" y1="142.92168965132927" y2="145.44649492493687" /><path d="M 25.769776987707644 143.4266507060508 a86.0,86.0 0 0,1 -11.730757126820373,-40.83630448921669" fill="none" id="id69" stroke="none" /><text fill="#e1ed5e" style="font-size:6.75px; font-family:Arial;" text-anchor="middle"><textPath startOffset="21.46611528233685" xlink:href="#id69">September</textPath></text><line stroke="#e1ed5e" stroke-width="0.3" x1="15.007084014347285" x2="10.007500721073583" y1="101.09737516637583" y2="101.16192664675087" /><path d="M 14.007167355692545 101.11028546245083 a86.0,86.0 0 0,1 10.666146001902534,-42.60595125391555" fill="none" id="id70" stroke="none" /><text fill="#e1ed5e" style="font-size:6.75px; font-family:Arial;" text-anchor="middle"><textPath startOffset="22.20632615414155" xlink:href="#id70">October</textPath></text><line stroke="#e1ed5e" stroke-width="0.3" x1="26.266209847984257" x2="21.92892807433627" y1="57.711370442889674" y2="55.22380399835377" /><path d="M 25.39875349325466 57.213857153982495 a86.0,86.0 0 0,1 29.58750427330802,-30.492523968695096" fill="none" id="id71" stroke="none" /><text fill="#e1ed5e" style="font-size:6.75px; font-family:Arial;" text-anchor="middle"><textPath startOffset="21.46611528233685" xlink:href="#id71">November</textPath></text><line stroke="#e1ed5e" stroke-width="0.3" x1="56.762969772571076" x2="54.21961505331055" y1="26.818313649435495" y2="22.513508569990535" /><path d="M 56.25429882871897 25.957352633546506 a86.0,86.0 0 0,1 42.265352541879196,-11.944610805530505" fill="none" id="id72" stroke="none" /><text fill="#e1ed5e" style="font-size:6.75px; font-family:Arial;" text-anchor="middle"><textPath startOffset="22.20632615414155" xlink:href="#id72">December</textPath></text></svg>