<?xml version="1.0" encoding="utf-8" ?>
<svg baseProfile="full" height="200mm" version="1.1" viewBox="0,0,200,200" width="200mm" xmlns="http://www.w3.org/2000/svg" xmlns:ev="http://www.w3.org/2001/xml-events" xmlns:xlink="http://www.w3.org/1999/xlink"><defs /><rect fill="#1a1a1a" height="200" width="200" x="0" y="0" /><text alignment-baseline="middle" fill="#e1ed5e" style="dominant-baseline: central; font-size:9.0px; font-family:Arial;" text-anchor="middle" x="100.0" y="100.0">2021</text><line stroke="#e1ed5e" stroke-width="0.3" x1="100.0" x2="100.0" y1="15.0" y2="10.0" /><path d="M 100.0 14.0 a86.0,86.0 0 0,1 42.46469731375804,11.215312516191453" fill="none" id="id13" stroke="none" /><text fill="#e1ed5e" style="font-size:6.75px; font-family:Arial;" text-anchor="middle"><textPath startOffset="22.20632615414155" xlink:href="#id13">January</textPath></text><path d="M 102.88285421437855 79.19881850522331 l 4.2232724368079495 -30.47294449430459 a51.764206088057435,51.764206088057435 0 0,0 0.8815469428844364,0.12991710399376089 l -4.747188360121042 30.39573290614986" fill="#95ff23" stroke="none" /><line stroke="#e1ed5e" stroke-width="0.3" x1="143.23703022742887" x2="145.7803849466894" y1="26.81831364943548" y2="22.513508569990506" /><path d="M 143.74570117128098 25.957352633546492 a86.0,86.0 0 0,1 28.547481713284135,27.462654790039103" fill="none" id="id14" stroke="none" /><text fill="#e1ed5e" style="font-size:6.75px; font-family:Arial;" text-anchor="middle"><textPath startOffset="19.985693538727396" xlink:href="#id14">February</textPath></text><path d="M 116.15771136456269 86.58626213691792 l 23.543544713389494 -19.545276557284613 a51.599286484689635,51.599286484689635 0 0,0 0.5614530842634742,0.6882750943470636 l -23.876496289729378 19.137117293329446" fill="#96ff23" stroke="none" /><line stroke="#e1ed5e" stroke-width="0.3" x1="172.23445277983987" x2="176.4835382374775" y1="55.19839476539836" y2="52.563006222186495" /><path d="M 173.08426987136738 54.67131705675599 a86.0,86.0 0 0,1 12.851231095245387,41.99856678651699" fill="none" id="id15" stroke="none" /><text fill="#e1ed5e" style="font-size:6.75px; font-family:Arial;" text-anchor="middle"><textPath startOffset="22.20632615414155" xlink:href="#id15">March</textPath></text><path d="M 118.89224826269711 90.83032412892265 l 3.339662622412063 -1.6209623831133613 a24.712258810886542,24.712258810886542 0 0,0 0.18244920191856304,0.384284549588042 l -3.367070018172382 1.563235417884779" fill="#ff0000" stroke="none" /><line stroke="#e1ed5e" stroke-width="0.3" x1="184.98032266829074" x2="189.97916517819016" y1="98.17113171792111" y2="98.06355123074" /><path d="M 185.9800911702706 98.14961562048488 a86.0,86.0 0 0,1 -9.607161424134198,41.387399972396054" fill="none" id="id16" stroke="none" /><text fill="#e1ed5e" style="font-size:6.75px; font-family:Arial;" text-anchor="middle"><textPath startOffset="21.466115282336823" xlink:href="#id16">April</textPath></text><path d="M 120.95626037817324 101.35467743843564 l 30.43461078636331 1.9673873026887028 a51.498133492333636,51.498133492333636 0 0,0 -0.06479799567765643,0.8841171687743654 l -30.396236232021316 -2.4909776079598385" fill="#98ff23" stroke="none" /><path d="M 120.92983693683757 101.71520430193887 l 31.59297962351013 2.589050967040135 a52.69888872502406,52.69888872502406 0 0,0 -0.08187250097159011,0.9034562258960264 l -31.543732526261465 -3.132488581484732" fill="#8aff24" stroke="none" /><path d="M 120.89721153311464 102.0752229133903 l 31.645577527642157 3.142602422757026 a52.8012346780047,52.8012346780047 0 0,0 -0.09760106705252335,0.9036646643951994 l -31.58679415908858 -3.686863409037017" fill="#89ff24" stroke="none" /><path d="M 120.81339534386255 102.79330883721812 l 30.965348010849937 4.1557746257747095 a52.2429710522748,52.2429710522748 0 0,0 -0.1272886281715174,0.8902563689644255 l -30.889225331661816 -4.688176466719544" fill="#8fff24" stroke="none" /><path d="M 120.64145759157962 103.86396538481128 l 30.922024904020656 5.788430072212969 a52.4591409111211,52.4591409111211 0 0,0 -0.1737898071059893,0.8861504822870757 l -30.817805163939003 -6.319844281567989" fill="#8dff24" stroke="none" /><path d="M 120.5718875245553 104.21870165774334 l 30.407996908931263 6.235804411007039 a52.04080431731607,52.04080431731607 0 0,0 -0.18751035639156538,0.8759859596494571 l -30.296152513815255 -6.758304190072666" fill="#91ff23" stroke="none" /><path d="M 120.23288151984713 105.62410040840565 l 44.03858432382572 12.241332003959988 a66.70828282136492,66.70828282136492 0 0,0 -0.31704656220270216,1.1036806756290167 l -43.821345124736915 -12.997570155093587" fill="#37ff74" stroke="none" /><path d="M 120.13307415673323 105.97154293290107 l 45.159776281667725 13.394553698397718 a68.1043465360633,68.1043465360633 0 0,0 -0.3430293590228666,1.1210397928326106 l -44.92252015013873 -14.169920463782386" fill="#38ff84" stroke="none" /><path d="M 120.02730092923936 106.31721596034902 l 29.49404652618822 9.303313617187918 a51.92653269845667,51.92653269845667 0 0,0 -0.27621886096551623,0.8501142410508756 l -29.329535414206457 -9.80962675821659" fill="#93ff23" stroke="none" /><path d="M 119.54520255179757 107.68017299344265 l 58.635607655392704 23.040518980327946 a84.0,84.0 0 0,0 -0.5403895429704302,1.341202528628746 l -58.230315498164885 -24.046420876799505" fill="#4dd2ff" stroke="none" /><path d="M 119.26925614724726 108.34839909993367 l 28.500880574777817 12.34799744834898 a52.06079900006084,52.06079900006084 0 0,0 -0.36333210616534045,0.8192179825280917 l -28.284107383881206 -12.83676376736976" fill="#91ff24" stroke="none" /><path d="M 119.12269723197855 108.67885076344098 l 27.071934796691636 12.286618311625181 a50.72962568166452,50.72962568166452 0 0,0 -0.3677303193792054,0.7920583931178224 l -26.8564298604726 -12.750796772021834" fill="#a0ff22" stroke="none" /><line stroke="#e1ed5e" stroke-width="0.3" x1="174.80103733775053" x2="179.2010983576182" y1="140.37084112569926" y2="142.7455964860345" /><path d="M 175.68104954172406 140.8457921977663 a86.0,86.0 0 0,1 -30.038265399797805,32.042727171017184" fill="none" id="id17" stroke="none" /><text fill="#e1ed5e" style="font-size:6.75px; font-family:Arial;" text-anchor="middle"><textPath startOffset="22.206326154141568" xlink:href="#id17">May</textPath></text><path d="M 114.55890576462653 115.13401014063108 l 20.04199915810725 20.83369611707184 a49.90890216096187,49.90890216096187 0 0,0 -0.6242514353609461,0.5902686959437886 l -19.680411888355493 -21.175599449761553" fill="#aaff21" stroke="none" /><path d="M 112.92097659922987 116.55440617244103 l 19.10593485283188 24.478599077164787 a52.0521908950275,52.0521908950275 0 0,0 -0.7110608660359965,0.5452111508855977 l -18.68174525830239 -24.80384956987776" fill="#91ff24" stroke="none" /><path d="M 112.63410532772338 116.77436683061366 l 18.571627374476435 24.657645487357232 a51.86915652097723,51.86915652097723 0 0,0 -0.7178074503194245,0.5310167913938018 l -18.144434953738447 -24.973672227490802" fill="#93ff23" stroke="none" /><path d="M 112.34349029814194 116.9893568818739 l 18.16704379597426 25.00479062918696 a51.907620980824824,51.907620980824824 0 0,0 -0.7273806824302201,0.5189668037590269 l -17.733935785695152 -25.313801694790207" fill="#93ff23" stroke="none" /><path d="M 112.04921762599082 117.19931262002967 l 17.622316254473464 25.154473573116817 a51.71308468573797,51.71308468573797 0 0,0 -0.7334469642171839,0.5044715099150571 l -17.186712405633397 -25.45408587239697" fill="#95ff23" stroke="none" /><path d="M 111.45004920935366 117.60387380957326 l 16.82033606316032 25.86041929397113 a51.84939207403682,51.84939207403682 0 0,0 -0.7523549198934604,0.4801885063170214 l -16.372699341219928 -26.146122229111956" fill="#94ff23" stroke="none" /><line stroke="#e1ed5e" stroke-width="0.3" x1="143.8653032363475" x2="146.44561519142675" y1="172.8068346515853" y2="177.08958963109032" /><path d="M 144.38136562736335 173.6633856474863 a86.0,86.0 0 0,1 -40.68145358897372,12.25698825130547" fill="none" id="id18" stroke="none" /><text fill="#e1ed5e" style="font-size:6.75px; font-family:Arial;" text-anchor="middle"><textPath startOffset="21.466115282336833" xlink:href="#id18">June</textPath></text><path d="M 108.59647513512805 119.15986991738527 l 12.50290541182769 27.866542683418423 a51.542868969104575,51.542868969104575 0 0,0 -0.8126084897378543,0.3562236815388757 l -12.021376247432082 -28.077630918251753" fill="#97ff23" stroke="none" /><path d="M 104.13013068566511 120.58985236759428 l 6.18057932520293 30.81191021238607 a52.42568013156226,52.42568013156226 0 0,0 -0.8863244892766359,0.16986619783993076 l -5.64928722135459 -30.913733608574468" fill="#8dff24" stroke="none" /><line stroke="#e1ed5e" stroke-width="0.3" x1="102.19456741930631" x2="102.32365962044197" y1="184.97166512339345" y2="189.96999836594603" /><path d="M 102.22038585953345 185.97133177190398 a86.0,86.0 0 0,1 -42.740103519485714,-10.115201625700543" fill="none" id="id19" stroke="none" /><text fill="#e1ed5e" style="font-size:6.75px; font-family:Arial;" text-anchor="middle"><textPath startOffset="22.20632615414155" xlink:href="#id19">July</textPath></text><path d="M 100.54218724476979 120.99299961872073 l 0.763893776888446 29.57727597182987 a50.58713888864811,50.58713888864811 0 0,0 -0.8706776746359833,0.014989505767472325 l -0.2546564123597947 -29.586042954876504" fill="#a2ff22" stroke="none" /><path d="M 100.18074693466247 120.99922214144158 l 0.26524163582480226 30.815836751233796 a51.81697823934181,51.81697823934181 0 0,0 -0.8919771409744942,0.0 l 0.265241635824781 -30.815836751233796" fill="#94ff23" stroke="none" /><path d="M 97.65516085044442 120.86867818915974 l -3.4357785388162996 30.57785719304804 a51.77027664299153,51.77027664299153 0 0,0 -0.8847110756291828,-0.10712619044112534 l 3.9616170374968718 -30.514185473881565" fill="#94ff23" stroke="none" /><path d="M 96.22490169976321 120.6578951692458 l -6.932719734113873 37.936865775416436 a59.56511879631301,59.56511879631301 0 0,0 -1.007026010217875,-0.1929989316003552 l 7.584713358903443 -37.811909645467615" fill="#40ff2d" stroke="none" /><path d="M 94.11515582081647 120.15858648285463 l -1.3589134635116593 4.654970249478367 a25.84926734928504,25.84926734928504 0 0,0 -0.426051348665343,-0.12836577640036237 l 1.4388397866172482 -4.6308891039722795" fill="#ff1101" stroke="none" /><path d="M 93.76903079525671 120.05430185196036 l -9.362592206459247 30.13339402836622 a52.554390637330144,52.554390637330144 0 0,0 -0.8615883294373952,-0.2758533750231748 l 9.879901880987582 -29.967767806683337" fill="#8cff24" stroke="none" /><path d="M 90.42595943632237 118.69057910512821 l -14.057908240861819 27.444049801219197 a51.83505559586832,51.83505559586832 0 0,0 -0.7906304702572144,-0.41362049453488403 l 14.528229613645529 -27.1979998877396" fill="#94ff23" stroke="none" /><line stroke="#e1ed5e" stroke-width="0.3" x1="58.666819895761336" x2="56.23545636021788" y1="174.27360380694188" y2="178.64263932499728" /><path d="M 58.180547188652646 175.14741091055294 a86.0,86.0 0 0,1 -31.652253787137756,-30.449443065178592" fill="none" id="id20" stroke="none" /><text fill="#e1ed5e" style="font-size:6.75px; font-family:Arial;" text-anchor="middle"><textPath startOffset="22.20632615414155" xlink:href="#id20">August</textPath></text><path d="M 89.7882731507175 118.34994917583269 l -15.041619706030643 27.02901881352803 a51.93247777664928,51.93247777664928 0 0,0 -0.7773827821869859,-0.44141823217011744 l 15.504651255138835 -26.766097415563276" fill="#93ff23" stroke="none" /><path d="M 89.4739219176387 118.17145234162733 l -15.734770211373 27.163357972951818 a52.391575461761015,52.391575461761015 0 0,0 -0.7764734081495741,-0.4587541759851607 l 16.200011490550956 -26.88848522467291" fill="#8dff24" stroke="none" /><path d="M 88.8546689885994 117.79835938074946 l -16.706586027110045 26.679317270321693 a52.478500388228696,52.478500388228696 0 0,0 -0.7614835271228988,-0.48601481535594626 l 17.16335135627987 -26.387788026141944" fill="#8cff24" stroke="none" /><path d="M 84.19399662182784 113.82643327865904 l -22.148066981926945 19.37420630946979 a50.426123447675224,50.426123447675224 0 0,0 -0.5658711287501549,-0.6582359636912146 l 22.478280620247876 -18.990093246617047" fill="#a4ff21" stroke="none" /><path d="M 83.95833913139862 113.55231037782056 l -22.554103951290536 19.0541502868816 a50.52538311691636,50.52538311691636 0 0,0 -0.5555482413622652,-0.669193644951653 l 22.878748192546336 -18.663095384816188" fill="#a3ff22" stroke="none" /><path d="M 83.72743513129214 113.27417163493432 l -14.282027493254635 11.650411952259551 a39.43118031964946,39.43118031964946 0 0,0 -0.42450874175274406,-0.529639926539515 l 14.48045414706224 -11.402844192141776" fill="#ffd213" stroke="none" /><path d="M 83.50135304334701 112.99209946851258 l -15.029589890544994 11.8352691188517 a40.13013767314854,40.13013767314854 0 0,0 -0.4226910894000392,-0.5463852123818075 l 15.231087797163102 -11.57480591235664" fill="#ffdb14" stroke="none" /><path d="M 83.28015986056508 112.70617746262583 l -15.569594035842734 11.832052411426023 a40.55529909532662,40.55529909532662 0 0,0 -0.4176012621512091,-0.5594451340744776 l 15.770956564689028 -11.56229439784224" fill="#ffe015" stroke="none" /><path d="M 83.06392112726016 112.41649034213515 l -15.77805815137086 11.56750084398077 a40.56410475343905,40.56410475343905 0 0,0 -0.4079980299104287,-0.5666735790294603 l 15.974835973656896 -11.294193659500168" fill="#ffe015" stroke="none" /><path d="M 82.85270091963577 112.12312394758628 l -16.60515959867736 11.73983185577829 a41.336051172720175,41.336051172720175 0 0,0 -0.40576076620210694,-0.5845286467821018 l 16.8047812720416 -11.452261946809177" fill="#ffea16" stroke="none" /><path d="M 82.64656182679789 111.8261652097733 l -50.19206154127103 34.2053030691526 a81.73916199467456,81.73916199467456 0 0,0 -0.7823484632027926,-1.1695048020547627 l 50.77341310988456 -33.33626135289201" fill="#4ae8ff" stroke="none" /><line stroke="#e1ed5e" stroke-width="0.3" x1="26.63291911575756" x2="22.317208475507996" y1="142.92168965132927" y2="145.44649492493687" /><path d="M 25.769776987707644 143.4266507060508 a86.0,86.0 0 0,1 -11.730757126820373,-40.83630448921669" fill="none" id="id21" stroke="none" /><text fill="#e1ed5e" style="font-size:6.75px; font-family:Arial;" text-anchor="middle"><textPath startOffset="21.46611528233685" xlink:href="#id21">September</textPath></text><path d="M 81.87401531095188 110.60418214915194 l -16.893578264933396 9.883191680093791 a40.57218598876746,40.57218598876746 0 0,0 -0.3474679362768767,-0.6058396350582447 l 17.06119819736265 -9.590932199177239" fill="#ffe115" stroke="none" /><path d="M 81.51974371655577 109.97397251340807 l -16.995141544345213 9.172441768388 a40.3123930186499,40.3123930186499 0 0,0 -0.3243179851406435,-0.6134874054622562 l 17.15051203771074 -8.878539347839618" fill="#ffdd14" stroke="none" /><path d="M 79.76711848015287 105.62410040840567 l -18.837670323692436 5.236275873852423 a40.55189014523178,40.55189014523178 0 0,0 -0.18115480107149093,-0.6741444060271393 l 18.9250132011057 -4.911240534649745" fill="#ffe015" stroke="none" /><path d="M 79.67330655649465 105.27499134158121 l -18.91109580639717 4.907628823931083 a40.53751174720598,40.53751174720598 0 0,0 -0.16946356562074974,-0.6769227061831586 l 18.99277068631298 -4.581378278350533" fill="#ffe015" stroke="none" /><line stroke="#e1ed5e" stroke-width="0.3" x1="15.007084014347285" x2="10.007500721073583" y1="101.09737516637583" y2="101.16192664675087" /><path d="M 14.007167355692545 101.11028546245083 a86.0,86.0 0 0,1 10.666146001902534,-42.60595125391555" fill="none" id="id22" stroke="none" /><text fill="#e1ed5e" style="font-size:6.75px; font-family:Arial;" text-anchor="middle"><textPath startOffset="22.20632615414155" xlink:href="#id22">October</textPath></text><path d="M 79.00486145842228 99.54816195383935 l -17.609707350374592 -0.37897991227335537 a38.613784906707124,38.613784906707124 0 0,0 0.020020889918487057,-0.6643958670334982 l 17.600574766000463 0.6820459267318479" fill="#ffc712" stroke="none" /><path d="M 79.71946130924805 94.55025226153421 l -29.54623105666909 -7.939606947161411 a51.59439700548927,51.59439700548927 0 0,0 0.23785810451346198,-0.8557021563774986 l 29.40518618158927 8.447020406957853" fill="#96ff23" stroke="none" /><path d="M 79.81627453868168 94.20196356495316 l -30.240319603777376 -8.686923294026538 a52.46330507201847,52.46330507201847 0 0,0 0.25680563711585586,-0.8658209434339448 l 30.086308069549816 9.206173624207022" fill="#8dff24" stroke="none" /><path d="M 80.02781315780177 93.51064311812611 l -30.04909015864265 -9.763541246421378 a52.59548317454262,52.59548317454262 0 0,0 0.2871781160082985,-0.8586260141442695 l 29.876574748862577 10.279340363487968" fill="#8bff24" stroke="none" /><path d="M 80.2630227832202 92.82701384747504 l -16.17013930637765 -5.876694493543653 a38.2049104431876,38.2049104431876 0 0,0 0.22994882746310297,-0.6161485342368442 l 16.06658589041292 6.154166164809839" fill="#ffc112" stroke="none" /><path d="M 80.52162464483688 92.15188598940014 l -13.564721314765897 -5.465418827760605 a35.624379211101726,35.624379211101726 0 0,0 0.23406627377495956,-0.5668100479163568 l 13.468633354104737 5.698103446130272" fill="#ff9e0e" stroke="none" /><path d="M 81.26839172434947 90.50648371742162 l -22.832339011854934 -11.57184044149389 a46.597327906554355,46.597327906554355 0 0,0 0.3687636351435384,-0.7123339679896974 l 22.629765943551284 11.963147131743924" fill="#d2ff1c" stroke="none" /><path d="M 81.6062741919709 89.86733742301443 l -39.999464583767924 -22.03474609317518 a66.66713481683303,66.66713481683303 0 0,0 0.5623606433204512,-1.0003768345802353 l 39.61424629915504 22.720006437690202" fill="#36ff73" stroke="none" /><line stroke="#e1ed5e" stroke-width="0.3" x1="26.266209847984257" x2="21.92892807433627" y1="57.711370442889674" y2="55.22380399835377" /><path d="M 25.39875349325466 57.213857153982495 a86.0,86.0 0 0,1 29.58750427330802,-30.492523968695096" fill="none" id="id23" stroke="none" /><text fill="#e1ed5e" style="font-size:6.75px; font-family:Arial;" text-anchor="middle"><textPath startOffset="21.46611528233685" xlink:href="#id23">November</textPath></text><path d="M 82.15384107792192 88.93136811851018 l -25.26172331840416 -15.667949463206048 a50.72607113961048,50.72607113961048 0 0,0 0.4666131950017551,-0.7380700170916203 l 24.988282527156443 16.100467128011882" fill="#a0ff22" stroke="none" /><path d="M 82.54541684631803 88.32363383020206 l -24.71950923325941 -16.53628956955938 a50.740595311148624,50.740595311148624 0 0,0 0.49188303822634705,-0.7217776634181995 l 24.43120172936432 16.959345256247992" fill="#a0ff22" stroke="none" /><path d="M 83.6137871275137 86.86637796730984 l -24.23415919594801 -19.423785693279008 a52.05765481476317,52.05765481476317 0 0,0 0.5664406011495251,-0.6943892003187239 l 23.896220102722094 19.838059063205815" fill="#91ff24" stroke="none" /><path d="M 83.84228863543731 86.58626213691792 l -21.562185504776902 -17.90040047073545 a49.024135682570424,49.024135682570424 0 0,0 0.5446100256052779,-0.6446464914718922 l 21.2508648656845 18.268905911836455" fill="#b4ff20" stroke="none" /><path d="M 84.31358615837235 86.03803664274997 l -22.967350262342233 -20.442486473547966 a51.74726705407008,51.74726705407008 0 0,0 0.5979430205433297,-0.6602636177883757 l 22.61206360118286 20.8348028786059" fill="#95ff23" stroke="none" /><path d="M 84.5562425177563 85.77008943001954 l -22.542133519051752 -20.770369154104515 a51.652178036618096,51.652178036618096 0 0,0 0.608100300097709,-0.6486790015769553 l 22.181265896983586 21.15531757255952" fill="#96ff23" stroke="none" /><path d="M 86.10567301691215 84.25364557470407 l -21.13987654248367 -23.95769071435585 a52.950983155392635,52.950983155392635 0 0,0 0.6886305651184745,-0.5971736401924665 l 20.724352178718423 24.318029347967997" fill="#87ff25" stroke="none" /><path d="M 86.93701828274178 83.55741782278169 l -18.31211701697063 -23.04975199441484 a50.438490053792776,50.438490053792776 0 0,0 0.6844441729640977,-0.5342195334720523 l 17.912640288847108 23.361549917110114" fill="#a4ff21" stroke="none" /><path d="M 87.51073957382395 83.11751280151077 l -17.551116289900875 -23.72490331472497 a50.511230410043424,50.511230410043424 0 0,0 0.703440281435732,-0.5110792803751248 l 17.14013069211136 24.023501829916764" fill="#a3ff22" stroke="none" /><line stroke="#e1ed5e" stroke-width="0.3" x1="56.762969772571076" x2="54.21961505331055" y1="26.818313649435495" y2="22.513508569990535" /><path d="M 56.25429882871897 25.957352633546506 a86.0,86.0 0 0,1 42.265352541879196,-11.944610805530505" fill="none" id="id24" stroke="none" /><text fill="#e1ed5e" style="font-size:6.75px; font-family:Arial;" text-anchor="middle"><textPath startOffset="22.20632615414155" xlink:href="#id24">December</textPath></text><path d="M 89.94658935756843 81.56283822128135 l -11.813172866053323 -21.66442682965111 a45.67586762447402,45.67586762447402 0 0,0 0.6935226974371881,-0.37045580675894385 l 11.438505122087829 21.864561362911804" fill="#ddff1b" stroke="none" /><path d="M 90.91171255644093 81.06846463323043 l -12.725988972397149 -26.509120866197904 a50.405514524052506,50.405514524052506 0 0,0 0.7854182201392393,-0.36876438566391223 l 12.2677925409583 26.724250234501824" fill="#a4ff21" stroke="none" /><path d="M 91.56875222667455 80.76684994638697 l -5.98139366093881 -13.644604559544506 a35.89806375719549,35.89806375719549 0 0,0 0.568071888114054,-0.2432187360283701 l 5.745638015034448 13.745542823535663" fill="#ffa20f" stroke="none" /></svg>