<?xml version="1.0" encoding="utf-8" ?>
<svg baseProfile="full" height="200mm" version="1.1" viewBox="0,0,200,200" width="200mm" xmlns="http://www.w3.org/2000/svg" xmlns:ev="http://www.w3.org/2001/xml-events" xmlns:xlink="http://www.w3.org/1999/xlink"><defs /><rect fill="#1a1a1a" height="200" width="200" x="0" y="0" /><text alignment-baseline="middle" fill="#e1ed5e" style="dominant-baseline: central; font-size:9.0px; font-family:Arial;" text-anchor="middle" x="100.0" y="100.0">2020</text><line stroke="#e1ed5e" stroke-width="0.3" x1="100.0" x2="100.0" y1="15.0" y2="10.0" /><path d="M 100.0 14.0 a86.0,86.0 0 0,1 42.35913384403234,11.155469271406648" fill="none" id="id1" stroke="none" /><text fill="#e1ed5e" style="font-size:6.75px; font-family:Arial;" text-anchor="middle"><textPath startOffset="22.145653131862478" xlink:href="#id1">January</textPath></text><line stroke="#e1ed5e" stroke-width="0.3" x1="143.13028292997686" x2="145.6673583964461" y1="26.7553504044142" y2="22.446841604673864" /><path d="M 143.63769802327073 25.89364864446614 a86.0,86.0 0 0,1 29.32050498858742,28.57503671076993" fill="none" id="id2" stroke="none" /><text fill="#e1ed5e" style="font-size:6.75px; font-family:Arial;" text-anchor="middle"><textPath startOffset="20.669276256404974" xlink:href="#id2">February</textPath></text><line stroke="#e1ed5e" stroke-width="0.3" x1="172.87174338648825" x2="177.1583165268699" y1="56.24261187166439" y2="53.66864786411523" /><path d="M 173.72905801456457 55.72781907015455 a86.0,86.0 0 0,1 12.242430191666344,42.057860355516425" fill="none" id="id3" stroke="none" /><text fill="#e1ed5e" style="font-size:6.75px; font-family:Arial;" text-anchor="middle"><textPath startOffset="22.145653131862474" xlink:href="#id3">March</textPath></text><line stroke="#e1ed5e" stroke-width="0.3" x1="184.99686870605535" x2="189.99668451229388" y1="99.2704041080226" y2="99.22748670261217" /><path d="M 185.99683186730306 99.26182062694052 a86.0,86.0 0 0,1 -10.086455211305974,41.156179273409016" fill="none" id="id4" stroke="none" /><text fill="#e1ed5e" style="font-size:6.75px; font-family:Arial;" text-anchor="middle"><textPath startOffset="21.40746469413373" xlink:href="#id4">April</textPath></text><line stroke="#e1ed5e" stroke-width="0.3" x1="174.33088141563837" x2="178.70328620479359" y1="141.23008692659167" y2="143.65538615756765" /><path d="M 175.20536237346943 141.71514677278685 a86.0,86.0 0 0,1 -30.301960400862466,31.631185727798858" fill="none" id="id5" stroke="none" /><text fill="#e1ed5e" style="font-size:6.75px; font-family:Arial;" text-anchor="middle"><textPath startOffset="22.145653131862474" xlink:href="#id5">May</textPath></text><line stroke="#e1ed5e" stroke-width="0.3" x1="143.1302829299769" x2="145.66735839644613" y1="173.24464959558577" y2="177.55315839532614" /><path d="M 143.63769802327073 174.10635135553383 a86.0,86.0 0 0,1 -40.68552437913181,11.842963189579606" fill="none" id="id6" stroke="none" /><text fill="#e1ed5e" style="font-size:6.75px; font-family:Arial;" text-anchor="middle"><textPath startOffset="21.407464694133747" xlink:href="#id6">June</textPath></text><path d="M 108.73861861582097 119.09545874513695 l 13.055382494120558 28.5283668710654 a52.373726721540294,52.373726721540294 0 0,0 -0.8207376907886198,0.36710552972777505 l -12.563731400476312 -28.748276151703028" fill="#a6ff21" stroke="none" /><path d="M 108.4095320186766 119.2426549942271 l 12.610986488198836 28.856405040177084 a52.49173053435284,52.49173053435284 0 0,0 -0.8287817470855563,0.35375764542183685 l -12.113769665942849 -29.06863733525832" fill="#a5ff21" stroke="none" /><path d="M 107.06938296918513 119.77432235084164 l 10.52980256008384 29.453731820928162 a52.27937115949591,52.27937115949591 0 0,0 -0.8476582914725863,0.2948595554504344 l -10.022638496566234 -29.630149808947188" fill="#a7ff21" stroke="none" /><path d="M 106.72888874123015 119.89276391827305 l 10.163521727759427 30.046646048660214 a52.71904968128942,52.71904968128942 0 0,0 -0.8597655146981471,0.28262200179432073 l -9.646233475413545 -30.216688971856556" fill="#a2ff22" stroke="none" /><path d="M 106.38641147887787 120.00534299687104 l 9.419137628648533 29.505314466357703 a51.972305942988484,51.972305942988484 0 0,0 -0.8522452563204682,0.2640277589311918 l -8.91125173945644 -29.662658813095536" fill="#abff21" stroke="none" /><path d="M 105.69591212413111 120.21278271476187 l 8.440477869506305 29.952278312424347 a52.11881493197566,52.11881493197566 0 0,0 -0.863233009265889,0.23527799530210491 l -7.92506345930572 -30.092756801870593" fill="#a9ff21" stroke="none" /><path d="M 103.94208987418118 120.62667999033965 l 5.874897234041822 30.739944823780263 a52.29630369995165,52.29630369995165 0 0,0 -0.883222975525628,0.16095264784608856 l -5.346339524965137 -30.836265645557717" fill="#a7ff21" stroke="none" /><path d="M 103.58742460773223 120.69131181640829 l 5.348209434155956 30.847050784861334 a52.307249739883076,52.307249739883076 0 0,0 -0.8860412136141783,0.14579774452198307 l -4.817890717488706 -30.93431452787899" fill="#a7ff21" stroke="none" /><path d="M 103.2317021107853 120.74984581791261 l 4.751110584187663 30.505538167251007 a51.873304174590515,51.873304174590515 0 0,0 -0.8810431089644037,0.12948299663203033 l -4.226742369615574 -30.58260223718192" fill="#acff20" stroke="none" /><path d="M 102.15924093988457 120.88869738790638 l 3.192068843927095 30.88037045357332 a52.0449123505655,52.0449123505655 0 0,0 -0.889473417438408,0.08423405741344307 l -2.6614958631036716 -30.930616266491946" fill="#aaff21" stroke="none" /><path d="M 101.80034050326958 120.92268563240118 l 2.6783795219873436 31.126829975235506 a52.24185111626743,52.24185111626743 0 0,0 -0.8941590981677368,0.06921356925554806 l -2.143651429044371 -31.168221311486107" fill="#a8ff21" stroke="none" /><line stroke="#e1ed5e" stroke-width="0.3" x1="101.45913802915013" x2="101.54496967792366" y1="184.9874750549273" y2="189.98673829345242" /><path d="M 101.47630435890484 185.9873277026323 a86.0,86.0 0 0,1 -42.54439059252881,-10.42667462771756" fill="none" id="id7" stroke="none" /><text fill="#e1ed5e" style="font-size:6.75px; font-family:Arial;" text-anchor="middle"><textPath startOffset="22.145653131862474" xlink:href="#id7">July</textPath></text><path d="M 100.36049292484886 120.99690560180557 l 0.544849580945164 31.734756578330867 a52.739433456691856,52.739433456691856 0 0,0 -0.9053425057940124,0.007771276555424162 l -3.886959558948809e-15 -31.739433456691856" fill="#a2ff22" stroke="none" /><path d="M 100.0 121.0 l 3.9202275383753566e-15 32.01108712409792 a53.01108712409792,53.01108712409792 0 0,0 -0.9100058022277803,-0.0078113053467543025 l 0.5495128773789242 -32.0063702169456" fill="#9eff22" stroke="none" /><path d="M 99.27912038922189 120.98762331915562 l -2.1626388323343173 62.962869957466836 a84.0,84.0 0 0,0 -1.440696957596645,-0.061869726296685634 l 3.2431615505318008 -62.916467662744324" fill="#4dd2ff" stroke="none" /><path d="M 98.55909050195518 120.95050786540614 l -2.0559755188188578 29.893432819024348 a50.96405114532253,50.96405114532253 0 0,0 -0.872288577785217,-0.06752065265910316 l 2.568833091379311 -29.85373439937019" fill="#b8ff1f" stroke="none" /><path d="M 98.19965949673042 120.92268563240118 l -2.6253527871157902 30.5105789372705 a51.62332288214704,51.62332288214704 0 0,0 -0.8822682439009003,-0.08355171998825041 l 3.1487205944017056 -30.461015461777063" fill="#b0ff20" stroke="none" /><path d="M 97.48249496171623 120.84855314841334 l -2.3049024428092464 19.087898673511905 a40.226555880893635,40.226555880893635 0 0,0 -0.6848517083985134,-0.0886677648610523 l 2.6322319730985537 -19.045519312450455" fill="#ffb510" stroke="none" /><path d="M 95.00130118170881 120.39639698878247 l -7.118216870371056 29.044753928577112 a50.904293039382,50.904293039382 0 0,0 -0.8469376447649652,-0.21528823737535938 l 7.615759808361401 -28.91828045936649" fill="#b9ff1f" stroke="none" /><path d="M 93.61358852112213 120.00534299687104 l -9.575710484967457 29.995776708732727 a52.487153755969565,52.487153755969565 0 0,0 -0.8559836536669719,-0.28137882895607036 l 10.089216876282173 -29.826976958374633" fill="#a5ff21" stroke="none" /><path d="M 93.27111125876986 119.89276391827306 l -9.580695837566497 28.323624865678774 a50.90012471986799,50.90012471986799 0 0,0 -0.8252951747287406,-0.2870805025845429 l 10.065496784340258 -28.15498593052564" fill="#b9ff1f" stroke="none" /><path d="M 92.59220618246901 119.65005319985036 l -10.940893182610832 29.02201902318047 a52.01581422137986,52.01581422137986 0 0,0 -0.8328171204862624,-0.3221515531535031 l 11.437482565590622 -28.829927581888928" fill="#abff21" stroke="none" /><path d="M 90.6110303473126 118.78422872680471 l -4.895387741965451 9.79405477417371 a31.949352951827812,31.949352951827812 0 0,0 -0.48847940555698643,-0.24942106503096387 l 5.06279436923602 -9.708575757469912" fill="#ff3805" stroke="none" /><path d="M 89.97174638481275 118.45085714620012 l -3.9565563138723605 7.2796179813001185 a29.28535912429336,29.28535912429336 0 0,0 -0.4396371269461536,-0.2438593033599251 l 4.080937628974616 -7.2106257625070445" fill="#ff0d01" stroke="none" /><line stroke="#e1ed5e" stroke-width="0.3" x1="58.13341422392154" x2="55.670673884152215" y1="173.97424548756322" y2="178.32567169271397" /><path d="M 57.64086615596767 174.84453072859336 a86.0,86.0 0 0,1 -31.369924170532244,-30.572349798747897" fill="none" id="id8" stroke="none" /><text fill="#e1ed5e" style="font-size:6.75px; font-family:Arial;" text-anchor="middle"><textPath startOffset="22.145653131862474" xlink:href="#id8">August</textPath></text><path d="M 89.65649057296885 118.27599006163327 l -8.068697476834942 14.256615313907684 a37.38154324785762,37.38154324785762 0 0,0 -0.5557523507134916,-0.3208637692872053 l 8.312242295408835 -14.116004647344306" fill="#ff8b0c" stroke="none" /><path d="M 88.1277618465304 117.32195027204791 l -4.219697159390112 6.156664262727602 a28.46393722916479,28.46393722916479 0 0,0 -0.40067045568871057,-0.27969909570645457 l 4.324762706252589 -6.083320351216018" fill="#ff0000" stroke="none" /><path d="M 87.83215693770417 117.11559508785305 l -18.04374632280213 25.380788883280406 a52.14098947848776,52.14098947848776 0 0,0 -0.7250551936004903,-0.5248840455046393 l 18.47678252677657 -25.0673040664027" fill="#a9ff21" stroke="none" /><path d="M 83.42222388311158 112.89097897827486 l -17.098583685017058 13.295962093328106 a42.659736194625026,42.659736194625026 0 0,0 -0.4445713767990903,-0.5819582031629318 l 17.32430703917045 -13.000482976924303" fill="#ffd714" stroke="none" /><path d="M 82.78059297857968 112.02048342749411 l -25.894469976582567 18.07635110953898 a52.579709384404836,52.579709384404836 0 0,0 -0.5102992575147274,-0.7445418671920604 l 26.20095897091262 -17.62917450727687" fill="#a4ff21" stroke="none" /><path d="M 81.99639281039703 110.81064883170644 l -30.7773547992828 18.480917251739868 a56.89971964941498,56.89971964941498 0 0,0 -0.49564069572017644,-0.8417062587388 l 31.090069205132746 -17.949859824707506" fill="#70ff27" stroke="none" /><line stroke="#e1ed5e" stroke-width="0.3" x1="26.387840678322732" x2="22.057713659400548" y1="142.50000000000003" y2="145.00000000000006" /><path d="M 25.521815274538298 143.00000000000003 a86.0,86.0 0 0,1 -11.493303480769221,-40.785679425670985" fill="none" id="id9" stroke="none" /><text fill="#e1ed5e" style="font-size:6.75px; font-family:Arial;" text-anchor="middle"><textPath startOffset="21.40746469413373" xlink:href="#id9">September</textPath></text><path d="M 81.4637452351635 109.86951160357371 l -27.53534421417092 14.661019859615283 a52.19520290552555,52.19520290552555 0 0,0 -0.4143104363126854,-0.7944948905082861 l 27.782962719458553 -14.186178726002494" fill="#a8ff21" stroke="none" /><path d="M 81.29705330413844 109.54985784667822 l -27.82708303946448 14.208706875767247 a52.2447419827197,52.2447419827197 0 0,0 -0.40099104985738904,-0.8022507129700581 l 28.066894002533605 -13.728924306633434" fill="#a8ff21" stroke="none" /><path d="M 80.28708602549918 107.23885506374661 l -29.070287948922097 10.675012400289003 a51.968331100974254,51.968331100974254 0 0,0 -0.3003270393102044,-0.8400681801906162 l 29.249255158276245 -10.174409263717465" fill="#abff21" stroke="none" /><path d="M 79.94057633289273 106.21446072829308 l -29.988715604746623 9.29058075199042 a52.394871465442066,52.394871465442066 0 0,0 -0.2587899467301175,-0.8614275657959309 l 30.14378187148037 -8.774415582603766" fill="#a6ff21" stroke="none" /><path d="M 79.83685265289637 105.86919833188381 l -29.795304857231805 8.672979002514431 a52.031931237250404,52.031931237250404 0 0,0 -0.24227431888811268,-0.8597460877785756 l 29.939797668194494 -8.16022499083286" fill="#aaff21" stroke="none" /><path d="M 79.06263194458094 101.62068470465958 l -31.00358289395198 2.3998733963540446 a52.096326866378924,52.096326866378924 0 0,0 -0.06136460783448382,-0.8922279302332349 l 31.04021146295153 -1.8673020419664663" fill="#aaff21" stroke="none" /><line stroke="#e1ed5e" stroke-width="0.3" x1="15.003131293944662" x2="10.003315487706104" y1="100.72959589197737" y2="100.7725132973878" /><path d="M 14.003168132696942 100.73817937305945 a86.0,86.0 0 0,1 10.791469493833615,-42.45332614584628" fill="none" id="id10" stroke="none" /><text fill="#e1ed5e" style="font-size:6.75px; font-family:Arial;" text-anchor="middle"><textPath startOffset="22.145653131862435" xlink:href="#id10">October</textPath></text><path d="M 79.00077361379809 100.18025310272382 l -56.97763159374625 0.4890844401475679 a77.97973065592944,77.97973065592944 0 0,0 0.0,-1.3386750857427498 l 56.97763159374625 0.48908444014754693" fill="#45ffec" stroke="none" /><path d="M 79.00696218219943 99.45929381324524 l -14.853176027457723 -0.38256512662469555 a35.85810197093674,35.85810197093674 0 0,0 0.02113120169472359,-0.6152118811785154 l 14.844420138766148 0.6374832723673495" fill="#ff740a" stroke="none" /><path d="M 79.2786578344484 96.59031103205396 l -30.497633967120038 -5.018374063578782 a51.90776206447879,51.90776206447879 0 0,0 0.15222614287193342,-0.8779999395620488 l 30.40699300675587 5.541167036061424" fill="#acff21" stroke="none" /><path d="M 79.407916724674 95.88100663000787 l -31.161853867320836 -6.233243512081035 a52.7791513594866,52.7791513594866 0 0,0 0.18533597342837022,-0.8868997252323884 l 31.0502601830681 6.767259688598833" fill="#a1ff22" stroke="none" /><path d="M 79.94057633289273 93.78553927170692 l -29.66455494339353 -9.190154950478494 a52.055511072970894,52.055511072970894 0 0,0 0.271767654849782,-0.8513083080704216 l 29.502422572766495 9.698032292240308" fill="#aaff21" stroke="none" /><path d="M 80.5471966667186 92.08871423366112 l -29.098661585310364 -11.834172343968532 a52.41305049057106,52.41305049057106 0 0,0 0.34611121485937385,-0.8305409182988412 l 28.89122452591451 12.331945771708638" fill="#a6ff21" stroke="none" /><path d="M 80.83023694016515 91.42560881287825 l -28.379360909538214 -12.693727163938563 a52.08888603578998,52.08888603578998 0 0,0 0.3721020054173103,-0.8131100355569669 l 28.157274439265855 13.179026181710203" fill="#aaff21" stroke="none" /><path d="M 81.29705330413844 90.45014215332179 l -27.648104790291995 -14.117319306469248 a52.04378203273204,52.04378203273204 0 0,0 0.41310850118492526,-0.7921900214197152 l 27.40168822013213 14.58985557099345" fill="#aaff21" stroke="none" /><line stroke="#e1ed5e" stroke-width="0.3" x1="26.387840678322718" x2="22.05771365940052" y1="57.49999999999999" y2="54.99999999999999" /><path d="M 25.521815274538284 56.99999999999999 a86.0,86.0 0 0,1 29.574782752854787,-30.34633250058573" fill="none" id="id11" stroke="none" /><text fill="#e1ed5e" style="font-size:6.75px; font-family:Arial;" text-anchor="middle"><textPath startOffset="21.40746469413373" xlink:href="#id11">November</textPath></text><path d="M 82.98947788004972 87.6856937992154 l -25.189077918128472 -18.234949886427255 a52.09667255070968,52.09667255070968 0 0,0 0.5306368116666622,-0.7199107467762829 l 24.87233908687799 18.664666942472405" fill="#aaff21" stroke="none" /><line stroke="#e1ed5e" stroke-width="0.3" x1="56.869717070023135" x2="54.33264160355391" y1="26.7553504044142" y2="22.446841604673864" /><path d="M 56.362301976729285 25.89364864446614 a86.0,86.0 0 0,1 42.16139366436587,-11.88097634709845" fill="none" id="id12" stroke="none" /><text fill="#e1ed5e" style="font-size:6.75px; font-family:Arial;" text-anchor="middle"><textPath startOffset="22.145653131862474" xlink:href="#id12">December</textPath></text><path d="M 90.61103034731259 81.2157712731953 l -13.984657281393245 -27.978682513312375 a52.27902355347361,52.27902355347361 0 0,0 0.8061917122085784,-0.3943487652231032 l 13.502305319922614 28.21462502863269" fill="#a7ff21" stroke="none" /></svg>