<?xml version="1.0" encoding="utf-8" ?>
<svg baseProfile="full" height="200mm" version="1.1" viewBox="0,0,200,200" width="200mm" xmlns="http://www.w3.org/2000/svg" xmlns:ev="http://www.w3.org/2001/xml-events" xmlns:xlink="http://www.w3.org/1999/xlink"><defs /><rect fill="#1a1a1a" height="200" width="200" x="0" y="0" /><text alignment-baseline="middle" fill="#e1ed5e" style="dominant-baseline: central; font-size:9.0px; font-family:Arial;" text-anchor="middle" x="100.0" y="100.0">2024</text><line stroke="#e1ed5e" stroke-width="0.3" x1="100.0" x2="100.0" y1="15.0" y2="10.0" /><path d="M 100.0 14.0 a86.0,86.0 0 0,1 42.35913384403234,11.155469271406648" fill="none" id="id49" stroke="none" /><text fill="#e1ed5e" style="font-size:6.75px; font-family:Arial;" text-anchor="middle"><textPath startOffset="22.145653131862478" xlink:href="#id49">January</textPath></text><path d="M 100.0 79.0 l 0.0 -37.83715522098223 a58.83715522098223,58.83715522098223 0 0,0 1.0100180083522834,0.008669789851499715 l -0.6495250835034286 37.831579829325165" fill="#5bff2a" stroke="none" /><path d="M 100.72087961077811 79.0123766808444 l 1.3191311386947593 -38.40506380477446 a59.42771178212244,59.42771178212244 0 0,0 1.0192538519218415,0.043771145980924776 l -1.978210751217437 38.3767600903677" fill="#54ff2b" stroke="none" /><path d="M 107.74402155503746 80.48000691201159 l 13.934560248950875 -35.12419455583026 a58.78731285137192,58.78731285137192 0 0,0 0.9348457554913135,0.3801936303179128 l -14.535460465632628 34.879813668933046" fill="#5bff2a" stroke="none" /><path d="M 108.07796709384702 80.6158196554323 l 3.245401689190954 -7.78778260705718 a29.436953837670668,29.436953837670668 0 0,0 0.4647743517332761,0.19838453356363642 l -3.37861111609466 7.730923423834142" fill="#ff0b01" stroke="none" /><path d="M 108.4095320186766 80.7573450057729 l 15.519474154649638 -35.5115940086216 a59.75470793426274,59.75470793426274 0 0,0 0.9364034998781959,0.418841374923845 l -16.126791057383464 35.2399488827879" fill="#50ff2b" stroke="none" /><path d="M 109.06512990194946 81.05736502329252 l 16.334250705455798 -34.13230169651914 a58.839420783237244,58.839420783237244 0 0,0 0.9073592076194238,0.44383485679639234 l -16.917770162337288 33.84687308962553" fill="#5bff2a" stroke="none" /><path d="M 109.71004243097381 81.37971332152246 l 17.492113645057195 -33.54343433603397 a58.83035853421718,58.83035853421718 0 0,0 0.8914513360416445,0.47464762524598786 l -18.0653537968854 33.23821624306541" fill="#5bff2a" stroke="none" /><line stroke="#e1ed5e" stroke-width="0.3" x1="143.13028292997686" x2="145.6673583964461" y1="26.7553504044142" y2="22.446841604673864" /><path d="M 143.63769802327073 25.89364864446614 a86.0,86.0 0 0,1 29.32050498858742,28.57503671076993" fill="none" id="id50" stroke="none" /><text fill="#e1ed5e" style="font-size:6.75px; font-family:Arial;" text-anchor="middle"><textPath startOffset="20.669276256404974" xlink:href="#id50">February</textPath></text><path d="M 110.96478420261332 82.08984904055464 l 19.778487069624116 -32.306672217222314 a58.880200903827486,58.880200903827486 0 0,0 0.8575084543075635,0.5351486965389883 l -20.33015965272139 31.96238772384178" fill="#5aff2a" stroke="none" /><path d="M 111.27062007382361 82.28071324371311 l 20.288413112764648 -31.896755229113793 a58.802416599738685,58.802416599738685 0 0,0 0.8470750418776193,0.5490638080747567 l -20.832973786899274 31.543777579335142" fill="#5bff2a" stroke="none" /><path d="M 113.31354834802062 83.75963576809568 l 23.97453700515922 -29.2450369411053 a58.81600997326876,58.81600997326876 0 0,0 0.7753229106090898,0.646801947344969 l -24.4730342499302 28.829172809848462" fill="#5bff2a" stroke="none" /><path d="M 113.59037401385872 83.9905735841838 l 24.4964931744234 -28.85680736391482 a58.85225896934899,58.85225896934899 0 0,0 0.764576376626127,0.6604228639920429 l -24.988249030812387 28.43204036745806" fill="#5bff2a" stroke="none" /><path d="M 113.86319453409587 84.22622945171908 l 25.053557584231697 -28.50634951272344 a58.95118852115124,58.95118852115124 0 0,0 0.7543926698077004,0.6745825771580927 l -25.539215280862773 28.07207140568196" fill="#5aff2a" stroke="none" /><path d="M 116.35404254752997 86.82634096563983 l 29.46797606966437 -23.73731559314521 a58.839420783237244,58.839420783237244 0 0,0 0.6268739824198517,0.7920347984301596 l -29.871116482725782 23.227960850800372" fill="#5bff2a" stroke="none" /><path d="M 116.57777611688842 87.10902102172516 l 29.858000996304586 -23.217762169230937 a58.8228066600338,58.8228066600338 0 0,0 0.6130121392389672,0.8024525682178404 l -30.25216511289786 22.701788687772215" fill="#5bff2a" stroke="none" /><path d="M 116.7966241395341 87.39550010848427 l 30.25216511289786 -22.701788687772215 a58.8228066600338,58.8228066600338 0 0,0 0.599146645094872,0.8128574935161241 l -30.63741377757656 22.179124884987218" fill="#5bff2a" stroke="none" /><path d="M 117.01052211995028 87.68569379921539 l 6.312956436877848 -4.570093618981474 a28.793534157246803,28.793534157246803 0 0,0 0.28640640692431957,0.4028664789960419 l -6.3904779423321285 4.461049913275928" fill="#ff0000" stroke="none" /><path d="M 117.62189284568427 88.57770195909679 l 19.486467940668334 -12.630893090314688 a44.22201311388946,44.22201311388946 0 0,0 0.40743700848692854,0.6405586508297911 l -19.700422640781152 12.294520764806224" fill="#ffea16" stroke="none" /><line stroke="#e1ed5e" stroke-width="0.3" x1="172.87174338648825" x2="177.1583165268699" y1="56.24261187166439" y2="53.66864786411523" /><path d="M 173.72905801456457 55.72781907015455 a86.0,86.0 0 0,1 12.242430191666344,42.057860355516425" fill="none" id="id51" stroke="none" /><text fill="#e1ed5e" style="font-size:6.75px; font-family:Arial;" text-anchor="middle"><textPath startOffset="22.145653131862474" xlink:href="#id51">March</textPath></text><path d="M 118.53625476483649 90.13048839642627 l 33.394055174976224 -17.780453453036912 a58.832624096472195,58.832624096472195 0 0,0 0.4669963675196265,0.8955271104980045 l -33.694359611470794 17.20458009943441" fill="#5bff2a" stroke="none" /><path d="M 118.70294669586156 90.45014215332178 l 33.646606262319864 -17.180196899101862 a58.77900578977022,58.77900578977022 0 0,0 0.45114310735823704,0.9025884235032112 l -33.93656928288984 16.6000766194349" fill="#5cff2a" stroke="none" /><path d="M 119.0197475246899 91.09779779509293 l 34.26440928749381 -16.037473657996895 a58.83186890905387,58.83186890905387 0 0,0 0.42027115704615137,0.9183683250137726 l -34.53466490939501 15.446916350768438" fill="#5bff2a" stroke="none" /><path d="M 119.16976305983485 91.42560881287824 l 34.52570310318649 -15.442907848840937 a58.82205147261547,58.82205147261547 0 0,0 0.4043767248999738,0.9252930826191547 l -34.78571371010343 14.847952696445933" fill="#5bff2a" stroke="none" /><path d="M 119.31412917781788 91.75594674310238 l 34.799604936152235 -14.853882034822808 a58.83715522098223,58.83715522098223 0 0,0 0.3885329909593124,0.9323377378333465 l -35.049463771648036 14.254311787548183" fill="#5bff2a" stroke="none" /><path d="M 119.58574465831526 92.42381321644754 l 35.2939236719434 -13.652447876142555 a58.84244153291059,58.84244153291059 0 0,0 0.3563310977347142,0.94521057142245 l -35.52308545349256 13.044569024525947" fill="#5bff2a" stroke="none" /><path d="M 119.94978838288452 93.4421083053983 l 14.480414108344503 -4.759999734983415 a36.242702851731536,36.242702851731536 0 0,0 0.18921328705476184,0.5927079267621945 l -14.559992111176522 4.5107227745298335" fill="#ff760a" stroke="none" /><path d="M 120.26092885502905 94.47779374421319 l 36.506976743148684 -9.950138850659828 a58.8386655958189,58.8386655958189 0 0,0 0.2572384970051899,0.976776472542474 l -36.6724047209586 9.321981873744555" fill="#5bff2a" stroke="none" /><path d="M 120.35273937422433 94.82641323984039 l 36.66215796582253 -9.319377188658589 a58.82809297196218,58.82809297196218 0 0,0 0.24038972229779335,0.9808721001688582 l -36.81673521463661 8.688649263881635" fill="#5bff2a" stroke="none" /><path d="M 120.43855184770803 95.1765574152323 l 36.82188019370475 -8.689863464932664 a58.83337928389054,58.83337928389054 0 0,0 0.22353641165298396,0.9849426749789938 l -36.9656274669154 8.056486456014644" fill="#5bff2a" stroke="none" /><line stroke="#e1ed5e" stroke-width="0.3" x1="184.99686870605535" x2="189.99668451229388" y1="99.2704041080226" y2="99.22748670261217" /><path d="M 185.99683186730306 99.26182062694052 a86.0,86.0 0 0,1 -10.086455211305974,41.156179273409016" fill="none" id="id52" stroke="none" /><text fill="#e1ed5e" style="font-size:6.75px; font-family:Arial;" text-anchor="middle"><textPath startOffset="21.40746469413373" xlink:href="#id52">April</textPath></text><path d="M 120.99922638620191 99.81974689727618 l 37.81688235743929 -0.32461245261632404 a58.81827553552378,58.81827553552378 0 0,0 0.0,1.0097311106802973 l -37.81688235743929 -0.32461245261631944" fill="#5bff2a" stroke="none" /><path d="M 120.86939407059847 102.33845913500097 l 41.30325339566019 4.628115693326025 a62.561739568224596,62.561739568224596 0 0,0 -0.12875180305261513,1.0662496273399316 l -41.21771950634792 -5.336458997589365" fill="#31ff2f" stroke="none" /><path d="M 120.82617615685814 102.69636545807757 l 37.97856920444995 4.9170861409604205 a59.295553983913315,59.295553983913315 0 0,0 -0.13936003490488919,1.0083397904480225 l -37.88856465298985 -5.568314239608528" fill="#56ff2b" stroke="none" /><path d="M 120.7213421655516 103.40968896794604 l 40.61232044033642 6.682741873656917 a62.158469486832175,62.158469486832175 0 0,0 -0.18228765179761636,1.0513867345102776 l -40.49161797104657 -7.378921641087782" fill="#36ff2f" stroke="none" /><path d="M 119.71291397450082 107.23885506374661 l 35.5159964322486 13.041965837731984 a58.834889658727214,58.834889658727214 0 0,0 -0.3562853659882466,0.9450892625316831 l -35.286880382445915 -13.649723380457827" fill="#5bff2a" stroke="none" /><path d="M 119.16976305983485 108.57439118712176 l 33.40754543624624 14.942770146809915 a57.59713748007145,57.59713748007145 0 0,0 -0.41145073342332505,0.8990941075648912 l -33.14611023796786 -15.514053236589495" fill="#69ff28" stroke="none" /><path d="M 118.8641267826498 109.22738970284198 l 37.103240721992094 18.149054304229242 a62.304220658571374,62.304220658571374 0 0,0 -0.47819998538209113,0.9567203042349484 l -36.786220823398274 -18.783306464627934" fill="#34ff2f" stroke="none" /><path d="M 118.70294669586154 109.54985784667822 l 35.860074882823085 18.310409748319152 a61.264327583520135,61.264327583520135 0 0,0 -0.486298527040393,0.9325415464642212 l -35.540468286807744 -18.923297537887876" fill="#3fff2d" stroke="none" /><path d="M 118.5362547648365 109.86951160357373 l 34.60724519470708 18.42640880534398 a60.207065197847115,60.207065197847115 0 0,0 -0.4935679171343744,0.9081093758141666 l -34.28583192795737 -19.01777301463275" fill="#4bff2c" stroke="none" /><line stroke="#e1ed5e" stroke-width="0.3" x1="174.33088141563837" x2="178.70328620479359" y1="141.23008692659167" y2="143.65538615756765" /><path d="M 175.20536237346943 141.71514677278685 a86.0,86.0 0 0,1 -30.301960400862466,31.631185727798858" fill="none" id="id53" stroke="none" /><text fill="#e1ed5e" style="font-size:6.75px; font-family:Arial;" text-anchor="middle"><textPath startOffset="22.145653131862474" xlink:href="#id53">May</textPath></text><path d="M 118.36410011445183 110.18625677009912 l 34.180828802265495 18.959529550847737 a60.0869903983314,60.0869903983314 0 0,0 -0.5080687948106885,0.8977088782188364 l -33.85032664243343 -19.543495199165694" fill="#4dff2c" stroke="none" /><path d="M 117.62189284568427 111.42229804090321 l 31.76135847760315 20.587328835335672 a58.84999340709397,58.84999340709397 0 0,0 -0.5567645456983776,0.8430124845936887 l -31.403269492984045 -21.12952119826842" fill="#5bff2a" stroke="none" /><path d="M 117.423217284605 111.72311816256416 l 31.6777034921446 21.31417264050389 a59.18076549632596,59.18076549632596 0 0,0 -0.5743641614893811,0.8380144766939317 l -31.307149593839902 -21.854821852267868" fill="#57ff2a" stroke="none" /><path d="M 116.79662413953412 112.60449989151573 l 30.404984332080904 22.816467078835355 a59.013869076873284,59.013869076873284 0 0,0 -0.6150032645783656,0.8050590152030995 l -30.008829090148232 -23.335047007279332" fill="#59ff2a" stroke="none" /><path d="M 116.35404254752997 113.17365903436017 l 31.05823287109279 25.018313904003474 a60.881447562422835,60.881447562422835 0 0,0 -0.6626023090356401,0.8082670793950638 l -30.624183742818524 -25.54778326509703" fill="#44ff2d" stroke="none" /><path d="M 115.41159269507618 114.26474011684316 l 27.84184591646838 25.769996925658376 a58.93759514762117,58.93759514762117 0 0,0 -0.6936229911594611,0.7366035798489019 l -27.39536709157266 -26.244141965451774" fill="#5aff2a" stroke="none" /><path d="M 115.16444852881244 114.52719865689866 l 29.512896560809388 28.272687296526083 a61.8699878930271,61.8699878930271 0 0,0 -0.7413002650726372,0.7606393769534963 l -29.023209494585945 -28.775149365547318" fill="#39ff2e" stroke="none" /><path d="M 114.39649973595853 115.28858382429668 l 30.249164615486794 32.12356456921976 a65.12409047864499,65.12409047864499 0 0,0 -0.8204712148049996,0.7594159074994964 l -29.693263629367827 -32.63809822285163" fill="#33ff4f" stroke="none" /><path d="M 114.13192950727249 115.5334660781643 l 30.576519811127277 33.60895149031442 a66.4366062117162,66.4366062117162 0 0,0 -0.850182837535779,0.7602387358120258 l -29.995071946768117 -34.128885756009836" fill="#35ff61" stroke="none" /><path d="M 113.86319453409587 115.77377054828091 l 30.479651442367935 34.68024826897133 a67.1706483823406,67.1706483823406 0 0,0 -0.8726443445874433,0.7537694008308516 l -29.879827618017632 -35.1983618022669" fill="#36ff6a" stroke="none" /><path d="M 113.59037401385874 116.0094264158162 l 27.95815071995023 32.93463124833133 a64.20125145343611,64.20125145343611 0 0,0 -0.8463121038684385,0.7060236571800669 l -27.388664281919898 -33.40971708942327" fill="#31ff43" stroke="none" /><path d="M 113.31354834802062 116.24036423190432 l 24.456182221877956 29.832565791085376 a59.57572851611667,59.57572851611667 0 0,0 -0.7964685660202081,0.6415786977343222 l -23.940462885502495 -30.2479927826131" fill="#52ff2b" stroke="none" /><path d="M 112.16784306229584 117.11559508785304 l 26.555340605034942 37.35341217739563 a66.83081404408857,66.83081404408857 0 0,0 -0.9407388901088718,0.656708806760073 l -25.910206623752313 -37.80376579996083" fill="#35ff66" stroke="none" /><path d="M 111.8722381534696 117.32195027204791 l 21.96484313492264 32.04736256114198 a59.85212711122832,59.85212711122832 0 0,0 -0.8524758754408749,0.5735838137861579 l -21.41147097138476 -32.41969604898526" fill="#4fff2b" stroke="none" /><path d="M 111.27062007382361 117.71928675628689 l 20.658862991604117 32.479163968738824 a59.4926579000995,59.4926579000995 0 0,0 -0.8664280409282087,0.5407151782800426 l -20.098270821886192 -32.829014943860415" fill="#53ff2b" stroke="none" /><path d="M 110.96478420261333 117.91015095944535 l 20.15071378002534 32.91467657473941 a59.59309782673843,59.59309782673843 0 0,0 -0.8770606892149078,0.5266497438731307 l -19.582720334252997 -33.25574031914846" fill="#52ff2b" stroke="none" /><line stroke="#e1ed5e" stroke-width="0.3" x1="143.1302829299769" x2="145.66735839644613" y1="173.24464959558577" y2="177.55315839532614" /><path d="M 143.63769802327073 174.10635135553383 a86.0,86.0 0 0,1 -40.68552437913181,11.842963189579606" fill="none" id="id54" stroke="none" /><text fill="#e1ed5e" style="font-size:6.75px; font-family:Arial;" text-anchor="middle"><textPath startOffset="21.407464694133747" xlink:href="#id54">June</textPath></text><path d="M 110.65571695917076 118.09573695890943 l 19.726034701132516 33.49911944562314 a59.8755379211968,59.8755379211968 0 0,0 -0.8901711395194274,0.5139405470263794 l -19.14807109375269 -33.83280688992569" fill="#4fff2b" stroke="none" /><path d="M 110.34350942703117 118.27599006163325 l 19.94407855598181 35.23927580372267 a61.49163899643984,61.49163899643984 0 0,0 -0.9231236463540478,0.512041125549764 l -19.33621072147167 -35.57644984470558" fill="#3dff2e" stroke="none" /><path d="M 110.02825361518725 118.45085714620011 l 18.28678006013625 33.645615627687164 a59.29404360907664,59.29404360907664 0 0,0 -0.8984775158880002,0.47838867026302295 l -17.706513728461694 -33.95457476567275" fill="#56ff2b" stroke="none" /><path d="M 109.3889696526874 118.78422872680471 l 17.189570046197137 34.3906549288693 a59.44734665499923,59.44734665499923 0 0,0 -0.9167339963231572,0.4484205357280378 l -16.59667580061191 -34.68066921469457" fill="#54ff2b" stroke="none" /><path d="M 109.06512990194946 118.94263497670748 l 16.887136371772268 35.28762009506015 a60.12021864473826,60.12021864473826 0 0,0 -0.9347585672390353,0.43751420819487474 l -16.278889090661725 -35.57231053482556" fill="#4cff2c" stroke="none" /><path d="M 107.407793817531 119.65005319985036 l 13.339676423031943 35.385076560990626 a58.81600997326876,58.81600997326876 0 0,0 -0.9478083729225337,0.34804836305107884 l -12.730278898455282 -35.60885577305043" fill="#5bff2a" stroke="none" /><path d="M 107.06938296918513 119.77432235084164 l 12.943064588680086 36.204055219521585 a59.44810184241756,59.44810184241756 0 0,0 -0.9638921685820421,0.33529173157323816 l -12.319666648053023 -36.42090538366341" fill="#54ff2b" stroke="none" /><path d="M 106.72888874123015 119.89276391827305 l 12.54857937293239 37.097645179643656 a60.16250914016519,60.16250914016519 0 0,0 -0.9811567345984258,0.3225257069115426 l -11.909899900686229 -37.307591807957216" fill="#4cff2c" stroke="none" /><path d="M 106.38641147887787 120.00534299687104 l 11.82010139590069 37.02629927070333 a59.867230859595075,59.867230859595075 0 0,0 -0.9817067490732629,0.30413526031756966 l -11.182754013955803 -37.22375111882755" fill="#4fff2b" stroke="none" /><path d="M 106.0420521117495 120.11202640906438 l 11.134952395771913 37.064635078527125 a59.70108962756075,59.70108962756075 0 0,0 -0.9840444964042124,0.2864410112851079 l -10.497047886986094 -37.25031978411475" fill="#51ff2b" stroke="none" /><path d="M 105.69591212413111 120.21278271476187 l 10.640020927849292 37.75768066786038 a60.22821044556058,60.22821044556058 0 0,0 -0.9975472276850115,0.2718859328010364 l -9.990292299229585 -37.93476709480555" fill="#4bff2c" stroke="none" /><path d="M 105.3480935250658 120.30758222061773 l 10.009332417385783 38.007065524729235 a60.302973999976025,60.302973999976025 0 0,0 -1.0033114246837196,0.255037840735791 l -9.355415699476666 -38.1732885973003" fill="#4aff2c" stroke="none" /><path d="M 104.9986988182912 120.39639698878246 l 9.257985922574116 37.775741859545 a59.893662419236904,59.893662419236904 0 0,0 -1.0007028732223044,0.23616315330780838 l -8.608150895611933 -37.92910115649904" fill="#4fff2b" stroke="none" /><path d="M 104.64783097203109 120.47920084513623 l 8.638905036515055 38.06460957583801 a60.032616904211075,60.032616904211075 0 0,0 -1.0069401858270726,0.21945792686444526 l -7.984202434068847 -38.20729896083618" fill="#4dff2c" stroke="none" /><path d="M 104.29559338865022 120.5559693870025 l 7.734261646654008 37.011241813472616 a58.810723661340404,58.810723661340404 0 0,0 -0.9899903572738781,0.19802579775176707 l -7.097774803849171 -37.13855700788724" fill="#5bff2a" stroke="none" /><path d="M 103.94208987418118 120.62667999033965 l 7.274978177357429 38.065759937100694 a59.75470793426274,59.75470793426274 0 0,0 -1.0091866386230501,0.18390742333283028 l -6.620456805183322 -38.18503553436489" fill="#50ff2b" stroke="none" /><path d="M 103.58742460773223 120.69131181640829 l 6.651031813227837 38.36138405577345 a59.93368735240881,59.93368735240881 0 0,0 -1.0152267102969221,0.16705516884028093 l -5.991527599877842 -38.4699052231094" fill="#4eff2b" stroke="none" /><path d="M 103.2317021107853 120.74984581791261 l 5.84230596398912 37.51179527632495 a58.964026707262995,58.964026707262995 0 0,0 -1.0014756189885068,0.14718242828432185 l -5.197505239392927 -37.606558777908155" fill="#59ff2a" stroke="none" /><path d="M 102.875027216393 120.80226474461374 l 5.207534043439417 37.67912220814541 a59.037279886841766,59.037279886841766 0 0,0 -1.005101756894647,0.13013054526821183 l -4.559954464653996 -37.762964349614016" fill="#59ff2a" stroke="none" /><path d="M 102.51750503828377 120.84855314841334 l 4.67746599767339 38.736128416597005 a60.01751315584432,60.01751315584432 0 0,0 -1.0239104875686063,0.11473130580496389 l -4.011819608503984 -38.81071548290894" fill="#4dff2c" stroke="none" /><path d="M 102.15924093988457 120.88869738790638 l 3.9511756431449157 38.22404012983046 a59.42771178212244,59.42771178212244 0 0,0 -1.015649128839677,0.09618302846753585 l -3.2944269509202235 -38.286234913803185" fill="#54ff2b" stroke="none" /><path d="M 101.80034050326958 120.92268563240118 l 3.2923551878774915 38.26215788683569 a59.403545784735634,59.403545784735634 0 0,0 -1.0167369607296586,0.07870187105442444 l -2.635049232372597 -38.31303752488516" fill="#54ff2b" stroke="none" /><path d="M 101.44090949804482 120.95050786540614 l 2.6457235316640593 38.46823949389635 a59.55911439291322,59.55911439291322 0 0,0 -1.020603985537067,0.061397001386643175 l -1.9849751939945268 -38.50798847310768" fill="#53ff2b" stroke="none" /><path d="M 101.08105385017728 120.97215588758144 l 1.9863747338794409 38.53513917298493 a59.58630113997339,59.58630113997339 0 0,0 -1.0219738424618972,0.04388795407811292 l -1.3245751308167142 -38.56355969548887" fill="#52ff2b" stroke="none" /><path d="M 100.72087961077811 120.9876233191556 l 1.3041212747013529 37.96806799180474 a58.99045826690482,58.99045826690482 0 0,0 -1.0123512264884724,0.026074576537322813 l -0.6521567341421367 -37.98486028569211" fill="#59ff2a" stroke="none" /><line stroke="#e1ed5e" stroke-width="0.3" x1="101.45913802915013" x2="101.54496967792366" y1="184.9874750549273" y2="189.98673829345242" /><path d="M 101.47630435890484 185.9873277026323 a86.0,86.0 0 0,1 -42.54439059252881,-10.42667462771756" fill="none" id="id55" stroke="none" /><text fill="#e1ed5e" style="font-size:6.75px; font-family:Arial;" text-anchor="middle"><textPath startOffset="22.145653131862474" xlink:href="#id55">July</textPath></text><path d="M 100.36049292484886 120.99690560180557 l 0.6620740382732293 38.56249353259218 a59.56817664193329,59.56817664193329 0 0,0 -1.0225669631220768,0.008777507535551343 l -4.723239407349332e-15 -38.56817664193329" fill="#53ff2b" stroke="none" /><path d="M 100.0 121.0 l 4.7245341803458046e-15 38.578749265790016 a59.578749265790016,59.578749265790016 0 0,0 -1.0227484562695737,-0.008779065435940519 l 0.6622555314207168 -38.57306459854851" fill="#52ff2b" stroke="none" /><path d="M 99.63950707515114 120.99690560180557 l -0.6602850343907481 38.45829302530824 a59.46396077820266,59.46396077820266 0 0,0 -1.0204771312897012,-0.026283871020427167 l 1.3203754797511933 -38.44129143693777" fill="#54ff2b" stroke="none" /><path d="M 99.27912038922189 120.98762331915562 l -1.3304339032908132 38.734131463591055 a59.75697349651776,59.75697349651776 0 0,0 -1.0249010703763868,-0.044013661839855375 l 1.9951607342680389 -38.70558523332537" fill="#50ff2b" stroke="none" /><path d="M 98.91894614982273 120.97215588758144 l -2.004568752383291 38.88809827138902 a59.93972885175552,59.93972885175552 0 0,0 -1.027126188521618,-0.06178936092213179 l 2.6718392930373556 -38.8479569326422" fill="#4eff2b" stroke="none" /><path d="M 98.55909050195518 120.95050786540614 l -2.650438877467578 38.536799587003244 a59.62783644798198,59.62783644798198 0 0,0 -1.0205758663750466,-0.07899902663031368 l 3.3115837386178604 -38.48562279337788" fill="#52ff2b" stroke="none" /><path d="M 98.19965949673042 120.92268563240118 l -3.299606358527063 38.346427481221966 a59.48812677558947,59.48812677558947 0 0,0 -1.0166816511031727,-0.09628080939939823 l 3.9573875730152506 -38.284134916317385" fill="#53ff2b" stroke="none" /><path d="M 97.84075906011543 120.88869738790638 l -4.513122349039388 43.66036475240261 a64.8930031286336,64.8930031286336 0 0,0 -1.1070872980141155,-0.12405144090560745 l 5.261945548654302 -43.57645755099003" fill="#32ff4c" stroke="none" /><path d="M 97.48249496171623 120.84855314841334 l -4.641615021497989 38.43923090463609 a59.71845893818252,59.71845893818252 0 0,0 -1.0166987387097235,-0.13163200674383818 l 5.3007915820985065 -38.353887301691856" fill="#51ff2b" stroke="none" /><path d="M 97.12497278360702 120.80226474461374 l -5.1956442242090155 37.59309339910124 a58.95043333373291,58.95043333373291 0 0,0 -1.001244742080495,-0.14714849732952687 l 5.840214071897196 -37.49836382847283" fill="#5aff2a" stroke="none" /><path d="M 96.76829788921471 120.74984581791261 l -5.950154622949166 38.20426103225638 a59.66484063148052,59.66484063148052 0 0,0 -1.010672670922442,-0.166305803394228 l 6.605104796924672 -38.09648923036649" fill="#51ff2b" stroke="none" /><path d="M 96.41257539226777 120.69131181640829 l -6.591945932702982 38.020592398367874 a59.58781151481006,59.58781151481006 0 0,0 -1.0063679546671187,-0.18339376522075015 l 7.243648620921158 -37.90183045921575" fill="#52ff2b" stroke="none" /><path d="M 96.05791012581884 120.62667999033965 l -7.2527214336447825 37.949303249191495 a59.6361435095837,59.6361435095837 0 0,0 -1.003885062857999,-0.20080512801251624 l 7.90310298203374 -37.819208724516116" fill="#52ff2b" stroke="none" /><path d="M 95.70440661134978 120.55596938700252 l -7.954079780455801 38.06315115877444 a59.88535535763519,59.88535535763519 0 0,0 -1.0044701357656034,-0.21891959094998792 l 8.606312332840542 -37.92100010969074" fill="#4fff2b" stroke="none" /><path d="M 95.35216902796893 120.47920084513623 l -8.592940967230488 37.862083405630315 a59.824940364168164,59.824940364168164 0 0,0 -0.9995546656293015,-0.2358921794422661 l 9.241627786599679 -37.70899508254182" fill="#50ff2b" stroke="none" /><path d="M 95.00130118170881 120.39639698878247 l -9.001289019590985 36.728330897341 a58.81525478585042,58.81525478585042 0 0,0 -0.9785589857036595,-0.24874586754072586 l 9.630453298520024 -36.568399797965014" fill="#5bff2a" stroke="none" /><path d="M 94.6519064749342 120.30758222061772 l -9.845664331012815 37.385591142253936 a59.660309506970506,59.660309506970506 0 0,0 -0.9881412034531891,-0.26932227906992134 l 10.4859869354007 -37.21106836903987" fill="#51ff2b" stroke="none" /><path d="M 94.30408787586889 120.21278271476187 l -10.512000654870075 37.30338188227152 a59.75621830909941,59.75621830909941 0 0,0 -0.9849531745539843,-0.28670551425128926 l 11.150813841805666 -37.117432673717715" fill="#50ff2b" stroke="none" /><path d="M 93.95794788825049 120.11202640906438 l -11.149075601144435 37.11164663588861 a59.75017680975271,59.75017680975271 0 0,0 -0.9797872891435445,-0.3035406067247833 l 11.784503523159614 -36.91478944135718" fill="#50ff2b" stroke="none" /><path d="M 93.61358852112213 120.00534299687104 l -11.784503523159614 36.91478944135718 a59.75017680975271,59.75017680975271 0 0,0 -0.9744322370889232,-0.320315231014679 l 12.416458497896281 -36.70705328894048" fill="#50ff2b" stroke="none" /><path d="M 93.27111125876986 119.89276391827306 l -12.591409766488013 37.224265627728755 a60.29617731321099,60.29617731321099 0 0,0 -0.9776428734713452,-0.34007494052851933 l 13.22855841200438 -37.00263225463164" fill="#4aff2c" stroke="none" /><path d="M 92.93061703081489 119.77432235084164 l -12.973063049189653 36.287966252596384 a59.53721395778143,59.53721395778143 0 0,0 -0.9594304325525262,-0.35231614432951003 l 13.594082633396297 -36.05991925925815" fill="#53ff2b" stroke="none" /><path d="M 92.59220618246901 119.65005319985036 l -13.637771239155201 36.175808476552255 a59.661064694388834,59.661064694388834 0 0,0 -0.9552240380676952,-0.3695011784740862 l 14.256767539716424 -35.936367409940125" fill="#51ff2b" stroke="none" /><path d="M 92.25597844496254 119.51999308798841 l -14.149550766211897 35.66611110152846 a59.370317538328756,59.370317538328756 0 0,0 -0.9441167942681816,-0.3839640810780498 l 14.75972202167052 -35.41795976387112" fill="#55ff2b" stroke="none" /><path d="M 91.26138138417905 119.09545874513695 l -16.08185300209669 35.14175112195859 a59.64671613344042,59.64671613344042 0 0,0 -0.9273964760986564,-0.4340683778074017 l 16.682738192066836 -34.86050651258066" fill="#52ff2b" stroke="none" /><path d="M 90.93487009805054 118.94263497670748 l -16.55560056832661 34.594837777067106 a59.352193040288654,59.352193040288654 0 0,0 -0.9152666380912674,-0.4477027772865618 l 17.147027455679947 -34.305541249683316" fill="#55ff2b" stroke="none" /><path d="M 90.6110303473126 118.78422872680471 l -17.115964611810252 34.24339475376975 a59.28271579780157,59.28271579780157 0 0,0 -0.9063841078840121,-0.4628061837280399 l 17.701275941407847 -33.94453061836887" fill="#56ff2b" stroke="none" /><path d="M 89.97174638481275 118.45085714620012 l -18.423097857381872 33.896425020825646 a59.57950445320836,59.57950445320836 0 0,0 -0.8944183355073033,-0.49611877350810946 l 19.00226038104528 -33.575173331884386" fill="#52ff2b" stroke="none" /><line stroke="#e1ed5e" stroke-width="0.3" x1="58.13341422392154" x2="55.670673884152215" y1="173.97424548756322" y2="178.32567169271397" /><path d="M 57.64086615596767 174.84453072859336 a86.0,86.0 0 0,1 -31.369924170532244,-30.572349798747897" fill="none" id="id56" stroke="none" /><text fill="#e1ed5e" style="font-size:6.75px; font-family:Arial;" text-anchor="middle"><textPath startOffset="22.145653131862474" xlink:href="#id56">August</textPath></text><path d="M 89.34428304082925 118.09573695890944 l -19.186498261115496 32.58286861654204 a58.812234036177074,58.812234036177074 0 0,0 -0.8655683359171763,-0.5197489159199705 l 19.7429993535901 -32.24870570008615" fill="#5bff2a" stroke="none" /><path d="M 89.03521579738668 117.91015095944536 l -19.756800132047776 32.27124823452799 a58.8386655958189,58.8386655958189 0 0,0 -0.8569035501594304,-0.5347711916120295 l 20.307867810996918 -31.927341246074413" fill="#5bff2a" stroke="none" /><path d="M 87.83215693770417 117.11559508785305 l -22.438667713982838 31.562796211060654 a59.7260108123659,59.7260108123659 0 0,0 -0.8305299681819712,-0.6012396483189575 l 22.977178692538764 -31.17295579136863" fill="#51ff2b" stroke="none" /><path d="M 87.54013794807813 116.9041958592261 l -23.038116607947995 31.25562977708677 a59.82871630125985,59.82871630125985 0 0,0 -0.8214967391797138,-0.6164664681338998 l 23.571266336038477 -30.855544281688857" fill="#50ff2b" stroke="none" /><path d="M 87.2517909369889 116.68781488649013 l -23.284281492286333 30.479871908880053 a59.35596897738034,59.35596897738034 0 0,0 -0.8043865951191591,-0.6254958816534807 l 23.80407803204072 -30.07567497560578" fill="#55ff2b" stroke="none" /><path d="M 86.96720088162412 116.46651593811092 l -23.795641855537927 30.065016142182646 a59.34237560385026,59.34237560385026 0 0,0 -0.7933488683842697,-0.6390656901506201 l 24.308241494277457 -29.652102158238613" fill="#55ff2b" stroke="none" /><path d="M 86.68645165197938 116.24036423190432 l -24.381493699205855 29.741457937609344 a59.457919278855954,59.457919278855954 0 0,0 -0.783784671129416,-0.6538610489239668 l 24.888452704497162 -29.318534704773505" fill="#54ff2b" stroke="none" /><path d="M 86.40962598614128 116.0094264158162 l -24.84739958663408 29.270174235157388 a59.39448353571558,59.39448353571558 0 0,0 -0.7716206617823819,-0.6665075497342295 l 25.34619972817932 -28.839322552958436" fill="#55ff2b" stroke="none" /><path d="M 86.13680546590413 115.77377054828092 l -25.47881098932083 28.990209825024024 a59.59536338899344,59.59536338899344 0 0,0 -0.762636113418696,-0.6819539152666356 l 25.972712129562897 -28.548560379874004" fill="#52ff2b" stroke="none" /><path d="M 85.86807049272751 115.53346607816431 l -25.826857972966256 28.388241111886767 a59.378624599930475,59.378624599930475 0 0,0 -0.748086489974557,-0.6924176868376336 l 26.31037423425478 -27.940705678916757" fill="#55ff2b" stroke="none" /><path d="M 85.60350026404147 115.28858382429668 l -26.062905543110077 27.677902504683733 a59.01764501396497,59.01764501396497 0 0,0 -0.7316150865032772,-0.700870703067344 l 26.53419311547867 -27.226419671310808" fill="#59ff2a" stroke="none" /><path d="M 85.34317274990678 115.03919595460226 l -26.845169515664054 27.545508853426607 a59.46320559078432,59.46320559078432 0 0,0 -0.7249076707720938,-0.7187119159439999 l 27.31406910656611 -27.080616927253946" fill="#54ff2b" stroke="none" /><path d="M 85.08716467003676 114.78537596483092 l -27.407918986673877 27.173664676454237 a59.59536338899344,59.59536338899344 0 0,0 -0.7140466675659322,-0.7326747850007264 l 27.87035245539062 -26.699167199385773" fill="#52ff2b" stroke="none" /><path d="M 84.83555147118756 114.52719865689866 l -27.320656420111035 26.172570832215314 a58.83413447130887,58.83413447130887 0 0,0 -0.6924053862743242,-0.7353105256556796 l 27.765917640121614 -25.69971884661514" fill="#5bff2a" stroke="none" /><path d="M 84.58840730492382 114.26474011684316 l -27.88784625907262 25.812574156027612 a59.0002757033432,59.0002757033432 0 0,0 -0.6816001207901922,-0.7491979315151978 l 28.326844080704696 -25.330038648954737" fill="#59ff2a" stroke="none" /><path d="M 84.3458050057657 113.99807769240083 l -28.621264467719712 25.593311174509765 a59.39523872313391,59.39523872313391 0 0,0 -0.673114746173526,-0.7658810191757853 l 29.05639027785183 -25.098217877522682" fill="#54ff2b" stroke="none" /><path d="M 83.42222388311158 112.89097897827486 l -20.23481091399589 15.734711355882855 a46.63257135322393,46.63257135322393 0 0,0 -0.48597362054940874,-0.6361550692619783 l 20.5019365118996 -15.385035373380006" fill="#f3ff19" stroke="none" /><path d="M 83.20337586046588 112.60449989151573 l -30.237668428074187 22.690910105220762 a58.804682161993696,58.804682161993696 0 0,0 -0.598962035879302,-0.8126070356599727 l 30.622732483537316 -22.168496760291912" fill="#5bff2a" stroke="none" /><line stroke="#e1ed5e" stroke-width="0.3" x1="26.387840678322732" x2="22.057713659400548" y1="142.50000000000003" y2="145.00000000000006" /><path d="M 25.521815274538298 143.00000000000003 a86.0,86.0 0 0,1 -11.493303480769221,-40.785679425670985" fill="none" id="id57" stroke="none" /><text fill="#e1ed5e" style="font-size:6.75px; font-family:Arial;" text-anchor="middle"><textPath startOffset="21.40746469413373" xlink:href="#id57">September</textPath></text><path d="M 80.9802524753101 108.90220220490708 l -34.95727591573221 16.36177022489946 a59.59687376383012,59.59687376383012 0 0,0 -0.4257360433641259,-0.930310087873517 l 35.23299642395139 -15.759271154811254" fill="#52ff2b" stroke="none" /><path d="M 80.68587082218212 108.24405325689762 l -35.00797332688423 14.942822110475909 a59.06371144648359,59.06371144648359 0 0,0 -0.3900290620658011,-0.9359277638633625 l 35.25932823348652 -14.339661837171265" fill="#58ff2a" stroke="none" /><path d="M 80.41425534168474 107.57618678355246 l -35.419294224998794 13.700943899330627 a58.97686489337473,58.97686489337473 0 0,0 -0.3571451228218506,-0.9473698696780789 l 35.64927003163508 -13.090905749458402" fill="#59ff2a" stroke="none" /><path d="M 80.05021161711548 106.5578916946017 l -36.19027396430036 11.896461882245267 a59.095429318053775,59.095429318053775 0 0,0 -0.308521151883332,-0.9664381140533937 l 36.389159831960946 -11.273454734500481" fill="#58ff2a" stroke="none" /><path d="M 79.407916724674 104.11899336999214 l -37.40875792597882 7.48279927856441 a59.1498028121741,59.1498028121741 0 0,0 -0.19061364128948208,-0.9973711168845756 l 37.531697859550455 -6.83952559664652" fill="#57ff2a" stroke="none" /><path d="M 79.17382384314188 102.69636545807758 l -38.14033948542335 4.938030542586301 a59.458674466274296,59.458674466274296 0 0,0 -0.12236570781896763,-1.0133635977729905 l 38.219487279501976 -4.28257326788991" fill="#54ff2b" stroke="none" /><path d="M 79.0935383218832 101.97986365728391 l -38.7444803994128 3.669142576308782 a59.91782841662371,59.91782841662371 0 0,0 -0.08818300057981908,-1.0248201359146525 l 38.80175702269036 -3.0035013930184675" fill="#4fff2b" stroke="none" /><path d="M 79.03789590574601 101.26102812881392 l -38.239262111979514 2.300379052192212 a59.30839217002505,59.30839217002505 0 0,0 -0.05241283288390075,-1.016794955746841 l 38.27311653431999 -1.6436123030686403" fill="#55ff2b" stroke="none" /><path d="M 79.01933749520258 100.90099992219065 l -38.25500872591769 1.6428346758627412 a59.29026767198495,59.29026767198495 0 0,0 -0.03493979145149857,-1.0172339054539363 l 38.277573204366035 -0.9858945058446852" fill="#56ff2b" stroke="none" /><line stroke="#e1ed5e" stroke-width="0.3" x1="15.003131293944662" x2="10.003315487706104" y1="100.72959589197737" y2="100.7725132973878" /><path d="M 14.003168132696942 100.73817937305945 a86.0,86.0 0 0,1 10.791469493833615,-42.45332614584628" fill="none" id="id58" stroke="none" /><text fill="#e1ed5e" style="font-size:6.75px; font-family:Arial;" text-anchor="middle"><textPath startOffset="22.145653131862435" xlink:href="#id58">October</textPath></text><path d="M 79.00077361379809 100.18025310272382 l -38.30396029826257 0.3287934309288947 a59.305371420351705,59.305371420351705 0 0,0 0.0,-1.0180930673054105 l 38.30396029826257 0.3287934309288806" fill="#56ff2b" stroke="none" /><path d="M 79.00077361379809 99.81974689727619 l -37.87200900810612 -0.3250856486113655 a58.87340421706245,58.87340421706245 0 0,0 0.017349623286508326,-1.0105285770209884 l 37.86084795322094 0.9751611416014063" fill="#5aff2a" stroke="none" /><path d="M 79.01933749520258 99.09900007780938 l -38.46777547464477 -1.6519717955320081 a59.503230523956226,59.503230523956226 0 0,0 0.052585018129710226,-1.0201353035158118 l 38.43374886705848 2.312078892424532" fill="#53ff2b" stroke="none" /><path d="M 79.03789590574601 98.7389718711861 l -62.886312282761985 -3.7830843864417325 a84.0,84.0 0 0,0 0.09894415533974499,-1.4386263033827 l 62.81210416625718 4.862054113978758" fill="#4dd2ff" stroke="none" /><path d="M 79.0935383218832 98.0201363427161 l -30.02558143577733 -2.8434537794474184 a51.15991992615945,51.15991992615945 0 0,0 0.09030361107106616,-0.8736055202804324 l 29.9723454322246 3.3584638220107634" fill="#b8ff1f" stroke="none" /><path d="M 79.17382384314186 97.30363454192245 l -59.22140369301271 -7.667396361867518 a80.7156899176486,80.7156899176486 0 0,0 0.1897029474983562,-1.37259602768049 l 59.08105622895915 8.682880697748075" fill="#48f4ff" stroke="none" /><path d="M 79.64726062577567 94.8264132398404 l -54.13873076149262 -13.761853651711588 a76.8604581470338,76.8604581470338 0 0,0 0.33602850324123,-1.2759549596616964 l 53.894512777446664 14.68918911574607" fill="#43ffdf" stroke="none" /><path d="M 80.16572619554312 93.10060997987247 l -58.87800006244691 -20.48082476025077 a83.33845582153603,83.33845582153603 0 0,0 0.481616229871522,-1.3471663114573513 l 58.517743662531444 21.48852602808904" fill="#4cd9ff" stroke="none" /><path d="M 81.1358732173502 90.77261029715801 l -22.736538121883328 -11.121580137867925 a46.310861513012,46.310861513012 0 0,0 0.3554470799002943,-0.7111322643598891 l 22.54227112877129 11.510244258391584" fill="#f8ff18" stroke="none" /><path d="M 81.46374523516351 90.13048839642627 l -53.3463648840883 -28.403934554825472 a81.43689390216127,81.43689390216127 0 0,0 0.6676066665780261,-1.22832107239761 l 52.85091286789493 29.315510460697702" fill="#49edff" stroke="none" /><line stroke="#e1ed5e" stroke-width="0.3" x1="26.387840678322718" x2="22.05771365940052" y1="57.49999999999999" y2="54.99999999999999" /><path d="M 25.521815274538284 56.99999999999999 a86.0,86.0 0 0,1 29.574782752854787,-30.34633250058573" fill="none" id="id59" stroke="none" /><text fill="#e1ed5e" style="font-size:6.75px; font-family:Arial;" text-anchor="middle"><textPath startOffset="21.40746469413373" xlink:href="#id59">November</textPath></text><line stroke="#e1ed5e" stroke-width="0.3" x1="56.869717070023135" x2="54.33264160355391" y1="26.7553504044142" y2="22.446841604673864" /><path d="M 56.362301976729285 25.89364864446614 a86.0,86.0 0 0,1 42.16139366436587,-11.88097634709845" fill="none" id="id60" stroke="none" /><text fill="#e1ed5e" style="font-size:6.75px; font-family:Arial;" text-anchor="middle"><textPath startOffset="22.145653131862474" xlink:href="#id60">December</textPath></text><path d="M 91.5904679813234 80.7573450057729 l -15.383083748871023 -35.199506068758616 a59.41411840859236,59.41411840859236 0 0,0 0.9380779859028584,-0.40040971061684255 l 14.776570687797733 35.458390429034864" fill="#54ff2b" stroke="none" /><path d="M 92.592206182469 80.34994680014964 l -13.639369602780542 -36.18004832596545 a59.665595818898865,59.665595818898865 0 0,0 0.961499280863597,-0.35307585408587217 l 13.016281170262818 36.40885502906005" fill="#51ff2b" stroke="none" /><path d="M 93.61358852112211 79.99465700312896 l -11.890148822907332 -37.24572183812642 a60.097563022188126,60.097563022188126 0 0,0 0.9854837508704222,-0.3053053851291621 l 11.249024439165293 37.444343811062225" fill="#4dff2c" stroke="none" /><path d="M 93.95794788825049 79.88797359093562 l -11.094103740232958 -36.928663189543116 a59.55911439291322,59.55911439291322 0 0,0 0.9817043389773527,-0.28575982556397667 l 10.45853938887398 37.113666709409614" fill="#53ff2b" stroke="none" /><path d="M 94.6519064749342 79.69241777938228 l -9.718537885545668 -36.90287132225843 a59.16113062344917,59.16113062344917 0 0,0 0.9843136136492917,-0.2502086714612076 l 9.083618978670998 37.0642652255549" fill="#57ff2a" stroke="none" /><path d="M 95.70440661134978 79.44403061299748 l -7.734107171507262 -37.01050259397486 a58.80996847392206,58.80996847392206 0 0,0 0.9899776448259004,-0.19802325490613573 l 7.0976330411503845 37.13781524554387" fill="#5bff2a" stroke="none" /><path d="M 96.05791012581881 79.37332000966035 l -7.131939614261583 -37.317321732639584 a58.99272382915982,58.99272382915982 0 0,0 0.9963176245437604,-0.18156226027816647 l 6.490287256166784 37.43425216684911" fill="#59ff2a" stroke="none" /><path d="M 96.76829788921471 79.25015418208739 l -5.857065424859721 -37.60656160283712 a59.0599355093919,59.0599355093919 0 0,0 1.0031045838394903,-0.14742183002092418 l 5.210635735412546 37.70156450615693" fill="#58ff2a" stroke="none" /><path d="M 97.12497278360702 79.19773525538626 l -5.238757742635694 -37.9050413414614 a59.2653464871798,59.2653464871798 0 0,0 1.0089845601187277,-0.13063325188200467 l 4.587295360626172 37.9893861895438" fill="#56ff2b" stroke="none" /><path d="M 97.48249496171623 79.15144685158666 l -4.73287205176268 -39.19497002599113 a60.47968785586709,60.47968785586709 0 0,0 1.031795278149873,-0.11561481303569404 l 4.059340872012008 39.2704405995338" fill="#48ff2c" stroke="none" /><path d="M 97.84075906011542 79.11130261209362 l -3.941469502722551 -38.13014202594467 a59.3333133548302,59.3333133548302 0 0,0 1.014035812802964,-0.09603024576150086 l 3.2863341265345714 38.192184027211354" fill="#55ff2b" stroke="none" /><path d="M 98.1996594967304 79.07731436759882 l -3.2623146237578897 -37.91304099580679 a59.05313882262685,59.05313882262685 0 0,0 1.0107394785093056,-0.07823762799983654 l 2.611006150473367 37.96345639080168" fill="#58ff2a" stroke="none" /><path d="M 98.5590905019552 79.04949213459386 l -2.6275875862659306 -38.204546828100625 a59.294798796494966,59.294798796494966 0 0,0 1.0160746779088912,-0.06112452948699172 l 1.9713685562245553 38.24402333541231" fill="#56ff2b" stroke="none" /></svg>