<?xml version="1.0" encoding="utf-8" ?>
<svg baseProfile="full" height="200mm" version="1.1" viewBox="0,0,200,200" width="200mm" xmlns="http://www.w3.org/2000/svg" xmlns:ev="http://www.w3.org/2001/xml-events" xmlns:xlink="http://www.w3.org/1999/xlink"><defs /><rect fill="#1a1a1a" height="200" width="200" x="0" y="0" /><text alignment-baseline="middle" fill="#e1ed5e" style="dominant-baseline: central; font-size:9.0px; font-family:Arial;" text-anchor="middle" x="100.0" y="100.0">2025</text><line stroke="#e1ed5e" stroke-width="0.3" x1="100.0" x2="100.0" y1="15.0" y2="10.0" /><path d="M 100.0 14.0 a86.0,86.0 0 0,1 42.46469731375804,11.215312516191453" fill="none" id="id61" stroke="none" /><text fill="#e1ed5e" style="font-size:6.75px; font-family:Arial;" text-anchor="middle"><textPath startOffset="22.20632615414155" xlink:href="#id61">January</textPath></text><path d="M 100.0 79.0 l 0.0 -7.2380788215936676 a28.238078821593668,28.238078821593668 0 0,0 0.4860721079126244,0.004183776091245149 l -0.12459162864009601 7.237006422110981" fill="#ff4006" stroke="none" /><path d="M 100.36148047927253 79.00311137660856 l 0.12382206497775028 -7.192305688783967 a28.19337146438925,28.19337146438925 0 0,0 0.4851587386327305,0.012530218861181486 l -0.2476074388053486 7.189108677780426" fill="#ff3f05" stroke="none" /><path d="M 100.72285384407766 79.0124445844662 l 0.2451801528647021 -7.118634129424573 a28.12285512810468,28.12285512810468 0 0,0 0.4836584261381764,0.02082734923203503 l -0.36767941139221005 7.1133590536683435" fill="#ff3e05" stroke="none" /><path d="M 101.08401301168833 79.027996857942 l 0.37527251358173735 -7.260260023730241 a28.269952205594297,28.269952205594297 0 0,0 0.4857557920604162,0.02930211591861188 l -0.5001903544817655 7.252724638431324" fill="#ff4006" stroke="none" /><path d="M 101.44485096284872 79.0497635885617 l 0.5191216686276859 -7.527227349876566 a28.545106949776695,28.545106949776695 0 0,0 0.48990174240003515,0.03802580393915439 l -0.6486136003900622 7.517176283748947" fill="#ff4406" stroke="none" /><path d="M 101.80526077348638 79.07773832637324 l 0.6236748505816107 -7.228145991301022 a28.255002742301965,28.255002742301965 0 0,0 0.48420312004527244,0.04598092064001505 l -0.7480030977171273 7.21633952614583" fill="#ff4006" stroke="none" /><path d="M 102.16513564639614 79.11191278185805 l 0.7481485047965017 -7.217742336986418 a28.25641306902766,28.25641306902766 0 0,0 0.48336401970369935,0.054311579612959786 l -0.8722792280099264 7.203794803902857" fill="#ff4006" stroke="none" /><path d="M 102.52436894288641 79.15227682838746 l 0.8770939543714832 -7.2435576454699175 a28.296466348037296,28.296466348037296 0 0,0 0.48304125814498794,0.06271261868415394 l -1.0016499410243171 7.227386703621628" fill="#ff4106" stroke="none" /><path d="M 102.88285421437855 79.19881850522331 l 1.580382739019889 -11.403222549930923 a32.512214996474185,32.512214996474185 0 0,0 0.5536845998910386,0.08159871725993585 l -1.7764363193395833 11.374329348510019" fill="#ff7d0b" stroke="none" /><path d="M 103.2404852339499 79.25152402106235 l 1.1182269245433651 -7.159885883697877 a28.246681814620388,28.246681814620388 0 0,0 0.4797507822268215,0.07916298973075019 l -1.2413069129090617 7.139576631027501" fill="#ff4006" stroke="none" /><path d="M 103.59715602781102 79.31037775812273 l 1.2702481129492509 -7.30603660424765 a28.415638956358222,28.415638956358222 0 0,0 0.4811780880885456,0.08793221998524484 l -1.3958213221406974 7.2830889029116666" fill="#ff4206" stroke="none" /><path d="M 103.95276090670814 79.375362276772 l 1.3876185723158279 -7.240288757022473 a28.372059860534357,28.372059860534357 0 0,0 0.4788576689134687,0.09605434352498216 l -1.512042650696422 7.215330457420283" fill="#ff4206" stroke="none" /><path d="M 104.307194497241 79.44645832069477 l 1.549270973535538 -7.392980639137069 a28.553568910130846,28.553568910130846 0 0,0 0.4801857434283973,0.10495000481197649 l -1.6762994411174628 7.365217136229222" fill="#ff4406" stroke="none" /><path d="M 104.66035177308747 79.52364482259891 l 1.6038441449732677 -7.04686769597883 a28.227078273133273,28.227078273133273 0 0,0 0.47283892965443164,0.11190569783609597 l -1.7249067615902234 7.018216086001865" fill="#ff4006" stroke="none" /><path d="M 105.01212808612495 79.60689891045804 l 1.849316553777358 -7.524408550560898 a28.748335030948837,28.748335030948837 0 0,0 0.47953743935458537,0.12224477063796708 l -1.9785628818169683 7.491460783754063" fill="#ff4706" stroke="none" /><path d="M 105.36241919743992 79.69619591428918 l 1.9447105136169685 -7.363285080500897 a28.615764318733838,28.615764318733838 0 0,0 0.47516082949615757,0.129879404005621 l -2.0711692323368367 7.328719135668982" fill="#ff4506" stroke="none" /><path d="M 105.71112130821622 79.79150937346287 l 1.9211628829355523 -6.797929866417104 a28.06418553631591,28.06418553631591 0 0,0 0.4637403291774443,0.13537851868401682 l -2.0378934298364237 6.763853018814384" fill="#ff3d05" stroke="none" /><path d="M 106.0581310904928 79.89281104454417 l 2.19937397492658 -7.299813661503887 a28.623944213742853,28.623944213742853 0 0,0 0.4705430587284015,0.1462000188331578 l -2.3247024063656996 7.260873507788209" fill="#ff4506" stroke="none" /><path d="M 106.40334571778207 80.00007090966166 l 2.2014103534031313 -6.875788518576086 a28.21960354148711,28.21960354148711 0 0,0 0.4613464116810112,0.15209865846389498 l -2.3194395873265603 6.836876135852955" fill="#ff4006" stroke="none" /><path d="M 106.74666289553966 80.11325718540242 l 2.3204363967446455 -6.839814372554501 a28.222706260283633,28.222706260283633 0 0,0 0.45871035907956714,0.1600350372688559 l -2.4378287598874864 6.798858482113437" fill="#ff4006" stroke="none" /><path d="M 107.08798089147638 80.2323363322302 l 1.0802266621390413 -3.0126431869759673 a24.20045443861161,24.20045443861161 0 0,0 0.3909153271386933,0.14397741405533618 l -1.131924315050311 2.9936025051143065" fill="#ff0400" stroke="none" /><path d="M 107.4271985657038 80.35727306442388 l 2.715810301923249 -7.182508949718356 a28.67880592337225,28.67880592337225 0 0,0 0.46024954304208177,0.1785696722946631 l -2.839043009964998 7.134696573533146" fill="#ff4606" stroke="none" /><path d="M 107.76421540070413 80.48803036053334 l 2.666553170727496 -6.701218580893556 a28.212269842513514,28.212269842513514 0 0,0 0.44967151389592175,0.18343230109745362 l -2.7815085542118054 6.654325393612523" fill="#ff3f06" stroke="none" /><path d="M 108.09893153111575 80.62456947434976 l 2.9617607951366955 -7.08555076670218 a28.679652119407663,28.679652119407663 0 0,0 0.45384353429536073,0.1943121162577271 l -3.0832880872223716 7.033519122481663" fill="#ff4606" stroke="none" /><path d="M 108.43124777332544 80.76684994638697 l 2.8734435304257553 -6.5548270050975495 a28.15698503486641,28.15698503486641 0 0,0 0.4422227216458196,0.19841244471954794 l -2.985848370538355 6.50439422986147" fill="#ff3f05" stroke="none" /><path d="M 108.76106565485865 80.91482961587045 l 3.2281429611521255 -7.0322105626214295 a28.737757580506152,28.737757580506152 0 0,0 0.44779144946341715,0.21024408975087858 l -3.3487126219151406 6.975601490230548" fill="#ff4706" stroke="none" /><path d="M 109.08828744355905 81.06846463323043 l 3.134783199882649 -6.529971612835885 a28.243438063151295,28.243438063151295 0 0,0 0.43646700809065875,0.21417246531468187 l -3.24672147498374 6.475043987386371" fill="#ff4006" stroke="none" /><path d="M 109.41281617654863 81.2277094730956 l 3.324791977740846 -6.63074257236344 a28.41761341377419,28.41761341377419 0 0,0 0.4353842420780451,0.2230207192080826 l -3.4384367074076465 6.572529327842856" fill="#ff4206" stroke="none" /><path d="M 109.73455568895987 81.39251694778311 l 5.618455919218948 -10.739609144674265 a33.12048891326491,33.12048891326491 0 0,0 0.502887235780889,0.2686249452662768 l -5.802488201528148 10.641305472906234" fill="#ff850c" stroke="none" /><path d="M 110.05341064243156 81.56283822128135 l 3.5489020064570345 -6.508406227206692 a28.41310036825198,28.41310036825198 0 0,0 0.4273816171956804,0.23783740725313712 l -3.66040771272475 6.446353422393375" fill="#ff4206" stroke="none" /><path d="M 110.36928655335952 81.73862282372117 l 5.149696363378851 -9.069143489385455 a31.429225103815718,31.429225103815718 0 0,0 0.46815068135982324,0.27118309167922366 l -5.305043777204003 8.979156240316183" fill="#ff6d0a" stroke="none" /><line stroke="#e1ed5e" stroke-width="0.3" x1="143.23703022742887" x2="145.7803849466894" y1="26.81831364943548" y2="22.513508569990506" /><path d="M 143.74570117128098 25.957352633546492 a86.0,86.0 0 0,1 28.547481713284135,27.462654790039103" fill="none" id="id62" stroke="none" /><text fill="#e1ed5e" style="font-size:6.75px; font-family:Arial;" text-anchor="middle"><textPath startOffset="19.985693538727396" xlink:href="#id62">February</textPath></text><path d="M 110.68208982089419 81.91981866633111 l 3.167717116204681 -5.361581940897124 a27.227438689963176,27.227438689963176 0 0,0 0.4014594218164834,0.24187480968430133 l -3.259538604238802 5.306260521754208" fill="#ff3104" stroke="none" /><path d="M 110.99172775467656 82.1063720568725 l 3.7664516306747986 -6.1314731995983545 a28.195910052495496,28.195910052495496 0 0,0 0.41136603911995206,0.25759737595812104 l -3.8714368221670137 6.065731482317289" fill="#ff3f05" stroke="none" /><path d="M 111.2981086023043 82.29822771554956 l 4.03062531466856 -6.315146543170271 a28.491796599545562,28.491796599545562 0 0,0 0.4111406602052202,0.2674173220189682 l -4.1387330006580605 6.244830296991775" fill="#ff4406" stroke="none" /><path d="M 111.90073688211348 82.69761687909136 l 4.332970636058917 -6.299670242219858 a28.645945310663635,28.645945310663635 0 0,0 0.4038653516036781,0.2829334881327143 l -4.440767127246246 6.224151911323208" fill="#ff4606" stroke="none" /><path d="M 112.48926042617603 83.11751280151076 l 4.450706569173249 -6.016288724416125 a28.48361670453655,28.48361670453655 0 0,0 0.39165494658604294,0.29498638591003934 l -4.553607669517675 5.938785749000238" fill="#ff4306" stroke="none" /><path d="M 112.77801427241765 83.33499621200491 l 4.622431395107128 -6.028545207958423 a28.596724907937006,28.596724907937006 0 0,0 0.388054077515404,0.30288236271255387 l -4.725518027781963 5.948084456022643" fill="#ff4506" stroke="none" /><path d="M 113.06298171725822 83.55741782278167 l 4.75938138912465 -5.9907088057864 a28.651163519548696,28.651163519548696 0 0,0 0.3835116520246748,0.3101064178229469 l -4.861796439713816 5.907896290699326" fill="#ff4606" stroke="none" /><path d="M 113.34407831869373 83.78471172551755 l 4.732927602636003 -5.751299087587391 a28.448358536394267,28.448358536394267 0 0,0 0.37544038829744886,0.3144205281115604 l -4.8312255278925695 5.668977402082011" fill="#ff4306" stroke="none" /><path d="M 113.6212207817346 84.01681056812373 l 4.917580722604677 -5.770306897993346 a28.581493379299538,28.581493379299538 0 0,0 0.3717039564677693,0.3223380082172363 l -5.01617847771921 5.684803896356436" fill="#ff4506" stroke="none" /><path d="M 113.89432698308785 84.25364557470405 l 5.093067646862591 -5.771941913928059 a28.697704301496515,28.697704301496515 0 0,0 0.36758891134865984,0.33002495404081295 l -5.19166754580724 5.683417951117952" fill="#ff4606" stroke="none" /><path d="M 114.42810811169701 84.74124197986012 l 5.113151880633567 -5.407524442068666 a28.44215309880122,28.44215309880122 0 0,0 0.35284083190374765,0.3394326007359805 l -5.2054759561497335 5.318708754570383" fill="#ff4306" stroke="none" /><path d="M 114.68862486808459 84.99185889309783 l 5.144019200844891 -5.25591515313588 a28.354289743790645,28.354289743790645 0 0,0 0.34587399733533447,0.3443887044723853 l -5.233728998347548 5.166590598013378" fill="#ff4206" stroke="none" /><path d="M 114.94478906791727 85.2469230424477 l 5.356377271196487 -5.287665535894949 a28.52663166967014,28.52663166967014 0 0,0 0.3419606013064105,0.35242045883173295 l -5.446602136206006 5.1946808815131" fill="#ff4406" stroke="none" /><path d="M 115.19652480421416 85.50635884689758 l 2.1132016158050044 -2.0154598698210564 a23.92022251821672,23.92022251821672 0 0,0 0.2816124129638646,0.3004044872921895 l -2.147581350739332 1.9787859656508122" fill="#ff0000" stroke="none" /><path d="M 115.4437574822437 85.77008943001954 l 5.213169198889747 -4.8034250454702425 a28.088725221342944,28.088725221342944 0 0,0 0.32456703818798177,0.3583950301052553 l -5.295079877693764 4.712977228095438" fill="#ff3e05" stroke="none" /><path d="M 115.68641384162765 86.03803664274999 l 5.39895248297809 -4.805430833071307 a28.22778343649612,28.22778343649612 0 0,0 0.31992581576421864,0.36573051218774716 l -5.480870162320155 4.711784764680612" fill="#ff4006" stroke="none" /><path d="M 115.92442197804982 86.31012108654704 l 3.2674109777596705 -2.808922088831432 a25.308830212332524,25.308830212332524 0 0,0 0.2811562606473194,0.3328003313567669 l -3.3152778518941095 2.7522628078455584" fill="#ff1502" stroke="none" /><path d="M 116.15771136456269 86.58626213691792 l 5.670327446672124 -4.707367538097986 a28.369662305100682,28.369662305100682 0 0,0 0.30869098171421755,0.378418643549097 l -5.75051692046275 4.609064724940788" fill="#ff4206" stroke="none" /><path d="M 116.38621287248628 86.86637796730983 l 5.5722404414435225 -4.46617533915179 a28.141189375538666,28.141189375538666 0 0,0 0.29969819862246266,0.38058627742194895 l -5.648292720659949 4.369596667776802" fill="#ff3e05" stroke="none" /><path d="M 116.60985879189232 87.15038557335679 l 5.704959704013269 -4.413435022812463 a28.212833973203793,28.212833973203793 0 0,0 0.29384883735248823,0.3866706253823257 l -5.780084481589868 4.314579621549104" fill="#ff3f06" stroke="none" /><path d="M 116.82858285166822 87.43820079747576 l 5.827213027604435 -4.3497590146661675 a28.271644597665126,28.271644597665126 0 0,0 0.28774797410705366,0.392487913304348 l -5.901223614225117 4.248808657690326" fill="#ff4006" stroke="none" /><path d="M 117.04232023915458 87.72973835380427 l 5.846171469957423 -4.209171788715363 a28.203807882159367,28.203807882159367 0 0,0 0.28027517992773504,0.39642936554984465 l -5.917759269689041 4.107915922833725" fill="#ff3f05" stroke="none" /><path d="M 117.2510076193507 88.02491185347247 l 6.152134002995895 -4.270611236208939 a28.489116978766745,28.489116978766745 0 0,0 0.27617558150373334,0.4052535875798966 l -6.224734050168362 4.164079625358636" fill="#ff4306" stroke="none" /><path d="M 117.45458315368197 88.32363383020206 l 6.0117412858815955 -4.021596617575942 a28.23286061270861,28.23286061270861 0 0,0 0.26673783519200506,0.4062600228284172 l -6.080075756431526 3.917518530769851" fill="#ff4006" stroke="none" /><path d="M 117.65298651832404 88.62581576622439 l 6.345045422330413 -4.088243965424635 a28.54806863590065,28.54806863590065 0 0,0 0.26260471623487475,0.41537759642455885 l -6.414477734811244 3.97841872128587" fill="#ff4406" stroke="none" /><line stroke="#e1ed5e" stroke-width="0.3" x1="172.23445277983987" x2="176.4835382374775" y1="55.19839476539836" y2="52.563006222186495" /><path d="M 173.08426987136738 54.67131705675599 a86.0,86.0 0 0,1 12.851231095245387,41.99856678651699" fill="none" id="id63" stroke="none" /><text fill="#e1ed5e" style="font-size:6.75px; font-family:Arial;" text-anchor="middle"><textPath startOffset="22.20632615414155" xlink:href="#id63">March</textPath></text><path d="M 117.84615892207809 88.93136811851018 l 6.036224899776411 -3.7438168998288788 a28.102969521272428,28.102969521272428 0 0,0 0.2514335235376595,0.41329060270228973 l -6.099774221600295 3.639358523919508" fill="#ff3e05" stroke="none" /><path d="M 118.03404312379186 89.2402003453031 l 6.578294751136131 -3.924862167951078 a28.66018961059312,28.66018961059312 0 0,0 0.2491257305361815,0.42583662877838335 l -6.644880156142639 3.8110461268187996" fill="#ff4606" stroke="none" /><path d="M 118.21658344932153 89.55222093294921 l 5.323489185572875 -3.0531871704389797 a27.136895714173782,27.136895714173782 0 0,0 0.22890922451476237,0.4072039680340941 l -5.37525605138007 2.961099692470092" fill="#ff3004" stroke="none" /><path d="M 118.3937258080291 89.86733742301442 l 6.64884362985432 -3.6626885564992926 a28.59094256836167,28.59094256836167 0 0,0 0.2337539654617963,0.433110596925968 l -6.710905694534581 3.5476969762408648" fill="#ff4506" stroke="none" /><path d="M 118.56541770881063 90.18545643968196 l 6.4592966039510005 -3.4146847047996114 a28.306338635117136,28.306338635117136 0 0,0 0.22401173633008645,0.4327193730861197 l -6.517117773441203 3.302992609453148" fill="#ff4106" stroke="none" /><path d="M 118.73160827565052 90.50648371742162 l 6.593980664989914 -3.3419481065842884 a28.392509598056883,28.392509598056883 0 0,0 0.2171891606691473,0.4378400948467741 l -6.65052983861247 3.2279484232385642" fill="#ff4206" stroke="none" /><path d="M 118.89224826269711 90.83032412892265 l 3.87280410542013 -1.8797317219782494 a25.304881297500586,25.304881297500586 0 0,0 0.1868245000468788,0.39350004328641236 l -3.904586799308765 1.8127892630512967" fill="#ff1502" stroke="none" /><path d="M 119.04729006885535 91.15688171328212 l 6.842620792446093 -3.176835383931988 a28.544119721068714,28.544119721068714 0 0,0 0.20306787384040478,0.44743314234062187 l -6.896290983249845 3.0585802327493035" fill="#ff4406" stroke="none" /><path d="M 119.196687751892 91.48605970444005 l 6.971194614844628 -3.091800809942666 a28.626059703831388,28.626059703831388 0 0,0 0.1958967009542214,0.452156594803612 l -7.0233820256415305 2.9713450705524513" fill="#ff4506" stroke="none" /><path d="M 119.34039704204932 91.81776055985345 l 6.9272656145125975 -2.930681609079834 a28.52169552613022,28.52169552613022 0 0,0 0.18739883027813992,0.4538011318603982 l -6.976686131676935 2.8110059067661326" fill="#ff4406" stroke="none" /><path d="M 119.47837535516314 92.15188598940014 l 3.3246297421215623 -1.339540530636965 a24.584345373344824,24.584345373344824 0 0,0 0.154771858585341,0.3938774983260755 l -3.347195150588604 1.2821140274151053" fill="#ff0a01" stroke="none" /><path d="M 119.7369772167798 92.82701384747503 l 7.202259169144834 -2.6175084826693014 a28.663151296717075,28.663151296717075 0 0,0 0.1645359325286455,0.46516523790544 l -7.246248182483289 2.493145618337247" fill="#ff4606" stroke="none" /><path d="M 119.85752413597 93.16781622104841 l 7.300925776616427 -2.511958002456767 a28.720974692470424,28.720974692470424 0 0,0 0.15682022303576967,0.4688725064222087 l -7.343083293423966 2.385912393112245" fill="#ff4706" stroke="none" /><path d="M 119.97218684219823 93.5106431181261 l 7.231487098265801 -2.3496525912807056 a28.603635508892893,28.603635508892893 0 0,0 0.14811850028024368,0.4695761229185806 l -7.270861082314251 2.224826301935706" fill="#ff4506" stroke="none" /><path d="M 120.08093135843002 93.85539295169968 l 7.375377856042661 -2.2568076126156806 a28.71293583013398,28.71293583013398 0 0,0 0.1405485942832325,0.4738599894741461 l -7.413132347437596 2.129518236395005" fill="#ff4706" stroke="none" /><path d="M 120.18372546131832 94.20196356495316 l 7.3960529589723265 -2.124611960950477 a28.695165713390267,28.695165713390267 0 0,0 0.13228912675460397,0.47591437449970847 l -7.431528856293293 1.9969862830318168" fill="#ff4606" stroke="none" /><path d="M 120.28053869075195 94.5502522615342 l 7.359206186669341 -1.9775518729684058 a28.62027736425605,28.62027736425605 0 0,0 0.12375362702684418,0.47687320721602466 l -7.3921561455664895 1.8505822402035306" fill="#ff4506" stroke="none" /><path d="M 120.37134235888165 94.90015583598534 l 7.530745392225116 -1.885277232232813 a28.763143461568596,28.763143461568596 0 0,0 0.11610338699683609,0.4813234950616379 l -7.562081579482769 1.7553685055117692" fill="#ff4706" stroke="none" /><path d="M 120.45610955862082 95.25157060432595 l 7.357248013581983 -1.7078209636511452 a28.552863746768,28.552863746768 0 0,0 0.10701288781127016,0.47971779293929345 l -7.385555288395291 1.5809250011618878" fill="#ff4406" stroke="none" /><path d="M 120.53481517161879 95.60439243477599 l 7.622344294448524 -1.6316111913063214 a28.795016845569226,28.795016845569226 0 0,0 0.09957687606975058,0.48557221172384313 l -7.649300466433271 1.5001633234190663" fill="#ff4806" stroke="none" /><path d="M 120.6074358757038 95.95851677861258 l 7.428281616676725 -1.4568176117890927 a28.569787667476298,28.569787667476298 0 0,0 0.09049041641672456,0.4834034228806687 l -7.452257757003308 1.3287361114458611" fill="#ff4506" stroke="none" /><path d="M 120.67395015179393 96.31383870115 l 7.125560240473356 -1.2704860076668976 a28.2379377889211,28.2379377889211 0 0,0 0.08120173798003308,0.479257254124987 l -7.146373839973612 1.1476429652260727" fill="#ff4006" stroke="none" /><path d="M 120.73433829027371 96.67025291283417 l 7.442416216072749 -1.1951846916941973 a28.537773250803102,28.537773250803102 0 0,0 0.07371457205817432,0.4856869281043107 l -7.461886681570223 1.0668986511978045" fill="#ff4406" stroke="none" /><path d="M 120.78858239683441 97.02765380044208 l 7.54719011791725 -1.0790953147314335 a28.623944213742853,28.623944213742853 0 0,0 0.06554065526390741,0.48835400902611176 l -7.564646772238993 0.9490229636406574" fill="#ff4506" stroke="none" /><path d="M 120.83666639777658 97.38593545837742 l 2.9280156325119067 -0.3673342796850995 a23.950967640836794,23.950967640836794 0 0,0 0.04779888566904452,0.4095116621248229 l -2.93390487118454 0.3168788792354239" fill="#ff0000" stroke="none" /><path d="M 120.91429891909075 98.10471618934814 l 4.66331676439305 -0.4225964638684539 a25.68242576196819,25.68242576196819 0 0,0 0.036108898923315084,0.44062002735151445 l -4.66990014713586 0.3422625193091707" fill="#ff1a02" stroke="none" /><path d="M 120.94382443527127 98.46500227214037 l 7.635478735196833 -0.5596132905845704 a28.655958630416045,28.655958630416045 0 0,0 0.031820953307772425,0.4922560633839331 l -7.64398027950902 0.42809816294760206" fill="#ff4606" stroke="none" /><path d="M 120.96714384426684 98.82574320788733 l 7.668481570264012 -0.4294703482723306 a28.680498315443078,28.680498315443078 0 0,0 0.023362849535357794,0.49315282848686953 l -7.674738028032865 0.2974064131624613" fill="#ff4606" stroke="none" /><path d="M 120.98425023603335 99.18683210126433 l 7.780292275870629 -0.3014967821273466 a28.78613178719737,28.78613178719737 0 0,0 0.014925342778051095,0.4952994645177416 l -7.784329313104324 0.16752717018460592" fill="#ff4806" stroke="none" /><line stroke="#e1ed5e" stroke-width="0.3" x1="184.98032266829074" x2="189.97916517819016" y1="98.17113171792111" y2="98.06355123074" /><path d="M 185.9800911702706 98.14961562048488 a86.0,86.0 0 0,1 -9.607161424134198,41.387399972396054" fill="none" id="id64" stroke="none" /><text fill="#e1ed5e" style="font-size:6.75px; font-family:Arial;" text-anchor="middle"><textPath startOffset="21.466115282336823" xlink:href="#id64">April</textPath></text><path d="M 120.99980553446 99.90962569577887 l 7.714697814078846 -0.03320080493505281 a28.71476925487738,28.71476925487738 0 0,0 -0.002127221160052775,0.4942912819622102 l -7.71412629562929 -0.09959995523084214" fill="#ff4706" stroke="none" /><path d="M 120.99824983174949 100.27111621757518 l 7.645872170970511 0.09871870082822931 a28.646509441353913,28.646509441353913 0 0,0 -0.010610035939437754,0.49300667876999676 l -7.643040072346066 -0.23031519538834094" fill="#ff4606" stroke="none" /><path d="M 120.9904718944345 100.63252640178507 l 10.402643017055324 0.31347300764482694 a31.407365039567498,31.407365039567498 0 0,0 -0.020935053491315768,0.5402407077918394 l -10.395705830712805 -0.4924909624506726" fill="#ff6d0a" stroke="none" /><path d="M 120.9764740272857 100.99374915477107 l 4.634917710603599 0.21957672921361598 a25.640115960197445,25.640115960197445 0 0,0 -0.024680014629642425,0.44067824030832303 l -4.630451345086427 -0.29932668585736233" fill="#ff1a02" stroke="none" /><path d="M 120.89721153311464 102.0752229133903 l 7.376254178724029 0.732507859358284 a28.4125362375617,28.4125362375617 0 0,0 -0.05251948882190989,0.4862652394457774 l -7.362552388401067 -0.8593694206888527" fill="#ff4206" stroke="none" /><path d="M 120.76222939487914 103.15116336523771 l 12.377301463126035 1.8785506213858503 a33.519047245945316,33.519047245945316 0 0,0 -0.09148823731517487,0.5696973410939362 l -12.34313147144957 -2.0913271921729915" fill="#ff8a0c" stroke="none" /><path d="M 120.70491114924044 103.5080841355445 l 7.516535591162006 1.273545154168815 a28.623662148397713,28.623662148397713 0 0,0 -0.08648919983794932,0.4850773639981938 l -7.4934999489848675 -1.402741268900227" fill="#ff4506" stroke="none" /><path d="M 120.5718875245553 104.21870165774334 l 7.413118963779653 1.5202172004983212 a28.567390112042624,28.567390112042624 0 0,0 -0.10293233495054975,0.4808656009502022 l -7.38585259010466 -1.6475966208646926" fill="#ff4506" stroke="none" /><path d="M 120.13307415673323 105.97154293290107 l 7.376275579273282 2.187830132826934 a28.693896419337143,28.693896419337143 0 0,0 -0.1445260016022863,0.4723193354547599 l -7.3375228051648635 -2.314476440833751" fill="#ff4606" stroke="none" /><path d="M 119.9155931802556 106.66101706037122 l 7.259547023503656 2.4280455086853894 a28.654830369035494,28.654830369035494 0 0,0 -0.16047956138880667,0.4664287242134299 l -7.216676631171619 -2.5526469359881196" fill="#ff4606" stroke="none" /><path d="M 119.54520255179757 107.68017299344265 l 11.836069392315768 4.650914220738857 a33.71705711823239,33.71705711823239 0 0,0 -0.21690887007654155,0.5383500269630135 l -11.754257907981835 -4.853963615544684" fill="#ff8d0d" stroke="none" /><line stroke="#e1ed5e" stroke-width="0.3" x1="174.80103733775053" x2="179.2010983576182" y1="140.37084112569926" y2="142.7455964860345" /><path d="M 175.68104954172406 140.8457921977663 a86.0,86.0 0 0,1 -30.038265399797805,32.042727171017184" fill="none" id="id65" stroke="none" /><text fill="#e1ed5e" style="font-size:6.75px; font-family:Arial;" text-anchor="middle"><textPath startOffset="22.206326154141568" xlink:href="#id65">May</textPath></text><path d="M 118.48025628344425 109.97397251340804 l 6.723684875850454 3.6288375611234334 a28.64044503643344,28.64044503643344 0 0,0 -0.23788425038864183,0.4318290126067656 l -6.660224216010305 -3.744037092128004" fill="#ff4606" stroke="none" /><path d="M 118.30583269289576 110.29060199501025 l 6.497944641203962 3.6528118228781845 a28.45428190864217,28.45428190864217 0 0,0 -0.2436878953422232,0.42489038604299845 l -6.434104749709357 -3.7641220547794982" fill="#ff4306" stroke="none" /><path d="M 117.94076556474637 110.91462005526583 l 6.442096545485011 3.9191770217138684 a28.540593904254486,28.540593904254486 0 0,0 -0.25895201636368903,0.4175131024952836 l -6.37367988945336 -4.029486455574423" fill="#ff4406" stroke="none" /><path d="M 117.14729908036423 112.12312394758627 l 16.799213189092047 11.87702755744801 a41.57370524171433,41.57370524171433 0 0,0 -0.4181526977557329,0.5807775245142448 l -16.59228069896071 -12.164438687413385" fill="#fff517" stroke="none" /><path d="M 116.93607887273984 112.41649034213515 l 6.130359716700722 4.4944023222959215 a28.601378986131788,28.601378986131788 0 0,0 -0.2945107601302262,0.39454529145501455 l -6.052087689875404 -4.599260493260251" fill="#ff4506" stroke="none" /><path d="M 116.27256486870786 113.27417163493432 l 5.88516020624118 4.800756814124421 a28.594891483193607,28.594891483193607 0 0,0 -0.3144130869561644,0.378730817623982 l -5.8016511193914715 -4.901348888862174" fill="#ff4506" stroke="none" /><path d="M 116.0416608686014 113.55231037782055 l 48.12498260580419 40.656931133461654 a84.0,84.0 0 0,0 -0.942629961716885,1.096491603353888 l -47.41801013451653 -41.47929983597707" fill="#4dd2ff" stroke="none" /><line stroke="#e1ed5e" stroke-width="0.3" x1="143.8653032363475" x2="146.44561519142675" y1="172.8068346515853" y2="177.08958963109032" /><path d="M 144.38136562736335 173.6633856474863 a86.0,86.0 0 0,1 -40.68145358897372,12.25698825130547" fill="none" id="id66" stroke="none" /><text fill="#e1ed5e" style="font-size:6.75px; font-family:Arial;" text-anchor="middle"><textPath startOffset="21.466115282336833" xlink:href="#id66">June</textPath></text><line stroke="#e1ed5e" stroke-width="0.3" x1="102.19456741930631" x2="102.32365962044197" y1="184.97166512339345" y2="189.96999836594603" /><path d="M 102.22038585953345 185.97133177190398 a86.0,86.0 0 0,1 -42.740103519485714,-10.115201625700543" fill="none" id="id67" stroke="none" /><text fill="#e1ed5e" style="font-size:6.75px; font-family:Arial;" text-anchor="middle"><textPath startOffset="22.20632615414155" xlink:href="#id67">July</textPath></text><line stroke="#e1ed5e" stroke-width="0.3" x1="58.666819895761336" x2="56.23545636021788" y1="174.27360380694188" y2="178.64263932499728" /><path d="M 58.180547188652646 175.14741091055294 a86.0,86.0 0 0,1 -31.652253787137756,-30.449443065178592" fill="none" id="id68" stroke="none" /><text fill="#e1ed5e" style="font-size:6.75px; font-family:Arial;" text-anchor="middle"><textPath startOffset="22.20632615414155" xlink:href="#id68">August</textPath></text><line stroke="#e1ed5e" stroke-width="0.3" x1="26.63291911575756" x2="22.317208475507996" y1="142.92168965132927" y2="145.44649492493687" /><path d="M 25.769776987707644 143.4266507060508 a86.0,86.0 0 0,1 -11.730757126820373,-40.83630448921669" fill="none" id="id69" stroke="none" /><text fill="#e1ed5e" style="font-size:6.75px; font-family:Arial;" text-anchor="middle"><textPath startOffset="21.46611528233685" xlink:href="#id69">September</textPath></text><line stroke="#e1ed5e" stroke-width="0.3" x1="15.007084014347285" x2="10.007500721073583" y1="101.09737516637583" y2="101.16192664675087" /><path d="M 14.007167355692545 101.11028546245083 a86.0,86.0 0 0,1 10.666146001902534,-42.60595125391555" fill="none" id="id70" stroke="none" /><text fill="#e1ed5e" style="font-size:6.75px; font-family:Arial;" text-anchor="middle"><textPath startOffset="22.20632615414155" xlink:href="#id70">October</textPath></text><line stroke="#e1ed5e" stroke-width="0.3" x1="26.266209847984257" x2="21.92892807433627" y1="57.711370442889674" y2="55.22380399835377" /><path d="M 25.39875349325466 57.213857153982495 a86.0,86.0 0 0,1 29.58750427330802,-30.492523968695096" fill="none" id="id71" stroke="none" /><text fill="#e1ed5e" style="font-size:6.75px; font-family:Arial;" text-anchor="middle"><textPath startOffset="21.46611528233685" xlink:href="#id71">November</textPath></text><line stroke="#e1ed5e" stroke-width="0.3" x1="56.762969772571076" x2="54.21961505331055" y1="26.818313649435495" y2="22.513508569990535" /><path d="M 56.25429882871897 25.957352633546506 a86.0,86.0 0 0,1 42.265352541879196,-11.944610805530505" fill="none" id="id72" stroke="none" /><text fill="#e1ed5e" style="font-size:6.75px; font-family:Arial;" text-anchor="middle"><textPath startOffset="22.20632615414155" xlink:href="#id72">December</textPath></text></svg>