<?xml version="1.0" encoding="utf-8" ?>
<svg baseProfile="full" height="200mm" version="1.1" viewBox="0,0,200,200" width="200mm" xmlns="http://www.w3.org/2000/svg" xmlns:ev="http://www.w3.org/2001/xml-events" xmlns:xlink="http://www.w3.org/1999/xlink"><defs /><rect fill="#1a1a1a" height="200" width="200" x="0" y="0" /><text alignment-baseline="middle" fill="#e1ed5e" style="dominant-baseline: central; font-size:9.0px; font-family:Arial;" text-anchor="middle" x="100.0" y="100.0">2025</text><line stroke="#e1ed5e" stroke-width="0.3" x1="100.0" x2="100.0" y1="15.0" y2="10.0" /><path d="M 100.0 14.0 a86.0,86.0 0 0,1 42.46469731375804,11.215312516191453" fill="none" id="id61" stroke="none" /><text fill="#e1ed5e" style="font-size:6.75px; font-family:Arial;" text-anchor="middle"><textPath startOffset="22.20632615414155" xlink:href="#id61">January</textPath></text><path d="M 100.0 79.0 l 0.0 -18.82378351943924 a39.82378351943924,39.82378351943924 0 0,0 0.6855009691929673,0.0059003232622235925 l -0.3240204899204389 18.820994572785573" fill="#ffa50f" stroke="none" /><path d="M 100.36148047927253 79.00311137660856 l 0.3220191163320211 -18.7047431546886 a39.707514874887934,39.707514874887934 0 0,0 0.6832970599232424,0.017647547135127402 l -0.6439428114501313 18.696428815411114" fill="#ffa30f" stroke="none" /><path d="M 100.72285384407766 79.0124445844662 l 0.6376302655090459 -18.513148462353463 a39.524125845627196,39.524125845627196 0 0,0 0.6797381138545727,0.029270953049682663 l -0.9562092117529502 18.499429782779586" fill="#ffa00e" stroke="none" /><path d="M 101.08401301168833 79.027996857942 l 0.9759562904156233 -18.88146928903518 a39.90667536066509,39.90667536066509 0 0,0 0.6857068083221491,0.041363707262059686 l -1.3008251475773844 18.861872312392816" fill="#ffa60f" stroke="none" /><path d="M 101.44485096284872 79.0497635885617 l 1.350059062819944 -19.57576058897926 a40.62225935284049,40.62225935284049 0 0,0 0.6971743238586241,0.054114145462281306 l -1.6868235760409092 19.549621181328515" fill="#ffb110" stroke="none" /><path d="M 101.80526077348638 79.07773832637324 l 1.6219663619637095 -18.797951603018785 a39.86779688646182,39.86779688646182 0 0,0 0.6832103970336859,0.064879059522586 l -1.9453018860876394 18.767246998981022" fill="#ffa50f" stroke="none" /><path d="M 102.16513564639614 79.11191278185805 l 1.9456800404918395 -18.77089523330297 a39.87146466704703,39.87146466704703 0 0,0 0.6820551280113722,0.07663684071504674 l -2.268501872012937 18.73462243911732" fill="#ffa60f" stroke="none" /><path d="M 102.52436894288641 79.15227682838746 l 2.281023339237762 -18.83803207863978 a39.97562963566713,39.97562963566713 0 0,0 0.6824130687148536,0.08859680170539902 l -2.604951136460462 18.795976953770243" fill="#ffa70f" stroke="none" /><path d="M 102.88285421437855 79.19881850522331 l 4.110038490934641 -29.655907043110354 a50.93935936099112,50.93935936099112 0 0,0 0.86749976307535,0.12784691483956248 l -4.619907234438647 29.58076564410982" fill="#bfff1e" stroke="none" /><path d="M 103.2404852339499 79.25152402106235 l 2.9081282577934155 -18.62043025789306 a39.846156981009045,39.846156981009045 0 0,0 0.6767600210824523,0.11167120218222597 l -3.228217485014743 18.567612792771207" fill="#ffa50f" stroke="none" /><path d="M 103.59715602781102 79.31037775812273 l 3.303483712114128 -19.000518620102042 a40.28555709511778,40.28555709511778 0 0,0 0.6821781262910253,0.12466369220683662 l -3.6300569595080545 18.94083944654447" fill="#ffac0f" stroke="none" /><path d="M 103.95276090670814 79.375362276772 l 3.6087243945038123 -18.829530810554616 a40.17222267503464,40.17222267503464 0 0,0 0.6780183391618424,0.13600410037049668 l -3.9323091431327803 18.76462275410691" fill="#ffaa0f" stroke="none" /><path d="M 104.307194497241 79.44645832069477 l 4.029127360672034 -19.226630511310297 a40.64426603635178,40.64426603635178 0 0,0 0.6835151558179668,0.14938993894318148 l -4.3594852406435285 19.154427074271247" fill="#ffb110" stroke="none" /><path d="M 104.66035177308747 79.52364482259891 l 4.171053635645492 -18.3265083551589 a39.79517483087456,39.79517483087456 0 0,0 0.6666190418422291,0.15776718960662492 l -4.485896364450245 18.25199525341141" fill="#ffa40f" stroke="none" /><path d="M 105.01212808612495 79.60689891045804 l 4.809443959544465 -19.56842984978579 a41.15078653516994,41.15078653516994 0 0,0 0.6864168927090469,0.17498294966119865 l -5.145569740938537 19.482743903955726" fill="#ffb811" stroke="none" /><path d="M 105.36241919743992 79.69619591428918 l 5.057531234267946 -19.149402453833435 a40.80601516015975,40.80601516015975 0 0,0 0.6775782675579505,0.18520773619093 l -5.386407391049608 19.059508176816212" fill="#ffb310" stroke="none" /><path d="M 105.71112130821622 79.79150937346287 l 4.996291848338589 -17.67910564941754 a39.371546173282255,39.371546173282255 0 0,0 0.650586269784891,0.189923972400377 l -5.299868335846907 17.59048334809846" fill="#ff9e0e" stroke="none" /><path d="M 106.0581310904928 79.89281104454417 l 5.719824362618781 -18.984334860578304 a40.827288287554,40.827288287554 0 0,0 0.6711512909247624,0.20852997308740426 l -6.045761026254262 18.88306475260838" fill="#ffb410" stroke="none" /><path d="M 106.40334571778207 80.00007090966166 l 5.7251202910759185 -17.881589547352394 a39.77573559377293,39.77573559377293 0 0,0 0.6502711089183782,0.21438416079564265 l -6.032074222236714 17.780391662297518" fill="#ffa40f" stroke="none" /><path d="M 106.74666289553966 80.11325718540242 l 6.034666584817815 -17.788033017546883 a39.7838047110604,39.7838047110604 0 0,0 0.6466156426055822,0.2255915010741231 l -6.339964231486671 17.681520663300553" fill="#ffa40f" stroke="none" /><path d="M 107.08798089147638 80.2323363322302 l 2.809302487749732 -7.834861234691962 a29.323294482027876,29.323294482027876 0 0,0 0.4736657026133018,0.17445507570178062 l -2.9437505161356103 7.785342891183857" fill="#ff0000" stroke="none" /><path d="M 107.4271985657038 80.35727306442388 l 7.0628997643341815 -18.679265165305928 a40.969964952318854,40.969964952318854 0 0,0 0.6575032342050032,0.2551010399459179 l -7.383386163538852 18.554921421469466" fill="#ffb610" stroke="none" /><path d="M 107.76421540070413 80.48803036053334 l 6.9347987036423175 -17.42759245821674 a39.756663134729806,39.756663134729806 0 0,0 0.6336760210730843,0.2584923596530462 l -7.233758594303789 17.305639212380115" fill="#ffa40f" stroke="none" /><path d="M 108.09893153111575 80.62456947434976 l 7.702533423329051 -18.42710987762245 a40.97216562066998,40.97216562066998 0 0,0 0.6483674340120897,0.2775970983283637 l -8.018584615131456 18.291793251331296" fill="#ffb610" stroke="none" /><path d="M 108.43124777332544 80.76684994638697 l 7.472850227977815 -17.046877713354807 a39.61288613578939,39.61288613578939 0 0,0 0.6221446755582243,0.2791381808409712 l -7.765177022002819 16.9157192019973" fill="#ffa20e" stroke="none" /><path d="M 108.76106565485865 80.91482961587045 l 8.395302920609783 -18.288390131782805 a41.12327818078083,41.12327818078083 0 0,0 0.6407825068352057,0.3008559789144882 l -8.708863638744587 18.141169170228313" fill="#ffb811" stroke="none" /><path d="M 109.08828744355905 81.06846463323043 l 8.152505905147581 -16.982237283931948 a39.837721085663055,39.837721085663055 0 0,0 0.6156421499581922,0.3020929292799829 l -8.443619322116204 16.839389194517132" fill="#ffa50f" stroke="none" /><path d="M 109.41281617654863 81.2277094730956 l 8.64665417147005 -17.244308307741992 a40.29069198793708,40.29069198793708 0 0,0 0.6172908378528814,0.3162003428544656 l -8.942205496911688 17.092915439575023" fill="#ffac0f" stroke="none" /><path d="M 109.73455568895987 81.39251694778311 l 29.203667066879603 -55.82244915665069 a84.0,84.0 0 0,0 1.2754198138867554,0.6812850939929835 l -30.16023192729467 55.311485336155954" fill="#4dd2ff" stroke="none" /><line stroke="#e1ed5e" stroke-width="0.3" x1="143.23703022742887" x2="145.7803849466894" y1="26.81831364943548" y2="22.513508569990506" /><path d="M 143.74570117128098 25.957352633546492 a86.0,86.0 0 0,1 28.547481713284135,27.462654790039103" fill="none" id="id62" stroke="none" /><text fill="#e1ed5e" style="font-size:6.75px; font-family:Arial;" text-anchor="middle"><textPath startOffset="19.985693538727396" xlink:href="#id62">February</textPath></text><line stroke="#e1ed5e" stroke-width="0.3" x1="172.23445277983987" x2="176.4835382374775" y1="55.19839476539836" y2="52.563006222186495" /><path d="M 173.08426987136738 54.67131705675599 a86.0,86.0 0 0,1 12.851231095245387,41.99856678651699" fill="none" id="id63" stroke="none" /><text fill="#e1ed5e" style="font-size:6.75px; font-family:Arial;" text-anchor="middle"><textPath startOffset="22.20632615414155" xlink:href="#id63">March</textPath></text><line stroke="#e1ed5e" stroke-width="0.3" x1="184.98032266829074" x2="189.97916517819016" y1="98.17113171792111" y2="98.06355123074" /><path d="M 185.9800911702706 98.14961562048488 a86.0,86.0 0 0,1 -9.607161424134198,41.387399972396054" fill="none" id="id64" stroke="none" /><text fill="#e1ed5e" style="font-size:6.75px; font-family:Arial;" text-anchor="middle"><textPath startOffset="21.466115282336823" xlink:href="#id64">April</textPath></text><line stroke="#e1ed5e" stroke-width="0.3" x1="174.80103733775053" x2="179.2010983576182" y1="140.37084112569926" y2="142.7455964860345" /><path d="M 175.68104954172406 140.8457921977663 a86.0,86.0 0 0,1 -30.038265399797805,32.042727171017184" fill="none" id="id65" stroke="none" /><text fill="#e1ed5e" style="font-size:6.75px; font-family:Arial;" text-anchor="middle"><textPath startOffset="22.206326154141568" xlink:href="#id65">May</textPath></text><line stroke="#e1ed5e" stroke-width="0.3" x1="143.8653032363475" x2="146.44561519142675" y1="172.8068346515853" y2="177.08958963109032" /><path d="M 144.38136562736335 173.6633856474863 a86.0,86.0 0 0,1 -40.68145358897372,12.25698825130547" fill="none" id="id66" stroke="none" /><text fill="#e1ed5e" style="font-size:6.75px; font-family:Arial;" text-anchor="middle"><textPath startOffset="21.466115282336833" xlink:href="#id66">June</textPath></text><line stroke="#e1ed5e" stroke-width="0.3" x1="102.19456741930631" x2="102.32365962044197" y1="184.97166512339345" y2="189.96999836594603" /><path d="M 102.22038585953345 185.97133177190398 a86.0,86.0 0 0,1 -42.740103519485714,-10.115201625700543" fill="none" id="id67" stroke="none" /><text fill="#e1ed5e" style="font-size:6.75px; font-family:Arial;" text-anchor="middle"><textPath startOffset="22.20632615414155" xlink:href="#id67">July</textPath></text><line stroke="#e1ed5e" stroke-width="0.3" x1="58.666819895761336" x2="56.23545636021788" y1="174.27360380694188" y2="178.64263932499728" /><path d="M 58.180547188652646 175.14741091055294 a86.0,86.0 0 0,1 -31.652253787137756,-30.449443065178592" fill="none" id="id68" stroke="none" /><text fill="#e1ed5e" style="font-size:6.75px; font-family:Arial;" text-anchor="middle"><textPath startOffset="22.20632615414155" xlink:href="#id68">August</textPath></text><line stroke="#e1ed5e" stroke-width="0.3" x1="26.63291911575756" x2="22.317208475507996" y1="142.92168965132927" y2="145.44649492493687" /><path d="M 25.769776987707644 143.4266507060508 a86.0,86.0 0 0,1 -11.730757126820373,-40.83630448921669" fill="none" id="id69" stroke="none" /><text fill="#e1ed5e" style="font-size:6.75px; font-family:Arial;" text-anchor="middle"><textPath startOffset="21.46611528233685" xlink:href="#id69">September</textPath></text><line stroke="#e1ed5e" stroke-width="0.3" x1="15.007084014347285" x2="10.007500721073583" y1="101.09737516637583" y2="101.16192664675087" /><path d="M 14.007167355692545 101.11028546245083 a86.0,86.0 0 0,1 10.666146001902534,-42.60595125391555" fill="none" id="id70" stroke="none" /><text fill="#e1ed5e" style="font-size:6.75px; font-family:Arial;" text-anchor="middle"><textPath startOffset="22.20632615414155" xlink:href="#id70">October</textPath></text><line stroke="#e1ed5e" stroke-width="0.3" x1="26.266209847984257" x2="21.92892807433627" y1="57.711370442889674" y2="55.22380399835377" /><path d="M 25.39875349325466 57.213857153982495 a86.0,86.0 0 0,1 29.58750427330802,-30.492523968695096" fill="none" id="id71" stroke="none" /><text fill="#e1ed5e" style="font-size:6.75px; font-family:Arial;" text-anchor="middle"><textPath startOffset="21.46611528233685" xlink:href="#id71">November</textPath></text><line stroke="#e1ed5e" stroke-width="0.3" x1="56.762969772571076" x2="54.21961505331055" y1="26.818313649435495" y2="22.513508569990535" /><path d="M 56.25429882871897 25.957352633546506 a86.0,86.0 0 0,1 42.265352541879196,-11.944610805530505" fill="none" id="id72" stroke="none" /><text fill="#e1ed5e" style="font-size:6.75px; font-family:Arial;" text-anchor="middle"><textPath startOffset="22.20632615414155" xlink:href="#id72">December</textPath></text></svg>