<?xml version="1.0" encoding="utf-8" ?>
<svg baseProfile="full" height="200mm" version="1.1" viewBox="0,0,200,200" width="200mm" xmlns="http://www.w3.org/2000/svg" xmlns:ev="http://www.w3.org/2001/xml-events" xmlns:xlink="http://www.w3.org/1999/xlink"><defs /><rect fill="#1a1a1a" height="200" width="200" x="0" y="0" /><text alignment-baseline="middle" fill="#e1ed5e" style="dominant-baseline: central; font-size:9.0px; font-family:Arial;" text-anchor="middle" x="100.0" y="100.0">2020</text><line stroke="#e1ed5e" stroke-width="0.3" x1="100.0" x2="100.0" y1="15.0" y2="10.0" /><path d="M 100.0 14.0 a86.0,86.0 0 0,1 42.35913384403234,11.155469271406648" fill="none" id="id1" stroke="none" /><text fill="#e1ed5e" style="font-size:6.75px; font-family:Arial;" text-anchor="middle"><textPath startOffset="22.145653131862478" xlink:href="#id1">January</textPath></text><line stroke="#e1ed5e" stroke-width="0.3" x1="143.13028292997686" x2="145.6673583964461" y1="26.7553504044142" y2="22.446841604673864" /><path d="M 143.63769802327073 25.89364864446614 a86.0,86.0 0 0,1 29.32050498858742,28.57503671076993" fill="none" id="id2" stroke="none" /><text fill="#e1ed5e" style="font-size:6.75px; font-family:Arial;" text-anchor="middle"><textPath startOffset="20.669276256404974" xlink:href="#id2">February</textPath></text><line stroke="#e1ed5e" stroke-width="0.3" x1="172.87174338648825" x2="177.1583165268699" y1="56.24261187166439" y2="53.66864786411523" /><path d="M 173.72905801456457 55.72781907015455 a86.0,86.0 0 0,1 12.242430191666344,42.057860355516425" fill="none" id="id3" stroke="none" /><text fill="#e1ed5e" style="font-size:6.75px; font-family:Arial;" text-anchor="middle"><textPath startOffset="22.145653131862474" xlink:href="#id3">March</textPath></text><line stroke="#e1ed5e" stroke-width="0.3" x1="184.99686870605535" x2="189.99668451229388" y1="99.2704041080226" y2="99.22748670261217" /><path d="M 185.99683186730306 99.26182062694052 a86.0,86.0 0 0,1 -10.086455211305974,41.156179273409016" fill="none" id="id4" stroke="none" /><text fill="#e1ed5e" style="font-size:6.75px; font-family:Arial;" text-anchor="middle"><textPath startOffset="21.40746469413373" xlink:href="#id4">April</textPath></text><line stroke="#e1ed5e" stroke-width="0.3" x1="174.33088141563837" x2="178.70328620479359" y1="141.23008692659167" y2="143.65538615756765" /><path d="M 175.20536237346943 141.71514677278685 a86.0,86.0 0 0,1 -30.301960400862466,31.631185727798858" fill="none" id="id5" stroke="none" /><text fill="#e1ed5e" style="font-size:6.75px; font-family:Arial;" text-anchor="middle"><textPath startOffset="22.145653131862474" xlink:href="#id5">May</textPath></text><path d="M 112.45986205192187 116.90419585922612 l 8.244429877550301 11.18515251750074 a34.89526037343659,34.89526037343659 0 0,0 -0.4852418417613462,0.3512776726514346 l -8.051207025414987 -11.325030961525252" fill="#ff6609" stroke="none" /><path d="M 112.16784306229584 117.11559508785304 l 18.650575390819867 26.234369962733506 a53.18829181162352,53.18829181162352 0 0,0 -0.7487009595999287,0.5226514168475472 l -18.197479340046183 -26.550666195386178" fill="#9cff22" stroke="none" /><path d="M 110.96478420261333 117.91015095944535 l 16.448803048542594 26.867883604254445 a52.50311557769341,52.50311557769341 0 0,0 -0.7727139620830482,0.46399253235543625 l -15.985156329902107 -27.146290137145805" fill="#a5ff21" stroke="none" /><line stroke="#e1ed5e" stroke-width="0.3" x1="143.1302829299769" x2="145.66735839644613" y1="173.24464959558577" y2="177.55315839532614" /><path d="M 143.63769802327073 174.10635135553383 a86.0,86.0 0 0,1 -40.68552437913181,11.842963189579606" fill="none" id="id6" stroke="none" /><text fill="#e1ed5e" style="font-size:6.75px; font-family:Arial;" text-anchor="middle"><textPath startOffset="21.407464694133747" xlink:href="#id6">June</textPath></text><path d="M 110.34350942703117 118.27599006163325 l 15.429737590732236 27.262867873923373 a52.326358978180956,52.326358978180956 0 0,0 -0.7855327990715273,0.43572180192920235 l -14.959460603504615 -27.523722591285722" fill="#a7ff21" stroke="none" /><path d="M 109.3889696526874 118.78422872680471 l 13.179621329695847 26.3680713377127 a50.478426085272595,50.478426085272595 0 0,0 -0.7784248057665586,0.3807665798648821 l -12.725036274667218 -26.590431667674807" fill="#beff1f" stroke="none" /><path d="M 108.73861861582097 119.09545874513695 l 13.056216910636145 28.530190221740163 a52.375731929410975,52.375731929410975 0 0,0 -0.8207691139807498,0.3671195849219279 l -12.564534393799768 -28.750113557571943" fill="#a6ff21" stroke="none" /><path d="M 108.4095320186766 119.2426549942271 l 12.610880425876932 28.856162348828292 a52.49146567909632,52.49146567909632 0 0,0 -0.8287775653373078,0.35375586048217167 l -12.113667785369193 -29.068392858969865" fill="#a5ff21" stroke="none" /><path d="M 107.06938296918513 119.77432235084164 l 10.528985222039012 29.45144558094958 a52.27694321083105,52.27694321083105 0 0,0 -0.8476189246865788,0.2948458616387435 l -10.021860525307412 -29.627849875156915" fill="#a7ff21" stroke="none" /><path d="M 106.72888874123015 119.89276391827305 l 10.163531712175116 30.046675565811082 a52.71908084137209,52.71908084137209 0 0,0 -0.859766022870519,0.2826221688406729 l -9.646242951656863 -30.216718656053775" fill="#a2ff22" stroke="none" /><path d="M 106.38641147887787 120.00534299687104 l 9.4193009313098 29.50582600961823 a51.97284291995872,51.97284291995872 0 0,0 -0.852254061703784,0.26403048686145153 l -8.911406236734392 -29.663173084286324" fill="#abff21" stroke="none" /><path d="M 105.69591212413111 120.21278271476187 l 8.44102426013353 29.95421726000373 a52.12082939479069,52.12082939479069 0 0,0 -0.8632663743913267,0.2352870891154111 l -7.925576484807507 -30.094704843263283" fill="#a9ff21" stroke="none" /><path d="M 103.94208987418118 120.62667999033965 l 5.87484157912701 30.739653613748445 a52.29600721934153,52.29600721934153 0 0,0 -0.8832179683173145,0.16095173536593496 l -5.346288877258639 -30.83597352304574" fill="#a7ff21" stroke="none" /><path d="M 103.58742460773223 120.69131181640829 l 5.348629835116714 30.849475545885777 a52.30971067527302,52.30971067527302 0 0,0 -0.8860828998085466,0.14580460396940292 l -4.818269432255096 -30.93674614835085" fill="#a7ff21" stroke="none" /><path d="M 103.2317021107853 120.74984581791261 l 4.7510689332710285 30.50527073848786 a51.873033521783,51.873033521783 0 0,0 -0.8810385120567115,0.1294823210449028 l -4.226705315606631 -30.582334132831644" fill="#acff20" stroke="none" /><path d="M 102.15924093988457 120.88869738790638 l 3.191821071065926 30.87797347590293 a52.04250260092226,52.04250260092226 0 0,0 -0.8894322336194037,0.08423015726296472 l -2.661289274061507 -30.92821538867108" fill="#aaff21" stroke="none" /><path d="M 101.80034050326958 120.92268563240118 l 2.678171622411893 31.12441386703133 a52.23942607996095,52.23942607996095 0 0,0 -0.8941175918231012,0.06921035640196879 l -2.1434850358135558 -31.16580199042835" fill="#a8ff21" stroke="none" /><line stroke="#e1ed5e" stroke-width="0.3" x1="101.45913802915013" x2="101.54496967792366" y1="184.9874750549273" y2="189.98673829345242" /><path d="M 101.47630435890484 185.9873277026323 a86.0,86.0 0 0,1 -42.54439059252881,-10.42667462771756" fill="none" id="id7" stroke="none" /><text fill="#e1ed5e" style="font-size:6.75px; font-family:Arial;" text-anchor="middle"><textPath startOffset="22.145653131862474" xlink:href="#id7">July</textPath></text><path d="M 100.36049292484886 120.99690560180557 l 0.5448355958304198 31.73394201550904 a52.73861877382464,52.73861877382464 0 0,0 -0.9053285206792683,0.007771156510034002 l -3.886859789072244e-15 -31.73861877382464" fill="#a2ff22" stroke="none" /><path d="M 100.0 121.0 l 3.919923244814939e-15 32.00860237861351 a53.00860237861351,53.00860237861351 0 0,0 -0.9099631482674384,-0.007810939213804751 l 0.5494702234185823 -32.00388583759414" fill="#9eff22" stroke="none" /><path d="M 99.27912038922189 120.98762331915562 l -2.1626388323343173 62.962869957466836 a84.0,84.0 0 0,0 -1.440696957596645,-0.061869726296685634 l 3.2431615505318008 -62.916467662744324" fill="#4dd2ff" stroke="none" /><path d="M 98.55909050195518 120.95050786540614 l -2.055815931115178 29.89111244883752 a50.96172529364216,50.96172529364216 0 0,0 -0.8722487690610513,-0.06751757121208476 l 2.568633694951465 -29.851417110630383" fill="#b8ff1f" stroke="none" /><path d="M 98.19965949673042 120.92268563240118 l -2.625316376152529 30.51015578668509 a51.62289816791821,51.62289816791821 0 0,0 -0.8822609853236543,-0.0835510325934385 l 3.1486769248611983 -30.46059299858647" fill="#b0ff20" stroke="none" /><path d="M 97.48249496171623 120.84855314841334 l -2.3047235330485574 19.086417044042346 a40.22506348865714,40.22506348865714 0 0,0 -0.6848263006212284,-0.08866447531560134 l 2.63202765556058 -19.044040972526346" fill="#ffb510" stroke="none" /><path d="M 95.00130118170881 120.39639698878247 l -7.11766434439288 29.0424994340362 a50.90197182620963,50.90197182620963 0 0,0 -0.8468990247842166,-0.21527842032727534 l 7.615168662402476 -28.91603578187366" fill="#b9ff1f" stroke="none" /><path d="M 93.61358852112213 120.00534299687104 l -9.574967204887797 29.99344839446962 a52.484709678928105,52.484709678928105 0 0,0 -0.8559437945805844,-0.2813657264826727 l 10.088433737116125 -29.824661746584926" fill="#a5ff21" stroke="none" /><path d="M 93.27111125876986 119.89276391827306 l -9.581247981857588 28.325257182165775 a50.901847891487975,50.901847891487975 0 0,0 -0.825323114252092,-0.2870902214010964 l 10.0660768681547 -28.156608528196088" fill="#b9ff1f" stroke="none" /><path d="M 92.59220618246901 119.65005319985036 l -10.941843669174158 29.02454030171429 a52.01850871022789,52.01850871022789 0 0,0 -0.8328602615286009,-0.32216824103545477 l 11.438476193196287 -28.83243217254079" fill="#abff21" stroke="none" /><path d="M 90.6110303473126 118.78422872680471 l -4.895288606107439 9.793856436049206 a31.94913121791075,31.94913121791075 0 0,0 -0.48847601542723446,-0.2494193340065569 l 5.062691843248255 -9.708379150369815" fill="#ff3805" stroke="none" /><path d="M 89.97174638481275 118.45085714620012 l -3.956783949591052 7.280036805383366 a29.285835812486138,29.285835812486138 0 0,0 -0.43964428307583026,-0.24386327274442596 l 4.081172420822984 -7.211040617205791" fill="#ff0d01" stroke="none" /><line stroke="#e1ed5e" stroke-width="0.3" x1="58.13341422392154" x2="55.670673884152215" y1="173.97424548756322" y2="178.32567169271397" /><path d="M 57.64086615596767 174.84453072859336 a86.0,86.0 0 0,1 -31.369924170532244,-30.572349798747897" fill="none" id="id8" stroke="none" /><text fill="#e1ed5e" style="font-size:6.75px; font-family:Arial;" text-anchor="middle"><textPath startOffset="22.145653131862474" xlink:href="#id8">August</textPath></text><path d="M 89.65649057296885 118.27599006163327 l -8.068071173218856 14.255508695429315 a37.38027168949239,37.38027168949239 0 0,0 -0.5557334464230543,-0.32085285489003257 l 8.311597087502312 -14.11490894326311" fill="#ff8b0c" stroke="none" /><path d="M 88.1277618465304 117.32195027204791 l -4.219369620577646 6.156186373811597 a28.463357867887424,28.463357867887424 0 0,0 -0.400662300353588,-0.2796934026491638 l 4.324427012104999 -6.082848155357304" fill="#ff0000" stroke="none" /><path d="M 87.83215693770417 117.11559508785305 l -18.044069027611542 25.381242808008277 a52.14154642197914,52.14154642197914 0 0,0 -0.7250629382707585,-0.5248896520486616 l 18.477112976256254 -25.067752384586548" fill="#a9ff21" stroke="none" /><path d="M 83.42222388311158 112.89097897827486 l -17.098370212700793 13.295796095963802 a42.6594657772536,42.6594657772536 0 0,0 -0.44456855868923195,-0.5819545141666647 l 17.32409074874432 -13.000320668556267" fill="#ffd714" stroke="none" /><path d="M 82.78059297857968 112.02048342749411 l -25.892460011500905 18.074947997810224 a52.577258123065675,52.577258123065675 0 0,0 -0.5102754674090765,-0.7445071567169398 l 26.198925215725307 -17.627806106023233" fill="#a4ff21" stroke="none" /><path d="M 81.99639281039703 110.81064883170644 l -30.77682171636685 18.480597150765554 a56.89909784395583,56.89909784395583 0 0,0 -0.4956352793122877,-0.841697060494065 l 31.089530705808908 -17.94954892197793" fill="#70ff27" stroke="none" /><line stroke="#e1ed5e" stroke-width="0.3" x1="26.387840678322732" x2="22.057713659400548" y1="142.50000000000003" y2="145.00000000000006" /><path d="M 25.521815274538298 143.00000000000003 a86.0,86.0 0 0,1 -11.493303480769221,-40.785679425670985" fill="none" id="id9" stroke="none" /><text fill="#e1ed5e" style="font-size:6.75px; font-family:Arial;" text-anchor="middle"><textPath startOffset="21.40746469413373" xlink:href="#id9">September</textPath></text><path d="M 81.4637452351635 109.86951160357371 l -27.533206882129285 14.65988185068882 a52.19278149011862,52.19278149011862 0 0,0 -0.41429121581697137,-0.7944580326734372 l 27.780806166921206 -14.18507757491088" fill="#a8ff21" stroke="none" /><path d="M 81.29705330413844 109.54985784667822 l -27.824923062246004 14.207603976009047 a52.242316722020114,52.242316722020114 0 0,0 -0.40097243539405364,-0.8022134715740527 l 28.064715410851797 -13.727858648271239" fill="#a8ff21" stroke="none" /><path d="M 80.28708602549918 107.23885506374661 l -29.069925762748593 10.67487940050929 a51.96794526711664,51.96794526711664 0 0,0 -0.3003248095610924,-0.8400619431855065 l 29.248890742353627 -10.174282500942862" fill="#abff21" stroke="none" /><path d="M 79.94057633289273 106.21446072829308 l -29.986387838576317 9.289859604080586 a52.39243455148144,52.39243455148144 0 0,0 -0.2587779102689827,-0.86138750033146 l 30.14144206884893 -8.773734500158403" fill="#a6ff21" stroke="none" /><path d="M 79.83685265289637 105.86919833188381 l -29.79682226182336 8.673420696876141 a52.033511620306385,52.033511620306385 0 0,0 -0.24228167756612762,-0.8597722011308434 l 29.94132243146406 -8.1606405718423" fill="#aaff21" stroke="none" /><path d="M 79.06263194458094 101.62068470465958 l -31.00387321309199 2.399895868891588 a52.09661805397825,52.09661805397825 0 0,0 -0.061364950826282155,-0.8922329172587063 l 31.04050212508334 -1.8673195274785381" fill="#aaff21" stroke="none" /><line stroke="#e1ed5e" stroke-width="0.3" x1="15.003131293944662" x2="10.003315487706104" y1="100.72959589197737" y2="100.7725132973878" /><path d="M 14.003168132696942 100.73817937305945 a86.0,86.0 0 0,1 10.791469493833615,-42.45332614584628" fill="none" id="id10" stroke="none" /><text fill="#e1ed5e" style="font-size:6.75px; font-family:Arial;" text-anchor="middle"><textPath startOffset="22.145653131862435" xlink:href="#id10">October</textPath></text><path d="M 79.00077361379809 100.18025310272382 l -56.973208910059626 0.4890464767272866 a77.97530780931066,77.97530780931066 0 0,0 0.0,-1.3385991589021873 l 56.973208910059626 0.48904647672726564" fill="#45ffec" stroke="none" /><path d="M 79.00696218219943 99.45929381324524 l -14.854075160908314 -0.38258828511293685 a35.85900140257814,35.85900140257814 0 0,0 0.02113173173034679,-0.6152273125873654 l 14.845318742181117 0.6375218622644407" fill="#ff740a" stroke="none" /><path d="M 79.2786578344484 96.59031103205396 l -30.495266697992577 -5.01798453034471 a51.90536296063313,51.90536296063313 0 0,0 0.1522191071934482,-0.8779593596382047 l 30.404632773306894 5.540736922903507" fill="#acff21" stroke="none" /><path d="M 79.407916724674 95.88100663000787 l -31.159435040513035 -6.232759678976279 a52.77668461718157,52.77668461718157 0 0,0 0.18532731137006644,-0.8868582741477045 l 31.047850018318602 6.766734404409393" fill="#a1ff22" stroke="none" /><path d="M 79.94057633289273 93.78553927170692 l -29.664099932788087 -9.190013987029822 a52.055034727145966,52.055034727145966 0 0,0 0.27176516797788175,-0.8513005179796144 l 29.501970049032952 9.697883538700829" fill="#aaff21" stroke="none" /><path d="M 80.5471966667186 92.08871423366112 l -29.096402906381517 -11.833253758911441 a52.410612165529,52.410612165529 0 0,0 0.3460951133038523,-0.830502280427155 l 28.888981948541186 12.330988548779859" fill="#a6ff21" stroke="none" /><path d="M 80.83023694016515 91.42560881287825 l -28.37715806373678 -12.692741859030649 a52.08647287284761,52.08647287284761 0 0,0 0.37208476675396784,-0.8130723659664801 l 28.155088832127767 13.178003207211802" fill="#aaff21" stroke="none" /><path d="M 81.29705330413844 90.45014215332179 l -27.647758837105393 -14.117142660307156 a52.04339359036321,52.04339359036321 0 0,0 0.4131054178416608,-0.7921841087024516 l 27.401345350288793 14.589673012114094" fill="#aaff21" stroke="none" /><line stroke="#e1ed5e" stroke-width="0.3" x1="26.387840678322718" x2="22.05771365940052" y1="57.49999999999999" y2="54.99999999999999" /><path d="M 25.521815274538284 56.99999999999999 a86.0,86.0 0 0,1 29.574782752854787,-30.34633250058573" fill="none" id="id11" stroke="none" /><text fill="#e1ed5e" style="font-size:6.75px; font-family:Arial;" text-anchor="middle"><textPath startOffset="21.40746469413373" xlink:href="#id11">November</textPath></text><path d="M 82.98947788004972 87.6856937992154 l -25.187122706567834 -18.23353446403897 a52.094258783367096,52.094258783367096 0 0,0 0.530612225954292,-0.71987739153563 l 24.870408461029722 18.663218164843464" fill="#aaff21" stroke="none" /><line stroke="#e1ed5e" stroke-width="0.3" x1="56.869717070023135" x2="54.33264160355391" y1="26.7553504044142" y2="22.446841604673864" /><path d="M 56.362301976729285 25.89364864446614 a86.0,86.0 0 0,1 42.16139366436587,-11.88097634709845" fill="none" id="id12" stroke="none" /><text fill="#e1ed5e" style="font-size:6.75px; font-family:Arial;" text-anchor="middle"><textPath startOffset="22.145653131862474" xlink:href="#id12">December</textPath></text><path d="M 90.61103034731259 81.2157712731953 l -13.983571772678832 -27.976510768730087 a52.27659563179041,52.27659563179041 0 0,0 0.8061542713727357,-0.3943304510341083 l 13.501257252044043 28.21243496986141" fill="#a7ff21" stroke="none" /></svg>