<?xml version="1.0" encoding="utf-8" ?>
<svg baseProfile="full" height="200mm" version="1.1" viewBox="0,0,200,200" width="200mm" xmlns="http://www.w3.org/2000/svg" xmlns:ev="http://www.w3.org/2001/xml-events" xmlns:xlink="http://www.w3.org/1999/xlink"><defs /><rect fill="#1a1a1a" height="200" width="200" x="0" y="0" /><text alignment-baseline="middle" fill="#e1ed5e" style="dominant-baseline: central; font-size:9.0px; font-family:Arial;" text-anchor="middle" x="100.0" y="100.0">2021</text><line stroke="#e1ed5e" stroke-width="0.3" x1="100.0" x2="100.0" y1="15.0" y2="10.0" /><path d="M 100.0 14.0 a86.0,86.0 0 0,1 42.46469731375804,11.215312516191453" fill="none" id="id13" stroke="none" /><text fill="#e1ed5e" style="font-size:6.75px; font-family:Arial;" text-anchor="middle"><textPath startOffset="22.20632615414155" xlink:href="#id13">January</textPath></text><path d="M 102.88285421437855 79.19881850522331 l 4.223562876271689 -30.47504015490663 a51.766321779065365,51.766321779065365 0 0,0 0.8815829732050203,0.12992241392642417 l -4.7475148299053656 30.397823256819237" fill="#95ff23" stroke="none" /><line stroke="#e1ed5e" stroke-width="0.3" x1="143.23703022742887" x2="145.7803849466894" y1="26.81831364943548" y2="22.513508569990506" /><path d="M 143.74570117128098 25.957352633546492 a86.0,86.0 0 0,1 28.547481713284135,27.462654790039103" fill="none" id="id14" stroke="none" /><text fill="#e1ed5e" style="font-size:6.75px; font-family:Arial;" text-anchor="middle"><textPath startOffset="19.985693538727396" xlink:href="#id14">February</textPath></text><path d="M 116.15771136456269 86.58626213691792 l 23.54692939852227 -19.54808644032409 a51.60368552278263,51.60368552278263 0 0,0 0.5615009503033629,0.6883337724522228 l -23.87992884090204 19.13986849826377" fill="#96ff23" stroke="none" /><line stroke="#e1ed5e" stroke-width="0.3" x1="172.23445277983987" x2="176.4835382374775" y1="55.19839476539836" y2="52.563006222186495" /><path d="M 173.08426987136738 54.67131705675599 a86.0,86.0 0 0,1 12.851231095245387,41.99856678651699" fill="none" id="id15" stroke="none" /><text fill="#e1ed5e" style="font-size:6.75px; font-family:Arial;" text-anchor="middle"><textPath startOffset="22.20632615414155" xlink:href="#id15">March</textPath></text><path d="M 118.89224826269711 90.83032412892265 l 3.3399569337265875 -1.6211052321444486 a24.712585957635785,24.712585957635785 0 0,0 0.18245161722441455,0.38428963683814504 l -3.3673667447927587 1.563373179665763" fill="#ff0000" stroke="none" /><line stroke="#e1ed5e" stroke-width="0.3" x1="184.98032266829074" x2="189.97916517819016" y1="98.17113171792111" y2="98.06355123074" /><path d="M 185.9800911702706 98.14961562048488 a86.0,86.0 0 0,1 -9.607161424134198,41.387399972396054" fill="none" id="id16" stroke="none" /><text fill="#e1ed5e" style="font-size:6.75px; font-family:Arial;" text-anchor="middle"><textPath startOffset="21.466115282336823" xlink:href="#id16">April</textPath></text><path d="M 120.95626037817324 101.35467743843564 l 30.43667444612511 1.9675207040336693 a51.500201459338044,51.500201459338044 0 0,0 -0.06480059771598143,0.8841526715199809 l -30.398297289744793 -2.4911465120504204" fill="#98ff23" stroke="none" /><path d="M 120.92983693683757 101.71520430193887 l 31.592706170245545 2.589028557490686 a52.69861435506248,52.69861435506248 0 0,0 -0.08187207471298222,0.9034515221678077 l -31.543459499255487 -3.1324614682070644" fill="#8aff24" stroke="none" /><path d="M 120.89721153311464 102.0752229133903 l 31.65012698343056 3.1430542119768745 a52.80580651149574,52.80580651149574 0 0,0 -0.09760951791223965,0.9037429088605524 l -31.591335164017266 -3.687393442722218" fill="#89ff24" stroke="none" /><path d="M 120.81339534386255 102.79330883721812 l 30.96979967496081 4.156372071433902 a52.24746262824229,52.24746262824229 0 0,0 -0.12729957177850823,0.8903329085262308 l -30.893666052165702 -4.688850451940541" fill="#8fff24" stroke="none" /><path d="M 120.64145759157962 103.86396538481128 l 30.926470339881828 5.789262232936685 a52.463663564265644,52.463663564265644 0 0,0 -0.17380479002419852,0.886226879864231 l -30.822235616881965 -6.320752839868861" fill="#8dff24" stroke="none" /><path d="M 120.5718875245553 104.21870165774334 l 30.40862875656873 6.235933984760174 a52.04144931405597,52.04144931405597 0 0,0 -0.18751268040577224,0.8759968166701273 l -30.296782037438515 -6.75844462084647" fill="#91ff23" stroke="none" /><path d="M 120.23288151984713 105.62410040840565 l 44.04017631500776 12.241774527099777 a66.7099351720096,66.7099351720096 0 0,0 -0.31705441538178714,1.1037080135756518 l -43.822929262739876 -12.99804001618001" fill="#37ff74" stroke="none" /><path d="M 120.13307415673323 105.97154293290107 l 45.166268576062684 13.396479336500013 a68.11111838725864,68.11111838725864 0 0,0 -0.3430634676208208,1.1211512617042354 l -44.92897833593573 -14.171957570756305" fill="#38ff84" stroke="none" /><path d="M 120.02730092923936 106.31721596034902 l 29.498286671926593 9.304651087295712 a51.93097878237084,51.93097878237084 0 0,0 -0.27624251153817553,0.8501870300289939 l -29.333751909372168 -9.811037017302501" fill="#93ff23" stroke="none" /><path d="M 119.54520255179757 107.68017299344265 l 58.635607655392704 23.040518980327946 a84.0,84.0 0 0,0 -0.5403895429704302,1.341202528628746 l -58.230315498164885 -24.046420876799505" fill="#4dd2ff" stroke="none" /><path d="M 119.26925614724726 108.34839909993367 l 28.50497794023093 12.349772630628953 a52.06526438647004,52.06526438647004 0 0,0 -0.3633632700790732,0.8192882489265262 l -28.288173585420584 -12.838609216048168" fill="#91ff24" stroke="none" /><path d="M 119.12269723197855 108.67885076344098 l 27.073490718898995 12.287324468108933 a50.73133435099909,50.73133435099909 0 0,0 -0.36774270522892677,0.7920850711362253 l -26.857973396830236 -12.75152960652399" fill="#a0ff22" stroke="none" /><line stroke="#e1ed5e" stroke-width="0.3" x1="174.80103733775053" x2="179.2010983576182" y1="140.37084112569926" y2="142.7455964860345" /><path d="M 175.68104954172406 140.8457921977663 a86.0,86.0 0 0,1 -30.038265399797805,32.042727171017184" fill="none" id="id17" stroke="none" /><text fill="#e1ed5e" style="font-size:6.75px; font-family:Arial;" text-anchor="middle"><textPath startOffset="22.206326154141568" xlink:href="#id17">May</textPath></text><path d="M 114.55890576462653 115.13401014063108 l 20.04488045136225 20.836691226872283 a49.913058184727205,49.913058184727205 0 0,0 -0.6243034181473543,0.5903178489129396 l -19.68324119882409 -21.178643712531144" fill="#aaff21" stroke="none" /><path d="M 112.92097659922987 116.55440617244103 l 19.10761947662782 24.48075742381541 a52.054928853682796,52.054928853682796 0 0,0 -0.7110982680207955,0.545239829132639 l -18.68339248011353 -24.806036594775424" fill="#91ff24" stroke="none" /><path d="M 112.63410532772338 116.77436683061366 l 18.574297283015316 24.661190338699978 a51.87359435633336,51.87359435633336 0 0,0 -0.7178688646838675,0.5310622242724066 l -18.147043447912885 -24.977262511712155" fill="#93ff23" stroke="none" /><path d="M 112.34349029814194 116.9893568818739 l 18.167960760504705 25.00605272258838 a51.90918101406293,51.90918101406293 0 0,0 -0.7274025431516308,0.5189824008033153 l -17.734830889504188 -25.315079385235915" fill="#93ff23" stroke="none" /><path d="M 112.04921762599082 117.19931262002967 l 17.624849687418997 25.158089849839893 a51.71750008377522,51.71750008377522 0 0,0 -0.7335095878318051,0.5045145830082262 l -17.18918321496431 -25.457745222213216" fill="#95ff23" stroke="none" /><path d="M 111.45004920935366 117.60387380957326 l 16.82275420121448 25.86413705940438 a51.85382706800138,51.85382706800138 0 0,0 -0.7524192733872134,0.48022957976151476 l -16.375053125780337 -26.149881067989703" fill="#94ff23" stroke="none" /><line stroke="#e1ed5e" stroke-width="0.3" x1="143.8653032363475" x2="146.44561519142675" y1="172.8068346515853" y2="177.08958963109032" /><path d="M 144.38136562736335 173.6633856474863 a86.0,86.0 0 0,1 -40.68145358897372,12.25698825130547" fill="none" id="id18" stroke="none" /><text fill="#e1ed5e" style="font-size:6.75px; font-family:Arial;" text-anchor="middle"><textPath startOffset="21.466115282336833" xlink:href="#id18">June</textPath></text><path d="M 108.59647513512805 119.15986991738527 l 12.502883075036221 27.86649289905772 a51.54281440341184,51.54281440341184 0 0,0 -0.8126076294724858,0.35622330442381905 l -12.021354770905983 -28.077580756775994" fill="#97ff23" stroke="none" /><path d="M 104.13013068566511 120.58985236759428 l 6.18107182162619 30.814365444294758 a52.42818427142504,52.42818427142504 0 0,0 -0.8863668250265848,0.16987431158716843 l -5.649737382027901 -30.916196954230394" fill="#8dff24" stroke="none" /><line stroke="#e1ed5e" stroke-width="0.3" x1="102.19456741930631" x2="102.32365962044197" y1="184.97166512339345" y2="189.96999836594603" /><path d="M 102.22038585953345 185.97133177190398 a86.0,86.0 0 0,1 -42.740103519485714,-10.115201625700543" fill="none" id="id19" stroke="none" /><text fill="#e1ed5e" style="font-size:6.75px; font-family:Arial;" text-anchor="middle"><textPath startOffset="22.20632615414155" xlink:href="#id19">July</textPath></text><path d="M 100.54218724476979 120.99299961872073 l 0.764003596371499 29.581528082863645 a50.5913924176021,50.5913924176021 0 0,0 -0.8707508840085634,0.014990766133213275 l -0.2546930224702676 -29.59029632627602" fill="#a2ff22" stroke="none" /><path d="M 100.18074693466247 120.99922214144158 l 0.2652797676962897 30.8202669211923 a51.8214085734038,51.8214085734038 0 0,0 -0.8920534047174691,0.0 l 0.26527976769626843 -30.8202669211923" fill="#94ff23" stroke="none" /><path d="M 97.65516085044442 120.86867818915974 l -3.4362724758458087 30.582253150406775 a51.774700263102815,51.774700263102815 0 0,0 -0.8847866716267437,-0.10713534406365181 l 3.962186570523942 -30.518572277617775" fill="#94ff23" stroke="none" /><path d="M 96.22490169976321 120.6578951692458 l -5.8016683528147075 31.747585654037017 a53.27334117404749,53.27334117404749 0 0,0 -0.9006553046075245,-0.172612732705719 l 6.347291271993927 -31.64301572298283" fill="#83ff25" stroke="none" /><path d="M 94.11515582081647 120.15858648285463 l -1.3589753073245359 4.655182096013696 a25.84948803823293,25.84948803823293 0 0,0 -0.42605498609237774,-0.12836687232728966 l 1.4389052678571594 -4.63109985458068" fill="#ff1101" stroke="none" /><path d="M 93.76903079525671 120.05430185196036 l -9.363938198621055 30.137726088470565 a52.55892698383888,52.55892698383888 0 0,0 -0.8616626993075965,-0.2758771859070902 l 9.881322243019593 -29.972076055903766" fill="#8cff24" stroke="none" /><path d="M 90.42595943632237 118.69057910512821 l -14.05992924464863 27.44799523375606 a51.839488528781104,51.839488528781104 0 0,0 -0.790698084959141,-0.41365586735126375 l 14.530318232134267 -27.20190994746008" fill="#94ff23" stroke="none" /><line stroke="#e1ed5e" stroke-width="0.3" x1="58.666819895761336" x2="56.23545636021788" y1="174.27360380694188" y2="178.64263932499728" /><path d="M 58.180547188652646 175.14741091055294 a86.0,86.0 0 0,1 -31.652253787137756,-30.449443065178592" fill="none" id="id20" stroke="none" /><text fill="#e1ed5e" style="font-size:6.75px; font-family:Arial;" text-anchor="middle"><textPath startOffset="22.20632615414155" xlink:href="#id20">August</textPath></text><path d="M 89.7882731507175 118.34994917583269 l -15.042387908215405 27.030399233436942 a51.934057553127644,51.934057553127644 0 0,0 -0.7774064300290793,-0.4414316600320289 l 15.505443105165691 -26.76746440761028" fill="#93ff23" stroke="none" /><path d="M 89.4739219176387 118.17145234162733 l -15.737032285476557 27.16726305245478 a52.39608840150961,52.39608840150961 0 0,0 -0.7765402925231872,-0.4587936924520237 l 16.202340449028128 -26.892350787709006" fill="#8dff24" stroke="none" /><path d="M 88.8546689885994 117.79835938074946 l -16.707501956396765 26.680779949051978 a52.48022617950411,52.48022617950411 0 0,0 -0.7615085690280172,-0.48603079828460954 l 17.164292327471703 -26.389234721943563" fill="#8cff24" stroke="none" /><path d="M 84.19399662182784 113.82643327865904 l -22.15125104931977 19.376991598977096 a50.430353828603884,50.430353828603884 0 0,0 -0.5659186011764982,-0.6582911848479678 l 22.481512160067048 -18.9928233149676" fill="#a4ff21" stroke="none" /><path d="M 83.95833913139862 113.55231037782056 l -22.555646722209282 19.055453650074725 a50.52740274503087,50.52740274503087 0 0,0 -0.5555704480389494,-0.6692203943242657 l 22.88031317014177 -18.6643719986367" fill="#a3ff22" stroke="none" /><path d="M 83.72743513129214 113.27417163493432 l -14.281928106107593 11.650330878251934 a39.43105205897852,39.43105205897852 0 0,0 -0.4245073609222543,-0.5296382037411665 l 14.480353379084708 -11.402764840932507" fill="#ffd213" stroke="none" /><path d="M 83.50135304334701 112.99209946851258 l -15.028594683269707 11.834485428410522 a40.12887094183197,40.12887094183197 0 0,0 -0.42267774690805626,-0.5463679654123336 l 15.230079247395834 -11.574039468884935" fill="#ffdb14" stroke="none" /><path d="M 83.28015986056508 112.70617746262583 l -15.571832363762253 11.833753420019873 a40.5581104192339,40.5581104192339 0 0,0 -0.41763021058552435,-0.5594839152329284 l 15.773223841042864 -11.563956625277639" fill="#ffe015" stroke="none" /><path d="M 83.06392112726016 112.41649034213515 l -15.779844820915349 11.568810720092614 a40.56632014583986,40.56632014583986 0 0,0 -0.4080203125600892,-0.566704527680943 l 15.976644925851046 -11.295472586960532" fill="#ffe015" stroke="none" /><path d="M 82.85270091963577 112.12312394758628 l -16.6075468023676 11.74151960648989 a41.338974739706444,41.338974739706444 0 0,0 -0.40578946436622126,-0.5845699886279186 l 16.807197173895954 -11.453908355674962" fill="#ffeb16" stroke="none" /><path d="M 82.64656182679789 111.8261652097733 l -50.196865893025674 34.20857717869845 a81.74497590808126,81.74497590808126 0 0,0 -0.782404109799943,-1.169587986167273 l 50.77827310823635 -33.33945227832535" fill="#4ae8ff" stroke="none" /><line stroke="#e1ed5e" stroke-width="0.3" x1="26.63291911575756" x2="22.317208475507996" y1="142.92168965132927" y2="145.44649492493687" /><path d="M 25.769776987707644 143.4266507060508 a86.0,86.0 0 0,1 -11.730757126820373,-40.83630448921669" fill="none" id="id21" stroke="none" /><text fill="#e1ed5e" style="font-size:6.75px; font-family:Arial;" text-anchor="middle"><textPath startOffset="21.46611528233685" xlink:href="#id21">September</textPath></text><path d="M 81.87401531095188 110.60418214915194 l -16.894690660250458 9.883842460879848 a40.57347476298078,40.57347476298078 0 0,0 -0.34747897358495655,-0.6058588795352193 l 17.062321629987792 -9.591563735486321" fill="#ffe115" stroke="none" /><path d="M 81.51974371655577 109.97397251340807 l -16.99449549267087 9.172093088069754 a40.31165887920112,40.31165887920112 0 0,0 -0.3243120789016681,-0.613476233083939 l 17.14986007979742 -8.87820183989969" fill="#ffdd14" stroke="none" /><path d="M 79.76711848015287 105.62410040840567 l -18.839168299381868 5.236692263662173 a40.55344491583859,40.55344491583859 0 0,0 -0.18116174659632292,-0.6741702529088379 l 18.926518122319965 -4.911631077577796" fill="#ffe015" stroke="none" /><path d="M 79.67330655649465 105.27499134158121 l -18.91381451785713 4.908334358230177 a40.54032051395488,40.54032051395488 0 0,0 -0.1694753074274801,-0.6769696088643236 l 18.995501139579673 -4.582036909968462" fill="#ffe015" stroke="none" /><line stroke="#e1ed5e" stroke-width="0.3" x1="15.007084014347285" x2="10.007500721073583" y1="101.09737516637583" y2="101.16192664675087" /><path d="M 14.007167355692545 101.11028546245083 a86.0,86.0 0 0,1 10.666146001902534,-42.60595125391555" fill="none" id="id22" stroke="none" /><text fill="#e1ed5e" style="font-size:6.75px; font-family:Arial;" text-anchor="middle"><textPath startOffset="22.20632615414155" xlink:href="#id22">October</textPath></text><path d="M 79.00486145842228 99.54816195383935 l -17.612238970629182 -0.3790343954741778 a38.616317113162495,38.616317113162495 0 0,0 0.02002220284408646,-0.6644394366423176 l 17.603105073329452 0.6821439795414898" fill="#ffc712" stroke="none" /><path d="M 79.71946130924805 94.55025226153421 l -29.550478704599957 -7.940748367024957 a51.598795340657205,51.598795340657205 0 0,0 0.2378783815149734,-0.8557751035404875 l 29.40941355251862 8.448234773984387" fill="#96ff23" stroke="none" /><path d="M 79.81627453868168 94.20196356495316 l -30.244667035798305 -8.688172150155925 a52.4678283238143,52.4678283238143 0 0,0 0.25682777824016495,-0.8658955922981725 l 30.090633360446432 9.207497129200638" fill="#8dff24" stroke="none" /><path d="M 80.02781315780177 93.51064311812611 l -30.050755898918403 -9.76408247824578 a52.59723463751797,52.59723463751797 0 0,0 0.28718767922185146,-0.8586546069355641 l 29.87823092592478 10.279910188103665" fill="#8bff24" stroke="none" /><path d="M 80.2630227832202 92.82701384747504 l -16.17246397034697 -5.877539343404807 a38.20738386871875,38.20738386871875 0 0,0 0.22996371458871345,-0.6161884243320672 l 16.06889566725663 6.155050904766216" fill="#ffc112" stroke="none" /><path d="M 80.52162464483688 92.15188598940014 l -13.566671416635575 -5.46620455149405 a35.626481652322646,35.626481652322646 0 0,0 0.23408008764605878,-0.5668434993009299 l 13.470569642103317 5.6989226212482915" fill="#ff9e0e" stroke="none" /><path d="M 81.26839172434947 90.50648371742162 l -22.835621452088162 -11.573504041294939 a46.60100784924178,46.60100784924178 0 0,0 0.3687927576083556,-0.7123902233222299 l 22.633019261319692 11.964866986877505" fill="#d1ff1c" stroke="none" /><path d="M 81.6062741919709 89.86733742301443 l -40.00108088895105 -22.035636476951314 a66.66898014220104,66.66898014220104 0 0,0 0.5623762092865594,-1.0004045246970446 l 39.61584703837207 22.720924511583142" fill="#36ff73" stroke="none" /><line stroke="#e1ed5e" stroke-width="0.3" x1="26.266209847984257" x2="21.92892807433627" y1="57.711370442889674" y2="55.22380399835377" /><path d="M 25.39875349325466 57.213857153982495 a86.0,86.0 0 0,1 29.58750427330802,-30.492523968695096" fill="none" id="id23" stroke="none" /><text fill="#e1ed5e" style="font-size:6.75px; font-family:Arial;" text-anchor="middle"><textPath startOffset="21.46611528233685" xlink:href="#id23">November</textPath></text><path d="M 82.15384107792192 88.93136811851018 l -25.265355013647383 -15.670201930973958 a50.73034464184929,50.73034464184929 0 0,0 0.4666525056065131,-0.7381321970278855 l 24.99187491179491 16.102781775716057" fill="#a0ff22" stroke="none" /><path d="M 82.54541684631803 88.32363383020206 l -24.72169826148732 -16.53775393538926 a50.74322898004701,50.74322898004701 0 0,0 0.49190856920507275,-0.7218151269791222 l 24.433365226613507 16.9608470856388" fill="#a0ff22" stroke="none" /><path d="M 83.6137871275137 86.86637796730984 l -24.23764316572973 -19.42657811045572 a52.0621197491556,52.0621197491556 0 0,0 0.5664891842086418,-0.6944487574046754 l 23.899655489444694 19.840911037468477" fill="#91ff24" stroke="none" /><path d="M 83.84228863543731 86.58626213691792 l -21.565285344227444 -17.90297388183737 a49.028164509858684,49.028164509858684 0 0,0 0.5446547819217753,-0.6446994688337562 l 21.25391994881854 18.27153230030024" fill="#b4ff20" stroke="none" /><path d="M 84.31358615837235 86.03803664274997 l -22.970652112166405 -20.44542534196758 a51.75168736625919,51.75168736625919 0 0,0 0.5979940975368131,-0.6603200182803028 l 22.615314374013547 20.837798147517443" fill="#95ff23" stroke="none" /><path d="M 84.5562425177563 85.77008943001954 l -22.543307316157545 -20.771450693222306 a51.65377413389235,51.65377413389235 0 0,0 0.6081190909264476,-0.6486990463229009 l 22.18242090326064 21.156419156423258" fill="#96ff23" stroke="none" /><path d="M 86.10567301691215 84.25364557470407 l -21.142915669629264 -23.96113493826366 a52.955576517139136,52.955576517139136 0 0,0 0.6886903020507616,-0.5972254434714883 l 20.72733156893173 24.321525375154827" fill="#87ff25" stroke="none" /><path d="M 86.93701828274178 83.55741782278169 l -18.31359783047214 -23.051615917844785 a50.44087060397686,50.44087060397686 0 0,0 0.684476476740444,-0.5342447470818846 l 17.914088798572273 23.36343905414989" fill="#a4ff21" stroke="none" /><path d="M 87.51073957382395 83.11751280151077 l -17.55246778882818 -23.72673021740459 a50.513502880670586,50.513502880670586 0 0,0 0.7034719288013683,-0.511102273532159 l 17.14145054367303 24.025351725753417" fill="#a3ff22" stroke="none" /><line stroke="#e1ed5e" stroke-width="0.3" x1="56.762969772571076" x2="54.21961505331055" y1="26.818313649435495" y2="22.513508569990535" /><path d="M 56.25429882871897 25.957352633546506 a86.0,86.0 0 0,1 42.265352541879196,-11.944610805530505" fill="none" id="id24" stroke="none" /><text fill="#e1ed5e" style="font-size:6.75px; font-family:Arial;" text-anchor="middle"><textPath startOffset="22.20632615414155" xlink:href="#id24">December</textPath></text><path d="M 89.94658935756843 81.56283822128135 l -11.814871160471494 -21.667541367597423 a45.67941509548163,45.67941509548163 0 0,0 0.693576560708763,-0.37048457865321593 l 11.440149553234425 21.86770467275239" fill="#ddff1b" stroke="none" /><path d="M 90.91171255644093 81.06846463323043 l -12.72781849578452 -26.512931890764133 a50.409741942185285,50.409741942185285 0 0,0 0.7854840917260485,-0.36879531325716064 l 12.269556192758863 26.728092186661303" fill="#a4ff21" stroke="none" /><path d="M 91.56875222667455 80.76684994638697 l -5.982253562641971 -13.646566145650489 a35.900205544064036,35.900205544064036 0 0,0 0.568105780998043,-0.24323324719249678 l 5.74646402385362 13.747518920805772" fill="#ffa20f" stroke="none" /></svg>