<?xml version="1.0" encoding="utf-8" ?>
<svg baseProfile="full" height="200mm" version="1.1" viewBox="0,0,200,200" width="200mm" xmlns="http://www.w3.org/2000/svg" xmlns:ev="http://www.w3.org/2001/xml-events" xmlns:xlink="http://www.w3.org/1999/xlink"><defs /><rect fill="#1a1a1a" height="200" width="200" x="0" y="0" /><text alignment-baseline="middle" fill="#e1ed5e" style="dominant-baseline: central; font-size:9.0px; font-family:Arial;" text-anchor="middle" x="100.0" y="100.0">2022</text><line stroke="#e1ed5e" stroke-width="0.3" x1="100.0" x2="100.0" y1="15.0" y2="10.0" /><path d="M 100.0 14.0 a86.0,86.0 0 0,1 42.46469731375804,11.215312516191453" fill="none" id="id25" stroke="none" /><text fill="#e1ed5e" style="font-size:6.75px; font-family:Arial;" text-anchor="middle"><textPath startOffset="22.20632615414155" xlink:href="#id25">January</textPath></text><path d="M 104.307194497241 79.44645832069477 l 12.369352987350753 -59.02543113258601 a81.30756514495786,81.30756514495786 0 0,0 1.3673503910620441,0.2988498348514962 l -13.383546102566326 58.80376779963864" fill="#49f0ff" stroke="none" /><path d="M 105.01212808612495 79.60689891045804 l 14.35679592416424 -58.41422756411704 a81.15263561241976,81.15263561241976 0 0,0 1.3536689007054157,0.3450803434851771 l -15.360173713554682 58.158444224463" fill="#49f2ff" stroke="none" /><path d="M 105.36241919743992 79.69619591428918 l 6.9777240514331025 -26.419855831503607 a48.32576467540082,48.32576467540082 0 0,0 0.802442673675738,0.21933789516318847 l -7.431464614332552 26.295831395514124" fill="#fdff18" stroke="none" /><line stroke="#e1ed5e" stroke-width="0.3" x1="143.23703022742887" x2="145.7803849466894" y1="26.81831364943548" y2="22.513508569990506" /><path d="M 143.74570117128098 25.957352633546492 a86.0,86.0 0 0,1 28.547481713284135,27.462654790039103" fill="none" id="id26" stroke="none" /><text fill="#e1ed5e" style="font-size:6.75px; font-family:Arial;" text-anchor="middle"><textPath startOffset="19.985693538727396" xlink:href="#id26">February</textPath></text><line stroke="#e1ed5e" stroke-width="0.3" x1="172.23445277983987" x2="176.4835382374775" y1="55.19839476539836" y2="52.563006222186495" /><path d="M 173.08426987136738 54.67131705675599 a86.0,86.0 0 0,1 12.851231095245387,41.99856678651699" fill="none" id="id27" stroke="none" /><text fill="#e1ed5e" style="font-size:6.75px; font-family:Arial;" text-anchor="middle"><textPath startOffset="22.20632615414155" xlink:href="#id27">March</textPath></text><path d="M 117.84615892207809 88.93136811851018 l 51.46222743794372 -31.918154141696686 a81.556827993941,81.556827993941 0 0,0 0.7296780724737786,1.1993988952159922 l -52.00402130870372 31.027587473273613" fill="#49edff" stroke="none" /><path d="M 118.56541770881063 90.18545643968196 l 34.62978280304019 -18.30691434664006 a60.17097101018756,60.17097101018756 0 0,0 0.4761832275947275,0.9198344296358234 l -34.93977546379504 17.708107194743892" fill="#5eff2a" stroke="none" /><line stroke="#e1ed5e" stroke-width="0.3" x1="184.98032266829074" x2="189.97916517819016" y1="98.17113171792111" y2="98.06355123074" /><path d="M 185.9800911702706 98.14961562048488 a86.0,86.0 0 0,1 -9.607161424134198,41.387399972396054" fill="none" id="id28" stroke="none" /><text fill="#e1ed5e" style="font-size:6.75px; font-family:Arial;" text-anchor="middle"><textPath startOffset="21.466115282336823" xlink:href="#id28">April</textPath></text><path d="M 120.13307415673323 105.97154293290107 l 60.399222470199675 17.914628798703227 a84.0,84.0 0 0,0 -0.4230929099754692,1.3826921097917715 l -60.08190278771807 -18.951647881047055" fill="#4dd2ff" stroke="none" /><line stroke="#e1ed5e" stroke-width="0.3" x1="174.80103733775053" x2="179.2010983576182" y1="140.37084112569926" y2="142.7455964860345" /><path d="M 175.68104954172406 140.8457921977663 a86.0,86.0 0 0,1 -30.038265399797805,32.042727171017184" fill="none" id="id29" stroke="none" /><text fill="#e1ed5e" style="font-size:6.75px; font-family:Arial;" text-anchor="middle"><textPath startOffset="22.206326154141568" xlink:href="#id29">May</textPath></text><path d="M 118.12598468904814 110.60418214915192 l 17.07434764955104 9.988946568137667 a40.781617759901195,40.781617759901195 0 0,0 -0.3596921680523107,0.6028647631105236 l -16.899874605800502 -10.281373425134296" fill="#ff8e0d" stroke="none" /><path d="M 116.0416608686014 113.55231037782055 l 8.6030963805837 7.268064903939092 a32.26223933245443,32.26223933245443 0 0,0 -0.362039921748244,0.42113422063606937 l -8.476713949264678 -7.4150762237366905" fill="#ff0000" stroke="none" /><path d="M 113.48314897796784 116.09983520530334 l 15.735605951958966 18.789428426260177 a45.50820097969005,45.50820097969005 0 0,0 -0.6048903947439641,0.4977836141458734 l -15.40984542867031 -19.057507159263228" fill="#ffd814" stroke="none" /><line stroke="#e1ed5e" stroke-width="0.3" x1="143.8653032363475" x2="146.44561519142675" y1="172.8068346515853" y2="177.08958963109032" /><path d="M 144.38136562736335 173.6633856474863 a86.0,86.0 0 0,1 -40.68145358897372,12.25698825130547" fill="none" id="id30" stroke="none" /><text fill="#e1ed5e" style="font-size:6.75px; font-family:Arial;" text-anchor="middle"><textPath startOffset="21.466115282336833" xlink:href="#id30">June</textPath></text><path d="M 110.5260780823613 118.17145234162733 l 21.20982917612823 36.61509985318406 a63.31456476131097,63.31456476131097 0 0,0 -0.9477624525983667,0.5381642556659516 l -20.576417956608665 -36.97476727464464" fill="#38ff2e" stroke="none" /><path d="M 109.57404056367764 118.69057910512821 l 19.302142689269335 37.68191939785142 a63.33792344816979,63.33792344816979 0 0,0 -0.9746382122745011,0.48870383279182344 l -18.650650569312074 -38.00859107155255" fill="#38ff2e" stroke="none" /><path d="M 108.92500713936063 119.00905698771935 l 18.08527183678704 38.519180726225024 a63.55354675265116,63.55354675265116 0 0,0 -0.994255909082738,0.45641412268703313 l -17.419547931936883 -38.82478191924613" fill="#35ff2f" stroke="none" /><path d="M 108.2653958097858 119.30500536409082 l 16.981214044306768 39.66203624828126 a64.1443941871773,64.1443941871773 0 0,0 -1.0187612464127993,0.4258422836245336 l -16.29598133839651 -39.94846357492577" fill="#2fff30" stroke="none" /><path d="M 107.2578585660854 119.70592522655815 l 15.036263773997508 40.82519477601422 a64.50615768808743,64.50615768808743 0 0,0 -1.0452468419138095,0.37478832940893464 l -14.331297371453964 -41.077970646463115" fill="#30ff36" stroke="none" /><path d="M 106.57524785965236 119.94407469862006 l 13.49585265829923 40.935687792143646 a64.10299959388419,64.10299959388419 0 0,0 -1.050918784562783,0.3364710078956114 l -12.789212528645505 -41.16193164669897" fill="#2fff30" stroke="none" /><path d="M 105.88484417918355 120.15858648285463 l 12.15240468725051 41.62817118066406 a64.36571889787345,64.36571889787345 0 0,0 -1.0662298784338353,0.30132721392779177 l -11.43404364071207 -41.831187187930375" fill="#30ff34" stroke="none" /><path d="M 105.18746579009965 120.34920634021253 l 10.487332643172609 41.139335573385274 a63.45502417132932,63.45502417132932 0 0,0 -1.060746561994538,0.2607056971026242 l -9.77763279643486 -41.313762528801924" fill="#37ff2e" stroke="none" /><path d="M 104.48393922423573 120.51570834832081 l 9.24201982868143 42.28571661493559 a64.28390879013101,64.28390879013101 0 0,0 -1.0830569439354005,0.22696511296708297 l -8.512771423316652 -42.43853770862921" fill="#30ff32" stroke="none" /><path d="M 103.41894727170886 120.7198165907248 l 7.013656892862164 42.50480422815706 a64.07957480622053,64.07957480622053 0 0,0 -1.0898536188570085,0.17021272129374945 l -6.280967410396639 -42.619235256797914" fill="#2fff2f" stroke="none" /><path d="M 102.70371172650421 120.8252237178851 l 5.509424692924873 42.43610761541825 a63.79225385504214,63.79225385504214 0 0,0 -1.0901566919199759,0.13200279346138336 l -4.778140577953517 -42.52465593760498" fill="#33ff2f" stroke="none" /><path d="M 102.34483914955558 120.86867818915974 l 4.8160050686763105 42.86164360340721 a64.13136210702154,64.13136210702154 0 0,0 -1.0980736832841707,0.11381982702481606 l -4.077498788786537 -42.93819279888778" fill="#2fff30" stroke="none" /><path d="M 101.62511606390274 120.93702456842531 l 3.3730991664821004 43.456994665826926 a64.58770679185396,64.58770679185396 0 0,0 -1.1091777269063878,0.07649539008619909 l -2.6245586787967823 -43.50861840042941" fill="#30ff37" stroke="none" /><path d="M 100.90346689309514 120.98055641714683 l 1.8655198389107177 43.321614246966384 a64.36176224777229,64.36176224777229 0 0,0 -1.1072664204988008,0.038136494347659894 l -1.1195330667372647 -43.347307539740136" fill="#30ff34" stroke="none" /><line stroke="#e1ed5e" stroke-width="0.3" x1="102.19456741930631" x2="102.32365962044197" y1="184.97166512339345" y2="189.96999836594603" /><path d="M 102.22038585953345 185.97133177190398 a86.0,86.0 0 0,1 -42.740103519485714,-10.115201625700543" fill="none" id="id31" stroke="none" /><text fill="#e1ed5e" style="font-size:6.75px; font-family:Arial;" text-anchor="middle"><textPath startOffset="22.20632615414155" xlink:href="#id31">July</textPath></text><path d="M 100.18074693466247 120.99922214144158 l 0.38106310408166244 44.27200266196246 a65.27364259681039,65.27364259681039 0 0,0 -1.1236200774882052,0.0 l 0.3810631040816319 -44.27200266196246" fill="#31ff41" stroke="none" /><path d="M 99.45781275523022 120.99299961872073 l -1.111126483900556 43.021812257459786 a64.03615842497263,64.03615842497263 0 0,0 -1.101664799803855,-0.037943563204787006 l 1.851511635379054 -42.9963118958289" fill="#30ff2f" stroke="none" /><path d="M 98.37488393609728 120.93702456842531 l -3.327364167846729 42.867772264218594 a63.99671209758229,63.99671209758229 0 0,0 -1.0975609289429944,-0.09470217524473698 l 4.064769414531265 -42.80414583669519" fill="#30ff2f" stroke="none" /><path d="M 97.65516085044442 120.86867818915974 l -4.77188134207999 42.46894978002943 a63.736197151379216,63.736197151379216 0 0,0 -1.0891987293628647,-0.1318867975366727 l 5.502207494494243 -42.38051745376741" fill="#33ff2f" stroke="none" /><path d="M 95.86986931433489 120.58985236759428 l -8.407451248554027 41.91348728898559 a63.748399422911376,63.748399422911376 0 0,0 -1.0740346683826665,-0.22507440740307105 l 9.12767737836608 -41.762556900855984" fill="#33ff2f" stroke="none" /><path d="M 95.16358092515715 120.4354850818985 l -9.6788984300318 40.896576871298635 a63.026314073552896,63.026314073552896 0 0,0 -1.053580025250643,-0.2589443367319471 l 10.381431740025654 -40.72391127625266" fill="#3cff2e" stroke="none" /><path d="M 94.46302465271185 120.25689768951611 l -11.390140210008093 41.67056749067554 a64.19920704131718,64.19920704131718 0 0,0 -1.0634715791463358,-0.3005476909972375 l 12.105742957259043 -41.468331006339774" fill="#30ff31" stroke="none" /><path d="M 93.42475214034765 119.94407469862007 l -13.432862893547204 40.74462692261033 a63.90182313817841,63.90182313817841 0 0,0 -1.0416918181281323,-0.35339842243011665 l 14.132224444612563 -40.50736551328209" fill="#31ff2f" stroke="none" /><path d="M 92.06813273071674 119.44442032107085 l -16.262240390836524 39.8657499913377 a64.05506340607567,64.05506340607567 0 0,0 -1.0173424671250444,-0.42524923376718715 l 16.94605431745903 -39.57991571455054" fill="#30ff2f" stroke="none" /><path d="M 91.7346041902142 119.30500536409082 l -17.04962488989602 39.82181949054283 a64.31820652362629,64.31820652362629 0 0,0 -1.0140204010983869,-0.4445167445288657 l 17.73256596565215 -39.52243819271951" fill="#30ff33" stroke="none" /><path d="M 91.07499286063937 119.00905698771935 l -18.28518327829656 38.94496503371227 a64.02392623875659,64.02392623875659 0 0,0 -0.993551738385604,-0.476965212464806 l 18.952847684682407 -38.62444554474791" fill="#30ff2f" stroke="none" /><path d="M 90.7491055286396 118.85261126421891 l -18.88338976769035 38.48289565329389 a63.866253241691396,63.866253241691396 0 0,0 -0.9827681031426574,-0.4927803288468829 l 19.54301177851577 -38.1521474835377" fill="#32ff2f" stroke="none" /><line stroke="#e1ed5e" stroke-width="0.3" x1="58.666819895761336" x2="56.23545636021788" y1="174.27360380694188" y2="178.64263932499728" /><path d="M 58.180547188652646 175.14741091055294 a86.0,86.0 0 0,1 -31.652253787137756,-30.449443065178592" fill="none" id="id32" stroke="none" /><text fill="#e1ed5e" style="font-size:6.75px; font-family:Arial;" text-anchor="middle"><textPath startOffset="22.20632615414155" xlink:href="#id32">August</textPath></text><path d="M 89.7882731507175 118.34994917583269 l -21.195053862581897 38.08642425494778 a64.58676428419093,64.58676428419093 0 0,0 -0.9668061425383215,-0.5489777598236353 l 21.847508772041426 -37.71594332932951" fill="#30ff37" stroke="none" /><path d="M 89.1626897886671 117.98757091392108 l -12.602130407923855 20.91678746465738 a45.41978068410867,45.41978068410867 0 0,0 -0.6662017707246773,-0.40923553997900086 l 12.96031137858084 -20.696763457849997" fill="#ffd614" stroke="none" /><path d="M 87.65650970185807 116.9893568818739 l -25.245920291568037 34.74802825497059 a63.95092500722704,63.95092500722704 0 0,0 -0.8850047601302602,-0.6547053640687108 l 25.84031002211686 -34.30831294216211" fill="#31ff2f" stroke="none" /><path d="M 87.36589467227662 116.77436683061367 l -34.65914283235676 46.01712276601311 a78.60930280376624,78.60930280376624 0 0,0 -1.0738452689312827,-0.8233787611051545 l 35.44611682978152 -45.41370466308059" fill="#45ffef" stroke="none" /><path d="M 85.44109423537348 115.13401014063109 l -18.608926237748047 19.344014099782143 a47.84181471537493,47.84181471537493 0 0,0 -0.5885683385783591,-0.5760379965133301 l 18.9391445287022 -19.020826000346243" fill="#fffa17" stroke="none" /><line stroke="#e1ed5e" stroke-width="0.3" x1="26.63291911575756" x2="22.317208475507996" y1="142.92168965132927" y2="145.44649492493687" /><path d="M 25.769776987707644 143.4266507060508 a86.0,86.0 0 0,1 -11.730757126820373,-40.83630448921669" fill="none" id="id33" stroke="none" /><text fill="#e1ed5e" style="font-size:6.75px; font-family:Arial;" text-anchor="middle"><textPath startOffset="21.46611528233685" xlink:href="#id33">September</textPath></text><line stroke="#e1ed5e" stroke-width="0.3" x1="15.007084014347285" x2="10.007500721073583" y1="101.09737516637583" y2="101.16192664675087" /><path d="M 14.007167355692545 101.11028546245083 a86.0,86.0 0 0,1 10.666146001902534,-42.60595125391555" fill="none" id="id34" stroke="none" /><text fill="#e1ed5e" style="font-size:6.75px; font-family:Arial;" text-anchor="middle"><textPath startOffset="22.20632615414155" xlink:href="#id34">October</textPath></text><line stroke="#e1ed5e" stroke-width="0.3" x1="26.266209847984257" x2="21.92892807433627" y1="57.711370442889674" y2="55.22380399835377" /><path d="M 25.39875349325466 57.213857153982495 a86.0,86.0 0 0,1 29.58750427330802,-30.492523968695096" fill="none" id="id35" stroke="none" /><text fill="#e1ed5e" style="font-size:6.75px; font-family:Arial;" text-anchor="middle"><textPath startOffset="21.46611528233685" xlink:href="#id35">November</textPath></text><line stroke="#e1ed5e" stroke-width="0.3" x1="56.762969772571076" x2="54.21961505331055" y1="26.818313649435495" y2="22.513508569990535" /><path d="M 56.25429882871897 25.957352633546506 a86.0,86.0 0 0,1 42.265352541879196,-11.944610805530505" fill="none" id="id36" stroke="none" /><text fill="#e1ed5e" style="font-size:6.75px; font-family:Arial;" text-anchor="middle"><textPath startOffset="22.20632615414155" xlink:href="#id36">December</textPath></text></svg>