<?xml version="1.0" encoding="utf-8" ?>
<svg baseProfile="full" height="200mm" version="1.1" viewBox="0,0,200,200" width="200mm" xmlns="http://www.w3.org/2000/svg" xmlns:ev="http://www.w3.org/2001/xml-events" xmlns:xlink="http://www.w3.org/1999/xlink"><defs /><rect fill="#1a1a1a" height="200" width="200" x="0" y="0" /><text alignment-baseline="middle" fill="#e1ed5e" style="dominant-baseline: central; font-size:9.0px; font-family:Arial;" text-anchor="middle" x="100.0" y="100.0">2025</text><line stroke="#e1ed5e" stroke-width="0.3" x1="100.0" x2="100.0" y1="15.0" y2="10.0" /><path d="M 100.0 14.0 a86.0,86.0 0 0,1 42.46469731375804,11.215312516191453" fill="none" id="id61" stroke="none" /><text fill="#e1ed5e" style="font-size:6.75px; font-family:Arial;" text-anchor="middle"><textPath startOffset="22.20632615414155" xlink:href="#id61">January</textPath></text><path d="M 100.0 79.0 l 0.0 -39.610011270642424 a60.610011270642424,60.610011270642424 0 0,0 1.0433017106107223,0.008980027205331727 l -0.6818212313381941 39.60414262004565" fill="#81ff25" stroke="none" /><path d="M 100.36148047927253 79.00311137660856 l 0.677609834075145 -39.35952017332584 a60.365352575096786,60.365352575096786 0 0,0 1.0387824084624226,0.02682868490395828 l -1.3550188777324355 39.34202469627952" fill="#84ff25" stroke="none" /><path d="M 100.72285384407766 79.0124445844662 l 1.3417356812053065 -38.9563563824252 a59.97945557896801,59.97945557896801 0 0,0 1.0315300119352928,0.044419852194953445 l -2.012106525529931 38.927488803706055" fill="#8aff24" stroke="none" /><path d="M 101.08401301168833 79.027996857942 l 2.053659383784118 -39.731396749894856 a60.78443671289264,60.78443671289264 0 0,0 1.044444362186593,0.06300373618092804 l -2.737265794810323 39.69015974433362" fill="#7eff26" stroke="none" /><path d="M 101.44485096284872 79.0497635885617 l 2.8408664304445845 -41.19236160786265 a62.29020679178713,62.29020679178713 0 0,0 1.0690476968766005,0.08297867634412244 l -3.549504316683526 41.137357669330065" fill="#69ff28" stroke="none" /><path d="M 101.80526077348638 79.07773832637324 l 3.413028300694106 -39.5556543715897 a60.70262654971334,60.70262654971334 0 0,0 1.0402547626126883,0.09878472423023521 l -4.093408190397039 39.49104410284429" fill="#7fff26" stroke="none" /><path d="M 102.16513564639614 79.11191278185805 l 4.094203923103853 -39.4987209124751 a60.71034448963591,60.71034448963591 0 0,0 1.0385322467653377,0.11669119856169127 l -4.7735028733789155 39.42239376044281" fill="#7fff26" stroke="none" /><path d="M 102.52436894288641 79.15227682838746 l 4.799851213891232 -39.63999385039007 a60.92953398343707,60.92953398343707 0 0,0 1.0401114539020406,0.13503631811508945 l -5.481477396301119 39.551499209110844" fill="#7cff26" stroke="none" /><path d="M 102.88285421437855 79.19881850522331 l 8.648562643135682 -62.40354448433004 a84.0,84.0 0 0,0 1.430524078285377,0.2108220633561242 l -9.721455701849713 62.245427936812945" fill="#4dd2ff" stroke="none" /><path d="M 103.2404852339499 79.25152402106235 l 6.119438897536923 -39.18210447000123 a60.657090704170145,60.657090704170145 0 0,0 1.0302196521315534,0.1699950698643127 l -6.792987755807351 39.07096313719729" fill="#80ff25" stroke="none" /><path d="M 103.59715602781102 79.31037775812273 l 6.9513669732811705 -39.98190671461322 a61.581699906894706,61.581699906894706 0 0,0 1.042797758936609,0.19056462505013438 l -7.638559853320681 39.85632660821234" fill="#73ff27" stroke="none" /><path d="M 103.95276090670814 79.375362276772 l 7.593670729974297 -39.6221050277567 a61.34321556328711,61.34321556328711 0 0,0 1.0353379117584747,0.20767904514536847 l -8.274575051199896 39.48552202653413" fill="#76ff27" stroke="none" /><path d="M 104.307194497241 79.44645832069477 l 8.478305118748379 -40.45770344006621 a62.336514431322584,62.336514431322584 0 0,0 1.0483139820157243,0.22912083285000354 l -9.17346182491763 40.30576910912034" fill="#68ff28" stroke="none" /><path d="M 104.66035177308747 79.52364482259891 l 8.776953971434848 -38.56361829436253 a60.54981133924633,60.54981133924633 0 0,0 1.0142852089540393,0.2400485387186401 l -9.439462867351411 38.40682384350301" fill="#82ff25" stroke="none" /><path d="M 105.01212808612495 79.60689891045804 l 10.120289008123617 -41.17693587467911 a63.40236193463028,63.40236193463028 0 0,0 1.0575849439083764,0.26960195031330986 l -10.82758284071702 40.99663092819693" fill="#59ff2a" stroke="none" /><path d="M 105.36241919743992 79.69619591428918 l 10.642327509987604 -40.29519603426709 a62.67687558190817,62.67687558190817 0 0,0 1.0407408958225826,0.28447380104341324 l -11.334366295033897 40.106035692397384" fill="#63ff29" stroke="none" /><path d="M 105.71112130821622 79.79150937346287 l 10.51346432133246 -37.20131892215727 a59.65838927818886,59.65838927818886 0 0,0 0.985811651161683,0.2877854537094778 l -11.15226619021757 37.01483513952909" fill="#8fff24" stroke="none" /><path d="M 106.0581310904928 79.89281104454417 l 12.035960105228325 -39.947851982923666 a62.72163963345911,62.72163963345911 0 0,0 1.0310679737636776,0.3203578384300941 l -12.72181345170272 39.73475400961105" fill="#63ff29" stroke="none" /><path d="M 106.40334571778207 80.00007090966166 l 12.047104080915203 -37.62739636142661 a60.5089062576567,60.5089062576567 0 0,0 0.9892260440750867,0.3261322737357694 l -12.693012947232708 37.414450363431605" fill="#82ff25" stroke="none" /><path d="M 106.74666289553966 80.11325718540242 l 12.69846793511806 -37.430529711520045 a60.52588572548636,60.52588572548636 0 0,0 0.9837416199103961,0.34320813491368485 l -13.340891559091729 37.20640072343416" fill="#82ff25" stroke="none" /><path d="M 107.08798089147638 80.2323363322302 l 5.911484430720102 -16.486533724188998 a38.51432106630078,38.51432106630078 0 0,0 0.622130400788515,0.22913587698484034 l -6.194397157281193 16.382334579397835" fill="#ff0000" stroke="none" /><path d="M 107.4271985657038 80.35727306442388 l 14.862131142752792 -39.30590802646075 a63.0218674964473,63.0218674964473 0 0,0 1.0114014437839536,0.3924080471239849 l -15.536515751536413 39.04425727544622" fill="#5eff29" stroke="none" /><path d="M 107.76421540070413 80.48803036053334 l 14.592574044810927 -36.67207142375234 a60.46877297005929,60.46877297005929 0 0,0 0.9638035094893598,0.39315965118562995 l -15.221661423888674 36.415450886383134" fill="#83ff25" stroke="none" /><path d="M 108.09893153111575 80.62456947434976 l 16.20808247159722 -38.77530939432177 a63.02649826040085,63.02649826040085 0 0,0 0.9973680505491259,0.4270209487305798 l -16.87313427993666 38.49056891762841" fill="#5eff29" stroke="none" /><path d="M 108.43124777332544 80.76684994638697 l 15.724770817107332 -35.87095111128659 a60.16622972509433,60.16622972509433 0 0,0 0.9449475441796024,0.42397041851361483 l -16.339900479753716 35.594960362256444" fill="#87ff25" stroke="none" /><path d="M 108.76106565485865 80.91482961587045 l 17.665845071071935 -38.483407891603434 a63.34447738521096,63.34447738521096 0 0,0 0.9870330092514712,0.4634252325112775 l -18.325656291623005 38.17361767645215" fill="#5aff2a" stroke="none" /><path d="M 109.08828744355905 81.06846463323043 l 17.154938615469927 -35.73493126515233 a60.639339442348216,60.639339442348216 0 0,0 0.9371051427880769,0.45983342376315756 l -17.767515025268438 35.43434268125434" fill="#80ff25" stroke="none" /><path d="M 109.41281617654863 81.2277094730956 l 18.194751805957818 -36.286395119170024 a61.592505022786305,61.592505022786305 0 0,0 0.9436544063913519,0.48337643868964464 l -18.816666699937926 35.96782615516788" fill="#73ff27" stroke="none" /><line stroke="#e1ed5e" stroke-width="0.3" x1="143.23703022742887" x2="145.7803849466894" y1="26.81831364943548" y2="22.513508569990506" /><path d="M 143.74570117128098 25.957352633546492 a86.0,86.0 0 0,1 28.547481713284135,27.462654790039103" fill="none" id="id62" stroke="none" /><text fill="#e1ed5e" style="font-size:6.75px; font-family:Arial;" text-anchor="middle"><textPath startOffset="19.985693538727396" xlink:href="#id62">February</textPath></text><line stroke="#e1ed5e" stroke-width="0.3" x1="172.23445277983987" x2="176.4835382374775" y1="55.19839476539836" y2="52.563006222186495" /><path d="M 173.08426987136738 54.67131705675599 a86.0,86.0 0 0,1 12.851231095245387,41.99856678651699" fill="none" id="id63" stroke="none" /><text fill="#e1ed5e" style="font-size:6.75px; font-family:Arial;" text-anchor="middle"><textPath startOffset="22.20632615414155" xlink:href="#id63">March</textPath></text><line stroke="#e1ed5e" stroke-width="0.3" x1="184.98032266829074" x2="189.97916517819016" y1="98.17113171792111" y2="98.06355123074" /><path d="M 185.9800911702706 98.14961562048488 a86.0,86.0 0 0,1 -9.607161424134198,41.387399972396054" fill="none" id="id64" stroke="none" /><text fill="#e1ed5e" style="font-size:6.75px; font-family:Arial;" text-anchor="middle"><textPath startOffset="21.466115282336823" xlink:href="#id64">April</textPath></text><line stroke="#e1ed5e" stroke-width="0.3" x1="174.80103733775053" x2="179.2010983576182" y1="140.37084112569926" y2="142.7455964860345" /><path d="M 175.68104954172406 140.8457921977663 a86.0,86.0 0 0,1 -30.038265399797805,32.042727171017184" fill="none" id="id65" stroke="none" /><text fill="#e1ed5e" style="font-size:6.75px; font-family:Arial;" text-anchor="middle"><textPath startOffset="22.206326154141568" xlink:href="#id65">May</textPath></text><line stroke="#e1ed5e" stroke-width="0.3" x1="143.8653032363475" x2="146.44561519142675" y1="172.8068346515853" y2="177.08958963109032" /><path d="M 144.38136562736335 173.6633856474863 a86.0,86.0 0 0,1 -40.68145358897372,12.25698825130547" fill="none" id="id66" stroke="none" /><text fill="#e1ed5e" style="font-size:6.75px; font-family:Arial;" text-anchor="middle"><textPath startOffset="21.466115282336833" xlink:href="#id66">June</textPath></text><line stroke="#e1ed5e" stroke-width="0.3" x1="102.19456741930631" x2="102.32365962044197" y1="184.97166512339345" y2="189.96999836594603" /><path d="M 102.22038585953345 185.97133177190398 a86.0,86.0 0 0,1 -42.740103519485714,-10.115201625700543" fill="none" id="id67" stroke="none" /><text fill="#e1ed5e" style="font-size:6.75px; font-family:Arial;" text-anchor="middle"><textPath startOffset="22.20632615414155" xlink:href="#id67">July</textPath></text><line stroke="#e1ed5e" stroke-width="0.3" x1="58.666819895761336" x2="56.23545636021788" y1="174.27360380694188" y2="178.64263932499728" /><path d="M 58.180547188652646 175.14741091055294 a86.0,86.0 0 0,1 -31.652253787137756,-30.449443065178592" fill="none" id="id68" stroke="none" /><text fill="#e1ed5e" style="font-size:6.75px; font-family:Arial;" text-anchor="middle"><textPath startOffset="22.20632615414155" xlink:href="#id68">August</textPath></text><line stroke="#e1ed5e" stroke-width="0.3" x1="26.63291911575756" x2="22.317208475507996" y1="142.92168965132927" y2="145.44649492493687" /><path d="M 25.769776987707644 143.4266507060508 a86.0,86.0 0 0,1 -11.730757126820373,-40.83630448921669" fill="none" id="id69" stroke="none" /><text fill="#e1ed5e" style="font-size:6.75px; font-family:Arial;" text-anchor="middle"><textPath startOffset="21.46611528233685" xlink:href="#id69">September</textPath></text><line stroke="#e1ed5e" stroke-width="0.3" x1="15.007084014347285" x2="10.007500721073583" y1="101.09737516637583" y2="101.16192664675087" /><path d="M 14.007167355692545 101.11028546245083 a86.0,86.0 0 0,1 10.666146001902534,-42.60595125391555" fill="none" id="id70" stroke="none" /><text fill="#e1ed5e" style="font-size:6.75px; font-family:Arial;" text-anchor="middle"><textPath startOffset="22.20632615414155" xlink:href="#id70">October</textPath></text><line stroke="#e1ed5e" stroke-width="0.3" x1="26.266209847984257" x2="21.92892807433627" y1="57.711370442889674" y2="55.22380399835377" /><path d="M 25.39875349325466 57.213857153982495 a86.0,86.0 0 0,1 29.58750427330802,-30.492523968695096" fill="none" id="id71" stroke="none" /><text fill="#e1ed5e" style="font-size:6.75px; font-family:Arial;" text-anchor="middle"><textPath startOffset="21.46611528233685" xlink:href="#id71">November</textPath></text><line stroke="#e1ed5e" stroke-width="0.3" x1="56.762969772571076" x2="54.21961505331055" y1="26.818313649435495" y2="22.513508569990535" /><path d="M 56.25429882871897 25.957352633546506 a86.0,86.0 0 0,1 42.265352541879196,-11.944610805530505" fill="none" id="id72" stroke="none" /><text fill="#e1ed5e" style="font-size:6.75px; font-family:Arial;" text-anchor="middle"><textPath startOffset="22.20632615414155" xlink:href="#id72">December</textPath></text></svg>