<?xml version="1.0" encoding="utf-8" ?>
<svg baseProfile="full" height="200mm" version="1.1" viewBox="0,0,200,200" width="200mm" xmlns="http://www.w3.org/2000/svg" xmlns:ev="http://www.w3.org/2001/xml-events" xmlns:xlink="http://www.w3.org/1999/xlink"><defs /><rect fill="#1a1a1a" height="200" width="200" x="0" y="0" /><text alignment-baseline="middle" fill="#e1ed5e" style="dominant-baseline: central; font-size:9.0px; font-family:Arial;" text-anchor="middle" x="100.0" y="100.0">2024</text><line stroke="#e1ed5e" stroke-width="0.3" x1="100.0" x2="100.0" y1="15.0" y2="10.0" /><path d="M 100.0 14.0 a86.0,86.0 0 0,1 42.35913384403234,11.155469271406648" fill="none" id="id49" stroke="none" /><text fill="#e1ed5e" style="font-size:6.75px; font-family:Arial;" text-anchor="middle"><textPath startOffset="22.145653131862478" xlink:href="#id49">January</textPath></text><path d="M 100.0 79.0 l 0.0 -51.628921456377384 a72.62892145637738,72.62892145637738 0 0,0 1.2467720154489157,0.010702038258017578 l -0.8862790906000608 51.6213138163138" fill="#3cffa7" stroke="none" /><path d="M 100.72087961077811 79.0123766808444 l 1.7999587324304507 -52.403834567465395 a73.43473780627433,73.43473780627433 0 0,0 1.2594905159453271,0.05408794200883787 l -2.699275008976614 52.36521405703073" fill="#3dffb1" stroke="none" /><path d="M 107.74402155503746 80.48000691201159 l 19.013752815732094 -47.92707779827648 a72.56091138081062,72.56091138081062 0 0,0 1.1538758403608362,0.4692712590349831 l -19.83368311728337 47.5936192826622" fill="#3cffa6" stroke="none" /><path d="M 108.07796709384702 80.6158196554323 l 4.428361168461136 -10.626454716028183 a32.512250973208154,32.512250973208154 0 0,0 0.5133296214272322,0.21910989092117839 l -4.610125865058798 10.548870175447604" fill="#ff0f01" stroke="none" /><path d="M 108.4095320186766 80.7573450057729 l 21.1763729988442 -48.455685612568935 a73.88092512021984,73.88092512021984 0 0,0 1.157772487699573,0.5178569074764956 l -22.005058889399407 48.085024954182586" fill="#3effb7" stroke="none" /><path d="M 109.06512990194946 81.05736502329252 l 22.28813825446104 -46.57363676320319 a72.6320128234486,72.6320128234486 0 0,0 1.1200539489685688,0.5478745130596685 l -23.084352452691675 46.1841685000463" fill="#3cffa7" stroke="none" /><path d="M 109.71004243097381 81.37971332152246 l 23.868046004311662 -45.770125333098264 a72.61964735516372,72.61964735516372 0 0,0 1.1003992372404328,0.5859006135970032 l -24.650234057338654 45.353654251778686" fill="#3cffa7" stroke="none" /><line stroke="#e1ed5e" stroke-width="0.3" x1="143.13028292997686" x2="145.6673583964461" y1="26.7553504044142" y2="22.446841604673864" /><path d="M 143.63769802327073 25.89364864446614 a86.0,86.0 0 0,1 29.32050498858742,28.57503671076993" fill="none" id="id50" stroke="none" /><text fill="#e1ed5e" style="font-size:6.75px; font-family:Arial;" text-anchor="middle"><textPath startOffset="20.669276256404974" xlink:href="#id50">February</textPath></text><path d="M 110.96478420261332 82.08984904055464 l 26.987809984122023 -44.08255939640381 a72.68765743073047,72.68765743073047 0 0,0 1.0585949065029703,0.6606415149986236 l -27.740569019414703 43.61278208456364" fill="#3cffa7" stroke="none" /><path d="M 111.27062007382361 82.28071324371311 l 27.683605729761606 -43.52322633187804 a72.58152049461873,72.58152049461873 0 0,0 1.0455691801073643,0.6777253103371343 l -28.426660542125976 43.041587179837016" fill="#3cffa6" stroke="none" /><path d="M 113.31354834802062 83.75963576809568 l 32.71333377901465 -39.904948096729164 a72.60006869704603,72.60006869704603 0 0,0 0.9570267789024809,0.7983857767973336 l -33.393534892079025 39.33750013601996" fill="#3cffa6" stroke="none" /><path d="M 113.59037401385872 83.9905735841838 l 33.42554467090717 -39.375207574992075 a72.64953057018548,72.64953057018548 0 0,0 0.9438229869115233,0.8152518167879954 l -34.09654713758155 38.79561162573936" fill="#3cffa7" stroke="none" /><path d="M 113.86319453409587 84.22622945171908 l 34.18566087129708 -38.89700669632516 a72.78452026562857,72.78452026562857 0 0,0 0.9314164810122463,0.8328783607201871 l -34.8483423791327 38.30443280572158" fill="#3dffa9" stroke="none" /><path d="M 116.35404254752997 86.82634096563983 l 40.2091492632996 -32.38964439018209 a72.6320128234486,72.6320128234486 0 0,0 0.773819975175152,0.9776962599296315 l -40.759235669116315 31.694628186337784" fill="#3cffa7" stroke="none" /><path d="M 116.57777611688842 87.10902102172516 l 40.741339545204575 -31.68071205214028 a72.60934279825966,72.60934279825966 0 0,0 0.7566862427144017,0.9905265816678653 l -41.27917776527328 30.97666455723153" fill="#3cffa6" stroke="none" /><path d="M 116.7966241395341 87.39550010848427 l 41.27917776527328 -30.97666455723153 a72.60934279825966,72.60934279825966 0 0,0 0.7395710373282585,1.0033701508661144 l -41.804850822185365 30.26348809709654" fill="#3cffa6" stroke="none" /><path d="M 117.01052211995028 87.68569379921539 l 8.614049606360375 -6.235907618441745 a31.634302724982824,31.634302724982824 0 0,0 0.3146632479895921,0.44261326465550227 l -8.719827952879928 6.087117127076739" fill="#ff0000" stroke="none" /><path d="M 117.62189284568427 88.57770195909679 l 26.589348932159606 -17.234894734425758 a52.68651247996336,52.68651247996336 0 0,0 0.48542419308593665,0.7631674583464927 l -26.88129081687143 16.775913601400593" fill="#baff1f" stroke="none" /><line stroke="#e1ed5e" stroke-width="0.3" x1="172.87174338648825" x2="177.1583165268699" y1="56.24261187166439" y2="53.66864786411523" /><path d="M 173.72905801456457 55.72781907015455 a86.0,86.0 0 0,1 12.242430191666344,42.057860355516425" fill="none" id="id51" stroke="none" /><text fill="#e1ed5e" style="font-size:6.75px; font-family:Arial;" text-anchor="middle"><textPath startOffset="22.145653131862474" xlink:href="#id51">March</textPath></text><path d="M 118.53625476483649 90.13048839642627 l 45.566296981616034 -24.261486610826303 a72.62273872223494,72.62273872223494 0 0,0 0.5764583120922575,1.1054348223144166 l -45.97606336268324 23.475705545407386" fill="#3cffa7" stroke="none" /><path d="M 118.70294669586156 90.45014215332178 l 45.91090376233292 -23.44243458918798 a72.54957636821618,72.54957636821618 0 0,0 0.5568355721657523,1.114044153693571 l -46.30655924771041 22.65085857933066" fill="#3cffa6" stroke="none" /><path d="M 119.0197475246899 91.09779779509293 l 46.753898001089276 -21.88318500721441 a72.62170826654454,72.62170826654454 0 0,0 0.5187802108926675,1.133628385722107 l -47.122662676836995 21.07736763927762" fill="#3cffa7" stroke="none" /><path d="M 119.16976305983485 91.42560881287824 l 47.110434263095385 -21.071898025350144 a72.60831234256926,72.60831234256926 0 0,0 0.4991514374379059,1.1421561722053801 l -47.46521958255026 20.260079783368916" fill="#3cffa6" stroke="none" /><path d="M 119.31412917781788 91.75594674310238 l 47.484174205708854 -20.268170384883753 a72.62892145637738,72.62892145637738 0 0,0 0.4796073497709156,1.1508830445250113 l -47.82510740001625 19.450054830917466" fill="#3cffa7" stroke="none" /><path d="M 119.58574465831526 92.42381321644754 l 48.15867372966951 -18.6288095647787 a72.63613464621021,72.63613464621021 0 0,0 0.43986131301527476,1.1667843914407054 l -48.47136572649922 17.799356893143838" fill="#3cffa7" stroke="none" /><path d="M 119.94978838288452 93.4421083053983 l 19.75857218359161 -6.49503513185779 a41.798717655140834,41.798717655140834 0 0,0 0.21821972810797827,0.6835701902269475 l -19.867156627476845 6.154895907939455" fill="#ffa70f" stroke="none" /><path d="M 120.26092885502905 94.47779374421319 l 49.813888593733715 -13.576996848745372 a72.63098236775818,72.63098236775818 0 0,0 0.31753753337363616,1.2057417352360007 l -50.03961560791208 12.719874609136573" fill="#3cffa7" stroke="none" /><path d="M 120.35273937422433 94.82641323984039 l 50.02563387717644 -12.716320507858704 a72.61655598809253,72.61655598809253 0 0,0 0.29673363262887836,1.210774481726227 l -50.236555036321604 11.855690201524382" fill="#3cffa7" stroke="none" /><path d="M 120.43855184770803 95.1765574152323 l 50.24357537700663 -11.857346982810652 a72.62376917792535,72.62376917792535 0 0,0 0.27593276062578886,1.2158106563283686 l -50.439718999190085 10.993101992543258" fill="#3cffa7" stroke="none" /><line stroke="#e1ed5e" stroke-width="0.3" x1="184.99686870605535" x2="189.99668451229388" y1="99.2704041080226" y2="99.22748670261217" /><path d="M 185.99683186730306 99.26182062694052 a86.0,86.0 0 0,1 -10.086455211305974,41.156179273409016" fill="none" id="id52" stroke="none" /><text fill="#e1ed5e" style="font-size:6.75px; font-family:Arial;" text-anchor="middle"><textPath startOffset="21.40746469413373" xlink:href="#id52">April</textPath></text><path d="M 120.99922638620191 99.81974689727618 l 51.60125906808626 -0.4429347481862606 a72.60316006411725,72.60316006411725 0 0,0 0.0,1.2463757018201687 l -51.60125906808626 -0.44293474818625433" fill="#3cffa6" stroke="none" /><path d="M 120.86939407059847 102.33845913500097 l 56.35842369763748 6.315078927742762 a77.71112892145638,77.71112892145638 0 0,0 -0.1599291841138885,1.3244430673528291 l -56.24171242726393 -7.281615672019" fill="#44ffe5" stroke="none" /><path d="M 120.82617615685814 102.69636545807757 l 51.8218812971119 6.709380044118896 a73.2544080604534,73.2544080604534 0 0,0 -0.17216698687074208,1.2457145521080877 l -51.69906979368595 -7.597982904427069" fill="#3dffaf" stroke="none" /><path d="M 120.7213421655516 103.40968896794604 l 55.41564343115878 9.11862303847167 a77.16086558277995,77.16086558277995 0 0,0 -0.22628409473203231,1.3051465257562596 l -55.25094451893451 -10.068562597148517" fill="#43ffdf" stroke="none" /><path d="M 119.71291397450082 107.23885506374661 l 48.46169273393757 17.79580483629028 a72.62583008930616,72.62583008930616 0 0,0 -0.43979891189836606,1.1666188650644023 l -48.14906313822476 -18.62509198154884" fill="#3cffa7" stroke="none" /><path d="M 119.16976305983485 108.57439118712176 l 45.58470448702886 20.389458503014875 a70.93691321273187,70.93691321273187 0 0,0 -0.5067447141494483,1.1073286532768531 l -45.22797530802435 -21.16897613850642" fill="#3aff91" stroke="none" /><path d="M 118.8641267826498 109.22738970284198 l 50.62749273366395 24.764443672048742 a77.35974353102816,77.35974353102816 0 0,0 -0.5937547702975832,1.1879072811475868 l -50.194918050154634 -25.629882809360073" fill="#43ffe1" stroke="none" /><path d="M 118.70294669586154 109.54985784667822 l 48.93118889969823 24.98461370071034 a75.94080604534005,75.94080604534005 0 0,0 -0.6027961715855515,1.1559411406697728 l -48.49508465913773 -25.820901084484614" fill="#41ffd0" stroke="none" /><path d="M 118.5362547648365 109.86951160357373 l 47.22169871238916 25.14289479158969 a74.49816807877261,74.49816807877261 0 0,0 -0.6107240990428007,1.1236635549498963 l -46.78312926373103 -25.94981318001419" fill="#3fffbe" stroke="none" /><line stroke="#e1ed5e" stroke-width="0.3" x1="174.33088141563837" x2="178.70328620479359" y1="141.23008692659167" y2="143.65538615756765" /><path d="M 175.20536237346943 141.71514677278685 a86.0,86.0 0 0,1 -30.301960400862466,31.631185727798858" fill="none" id="id53" stroke="none" /><text fill="#e1ed5e" style="font-size:6.75px; font-family:Arial;" text-anchor="middle"><textPath startOffset="22.145653131862474" xlink:href="#id53">May</textPath></text><path d="M 118.36410011445183 110.18625677009912 l 46.63985215694648 25.87033978410106 a74.33432562399817,74.33432562399817 0 0,0 -0.6285379078313565,1.110566257798896 l -46.18888088409375 -26.667162811999074" fill="#3fffbc" stroke="none" /><path d="M 117.62189284568427 111.42229804090321 l 43.33847702373461 28.091477206159954 a72.64643920311426,72.64643920311426 0 0,0 -0.6872891461471449,1.040643365681659 l -42.84986343866674 -28.831300450180674" fill="#3cffa7" stroke="none" /><path d="M 117.423217284605 111.72311816256416 l 43.224329523785194 29.08325794413877 a73.0977787955118,73.0977787955118 0 0,0 -0.7094322635489884,1.0350828741580325 l -42.71870752342088 -29.820975553366846" fill="#3dffad" stroke="none" /><path d="M 116.79662413953412 112.60449989151573 l 41.487700087264635 31.133143595107494 a72.87004808793222,72.87004808793222 0 0,0 -0.7594031397209865,0.994083087063056 l -40.94714497018934 -31.84074759541143" fill="#3dffaa" stroke="none" /><path d="M 116.35404254752997 113.17365903436017 l 42.37905984502558 34.1375707549099 a75.41836501030456,75.41836501030456 0 0,0 -0.8208146290917763,1.0012603849001491 l -41.786798396695175 -34.86003342150855" fill="#40ffca" stroke="none" /><path d="M 115.41159269507618 114.26474011684316 l 37.99028937632146 35.16324468463474 a72.76597206320129,72.76597206320129 0 0,0 -0.8563659760919277,0.9094309901632055 l -37.38106756649327 -35.81021713474244" fill="#3cffa8" stroke="none" /><path d="M 115.16444852881244 114.52719865689866 l 40.27044341968009 38.57817384176936 a76.7672315090451,76.7672315090451 0 0,0 -0.9197927946089233,0.943788436591335 l -39.60226382392036 -39.26378497042843" fill="#42ffda" stroke="none" /><path d="M 114.39649973595853 115.28858382429668 l 41.27508357678947 43.832708414701486 a81.20746507900161,81.20746507900161 0 0,0 -1.023098933664975,0.9469650990200948 l -40.51655487181053 -44.53479125985396" fill="#49f1ff" stroke="none" /><path d="M 114.13192950727249 115.5334660781643 l 41.72176080675963 45.85952370336779 a82.99839706892604,82.99839706892604 0 0,0 -1.0621224766676414,0.9497564680084057 l -40.928373303268614 -46.56897570125958" fill="#4cddff" stroke="none" /><path d="M 113.86319453409587 115.77377054828091 l 41.58958360228761 47.32131164484274 a84.0,84.0 0 0,0 -1.0912820809485684,0.9426234701411293 l -40.771122041576184 -48.02827924744859" fill="#4dd2ff" stroke="none" /><path d="M 113.59037401385874 116.0094264158162 l 38.14898765923661 44.93941153831569 a79.94824822532632,79.94824822532632 0 0,0 -1.0538917641698209,0.8791939926299315 l -37.371921560904894 -45.58766771485749" fill="#47ffff" stroke="none" /><path d="M 113.31354834802062 116.24036423190432 l 33.37054024494954 40.706633124893116 a73.63670712159379,73.63670712159379 0 0,0 -0.9844499427601593,0.793003188332565 l -32.66683953183413 -41.273484607019086" fill="#3effb3" stroke="none" /><path d="M 112.16784306229584 117.11559508785304 l 36.23484869138392 50.96885249885301 a83.53629493931761,83.53629493931761 0 0,0 -1.175892326153286,0.8208641680552637 l -35.35456127405687 -51.5833614827134" fill="#4cd7ff" stroke="none" /><path d="M 111.8722381534696 117.32195027204791 l 29.971099951661014 43.72873052664705 a74.01385390428212,74.01385390428212 0 0,0 -1.0541818302388992,0.7093005820250187 l -29.21602183332511 -44.236780782729184" fill="#3effb8" stroke="none" /><path d="M 111.27062007382361 117.71928675628689 l 28.18908579522703 44.317924952796936 a73.5233569956492,73.5233569956492 0 0,0 -1.0707657114794848,0.6682369974528097 l -27.42415595495783 -44.79529774709129" fill="#3effb2" stroke="none" /><path d="M 110.96478420261333 117.91015095944535 l 27.495714542036932 44.912183321248406 a73.66040760247309,73.66040760247309 0 0,0 -1.0840961489786667,0.6509685888493445 l -26.72068563650083 -45.37756591063368" fill="#3effb4" stroke="none" /><line stroke="#e1ed5e" stroke-width="0.3" x1="143.1302829299769" x2="145.66735839644613" y1="173.24464959558577" y2="177.55315839532614" /><path d="M 143.63769802327073 174.10635135553383 a86.0,86.0 0 0,1 -40.68552437913181,11.842963189579606" fill="none" id="id54" stroke="none" /><text fill="#e1ed5e" style="font-size:6.75px; font-family:Arial;" text-anchor="middle"><textPath startOffset="21.407464694133747" xlink:href="#id54">June</textPath></text><path d="M 110.65571695917076 118.09573695890943 l 26.916238556586368 45.709657520890744 a74.04579803068468,74.04579803068468 0 0,0 -1.100840755641306,0.6355707066044215 l -26.127605333084666 -46.16497512477134" fill="#3effb9" stroke="none" /><path d="M 110.34350942703117 118.27599006163325 l 27.213760106246045 48.084106535607255 a76.25097320815206,76.25097320815206 0 0,0 -1.1446934506011366,0.6349421609664295 l -26.384322467488815 -48.54418161200683" fill="#42ffd4" stroke="none" /><path d="M 110.02825361518725 118.45085714620011 l 24.952370914271746 45.90955203815214 a73.25234714907259,73.25234714907259 0 0,0 -1.109986482510517,0.5910052816995911 l -24.160595615974675 -46.3311277875743" fill="#3dffaf" stroke="none" /><path d="M 109.3889696526874 118.78422872680471 l 23.455224278908428 46.92616058966704 a73.46152965422488,73.46152965422488 0 0,0 -1.1328458786691085,0.5541316868879702 l -22.64621815097725 -47.32188602665224" fill="#3effb1" stroke="none" /><path d="M 109.06512990194946 118.94263497670748 l 23.042552545754813 48.15007247849461 a74.379665674376,74.379665674376 0 0,0 -1.1564666810070423,0.5412848001372367 l -22.212597150876267 -48.53853351020238" fill="#3fffbd" stroke="none" /><path d="M 107.407793817531 119.65005319985036 l 18.20203189895963 48.283052143470854 a72.60006869704603,72.60006869704603 0 0,0 -1.169935754177905,0.42961661423287506 l -17.370506993127595 -48.58839960671245" fill="#3cffa6" stroke="none" /><path d="M 107.06938296918513 119.77432235084164 l 17.66085376004218 49.40055118875575 a73.46256010991527,73.46256010991527 0 0,0 -1.19112274705818,0.4143343222353575 l -16.81022524093898 -49.6964439435597" fill="#3effb1" stroke="none" /><path d="M 106.72888874123015 119.89276391827305 l 17.1225773991321 50.619857597916386 a74.4373711930387,74.4373711930387 0 0,0 -1.2139574810900622,0.39905193629372254 l -16.251097180394307 -50.90633045561213" fill="#3fffbd" stroke="none" /><path d="M 106.38641147887787 120.00534299687104 l 16.12856682832646 50.522505872941274 a74.03446301809021,74.03446301809021 0 0,0 -1.2140219443142226,0.37610710165107913 l -15.258904251140612 -50.791929562399" fill="#3effb8" stroke="none" /><path d="M 106.0420521117495 120.11202640906438 l 15.193678787537706 50.57481520749727 a73.80776276620105,73.80776276620105 0 0,0 -1.2165627661921017,0.3541236908627887 l -14.323256008963996 -50.82818259266258" fill="#3effb6" stroke="none" /><path d="M 105.69591212413111 120.21278271476187 l 14.51834318858928 51.520478169958395 a74.52702083810397,74.52702083810397 0 0,0 -1.2343754276390526,0.33643451182673734 l -13.631786360015534 -51.76211317592927" fill="#3fffbf" stroke="none" /><path d="M 105.3480935250658 120.30758222061773 l 13.657766663213945 51.86076461888657 a74.62903595145409,74.62903595145409 0 0,0 -1.2416661968156943,0.3156266917326521 l -12.765495173172853 -52.08757654245449" fill="#3fffc0" stroke="none" /><path d="M 104.9986988182912 120.39639698878246 l 12.632551925462076 51.545122724799995 a74.0705289672544,74.0705289672544 0 0,0 -1.2375698557184975,0.2920631162215549 l -11.7458499160037 -51.75438198466777" fill="#3effb9" stroke="none" /><path d="M 104.64783097203109 120.47920084513623 l 11.787814041368632 51.93928366392644 a74.260132814289,74.260132814289 0 0,0 -1.2455814154308174,0.27146867214044523 l -10.89447020931868 -52.1339837942006" fill="#3fffbb" stroke="none" /><path d="M 104.29559338865022 120.5559693870025 l 10.553425191350994 50.50195992353897 a72.59285550721319,72.59285550721319 0 0,0 -1.2219918831972936,0.2444326005181316 l -9.684936822622744 -50.67568192071996" fill="#3cffa6" stroke="none" /><path d="M 103.94208987418118 120.62667999033965 l 9.9267314025596 51.94085333561372 a73.88092512021984,73.88092512021984 0 0,0 -1.247761809202722,0.22738376676952365 l -9.03363485980582 -52.1036052763146" fill="#3effb7" stroke="none" /><path d="M 103.58742460773223 120.69131181640829 l 9.075354557802118 52.34423340777894 a74.1251431188459,74.1251431188459 0 0,0 -1.2556181427040114,0.20661148756319764 l -8.175458912045034 -52.492310893837804" fill="#3effba" stroke="none" /><path d="M 103.2317021107853 120.74984581791261 l 7.971845504168671 51.1849667528682 a72.80203801236547,72.80203801236547 0 0,0 -1.2365075818859868,0.18172403306010296 l -7.092012816674999 -51.31427185922718" fill="#3dffa9" stroke="none" /><path d="M 102.875027216393 120.80226474461374 l 7.105697152439505 51.413284895974904 a72.90199221433478,72.90199221433478 0 0,0 -1.2411466211890814,0.16069127873394334 l -6.222072709359648 -51.527687770909246" fill="#3dffaa" stroke="none" /><path d="M 102.51750503828377 120.84855314841334 l 6.3824175786566 52.855573307889884 a74.23952370048089,74.23952370048089 0 0,0 -1.2665407630542322,0.14191853425145323 l -5.474140914001568 -52.957347602648305" fill="#3fffbb" stroke="none" /><path d="M 102.15924093988457 120.88869738790638 l 5.391392025877168 52.15682717378466 a73.43473780627433,73.43473780627433 0 0,0 -1.255036164827561,0.11885322966535151 l -4.495256297664591 -52.241692158955196" fill="#3dffb1" stroke="none" /><path d="M 101.80034050326958 120.92268563240118 l 4.4924293702493365 52.20883897728897 a73.40176322418137,73.40176322418137 0 0,0 -1.2563271209970304,0.0972476647331941 l -3.5955332544770706 -52.27826440901722" fill="#3dffb0" stroke="none" /><path d="M 101.44090949804482 120.95050786540614 l 3.610098370604383 52.49003800090475 a73.61403709640484,73.61403709640484 0 0,0 -1.2614489053081672,0.07588563368937794 l -2.7085051131637505 -52.544275612418815" fill="#3effb3" stroke="none" /><path d="M 101.08105385017728 120.97215588758144 l 2.710414789892122 52.58132283077498 a73.65113350125944,73.65113350125944 0 0,0 -1.2632019518906132,0.054247327037653434 l -1.807387077400679 -52.620102726238464" fill="#3effb4" stroke="none" /><path d="M 100.72087961077811 120.9876233191556 l 1.7794777241553694 51.8075523582768 a72.83810396152967,72.83810396152967 0 0,0 -1.249994423622205,0.03219542231703419 l -0.8898699864624208 -51.830465497943884" fill="#3dffa9" stroke="none" /><line stroke="#e1ed5e" stroke-width="0.3" x1="101.45913802915013" x2="101.54496967792366" y1="184.9874750549273" y2="189.98673829345242" /><path d="M 101.47630435890484 185.9873277026323 a86.0,86.0 0 0,1 -42.54439059252881,-10.42667462771756" fill="none" id="id55" stroke="none" /><text fill="#e1ed5e" style="font-size:6.75px; font-family:Arial;" text-anchor="middle"><textPath startOffset="22.145653131862474" xlink:href="#id55">July</textPath></text><path d="M 100.36049292484886 120.99690560180557 l 0.9034021802294415 52.618647943495645 a73.62640256468973,73.62640256468973 0 0,0 -1.2638951050782874,0.010849019388519704 l -6.444875545148733e-15 -52.62640256468973" fill="#3effb3" stroke="none" /><path d="M 100.0 121.0 l 6.446642267116817e-15 52.64082894435539 a73.64082894435539,73.64082894435539 0 0,0 -1.2641427530687945,-0.010851145148671592 l 0.903649828219936 -52.633072197401155" fill="#3effb4" stroke="none" /><path d="M 99.63950707515114 120.99690560180557 l -0.9009610786087111 52.4764660121412 a73.48419967941379,73.48419967941379 0 0,0 -1.2610822471727448,-0.03248100532047012 l 1.8016566398521996 -52.45326728947069" fill="#3effb2" stroke="none" /><path d="M 99.27912038922189 120.98762331915562 l -1.8153813915114902 52.85284845901331 a73.88401648729105,73.88401648729105 0 0,0 -1.267196163907864,-0.054418855687720306 l 2.722403316020193 -52.81389703489976" fill="#3effb7" stroke="none" /><path d="M 98.91894614982273 120.97215588758144 l -2.735240587360909 53.06293666940505 a74.13338676436913,74.13338676436913 0 0,0 -1.270348472509904,-0.07642100955265556 l 3.6457334120032594 -53.0081636820277" fill="#3effba" stroke="none" /><path d="M 98.55909050195518 120.95050786540614 l -3.616532475301411 52.583588471107504 a73.70780856423173,73.70780856423173 0 0,0 -1.2615653202455366,-0.09765313448371596 l 4.518666790322184 -52.51375756962873" fill="#3effb4" stroke="none" /><path d="M 98.19965949673042 120.92268563240118 l -4.50232361620274 52.3238251131208 a73.51717426150675,73.51717426150675 0 0,0 -1.25644504481689,-0.11898665206514797 l 5.399868224404646 -52.238826705550466" fill="#3effb2" stroke="none" /><path d="M 97.84075906011543 120.88869738790638 l -6.15817013516819 59.57470981614841 a80.89214563773757,80.89214563773757 0 0,0 -1.380035791641947,-0.15463588893268237 l 7.179941828410936 -59.46021816670876" fill="#48f4ff" stroke="none" /><path d="M 97.48249496171623 120.84855314841334 l -6.333498804972792 52.45045568643815 a73.83146324708036,73.83146324708036 0 0,0 -1.256970740623141,-0.16274002780459057 l 7.2329473674867275 -52.33400406243316" fill="#3effb6" stroke="none" /><path d="M 97.12497278360702 120.80226474461374 l -7.089473455399076 51.29589830601627 a72.78348980993817,72.78348980993817 0 0,0 -1.2361925495935162,-0.18167773416184227 l 7.968991110600276 -51.16663949855555" fill="#3dffa9" stroke="none" /><path d="M 96.76829788921471 120.74984581791261 l -8.11900535035965 52.12983853076522 a73.75830089306159,73.75830089306159 0 0,0 -1.2494041411544439,-0.2055889759729244 l 9.012686994567156 -51.98278355629663" fill="#3effb5" stroke="none" /><path d="M 96.41257539226777 120.69131181640829 l -8.994731681505462 51.879222081995536 a73.65319441264026,73.65319441264026 0 0,0 -1.2439157057702308,-0.22668287860366926 l 9.883982120826749 -51.7171710294605" fill="#3effb4" stroke="none" /><path d="M 96.05791012581884 120.62667999033965 l -9.896362003319519 51.78194780590307 a73.71914357682621,73.71914357682621 0 0,0 -1.2409512541931411,-0.2482250057054534 l 10.783809743043618 -51.60443340353476" fill="#3effb4" stroke="none" /><path d="M 95.70440661134978 120.55596938700252 l -10.853367750416503 51.937293649096134 a74.05919395465995,74.05919395465995 0 0,0 -1.242211024082099,-0.2707341110329216 l 11.74334119111774 -51.7433280799295" fill="#3effb9" stroke="none" /><path d="M 95.35216902796893 120.47920084513623 l -11.725095919219942 51.66293604546921 a73.97675749942752,73.97675749942752 0 0,0 -1.236003122720511,-0.29169337150002195 l 12.610231195680342 -51.45404653032296" fill="#3effb8" stroke="none" /><path d="M 95.00130118170881 120.39639698878247 l -12.282288165810767 50.115927057621754 a72.59903824135561,72.59903824135561 0 0,0 -1.207891413259903,-0.30704127382804164 l 13.14078487229605 -49.89770055195845" fill="#3cffa6" stroke="none" /><path d="M 94.6519064749342 120.30758222061772 l -13.43444102662962 51.012760801142484 a73.75211815891916,73.75211815891916 0 0,0 -1.2215408769587663,-0.3329363979661135 l 14.308163304523083 -50.77462390903223" fill="#3effb5" stroke="none" /><path d="M 94.30408787586889 120.21278271476187 l -14.343659109411925 50.90058599831099 a73.88298603160064,73.88298603160064 0 0,0 -1.2178026604851506,-0.3544846060210822 l 15.215321782278682 -50.646857697987386" fill="#3effb7" stroke="none" /><path d="M 93.95794788825049 120.11202640906438 l -15.212949947238577 50.63896263053642 a73.8747423860774,73.8747423860774 0 0,0 -1.2114028349924149,-0.3752956948881672 l 16.079993415102628 -50.3703503478416" fill="#3effb6" stroke="none" /><path d="M 93.61358852112213 120.00534299687104 l -16.079993415102628 50.3703503478416 a73.8747423860774,73.8747423860774 0 0,0 -1.204781882350571,-0.3960357347375056 l 16.94229803510094 -50.08689369170207" fill="#3effb6" stroke="none" /><path d="M 93.27111125876986 119.89276391827306 l -17.18101961054875 50.79263161146939 a74.61976185024044,74.61976185024044 0 0,0 -1.209885628637236,-0.4208610264238559 l 18.050411011231006 -50.49021215247694" fill="#3fffc0" stroke="none" /><path d="M 92.93061703081489 119.77432235084164 l -17.701786757050414 49.51504806651097 a73.5841538813831,73.5841538813831 0 0,0 -1.1857940923720343,-0.4354400156786291 l 18.54917000107657 -49.20387720182362" fill="#3effb3" stroke="none" /><path d="M 92.59220618246901 119.65005319985036 l -18.60878324583801 49.36200841603288 a73.75314861460956,73.75314861460956 0 0,0 -1.1808502044127973,-0.45677822661846845 l 19.453405712744335 -49.03529030127637" fill="#3effb5" stroke="none" /><path d="M 92.25597844496254 119.51999308798841 l -19.307108076314158 48.66652468878289 a73.35642317380352,73.35642317380352 0 0,0 -1.1665262029484689,-0.47441605136974796 l 20.139688740453067 -48.32792138083386" fill="#3dffb0" stroke="none" /><path d="M 91.26138138417905 119.09545874513695 l -21.943740766690304 47.951033789904 a73.73356995649186,73.73356995649186 0 0,0 -1.1464210836828872,-0.5365829533575853 l 22.76365056424468 -47.56727460497589" fill="#3effb5" stroke="none" /><path d="M 90.93487009805054 118.94263497670748 l -22.59017086282689 47.204768750634116 a73.3316922372338,73.3316922372338 0 0,0 -1.1308436635855443,-0.5531523031583216 l 23.397174775674507 -46.81002269737857" fill="#3dffb0" stroke="none" /><path d="M 90.6110303473126 118.78422872680471 l -23.35478942410688 46.725223601421916 a73.23689031371651,73.23689031371651 0 0,0 -1.1197319926705995,-0.5717431338639368 l 24.153448638491064 -46.31742251588515" fill="#3dffae" stroke="none" /><path d="M 89.97174638481275 118.45085714620012 l -25.138376992318488 46.25178227145699 a73.6418594000458,73.6418594000458 0 0,0 -1.1055249605169368,-0.613216059779429 l 25.92864614099153 -45.81343329624441" fill="#3effb4" stroke="none" /><line stroke="#e1ed5e" stroke-width="0.3" x1="58.13341422392154" x2="55.670673884152215" y1="173.97424548756322" y2="178.32567169271397" /><path d="M 57.64086615596767 174.84453072859336 a86.0,86.0 0 0,1 -31.369924170532244,-30.572349798747897" fill="none" id="id56" stroke="none" /><text fill="#e1ed5e" style="font-size:6.75px; font-family:Arial;" text-anchor="middle"><textPath startOffset="22.145653131862474" xlink:href="#id56">August</textPath></text><path d="M 89.34428304082925 118.09573695890944 l -26.180039328029014 44.45943028227593 a72.594916418594,72.594916418594 0 0,0 -1.0684147954970862,-0.6415523866455338 l 26.93938688008353 -44.00346389509448" fill="#3cffa6" stroke="none" /><path d="M 89.03521579738668 117.91015095944536 l -26.95821808720961 44.034223256714775 a72.63098236775818,72.63098236775818 0 0,0 -1.0577695128239213,-0.6601264082970364 l 27.710151728823245 -43.56496105157619" fill="#3cffa7" stroke="none" /><path d="M 87.83215693770417 117.11559508785305 l -30.617635132055188 43.06753816473081 a73.84176780398442,73.84176780398442 0 0,0 -1.026818972681935,-0.7433377502005487 l 31.352435115111074 -42.5355996431572" fill="#3effb6" stroke="none" /><path d="M 87.54013794807813 116.9041958592261 l -31.435585099035716 42.64840856576777 a73.98190977787957,73.98190977787957 0 0,0 -1.0158315504345201,-0.762298933457308 l 32.163069638381 -42.10249060504645" fill="#3effb8" stroke="none" /><path d="M 87.2517909369889 116.68781488649013 l -31.7714778849652 41.589884429561 a73.33684451568583,73.33684451568583 0 0,0 -0.9938541257617467,-0.7728269794652702 l 32.48074195536218 -41.03835639847494" fill="#3dffb0" stroke="none" /><path d="M 86.96720088162412 116.46651593811092 l -32.469230765064935 41.02381238557529 a73.31829631325851,73.31829631325851 0 0,0 -0.9801931051815225,-0.7895741813049385 l 33.168674640601715 -40.46038991047694" fill="#3dffaf" stroke="none" /><path d="M 86.68645165197938 116.24036423190432 l -33.268627512657424 40.58231616227524 a73.47595603389054,73.47595603389054 0 0,0 -0.9685728786749165,-0.8080179438787678 l 33.96037472549423 -40.005236034484604" fill="#3effb1" stroke="none" /><path d="M 86.40962598614128 116.0094264158162 l -33.90435761254498 39.93924801628341 a73.38939775589651,73.38939775589651 0 0,0 -0.9534349369358996,-0.8235543902884453 l 34.58497202924374 -39.351349493530236" fill="#3dffb0" stroke="none" /><path d="M 86.13680546590413 115.77377054828092 l -34.76592052671189 39.55723566739146 a73.6634989695443,73.6634989695443 0 0,0 -0.9426646866512921,-0.8429365755624932 l 35.43985024018655 -38.95460356194558" fill="#3effb4" stroke="none" /><path d="M 85.86807049272751 115.53346607816431 l -35.24083176876516 38.73584739894878 a73.36775818639799,73.36775818639799 0 0,0 -0.9243297410265175,-0.8555458088523666 l 35.90059128110564 -38.12518384396403" fill="#3dffb0" stroke="none" /><path d="M 85.60350026404147 115.28858382429668 l -35.56291944654505 37.76658805731673 a72.87520036638423,72.87520036638423 0 0,0 -0.9034009406403779,-0.8654376653774556 l 36.20599287305075 -37.1505382616337" fill="#3dffaa" stroke="none" /><path d="M 85.34317274990678 115.03919595460226 l -36.63032118331056 37.58593648924412 a73.48316922372337,73.48316922372337 0 0,0 -0.8958230978919263,-0.888166536225293 l 37.270136201332456 -36.951589942790164" fill="#3effb2" stroke="none" /><path d="M 85.08716467003676 114.78537596483092 l -37.398194668214444 37.07855389943803 a73.6634989695443,73.6634989695443 0 0,0 -0.882605172102433,-0.9056306598489502 l 38.02918664146769 -36.43110054752134" fill="#3effb4" stroke="none" /><path d="M 84.83555147118756 114.52719865689866 l -37.27912461210576 35.71255809048214 a72.62479963361574,72.62479963361574 0 0,0 -0.8547045502629353,-0.9076666135077482 l 37.886684996104954 -35.0673500170299" fill="#3cffa7" stroke="none" /><path d="M 84.58840730492382 114.26474011684316 l -38.05305699353292 35.22134145405953 a72.85149988550492,72.85149988550492 0 0,0 -0.8416162556829058,-0.9250836944632652 l 38.652070950057706 -34.56292018403859" fill="#3dffaa" stroke="none" /><path d="M 84.3458050057657 113.99807769240083 l -39.05380852645787 34.92215640209245 a73.3904282115869,73.3904282115869 0 0,0 -0.8317195202713743,-0.9463441374223291 l 39.64753911068784 -34.24659998685882" fill="#3dffb0" stroke="none" /><path d="M 83.42222388311158 112.89097897827486 l -27.610465355070154 21.470064860509265 a55.975727043737116,55.975727043737116 0 0,0 -0.5833417704608246,-0.7636131030556251 l 27.97495910288528 -20.99293084421277" fill="#8fff24" stroke="none" /><path d="M 83.20337586046588 112.60449989151573 l -41.259396991645666 30.96182069593104 a72.58461186168995,72.58461186168995 0 0,0 -0.7393191374527237,-1.0030284003061745 l 41.78481814868222 -30.248985986355983" fill="#3cffa6" stroke="none" /><line stroke="#e1ed5e" stroke-width="0.3" x1="26.387840678322732" x2="22.057713659400548" y1="142.50000000000003" y2="145.00000000000006" /><path d="M 25.521815274538298 143.00000000000003 a86.0,86.0 0 0,1 -11.493303480769221,-40.785679425670985" fill="none" id="id57" stroke="none" /><text fill="#e1ed5e" style="font-size:6.75px; font-family:Arial;" text-anchor="middle"><textPath startOffset="21.40746469413373" xlink:href="#id57">September</textPath></text><path d="M 80.9802524753101 108.90220220490708 l -47.69931677055396 22.325688728316063 a73.66555988092512,73.66555988092512 0 0,0 -0.5262370660613759,-1.1499229600138499 l 48.075538301470395 -21.503576786087525" fill="#3effb4" stroke="none" /><line stroke="#e1ed5e" stroke-width="0.3" x1="15.003131293944662" x2="10.003315487706104" y1="100.72959589197737" y2="100.7725132973878" /><path d="M 14.003168132696942 100.73817937305945 a86.0,86.0 0 0,1 10.791469493833615,-42.45332614584628" fill="none" id="id58" stroke="none" /><text fill="#e1ed5e" style="font-size:6.75px; font-family:Arial;" text-anchor="middle"><textPath startOffset="22.145653131862435" xlink:href="#id58">October</textPath></text><line stroke="#e1ed5e" stroke-width="0.3" x1="26.387840678322718" x2="22.05771365940052" y1="57.49999999999999" y2="54.99999999999999" /><path d="M 25.521815274538284 56.99999999999999 a86.0,86.0 0 0,1 29.574782752854787,-30.34633250058573" fill="none" id="id59" stroke="none" /><text fill="#e1ed5e" style="font-size:6.75px; font-family:Arial;" text-anchor="middle"><textPath startOffset="21.40746469413373" xlink:href="#id59">November</textPath></text><line stroke="#e1ed5e" stroke-width="0.3" x1="56.869717070023135" x2="54.33264160355391" y1="26.7553504044142" y2="22.446841604673864" /><path d="M 56.362301976729285 25.89364864446614 a86.0,86.0 0 0,1 42.16139366436587,-11.88097634709845" fill="none" id="id60" stroke="none" /><text fill="#e1ed5e" style="font-size:6.75px; font-family:Arial;" text-anchor="middle"><textPath startOffset="22.145653131862474" xlink:href="#id60">December</textPath></text></svg>