<?xml version="1.0" encoding="utf-8" ?>
<svg baseProfile="full" height="200mm" version="1.1" viewBox="0,0,200,200" width="200mm" xmlns="http://www.w3.org/2000/svg" xmlns:ev="http://www.w3.org/2001/xml-events" xmlns:xlink="http://www.w3.org/1999/xlink"><defs /><rect fill="#1a1a1a" height="200" width="200" x="0" y="0" /><text alignment-baseline="middle" fill="#e1ed5e" style="dominant-baseline: central; font-size:9.0px; font-family:Arial;" text-anchor="middle" x="100.0" y="100.0">2025</text><line stroke="#e1ed5e" stroke-width="0.3" x1="100.0" x2="100.0" y1="15.0" y2="10.0" /><path d="M 100.0 14.0 a86.0,86.0 0 0,1 42.46469731375804,11.215312516191453" fill="none" id="id61" stroke="none" /><text fill="#e1ed5e" style="font-size:6.75px; font-family:Arial;" text-anchor="middle"><textPath startOffset="22.20632615414155" xlink:href="#id61">January</textPath></text><path d="M 100.0 79.0 l 0.0 -35.857271184748974 a56.857271184748974,56.857271184748974 0 0,0 0.9787044589519608,0.008424018266224579 l -0.6172239796794324 35.85195854309131" fill="#9fff22" stroke="none" /><path d="M 100.36148047927253 79.00311137660856 l 0.613411579508777 -35.63051216808333 a56.635791995209104,56.635791995209104 0 0,0 0.9746031772243946,0.02517112470825574 l -1.2266413919280394 35.61467425123271" fill="#a2ff22" stroke="none" /><path d="M 100.72285384407766 79.0124445844662 l 1.2146166748225786 -35.26554500653872 a56.286455734105196,56.286455734105196 0 0,0 0.9680175952706748,0.0416848739314576 l -1.8214751024825848 35.239412406083076" fill="#a7ff21" stroke="none" /><path d="M 101.08401301168833 79.027996857942 l 1.8590911510300425 -35.96715633518999 a57.01517117476794,57.01517117476794 0 0,0 0.9796779786553372,0.05909685105700121 l -2.4779311785249916 35.92982621475269" fill="#9dff22" stroke="none" /><path d="M 101.44485096284872 79.0497635885617 l 2.571716460772649 -37.289706150831336 a58.37828126559536,58.37828126559536 0 0,0 1.0019097760135813,0.07776748153776684 l -3.213216426148571 37.2399134071051" fill="#8aff24" stroke="none" /><path d="M 101.80526077348638 79.07773832637324 l 3.0896704498015817 -35.808064178551014 a56.94111188741391,56.94111188741391 0 0,0 0.9757940668487269,0.09266340445012777 l -3.705589643740553 35.74957522958571" fill="#9eff22" stroke="none" /><path d="M 102.16513564639614 79.11191278185805 l 3.706309986970548 -35.75652472129085 a56.94809861263599,56.94809861263599 0 0,0 0.9741739615938317,0.109459795341012 l -4.321250652074105 35.68742897247924" fill="#9eff22" stroke="none" /><path d="M 102.52436894288641 79.15227682838746 l 4.345102692523244 -35.88441314856927 a57.14652160894301,57.14652160894301 0 0,0 0.9755326816101988,0.12665214004843353 l -4.962150102641289 35.8043026853567" fill="#9bff22" stroke="none" /><path d="M 102.88285421437855 79.19881850522331 l 7.829178687536783 -56.49129464203449 a78.03124064277871,78.03124064277871 0 0,0 1.328875816642565,0.1958417518874865 l -8.800423484608004 56.348158405986034" fill="#44ffe3" stroke="none" /><path d="M 103.2404852339499 79.25152402106235 l 5.539669720066804 -35.46990522093866 a56.89989020860365,56.89989020860365 0 0,0 0.9664061433958813,0.15946529414768496 l -6.149405069601561 35.369293663851344" fill="#9fff22" stroke="none" /><path d="M 103.59715602781102 79.31037775812273 l 6.292779089674011 -36.19393243171803 a57.736899890208605,57.736899890208605 0 0,0 0.9776915853976936,0.1786668879840859 l -6.914865796174605 36.08025006238321" fill="#93ff23" stroke="none" /><path d="M 103.95276090670814 79.375362276772 l 6.87422956766967 -35.86821915256262 a57.52101008084639,57.52101008084639 0 0,0 0.9708275301920031,0.19473886948529512 l -7.490623507328799 35.74457632700011" fill="#96ff23" stroke="none" /><path d="M 104.307194497241 79.44645832069477 l 7.675051737622879 -36.62465112293004 a58.420201616927834,58.420201616927834 0 0,0 0.9824532979731395,0.21472623825450604 l -8.304347759749545 36.48711138657966" fill="#89ff24" stroke="none" /><path d="M 104.66035177308747 79.52364482259891 l 7.945405937388781 -34.91001579368338 a56.802774728016765,56.802774728016765 0 0,0 0.9515176506723834,0.2251934856118454 l -8.54514727502369 34.76807639593067" fill="#a0ff22" stroke="none" /><path d="M 105.01212808612495 79.60689891045804 l 9.161470441218514 -37.27574188573162 a59.38506837009682,59.38506837009682 0 0,0 0.9905743616608087,0.25251946084555144 l -9.801753691564347 37.1125194287172" fill="#7cff26" stroke="none" /><path d="M 105.36241919743992 79.69619591428918 l 9.634049860656619 -36.47754002822585 a58.728316199221474,58.728316199221474 0 0,0 0.9751756105240887,0.26655233182833404 l -10.260523360404418 36.30630115557123" fill="#85ff25" stroke="none" /><path d="M 105.71112130821622 79.79150937346287 l 9.517395455542536 -33.67678367743347 a55.99580796486675,55.99580796486675 0 0,0 0.9252901490613903,0.27011756763754163 l -10.095675822327353 33.50796778087722" fill="#abff21" stroke="none" /><path d="M 106.0581310904928 79.89281104454417 l 10.895646621081918 -36.16310412063849 a58.768839205509536,58.768839205509536 0 0,0 0.9660887105977954,0.30016846506160905 l -11.516520704390432 35.97019552069436" fill="#85ff25" stroke="none" /><path d="M 106.40334571778207 80.00007090966166 l 10.905734791861528 -34.062493597614875 a56.765745084339756,56.765745084339756 0 0,0 0.9280312093172328,0.30595729884504697 l -11.490448823421179 33.86972257451059" fill="#a0ff22" stroke="none" /><path d="M 106.74666289553966 80.11325718540242 l 11.495386993687735 -33.8842785295933 a56.78111587982833,56.78111587982833 0 0,0 0.9228769847216206,0.3219736588047609 l -12.07694598247263 33.68138401761634" fill="#a0ff22" stroke="none" /><path d="M 107.08798089147638 80.2323363322302 l 5.351417319435522 -14.924563050627137 a36.85497554646172,36.85497554646172 0 0,0 0.5953266232656816,0.21926381951679716 l -5.60752626847378 14.830235963304014" fill="#ff1a02" stroke="none" /><path d="M 107.4271985657038 80.35727306442388 l 13.454059962966195 -35.58197935460334 a59.040622816648366,59.040622816648366 0 0,0 0.9475087541959656,0.3676186761963347 l -14.064551882161828 35.345117974516455" fill="#81ff25" stroke="none" /><path d="M 107.76421540070413 80.48803036053334 l 13.21004130074887 -33.19767825773315 a56.729414113184944,56.729414113184944 0 0,0 0.9042023796420564,0.36884685382566773 l -13.779527549979314 32.965370517723905" fill="#a1ff22" stroke="none" /><path d="M 108.09893153111575 80.62456947434976 l 14.67249288564547 -35.10165081056767 a59.04481485178162,59.04481485178162 0 0,0 0.9343595711195548,0.4000440061171956 l -15.274536214555338 34.843887276487685" fill="#81ff25" stroke="none" /><path d="M 108.43124777332544 80.76684994638697 l 14.234971246396704 -32.47245785576406 a56.455534484479486,56.455534484479486 0 0,0 0.8866687992617457,0.39782244445361176 l -14.791822164125229 32.222615080793915" fill="#a5ff21" stroke="none" /><path d="M 108.76106565485865 80.91482961587045 l 15.992143831846823 -34.83740470190865 a59.33266793093123,59.33266793093123 0 0,0 0.9245210347012524,0.43407502226588385 l -16.589443077847672 34.55696469700277" fill="#7dff26" stroke="none" /><path d="M 109.08828744355905 81.06846463323043 l 15.529641783983534 -32.349324830731106 a56.883820740592874,56.883820740592874 0 0,0 0.8790682986928726,0.4313549964168874 l -16.084181349686837 32.07721467417939" fill="#9fff22" stroke="none" /><path d="M 109.41281617654863 81.2277094730956 l 16.47094077271766 -32.848541779370414 a57.74668130551951,57.74668130551951 0 0,0 0.8847328136478748,0.45319451035935737 l -17.033934073954292 32.56015474369856" fill="#93ff23" stroke="none" /><path d="M 109.73455568895987 81.39251694778311 l 27.833697656615765 -53.203769537564376 a81.04461523106099,81.04461523106099 0 0,0 1.2305465246967084,0.6573153369680782 l -28.745389227840782 52.71677547409455" fill="#48f5ff" stroke="none" /><path d="M 110.05341064243156 81.56283822128135 l 17.58117655115713 -32.242490420693635 a57.72432378480887,57.72432378480887 0 0,0 0.8682725408679662,0.4831927289342894 l -18.133573181097134 31.935082294199166" fill="#93ff23" stroke="none" /><path d="M 110.36928655335952 81.73862282372117 l 25.511473910715743 -44.92832221474675 a72.66613434474498,72.66613434474498 0 0,0 1.0823906791499838,0.626990544847806 l -26.281061322331055 44.482527512508895" fill="#3bff9c" stroke="none" /><line stroke="#e1ed5e" stroke-width="0.3" x1="143.23703022742887" x2="145.7803849466894" y1="26.81831364943548" y2="22.513508569990506" /><path d="M 143.74570117128098 25.957352633546492 a86.0,86.0 0 0,1 28.547481713284135,27.462654790039103" fill="none" id="id62" stroke="none" /><text fill="#e1ed5e" style="font-size:6.75px; font-family:Arial;" text-anchor="middle"><textPath startOffset="19.985693538727396" xlink:href="#id62">February</textPath></text><path d="M 110.68208982089419 81.91981866633111 l 15.692795626024024 -26.561150047226377 a51.85058389060785,51.85058389060785 0 0,0 0.7645194124427078,0.4606143917306397 l -16.14767710468437 26.287089046037124" fill="#e9ff1a" stroke="none" /><path d="M 110.99172775467656 82.1063720568725 l 18.658912240970885 -30.37517312247377 a56.64836810060884,56.64836810060884 0 0,0 0.826475001685361,0.5175385702344107 l -19.17900639502851 30.049490210916417" fill="#a2ff22" stroke="none" /><path d="M 111.2981086023043 82.29822771554956 l 19.967622419503158 -31.28508651968899 a58.11418305220082,58.11418305220082 0 0,0 0.8385958921154855,0.5454460952942336 l -20.503185337402922 30.936741500235225" fill="#8eff24" stroke="none" /><path d="M 111.90073688211348 82.69761687909136 l 21.465433986322637 -31.208417291045038 a58.87783211897394,58.87783211897394 0 0,0 0.8300901266309395,0.5815311812702658 l -21.999455252537228 30.834301267010837" fill="#83ff25" stroke="none" /><path d="M 112.48926042617603 83.11751280151076 l 22.048695012615322 -29.804551958393553 a58.07366004591277,58.07366004591277 0 0,0 0.7985234620754968,0.6014313165077675 l -22.5584646284492 29.420604052379936" fill="#8eff24" stroke="none" /><path d="M 112.77801427241765 83.33499621200491 l 22.899415736227052 -29.865270287798374 a58.63399540872342,58.63399540872342 0 0,0 0.7956561834484576,0.621022271670772 l -23.41010447483494 29.466669626904377" fill="#86ff25" stroke="none" /><path d="M 113.06298171725822 83.55741782278167 l 23.577862765511384 -29.67782964687997 a58.903683002295644,58.903683002295644 0 0,0 0.7884583382847551,0.6375451426242126 l -24.085224502360628 29.267578406991632" fill="#83ff25" stroke="none" /><path d="M 113.34407831869373 83.78471172551755 l 23.446811333305778 -28.491799568827282 a57.89899191536082,57.89899191536082 0 0,0 0.7641080584289166,0.6399185243628502 l -23.933776928693813 28.083979887070612" fill="#91ff24" stroke="none" /><path d="M 113.6212207817346 84.01681056812373 l 24.361578519602997 -28.585963811736782 a58.55853877632498,58.55853877632498 0 0,0 0.7615571467618227,0.660414853163106 l -24.850029465011584 28.162383965154003" fill="#87ff25" stroke="none" /><path d="M 113.89432698308785 84.25364557470405 l 25.230936589277633 -28.59406364198283 a59.13424493462422,59.13424493462422 0 0,0 0.7574505782962571,0.6800466079710019 l -25.71939815516988 28.155518025242536" fill="#80ff26" stroke="none" /><path d="M 114.42810811169701 84.74124197986012 l 25.330433408062657 -26.788748110748283 a57.868250324383666,57.868250324383666 0 0,0 0.7178880415396695,0.6906077271792121 l -25.787804693214746 26.348757296806767" fill="#91ff24" stroke="none" /><path d="M 114.68862486808459 84.99185889309783 l 25.48334938187907 -26.037679281382747 a57.432977343048215,57.432977343048215 0 0,0 0.7005844135757258,0.6975758814588444 l -25.927769595622117 25.595167549273786" fill="#97ff23" stroke="none" /><path d="M 114.94478906791727 85.2469230424477 l 26.53536623670389 -26.194969926161992 a58.28675516518615,58.28675516518615 0 0,0 0.6987075822792737,0.7200795816692125 l -26.982338082686272 25.734326148942664" fill="#8bff24" stroke="none" /><path d="M 115.19652480421416 85.50635884689758 l 10.468750793361226 -9.984540496927124 a35.466713244834814,35.466713244834814 0 0,0 0.41754907125838875,0.44541223645138583 l -10.639067186590077 9.802858843597683" fill="#ff0000" stroke="none" /><path d="M 115.4437574822437 85.77008943001954 l 25.825916835679372 -23.796053996703872 a56.117376983730914,56.117376983730914 0 0,0 0.6484399236690295,0.7160235594540314 l -26.23170039996444 23.34797764998029" fill="#aaff21" stroke="none" /><path d="M 115.68641384162765 86.03803664274999 l 26.746282828278797 -23.80599062101028 a56.8062680906278,56.8062680906278 0 0,0 0.6438263812070287,0.7360048503630809 l -27.152101073063672 23.342070214444252" fill="#a0ff22" stroke="none" /><path d="M 115.92442197804982 86.31012108654704 l 16.186676656798014 -13.915333551712244 a42.34584289849286,42.34584289849286 0 0,0 0.4704207481504864,0.5568297874681265 l -16.42380801843562 13.634644814615012" fill="#ff7b0b" stroke="none" /><path d="M 116.15771136456269 86.58626213691792 l 28.090667976019677 -23.320187378492648 a57.509132647968855,57.509132647968855 0 0,0 0.6257582633066052,0.7671056403239844 l -28.487924731402693 22.833197568560564" fill="#96ff23" stroke="none" /><path d="M 116.38621287248628 86.86637796730983 l 27.60474727345853 -22.125326933002853 a56.37728316199221,56.37728316199221 0 0,0 0.6004071107799133,0.7624560583937661 l -27.981508464832405 21.64687848065605" fill="#a6ff21" stroke="none" /><path d="M 116.60985879189232 87.15038557335679 l 28.262235359275675 -21.864052654017822 a56.73220880327378,56.73220880327378 0 0,0 0.5908904299764505,0.7775425424513449 l -28.634401729476235 21.374325335685445" fill="#a1ff22" stroke="none" /><path d="M 116.82858285166822 87.43820079747576 l 28.867875431081373 -21.54860321662674 a57.02355524503443,57.02355524503443 0 0,0 0.5803840820599249,0.791643235680996 l -29.234522125654927 21.04849753727425" fill="#9dff22" stroke="none" /><path d="M 117.04232023915458 87.72973835380427 l 28.961795105824823 -20.852137426424193 a56.68749376185247,56.68749376185247 0 0,0 0.5633316458592725,0.7967926629097922 l -29.316439371487977 20.350518263182607" fill="#a2ff22" stroke="none" /><path d="M 117.2510076193507 88.02491185347247 l 30.477526253543623 -21.156506995272476 a58.100908274278865,58.100908274278865 0 0,0 0.563234449860392,0.8264770556893991 l -30.837185169072747 20.62875191631267" fill="#8eff24" stroke="none" /><path d="M 117.45458315368197 88.32363383020206 l 29.78202405551384 -19.92289446778079 a56.831420301427286,56.831420301427286 0 0,0 0.5369307145329099,0.8177823149325628 l -30.120551405404676 19.40729408887055" fill="#a0ff22" stroke="none" /><path d="M 117.65298651832404 88.62581576622439 l 31.433204859457117 -20.253063851737387 a58.39295338856173,58.39295338856173 0 0,0 0.5371384365888732,0.8496240126090358 l -31.777170892291945 19.708992191414143" fill="#8aff24" stroke="none" /><line stroke="#e1ed5e" stroke-width="0.3" x1="172.23445277983987" x2="176.4835382374775" y1="55.19839476539836" y2="52.563006222186495" /><path d="M 173.08426987136738 54.67131705675599 a86.0,86.0 0 0,1 12.851231095245387,41.99856678651699" fill="none" id="id63" stroke="none" /><text fill="#e1ed5e" style="font-size:6.75px; font-family:Arial;" text-anchor="middle"><textPath startOffset="22.20632615414155" xlink:href="#id63">March</textPath></text><path d="M 117.84615892207809 88.93136811851018 l 29.90331529931598 -18.54678032003703 a56.18794290847389,56.18794290847389 0 0,0 0.502706038061802,0.8263165489208271 l -30.21813713566401 18.029295997909124" fill="#a9ff21" stroke="none" /><path d="M 118.03404312379186 89.2402003453031 l 32.58871651424809 -19.44367429367076 a58.948398043716935,58.948398043716935 0 0,0 0.5124028461120386,0.8758625618284308 l -32.91857903483046 18.879832319488433" fill="#82ff25" stroke="none" /><path d="M 118.21658344932153 89.55222093294921 l 26.372439438858738 -15.12541698518309 a51.40203613135043,51.40203613135043 0 0,0 0.43359418679423795,0.771315676567431 l -26.628891266945406 14.669217798680865" fill="#efff19" stroke="none" /><path d="M 118.3937258080291 89.86733742301442 l 32.93821398979799 -18.144872427177436 a58.6053498353129,58.6053498353129 0 0,0 0.47914590043770006,0.8877845838603297 l -33.245667989454155 17.575206859984647" fill="#87ff25" stroke="none" /><path d="M 118.56541770881063 90.18545643968196 l 31.999202509320423 -16.916267215152438 a57.19542868549756,57.19542868549756 0 0,0 0.4526352720901419,0.8743472747646635 l -32.28564721457068 16.36294721812743" fill="#9aff22" stroke="none" /><path d="M 118.73160827565052 90.50648371742162 l 32.66642416025462 -16.555931828988637 a57.62231759656652,57.62231759656652 0 0,0 0.44078325487176423,0.8885921448626811 l -32.94656742807979 15.991180095627007" fill="#94ff23" stroke="none" /><path d="M 118.89224826269711 90.83032412892265 l 19.185779883906132 -9.312146464675942 a42.326280067871046,42.326280067871046 0 0,0 0.3124925195086858,0.658188941613615 l -19.343230597256575 8.980515107421786" fill="#ff7b0b" stroke="none" /><path d="M 119.04729006885535 91.15688171328212 l 33.89818146731911 -15.73796730855085 a58.37339055793991,58.37339055793991 0 0,0 0.41527853811189813,0.9150112114733505 l -34.16406232239436 15.152134088235437" fill="#8aff24" stroke="none" /><path d="M 119.196687751892 91.48605970444005 l 34.535133140634684 -15.316708041448345 a58.77931929334265,58.77931929334265 0 0,0 0.4022444881703187,0.9284357376294743 l -34.793668338647684 14.719973159232268" fill="#84ff25" stroke="none" /><path d="M 119.34039704204932 91.81776055985345 l 34.31750991261991 -14.518527333444315 a58.26230162690887,58.26230162690887 0 0,0 0.382806385552783,0.9269960265461973 l -34.562337985058896 13.925656736444814" fill="#8bff24" stroke="none" /><path d="M 119.47837535516314 92.15188598940014 l 16.47013706129923 -6.636052087014511 a38.75676215191137,38.75676215191137 0 0,0 0.2439949496277843,0.6209405330013323 l -16.581925560808713 6.351562549117395" fill="#ff3c05" stroke="none" /><path d="M 119.7369772167798 92.82701384747503 l 35.67982147423054 -12.967075076807289 a58.9630701666833,58.9630701666833 0 0,0 0.3384674502185096,0.9568930602847495 l -35.89774200525886 12.350984390095924" fill="#82ff25" stroke="none" /><path d="M 119.85752413597 93.16781622104841 l 36.16861351258653 -12.444180495807412 a59.249525900788505,59.249525900788505 0 0,0 0.3235100467868578,0.9672538627567291 l -36.37746085314516 11.819753530128368" fill="#7eff26" stroke="none" /><path d="M 119.97218684219823 93.5106431181261 l 35.82461594338341 -11.64012332998467 a58.668230362311604,58.668230362311604 0 0,0 0.30380230137738157,0.9631363168315918 l -36.01967372852899 11.02173684672666" fill="#86ff25" stroke="none" /><path d="M 120.08093135843002 93.85539295169968 l 36.537447352070366 -11.180171502960905 a59.20970156702265,59.20970156702265 0 0,0 0.2898289597555204,0.977159170601809 l -36.72448220893759 10.549582945612565" fill="#7eff26" stroke="none" /><path d="M 120.18372546131832 94.20196356495316 l 36.639871322683945 -10.525277373173006 a59.121668829224475,59.121668829224475 0 0,0 0.2725599851839623,0.9805432845822368 l -36.81561807843427 9.893022785171818" fill="#80ff26" stroke="none" /><path d="M 120.28053869075195 94.5502522615342 l 36.457333284716015 -9.796745177655252 a58.750673719932124,58.750673719932124 0 0,0 0.2540369847076528,0.9789081302865461 l -36.62056660129397 9.167740621819856" fill="#85ff25" stroke="none" /><path d="M 120.37134235888165 94.90015583598534 l 37.30713444936754 -9.339618791236193 a59.45842898492863,59.45842898492863 0 0,0 0.24000592980683177,0.994979526077826 l -37.46237317943519 8.69605403349896" fill="#7bff26" stroke="none" /><path d="M 120.45610955862082 95.25157060432595 l 36.447632541583644 -8.46050463638847 a58.41670825431679,58.41670825431679 0 0,0 0.21893918249900637,0.9814614254835134 l -36.58786611108469 7.831865041354992" fill="#89ff24" stroke="none" /><path d="M 120.53481517161879 95.60439243477599 l 37.76091324318936 -8.082963227783768 a59.616328974947606,59.616328974947606 0 0,0 0.20616094214875552,1.0053139704856906 l -37.89445348125311 7.431773601134666" fill="#79ff26" stroke="none" /><path d="M 120.6074358757038 95.95851677861258 l 36.799531330223424 -7.2170399715456925 a58.50054895698173,58.50054895698173 0 0,0 0.18529150784521314,0.9898346440423913 l -36.9183085619785 6.582527250040738" fill="#88ff25" stroke="none" /><path d="M 120.67395015179393 96.31383870115 l 35.29985679676005 -6.293957614475179 a56.85657251222677,56.85657251222677 0 0,0 0.16349821782637292,0.9649757367147003 l -35.40296687610664 5.685396089444641" fill="#9fff22" stroke="none" /><path d="M 120.73433829027371 96.67025291283417 l 36.86955380111984 -5.920916677238317 a58.34195029444056,58.34195029444056 0 0,0 0.1507003318443192,0.9929268961909562 l -36.96601002640346 5.285390668655279" fill="#8aff24" stroke="none" /><path d="M 120.78858239683441 97.02765380044208 l 37.388601231263095 -5.3458126511528645 a58.768839205509536,58.768839205509536 0 0,0 0.1345638533203616,1.0026570069278624 l -37.47508108364129 4.701437302160338" fill="#85ff25" stroke="none" /><path d="M 120.83666639777658 97.38593545837742 l 14.505320148620191 -1.819765328173497 a35.619023854676115,35.619023854676115 0 0,0 0.07108479600505818,0.6090111214179953 l -14.534495297628839 1.5698104684306489" fill="#ff0300" stroke="none" /><path d="M 120.91429891909075 98.10471618934814 l 23.101960888070405 -2.0935328807749456 a44.196626409821334,44.196626409821334 0 0,0 0.062139438485091694,0.7582585429441049 l -23.134574810374993 1.6955604206230719" fill="#ff9b0e" stroke="none" /><path d="M 120.94382443527127 98.46500227214037 l 37.825980951814905 -2.77231099766644 a58.9274378680507,58.9274378680507 0 0,0 0.06543585831937941,1.0122637656043685 l -37.8680974011387 2.1207881678090366" fill="#82ff25" stroke="none" /><path d="M 120.96714384426684 98.82574320788733 l 37.989476215687795 -2.127585941433403 a59.04900688691485,59.04900688691485 0 0,0 0.04810073548716811,1.0153305024669976 l -38.02047055940846 1.473344332343406" fill="#81ff25" stroke="none" /><path d="M 120.98425023603335 99.18683210126433 l 38.54338380513455 -1.4936079233921806 a59.572312606048506,59.572312606048506 0 0,0 0.030887692458975404,1.0250121395950178 l -38.56338319204917 0.8299256363721635" fill="#7aff26" stroke="none" /><line stroke="#e1ed5e" stroke-width="0.3" x1="184.98032266829074" x2="189.97916517819016" y1="98.17113171792111" y2="98.06355123074" /><path d="M 185.9800911702706 98.14961562048488 a86.0,86.0 0 0,1 -9.607161424134198,41.387399972396054" fill="none" id="id64" stroke="none" /><text fill="#e1ed5e" style="font-size:6.75px; font-family:Arial;" text-anchor="middle"><textPath startOffset="21.466115282336823" xlink:href="#id64">April</textPath></text><path d="M 120.99980553446 99.90962569577887 l 38.21843039378615 -0.16447600191317352 a59.218784309811355,59.218784309811355 0 0,0 -0.0043869915839576164,1.019382344776055 l -38.21559910491269 -0.49341582106656623" fill="#7eff26" stroke="none" /><path d="M 120.99824983174949 100.27111621757518 l 37.877469786665145 0.48905010761191714 a58.88062680906278,58.88062680906278 0 0,0 -0.021808086875636182,1.0133361038788993 l -37.8634396371045 -1.140976027280931" fill="#83ff25" stroke="none" /><path d="M 120.9904718944345 100.63252640178507 l 51.53444731602952 1.5529378611746838 a72.55784010380276,72.55784010380276 0 0,0 -0.04836452411317486,1.248073464429199 l -51.50008065906514 -2.439788572617889" fill="#3bff9a" stroke="none" /><path d="M 120.9764740272857 100.99374915477107 l 22.961272647693615 1.0877779199894462 a43.987024653159,43.987024653159 0 0,0 -0.04233991818288353,0.7560076815036237 l -22.939146378623203 -1.4828573178284932" fill="#ff970e" stroke="none" /><path d="M 120.89721153311464 102.0752229133903 l 36.54178863389469 3.6288265996234075 a57.721529094720026,57.721529094720026 0 0,0 -0.10669604349033826,0.9878728506226858 l -36.4739102889033 -4.257295772130885" fill="#93ff23" stroke="none" /><path d="M 120.76222939487914 103.15116336523771 l 61.31685852530984 9.306295320293287 a83.01906377882025,83.01906377882025 0 0,0 -0.2265955757319182,1.4110108663850225 l -61.14758119521663 -10.360385416371516" fill="#4bddff" stroke="none" /><path d="M 120.70491114924044 103.5080841355445 l 37.236739431192106 6.309112553847473 a58.76744186046512,58.76744186046512 0 0,0 -0.17757158384149516,0.9959157440721564 l -37.12262140501142 -6.949147048652847" fill="#85ff25" stroke="none" /><path d="M 120.5718875245553 104.21870165774334 l 36.724415906612876 7.531120033587323 a58.4886715241042,58.4886715241042 0 0,0 -0.2107429311715065,0.9845208144989461 l -36.58933893671693 -8.162154667502438" fill="#88ff25" stroke="none" /><path d="M 120.13307415673323 105.97154293290107 l 36.54189465170922 10.838458700518522 a59.115380776524596,59.115380776524596 0 0,0 -0.297753553298187,0.9730758400837706 l -36.349914325904905 -11.465861513154351" fill="#80ff26" stroke="none" /><path d="M 119.9155931802556 106.66101706037122 l 35.963624148941456 12.028479987549284 a58.921848487873035,58.921848487873035 0 0,0 -0.32998807809274294,0.9590998189329254 l -35.75124523990548 -12.64575250957151" fill="#82ff25" stroke="none" /><path d="M 119.54520255179757 107.68017299344265 l 58.635607655392704 23.040518980327946 a84.0,84.0 0 0,0 -0.5403895429704302,1.341202528628746 l -58.230315498164885 -24.046420876799505" fill="#4dd2ff" stroke="none" /><line stroke="#e1ed5e" stroke-width="0.3" x1="174.80103733775053" x2="179.2010983576182" y1="140.37084112569926" y2="142.7455964860345" /><path d="M 175.68104954172406 140.8457921977663 a86.0,86.0 0 0,1 -30.038265399797805,32.042727171017184" fill="none" id="id65" stroke="none" /><text fill="#e1ed5e" style="font-size:6.75px; font-family:Arial;" text-anchor="middle"><textPath startOffset="22.206326154141568" xlink:href="#id65">May</textPath></text><path d="M 118.48025628344425 109.97397251340804 l 33.30897575125901 17.977175397208004 a58.850583890607844,58.850583890607844 0 0,0 -0.4888061975273861,0.8873252318699831 l -32.994593144280124 -18.547871147475796" fill="#83ff25" stroke="none" /><path d="M 118.30583269289576 110.29060199501025 l 32.190663971221525 18.09594332256268 a57.928336161293544,57.928336161293544 0 0,0 -0.4961093154677351,0.8650084086966556 l -31.874402659601405 -18.64737157711765" fill="#90ff24" stroke="none" /><path d="M 117.94076556474637 110.91462005526583 l 31.91399382673899 19.41551021375712 a58.35592374488471,58.35592374488471 0 0,0 -0.529469855154309,0.8536739933808126 l -31.57505933191672 -19.961980538503205" fill="#8aff24" stroke="none" /><line stroke="#e1ed5e" stroke-width="0.3" x1="143.8653032363475" x2="146.44561519142675" y1="172.8068346515853" y2="177.08958963109032" /><path d="M 144.38136562736335 173.6633856474863 a86.0,86.0 0 0,1 -40.68145358897372,12.25698825130547" fill="none" id="id66" stroke="none" /><text fill="#e1ed5e" style="font-size:6.75px; font-family:Arial;" text-anchor="middle"><textPath startOffset="21.466115282336833" xlink:href="#id66">June</textPath></text><line stroke="#e1ed5e" stroke-width="0.3" x1="102.19456741930631" x2="102.32365962044197" y1="184.97166512339345" y2="189.96999836594603" /><path d="M 102.22038585953345 185.97133177190398 a86.0,86.0 0 0,1 -42.740103519485714,-10.115201625700543" fill="none" id="id67" stroke="none" /><text fill="#e1ed5e" style="font-size:6.75px; font-family:Arial;" text-anchor="middle"><textPath startOffset="22.20632615414155" xlink:href="#id67">July</textPath></text><line stroke="#e1ed5e" stroke-width="0.3" x1="58.666819895761336" x2="56.23545636021788" y1="174.27360380694188" y2="178.64263932499728" /><path d="M 58.180547188652646 175.14741091055294 a86.0,86.0 0 0,1 -31.652253787137756,-30.449443065178592" fill="none" id="id68" stroke="none" /><text fill="#e1ed5e" style="font-size:6.75px; font-family:Arial;" text-anchor="middle"><textPath startOffset="22.20632615414155" xlink:href="#id68">August</textPath></text><line stroke="#e1ed5e" stroke-width="0.3" x1="26.63291911575756" x2="22.317208475507996" y1="142.92168965132927" y2="145.44649492493687" /><path d="M 25.769776987707644 143.4266507060508 a86.0,86.0 0 0,1 -11.730757126820373,-40.83630448921669" fill="none" id="id69" stroke="none" /><text fill="#e1ed5e" style="font-size:6.75px; font-family:Arial;" text-anchor="middle"><textPath startOffset="21.46611528233685" xlink:href="#id69">September</textPath></text><line stroke="#e1ed5e" stroke-width="0.3" x1="15.007084014347285" x2="10.007500721073583" y1="101.09737516637583" y2="101.16192664675087" /><path d="M 14.007167355692545 101.11028546245083 a86.0,86.0 0 0,1 10.666146001902534,-42.60595125391555" fill="none" id="id70" stroke="none" /><text fill="#e1ed5e" style="font-size:6.75px; font-family:Arial;" text-anchor="middle"><textPath startOffset="22.20632615414155" xlink:href="#id70">October</textPath></text><line stroke="#e1ed5e" stroke-width="0.3" x1="26.266209847984257" x2="21.92892807433627" y1="57.711370442889674" y2="55.22380399835377" /><path d="M 25.39875349325466 57.213857153982495 a86.0,86.0 0 0,1 29.58750427330802,-30.492523968695096" fill="none" id="id71" stroke="none" /><text fill="#e1ed5e" style="font-size:6.75px; font-family:Arial;" text-anchor="middle"><textPath startOffset="21.46611528233685" xlink:href="#id71">November</textPath></text><line stroke="#e1ed5e" stroke-width="0.3" x1="56.762969772571076" x2="54.21961505331055" y1="26.818313649435495" y2="22.513508569990535" /><path d="M 56.25429882871897 25.957352633546506 a86.0,86.0 0 0,1 42.265352541879196,-11.944610805530505" fill="none" id="id72" stroke="none" /><text fill="#e1ed5e" style="font-size:6.75px; font-family:Arial;" text-anchor="middle"><textPath startOffset="22.20632615414155" xlink:href="#id72">December</textPath></text></svg>