<?xml version="1.0" encoding="utf-8" ?>
<svg baseProfile="full" height="200mm" version="1.1" viewBox="0,0,200,200" width="200mm" xmlns="http://www.w3.org/2000/svg" xmlns:ev="http://www.w3.org/2001/xml-events" xmlns:xlink="http://www.w3.org/1999/xlink"><defs /><rect fill="#1a1a1a" height="200" width="200" x="0" y="0" /><text alignment-baseline="middle" fill="#e1ed5e" style="dominant-baseline: central; font-size:9.0px; font-family:Arial;" text-anchor="middle" x="100.0" y="100.0">2023</text><line stroke="#e1ed5e" stroke-width="0.3" x1="100.0" x2="100.0" y1="15.0" y2="10.0" /><path d="M 100.0 14.0 a86.0,86.0 0 0,1 42.46469731375804,11.215312516191453" fill="none" id="id37" stroke="none" /><text fill="#e1ed5e" style="font-size:6.75px; font-family:Arial;" text-anchor="middle"><textPath startOffset="22.20632615414155" xlink:href="#id37">January</textPath></text><path d="M 106.0581310904928 79.89281104454417 l 9.29560733097775 -30.85250719533147 a53.22243808109044,53.22243808109044 0 0,0 0.874912577409072,0.27183959665719815 l -9.825305281097542 30.68792746379175" fill="#cbff1d" stroke="none" /><path d="M 107.4271985657038 80.35727306442388 l 11.178148008429655 -29.562870446056433 a52.605605545673015,52.605605545673015 0 0,0 0.8442368897275564,0.3275507972072695 l -11.68536806315688 29.366076944958618" fill="#d4ff1c" stroke="none" /><path d="M 108.09893153111575 80.62456947434976 l 12.367872726817303 -29.58820652426482 a53.069085442358634,53.069085442358634 0 0,0 0.8397961453194908,0.3595568822534177 l -12.875352629927109 29.370930114048612" fill="#cdff1d" stroke="none" /><path d="M 109.73455568895987 81.39251694778311 l 14.660025706489675 -28.02245819888239 a52.62553584088417,52.62553584088417 0 0,0 0.7990434658079912,0.42682134680699874 l -15.140214218825978 27.76595812557364" fill="#d4ff1c" stroke="none" /><line stroke="#e1ed5e" stroke-width="0.3" x1="143.23703022742887" x2="145.7803849466894" y1="26.81831364943548" y2="22.513508569990506" /><path d="M 143.74570117128098 25.957352633546492 a86.0,86.0 0 0,1 28.547481713284135,27.462654790039103" fill="none" id="id38" stroke="none" /><text fill="#e1ed5e" style="font-size:6.75px; font-family:Arial;" text-anchor="middle"><textPath startOffset="19.985693538727396" xlink:href="#id38">February</textPath></text><path d="M 113.6212207817346 84.01681056812373 l 12.088632476346023 -14.184844804869599 a39.63719016607396,39.63719016607396 0 0,0 0.5154839256462996,0.4470225806575131 l -12.331010200639087 13.974657230792413" fill="#ff5c08" stroke="none" /><path d="M 115.19652480421416 85.50635884689758 l 23.51630462732101 -22.42860686286083 a53.49706123842166,53.49706123842166 0 0,0 0.629820081746911,0.6718481502723502 l -23.898892031038383 22.020489295710423" fill="#c7ff1e" stroke="none" /><path d="M 115.4437574822437 85.77008943001954 l 23.243387385815538 -21.41650593929911 a52.60572390905045,52.60572390905045 0 0,0 0.607862545072769,0.6712170045284624 l -23.608593571504343 21.0132361475011" fill="#d4ff1c" stroke="none" /><path d="M 115.92442197804982 86.31012108654704 l 23.682300268419905 -20.359157997294375 a52.230540507048495,52.230540507048495 0 0,0 0.5802300358154998,0.6868093484312318 l -24.029240917722525 19.948489699234035" fill="#d9ff1c" stroke="none" /><path d="M 116.38621287248628 86.86637796730983 l 24.76534727143263 -19.849535283253 a52.73840696121596,52.73840696121596 0 0,0 0.56165378632623,0.7132432717993029 l -25.103355138352825 19.42029961750066" fill="#d2ff1c" stroke="none" /><path d="M 116.82858285166822 87.43820079747576 l 25.369012091892483 -18.936855151363634 a52.65740446629057,52.65740446629057 0 0,0 0.5359455267827679,0.731029096224006 l -25.69122023118888 18.497363611468135" fill="#d3ff1c" stroke="none" /><line stroke="#e1ed5e" stroke-width="0.3" x1="172.23445277983987" x2="176.4835382374775" y1="55.19839476539836" y2="52.563006222186495" /><path d="M 173.08426987136738 54.67131705675599 a86.0,86.0 0 0,1 12.851231095245387,41.99856678651699" fill="none" id="id39" stroke="none" /><text fill="#e1ed5e" style="font-size:6.75px; font-family:Arial;" text-anchor="middle"><textPath startOffset="22.20632615414155" xlink:href="#id39">March</textPath></text><path d="M 118.21658344932153 89.55222093294921 l 27.4356898424019 -15.735224270949693 a52.62774667891406,52.62774667891406 0 0,0 0.4439334847698649,0.7897081339762002 l -27.702480968464197 15.2606326270387" fill="#d3ff1c" stroke="none" /><path d="M 118.3937258080291 89.86733742301442 l 27.939544709488423 -15.391225358609582 a52.898400847268334,52.898400847268334 0 0,0 0.43248699951290814,0.8013327267056368 l -28.200339808219795 14.908011648571485" fill="#d0ff1d" stroke="none" /><path d="M 118.73160827565052 90.50648371742162 l 28.11822863119324 -14.250824457742645 a52.523337054973275,52.523337054973275 0 0,0 0.401778484959747,0.8099609088233762 l -28.359367129106396 13.764703960420318" fill="#d5ff1c" stroke="none" /><path d="M 118.89224826269711 90.83032412892265 l 28.394405635095886 -13.781710498682088 a52.562284702471224,52.562284702471224 0 0,0 0.3880643598130937,0.8173625105168182 l -28.627428188750734 13.29090557252473" fill="#d4ff1c" stroke="none" /><path d="M 119.04729006885535 91.15688171328212 l 28.60173152970267 -13.278975340207479 a52.53395364655415,52.53395364655415 0 0,0 0.3737357597881009,0.8234772061408041 l -28.826069606454116 12.784676125224612" fill="#d5ff1c" stroke="none" /><path d="M 119.34039704204932 91.81776055985345 l 28.659543107584273 -12.124841255410361 a52.11882366999727,52.11882366999727 0 0,0 0.34244130340295,0.8292487783907805 l -28.86400609787342 11.629717906566277" fill="#dbff1b" stroke="none" /><path d="M 119.47837535516314 92.15188598940014 l 29.189138003772648 -11.760718168110389 a52.46935444576209,52.46935444576209 0 0,0 0.33032319482252503,0.840636500750117 l -29.387254748476874 11.256532662464487" fill="#d6ff1c" stroke="none" /><path d="M 119.61058180528143 92.48833698450437 l 29.485232478445756 -11.294062180857015 a52.574273940235855,52.574273940235855 0 0,0 0.3164355709002091,0.8478900081447407 l -29.675272637847588 10.78484903568294" fill="#d4ff1c" stroke="none" /><path d="M 119.97218684219823 93.5106431181261 l 30.182394142362234 -9.80685433631819 a52.735647277764244,52.735647277764244 0 0,0 0.2730815453043327,0.8657431248763945 l -30.346731171434772 9.285861045015377" fill="#d2ff1c" stroke="none" /><path d="M 120.08093135843002 93.85539295169968 l 30.155326478656335 -9.227292714526541 a52.53548233139786,52.53548233139786 0 0,0 0.2571589417171456,0.8670121109123523 l -30.309691317485182 8.706851216867658" fill="#d5ff1c" stroke="none" /><path d="M 120.18372546131832 94.20196356495316 l 30.36795613270394 -8.723588539329118 a52.59610350472579,52.59610350472579 0 0,0 0.24247612551992057,0.8723156349953735 l -30.513619028790227 8.199561600914791" fill="#d4ff1c" stroke="none" /><path d="M 120.37134235888165 94.90015583598534 l 19.810561916989943 -4.9594561221521 a41.421913928289,41.421913928289 0 0,0 0.16720093578754838,0.6931558232063666 l -19.89299565303831 4.617715067286328" fill="#ff7a0b" stroke="none" /><path d="M 120.67395015179393 96.31383870115 l 18.642065142098573 -3.323876596049615 a39.93607003546441,39.93607003546441 0 0,0 0.11484118703046174,0.6777991866406446 l -18.69651819064926 3.0024916210931325" fill="#ff6108" stroke="none" /><line stroke="#e1ed5e" stroke-width="0.3" x1="184.98032266829074" x2="189.97916517819016" y1="98.17113171792111" y2="98.06355123074" /><path d="M 185.9800911702706 98.14961562048488 a86.0,86.0 0 0,1 -9.607161424134198,41.387399972396054" fill="none" id="id40" stroke="none" /><text fill="#e1ed5e" style="font-size:6.75px; font-family:Arial;" text-anchor="middle"><textPath startOffset="21.466115282336823" xlink:href="#id40">April</textPath></text><path d="M 120.92983693683757 101.71520430193887 l 25.121954238715432 2.058749149044579 a46.20617053086018,46.20617053086018 0 0,0 -0.07178547466950559,0.7921467311908685 l -25.082794167768853 -2.4908772687840184" fill="#ffc912" stroke="none" /><path d="M 120.89721153311464 102.0752229133903 l 31.39807468131841 3.1180238526924775 a52.552514423411765,52.552514423411765 0 0,0 -0.09714131715474382,0.8994079513322256 l -31.339751062662614 -3.6580281259094947" fill="#d5ff1c" stroke="none" /><path d="M 120.8583938346157 102.4346265915055 l 31.415497855776565 3.6668694182064328 a52.62877545616459,52.62877545616459 0 0,0 -0.1127721650339966,0.8989051128438832 l -31.34772418149572 -4.207092285337711" fill="#d3ff1c" stroke="none" /><path d="M 120.81339534386255 102.79330883721812 l 29.23710470048371 3.923831820098239 a50.49923299713845,50.49923299713845 0 0,0 -0.12304005615392133,0.8605418661686819 l -29.165230593313186 -4.42651915824733" fill="#f3ff19" stroke="none" /><path d="M 120.5718875245553 104.21870165774334 l 30.903644599613624 6.337447477635829 a52.54676671342122,52.54676671342122 0 0,0 -0.1893334102520692,0.88450266035985 l -30.789977150637114 -6.868463957411848" fill="#d5ff1c" stroke="none" /><path d="M 120.41448212921028 104.9243191809786 l 30.806364040635483 7.431017273979664 a52.68993662237814,52.68993662237814 0 0,0 -0.22026572790262464,0.8798520913039818 l -30.673886998437798 -7.960197204681042" fill="#d3ff1c" stroke="none" /><path d="M 119.9155931802556 106.66101706037122 l 26.518673146726034 8.86949902269912 a48.962618589405196,48.962618589405196 0 0,0 -0.27421204224492696,0.7969885505755214 l -26.362070273537874 -9.324660276363943" fill="#fff417" stroke="none" /><path d="M 119.79798401119884 107.00284435728193 l 18.795990748581403 6.648424287986692 a40.93717165833331,40.93717165833331 0 0,0 -0.24070226299374256,0.6623092502503293 l -18.678764224582434 -6.970981335243152" fill="#ff720a" stroke="none" /><path d="M 119.67450827220406 107.3425965602758 l 29.622876796882128 11.055363125977307 a52.61860027848286,52.61860027848286 0 0,0 -0.32399457218050154,0.8458475904877518 l -29.428187945108117 -11.563634283298203" fill="#d4ff1c" stroke="none" /><path d="M 119.54520255179757 107.68017299344265 l 29.54474787255981 11.609435824856021 a52.74383604772079,52.74383604772079 0 0,0 -0.3393121125754183,0.8421448366283705 l -29.340533145727 -12.116280029327205" fill="#d2ff1c" stroke="none" /><path d="M 119.26925614724726 108.34839909993367 l 28.86574925910022 12.506076689836789 a52.458439796997624,52.458439796997624 0 0,0 -0.3661072396827522,0.8254751759960028 l -28.646200934686195 -13.001100202325478" fill="#d6ff1c" stroke="none" /><path d="M 119.12269723197855 108.67885076344098 l 28.70494707751601 13.027762184176822 a52.522953133398886,52.522953133398886 0 0,0 -0.38072984121120124,0.8200582066521885 l -28.476442619464976 -13.519940458107842" fill="#d5ff1c" stroke="none" /><path d="M 118.97047184881838 109.00673069616215 l 28.563662501338587 13.56135039211724 a52.619504106613604,52.619504106613604 0 0,0 -0.39551511246560117,0.8148782793857755 l -28.325994132258273 -14.051017627468289" fill="#d4ff1c" stroke="none" /><path d="M 118.81262510543309 109.33194174019688 l 28.364357698151558 14.07004775005118 a52.662328267476,52.662328267476 0 0,0 -0.40981655893443303,0.8086069500846563 l -28.117962469430857 -14.55620891183853" fill="#d3ff1c" stroke="none" /><path d="M 118.64920377521936 109.65438752849418 l 28.12503595457934 14.559870739315114 a52.67029338973583,52.67029338973583 0 0,0 -0.4237387599645173,0.8015540437317907 l -27.87024468638993 -15.041839798133038" fill="#d3ff1c" stroke="none" /><line stroke="#e1ed5e" stroke-width="0.3" x1="174.80103733775053" x2="179.2010983576182" y1="140.37084112569926" y2="142.7455964860345" /><path d="M 175.68104954172406 140.8457921977663 a86.0,86.0 0 0,1 -30.038265399797805,32.042727171017184" fill="none" id="id41" stroke="none" /><text fill="#e1ed5e" style="font-size:6.75px; font-family:Arial;" text-anchor="middle"><textPath startOffset="22.206326154141568" xlink:href="#id41">May</textPath></text><path d="M 118.48025628344425 109.97397251340804 l 27.814224704707403 15.011605273842177 a52.60663520246345,52.60663520246345 0 0,0 -0.43694467612801957,0.793181506332942 l -27.551703619127874 -15.488157298572924" fill="#d4ff1c" stroke="none" /><path d="M 118.12598468904814 110.60418214915192 l 27.284907494691332 15.962395089701548 a52.611140978990164,52.611140978990164 0 0,0 -0.4640280695545558,0.7777377354181281 l -27.006098549438548 -16.42969491900578" fill="#d4ff1c" stroke="none" /><path d="M 117.75023020441432 111.22182372390056 l 11.398597190507209 7.206275462264659 a34.4854893848713,34.4854893848713 0 0,0 -0.321528147886678,0.49901882572382517 l -11.272864179243482 -7.401415887909939" fill="#ff0000" stroke="none" /><path d="M 117.55443506779137 111.5257021239791 l 26.369899860210804 17.31366515950132 a52.54575438775994,52.54575438775994 0 0,0 -0.5029301645614573,0.7518123575585769 l -26.067966590238623 -17.765014431265705" fill="#d5ff1c" stroke="none" /><path d="M 117.35343817320211 111.8261652097733 l 26.07126723817101 17.767263784238764 a52.54974861679331,52.54974861679331 0 0,0 -0.5158360718439791,0.7431003343634455 l -25.761570259164895 -18.21340538078923" fill="#d5ff1c" stroke="none" /><path d="M 116.93607887273984 112.41649034213515 l 25.46709388476207 18.670905328113992 a52.57808697034513,52.57808697034513 0 0,0 -0.5414009012410818,0.7252949816832422 l -25.141931716825894 -19.10651318930655" fill="#d4ff1c" stroke="none" /><path d="M 116.498646956653 112.99209946851258 l 24.768840439310043 19.504583591169503 a52.52656400201137,52.52656400201137 0 0,0 -0.565491202959956,0.7055372239399066 l -24.429431324295233 -19.928048648687657" fill="#d5ff1c" stroke="none" /><path d="M 116.27256486870786 113.27417163493432 l 24.49023231684811 19.977646411377993 a52.60502863582369,52.60502863582369 0 0,0 -0.5784148351298279,0.6967379302029575 l -24.14272148182474 -20.396245598694723" fill="#d4ff1c" stroke="none" /><path d="M 116.0416608686014 113.55231037782055 l 24.143471410858762 20.39687915348145 a52.606010361459425,52.606010361459425 0 0,0 -0.5903333515845304,0.6866910553248559 l -23.78879554970345 -20.809447307967837" fill="#d4ff1c" stroke="none" /><path d="M 115.80600337817218 113.82643327865902 l 23.844449212875276 20.858130813984342 a52.67995232506942,52.67995232506942 0 0,0 -0.6029123972513276,0.6773784697423068 l -23.48187796597561 -21.265483453467514" fill="#d3ff1c" stroke="none" /><path d="M 115.56566222782051 114.09645910891815 l 23.44873368047859 21.235467572461953 a52.635236592115035,52.635236592115035 0 0,0 -0.6139614413920758,0.6663338857737452 l -23.079725831090794 -21.63595271303703" fill="#d3ff1c" stroke="none" /><path d="M 115.07121518719521 114.62390073753431 l 22.63384977608625 21.962075938970642 a52.5376590005592,52.5376590005592 0 0,0 -0.6353538590870205,0.6436101048521975 l -22.252455291943697 -22.348426537803505" fill="#d5ff1c" stroke="none" /><path d="M 114.55890576462653 115.13401014063108 l 21.918408976060775 22.7842276798137 a52.61546588313148,52.61546588313148 0 0,0 -0.6581046402062694,0.6222790141355489 l -21.522968501463698 -23.15814133069517" fill="#d4ff1c" stroke="none" /><path d="M 114.29624159901734 115.38237550388516 l 42.88872479705202 46.14712651165547 a84.0,84.0 0 0,0 -1.0676018021325442,0.9752289336536681 l -42.088023445452606 -46.878548211895726" fill="#4dd2ff" stroke="none" /><path d="M 114.0293411484842 115.62618273729858 l 21.156092456023462 23.564112043901993 a52.66776948926747,52.66776948926747 0 0,0 -0.6798096035913833,0.5998529350621095 l -20.747340499525492 -23.92478812073639" fill="#d3ff1c" stroke="none" /><path d="M 113.75828350139079 115.86535959552629 l 20.717608730630758 23.890502942292557 a52.62238830877891,52.62238830877891 0 0,0 -0.6894397966054022,0.5875555517440861 l -20.303303457448308 -24.24358288425959" fill="#d4ff1c" stroke="none" /><path d="M 113.48314897796784 116.09983520530334 l 20.27107890487347 24.20510448526932 a52.572198578977854,52.572198578977854 0 0,0 -0.6987843348320505,0.5750519345714725 l -19.85142444149673 -24.55045153869797" fill="#d4ff1c" stroke="none" /><path d="M 113.20401910651253 116.32954008644616 l 21.98539280363918 27.189551166751812 a55.96611487397083,55.96611487397083 0 0,0 -0.7543233084189264,0.5992800571452058 l -21.514112002502902 -27.56396513790214" fill="#a4ff21" stroke="none" /><path d="M 112.92097659922987 116.55440617244103 l 19.41540294993413 24.875090823550927 a52.55515829762574,52.55515829762574 0 0,0 -0.7179316707174099,0.5504793909291638 l -18.984342550723227 -25.20560955630746" fill="#d5ff1c" stroke="none" /><path d="M 112.63410532772338 116.77436683061366 l 18.96509166355193 25.180050054083154 a52.52316009750704,52.52316009750704 0 0,0 -0.7268580821641663,0.5377122324624931 l -18.5288486109692 -25.502772235285416" fill="#d5ff1c" stroke="none" /><path d="M 112.34349029814194 116.9893568818739 l 18.556601973173898 25.540971461256248 a52.57037693749486,52.57037693749486 0 0,0 -0.7366678713041898,0.525592966430446 l -18.114206774020822 -25.856608689530916" fill="#d4ff1c" stroke="none" /><path d="M 111.7513745106137 117.40417183066458 l 17.698978472709783 26.212768752119995 a52.62851695273686,52.62851695273686 0 0,0 -0.755157320269159,0.5004770944043165 l -17.24514645370066 -26.51354386761563" fill="#d3ff1c" stroke="none" /><path d="M 111.45004920935366 117.60387380957326 l 17.193678586420344 26.434414614606798 a52.53412214332384,52.53412214332384 0 0,0 -0.7622906205028613,0.4865299405373453 l -16.736106163870552 -26.72645898396795" fill="#d5ff1c" stroke="none" /><path d="M 111.1453310114006 117.79835938074945 l 16.841657097398137 26.89501687121023 a52.733000902672664,52.733000902672664 0 0,0 -0.7734695775243581,0.4751281880731055 l -16.376208319941473 -27.180933526111716" fill="#d2ff1c" stroke="none" /><line stroke="#e1ed5e" stroke-width="0.3" x1="143.8653032363475" x2="146.44561519142675" y1="172.8068346515853" y2="177.08958963109032" /><path d="M 144.38136562736335 173.6633856474863 a86.0,86.0 0 0,1 -40.68145358897372,12.25698825130547" fill="none" id="id42" stroke="none" /><text fill="#e1ed5e" style="font-size:6.75px; font-family:Arial;" text-anchor="middle"><textPath startOffset="21.466115282336833" xlink:href="#id42">June</textPath></text><path d="M 110.8373102113329 117.98757091392108 l 16.341838149033133 27.123886539868693 a52.66640009721447,52.66640009721447 0 0,0 -0.7805464679774802,0.46116061152497173 l -15.872523810027271 -27.401165723687413" fill="#d3ff1c" stroke="none" /><path d="M 110.5260780823613 118.17145234162733 l 15.711270653936204 27.122790053478766 a52.34469278596177,52.34469278596177 0 0,0 -0.7835532724951475,0.44492199760699647 l -15.242068614519857 -27.389215216880395" fill="#d8ff1c" stroke="none" /><path d="M 110.21172684928248 118.3499491758327 l 15.320176627132431 27.529571307757106 a52.50531872994492,52.50531872994492 0 0,0 -0.7935233533547758,0.4326922018357039 l -14.844030461909007 -27.78920416135258" fill="#d5ff1c" stroke="none" /><path d="M 109.89434966115114 118.52300852407294 l 14.849462673223002 27.799373692440486 a52.516848182764015,52.516848182764015 0 0,0 -0.8010297258844853,0.4190608935798981 l -14.36874204481202 -28.0508640049651" fill="#d5ff1c" stroke="none" /><path d="M 109.57404056367764 118.69057910512821 l 14.413358847247464 28.13796556566887 a52.61471207261413,52.61471207261413 0 0,0 -0.8096304097458068,0.4059654950981465 l -13.926874529818896 -28.38189890167632" fill="#d4ff1c" stroke="none" /><path d="M 109.2508944713604 118.85261126421891 l 14.217776609141724 28.974734960330412 a53.27507455806804,53.27507455806804 0 0,0 -0.8267462814198797,0.3968884563703255 l -13.716917659721611 -29.215177693200296" fill="#caff1d" stroke="none" /><path d="M 108.92500713936063 119.00905698771935 l 13.424742799935492 28.59288479490564 a52.58760484967428,52.58760484967428 0 0,0 -0.8227005342406888,0.37766146435682935 l -12.930574269927384 -28.81973332959654" fill="#d4ff1c" stroke="none" /><path d="M 108.59647513512805 119.15986991738527 l 13.06151578759006 29.11157648690994 a52.90747687020508,52.90747687020508 0 0,0 -0.8341224641784759,0.36565477569621563 l -12.558472648753831 -29.33209581590061" fill="#cfff1d" stroke="none" /><path d="M 108.2653958097858 119.30500536409082 l 12.48109957323092 29.151380013248115 a52.71089407811938,52.71089407811938 0 0,0 -0.8371708366885274,0.3499374776323697 l -11.97745727704493 -29.36190253390046" fill="#d2ff1c" stroke="none" /><path d="M 107.93186726928326 119.44442032107085 l 8.966445124457115 21.98061589620055 a44.7390946193448,44.7390946193448 0 0,0 -0.7155675695050792,0.2847391035376617 l -8.58675647891017 -22.13170184414428" fill="#ffb110" stroke="none" /><path d="M 107.2578585660854 119.70592522655815 l 10.897775800797678 29.588721399147044 a52.531792708959536,52.531792708959536 0 0,0 -0.8512162620910688,0.3052158667618689 l -10.386839978076875 -29.771924806948874" fill="#d5ff1c" stroke="none" /><path d="M 106.91757812671514 119.82793768551818 l 10.406472653713987 29.82819818211023 a52.59139249675046,52.59139249675046 0 0,0 -0.8573154970769382,0.2908479637829077 l -9.891487423699822 -30.002909132791263" fill="#d4ff1c" stroke="none" /><path d="M 106.57524785965236 119.94407469862006 l 9.861090689730148 29.910709607263826 a52.49431153083279,52.49431153083279 0 0,0 -0.8606033792482024,0.2755380250762971 l -9.344765965391005 -30.07602047899983" fill="#d5ff1c" stroke="none" /><path d="M 106.2309692047433 120.05430185196036 l 9.361805905141791 30.1308633267291 a52.55174059571954,52.55174059571954 0 0,0 -0.8661653598525235,0.2609685176607747 l -8.841765570849022 -30.2875472134956" fill="#d5ff1c" stroke="none" /><path d="M 105.53697534728816 120.25689768951611 l 8.32869902656008 30.47035492950692 a52.588126835967174,52.588126835967174 0 0,0 -0.8752406154196045,0.23115900147048168 l -7.802967968328979 -30.609205280280985" fill="#d4ff1c" stroke="none" /><line stroke="#e1ed5e" stroke-width="0.3" x1="102.19456741930631" x2="102.32365962044197" y1="184.97166512339345" y2="189.96999836594603" /><path d="M 102.22038585953345 185.97133177190398 a86.0,86.0 0 0,1 -42.740103519485714,-10.115201625700543" fill="none" id="id43" stroke="none" /><text fill="#e1ed5e" style="font-size:6.75px; font-family:Arial;" text-anchor="middle"><textPath startOffset="22.20632615414155" xlink:href="#id43">July</textPath></text><line stroke="#e1ed5e" stroke-width="0.3" x1="58.666819895761336" x2="56.23545636021788" y1="174.27360380694188" y2="178.64263932499728" /><path d="M 58.180547188652646 175.14741091055294 a86.0,86.0 0 0,1 -31.652253787137756,-30.449443065178592" fill="none" id="id44" stroke="none" /><text fill="#e1ed5e" style="font-size:6.75px; font-family:Arial;" text-anchor="middle"><textPath startOffset="22.20632615414155" xlink:href="#id44">August</textPath></text><line stroke="#e1ed5e" stroke-width="0.3" x1="26.63291911575756" x2="22.317208475507996" y1="142.92168965132927" y2="145.44649492493687" /><path d="M 25.769776987707644 143.4266507060508 a86.0,86.0 0 0,1 -11.730757126820373,-40.83630448921669" fill="none" id="id45" stroke="none" /><text fill="#e1ed5e" style="font-size:6.75px; font-family:Arial;" text-anchor="middle"><textPath startOffset="21.46611528233685" xlink:href="#id45">September</textPath></text><line stroke="#e1ed5e" stroke-width="0.3" x1="15.007084014347285" x2="10.007500721073583" y1="101.09737516637583" y2="101.16192664675087" /><path d="M 14.007167355692545 101.11028546245083 a86.0,86.0 0 0,1 10.666146001902534,-42.60595125391555" fill="none" id="id46" stroke="none" /><text fill="#e1ed5e" style="font-size:6.75px; font-family:Arial;" text-anchor="middle"><textPath startOffset="22.20632615414155" xlink:href="#id46">October</textPath></text><line stroke="#e1ed5e" stroke-width="0.3" x1="26.266209847984257" x2="21.92892807433627" y1="57.711370442889674" y2="55.22380399835377" /><path d="M 25.39875349325466 57.213857153982495 a86.0,86.0 0 0,1 29.58750427330802,-30.492523968695096" fill="none" id="id47" stroke="none" /><text fill="#e1ed5e" style="font-size:6.75px; font-family:Arial;" text-anchor="middle"><textPath startOffset="21.46611528233685" xlink:href="#id47">November</textPath></text><line stroke="#e1ed5e" stroke-width="0.3" x1="56.762969772571076" x2="54.21961505331055" y1="26.818313649435495" y2="22.513508569990535" /><path d="M 56.25429882871897 25.957352633546506 a86.0,86.0 0 0,1 42.265352541879196,-11.944610805530505" fill="none" id="id48" stroke="none" /><text fill="#e1ed5e" style="font-size:6.75px; font-family:Arial;" text-anchor="middle"><textPath startOffset="22.20632615414155" xlink:href="#id48">December</textPath></text></svg>