<?xml version="1.0" encoding="utf-8" ?>
<svg baseProfile="full" height="200mm" version="1.1" viewBox="0,0,200,200" width="200mm" xmlns="http://www.w3.org/2000/svg" xmlns:ev="http://www.w3.org/2001/xml-events" xmlns:xlink="http://www.w3.org/1999/xlink"><defs /><rect fill="#1a1a1a" height="200" width="200" x="0" y="0" /><text alignment-baseline="middle" fill="#e1ed5e" style="dominant-baseline: central; font-size:9.0px; font-family:Arial;" text-anchor="middle" x="100.0" y="100.0">2021</text><line stroke="#e1ed5e" stroke-width="0.3" x1="100.0" x2="100.0" y1="15.0" y2="10.0" /><path d="M 100.0 14.0 a86.0,86.0 0 0,1 42.46469731375804,11.215312516191453" fill="none" id="id13" stroke="none" /><text fill="#e1ed5e" style="font-size:6.75px; font-family:Arial;" text-anchor="middle"><textPath startOffset="22.20632615414155" xlink:href="#id13">January</textPath></text><path d="M 102.88285421437855 79.19881850522331 l 4.2229557724649585 -30.470659608569257 a51.761899363294994,51.761899363294994 0 0,0 0.8815076592497382,0.12991131460716548 l -4.746832412143353 30.39345380980112" fill="#95ff23" stroke="none" /><line stroke="#e1ed5e" stroke-width="0.3" x1="143.23703022742887" x2="145.7803849466894" y1="26.81831364943548" y2="22.513508569990506" /><path d="M 143.74570117128098 25.957352633546492 a86.0,86.0 0 0,1 28.547481713284135,27.462654790039103" fill="none" id="id14" stroke="none" /><text fill="#e1ed5e" style="font-size:6.75px; font-family:Arial;" text-anchor="middle"><textPath startOffset="19.985693538727396" xlink:href="#id14">February</textPath></text><path d="M 116.15771136456269 86.58626213691792 l 23.543544713389494 -19.545276557284613 a51.599286484689635,51.599286484689635 0 0,0 0.5614530842634742,0.6882750943470636 l -23.876496289729378 19.137117293329446" fill="#96ff23" stroke="none" /><line stroke="#e1ed5e" stroke-width="0.3" x1="172.23445277983987" x2="176.4835382374775" y1="55.19839476539836" y2="52.563006222186495" /><path d="M 173.08426987136738 54.67131705675599 a86.0,86.0 0 0,1 12.851231095245387,41.99856678651699" fill="none" id="id15" stroke="none" /><text fill="#e1ed5e" style="font-size:6.75px; font-family:Arial;" text-anchor="middle"><textPath startOffset="22.20632615414155" xlink:href="#id15">March</textPath></text><path d="M 118.89224826269711 90.83032412892265 l 3.339662622412063 -1.6209623831133613 a24.712258810886542,24.712258810886542 0 0,0 0.18244920191856304,0.384284549588042 l -3.367070018172382 1.563235417884779" fill="#ff0000" stroke="none" /><line stroke="#e1ed5e" stroke-width="0.3" x1="184.98032266829074" x2="189.97916517819016" y1="98.17113171792111" y2="98.06355123074" /><path d="M 185.9800911702706 98.14961562048488 a86.0,86.0 0 0,1 -9.607161424134198,41.387399972396054" fill="none" id="id16" stroke="none" /><text fill="#e1ed5e" style="font-size:6.75px; font-family:Arial;" text-anchor="middle"><textPath startOffset="21.466115282336823" xlink:href="#id16">April</textPath></text><path d="M 120.95626037817324 101.35467743843564 l 30.43461078636331 1.9673873026887028 a51.498133492333636,51.498133492333636 0 0,0 -0.06479799567765643,0.8841171687743654 l -30.396236232021316 -2.4909776079598385" fill="#98ff23" stroke="none" /><path d="M 120.92983693683757 101.71520430193887 l 31.59297962351013 2.589050967040135 a52.69888872502406,52.69888872502406 0 0,0 -0.08187250097159011,0.9034562258960264 l -31.543732526261465 -3.132488581484732" fill="#8aff24" stroke="none" /><path d="M 120.89721153311464 102.0752229133903 l 31.645577527642157 3.142602422757026 a52.8012346780047,52.8012346780047 0 0,0 -0.09760106705252335,0.9036646643951994 l -31.58679415908858 -3.686863409037017" fill="#89ff24" stroke="none" /><path d="M 120.81339534386255 102.79330883721812 l 30.96845643740084 4.15619179919649 a52.24610734774656,52.24610734774656 0 0,0 -0.12729626967314145,0.8903098136089863 l -30.892326116711097 -4.688647084785886" fill="#8fff24" stroke="none" /><path d="M 120.64145759157962 103.86396538481128 l 30.922024904020656 5.788430072212969 a52.4591409111211,52.4591409111211 0 0,0 -0.1737898071059893,0.8861504822870757 l -30.817805163939003 -6.319844281567989" fill="#8dff24" stroke="none" /><path d="M 120.5718875245553 104.21870165774334 l 30.404257756345366 6.235037618499844 a52.036987350875336,52.036987350875336 0 0,0 -0.18749660332323706,0.8759217098928593 l -30.292427114297688 -6.757473147808873" fill="#91ff23" stroke="none" /><path d="M 120.23288151984713 105.62410040840565 l 44.03858432382572 12.241332003959988 a66.70828282136492,66.70828282136492 0 0,0 -0.31704656220270216,1.1036806756290167 l -43.821345124736915 -12.997570155093587" fill="#37ff74" stroke="none" /><path d="M 120.13307415673323 105.97154293290107 l 45.159776281667725 13.394553698397718 a68.1043465360633,68.1043465360633 0 0,0 -0.3430293590228666,1.1210397928326106 l -44.92252015013873 -14.169920463782386" fill="#38ff84" stroke="none" /><path d="M 120.02730092923936 106.31721596034902 l 29.49404652618822 9.303313617187918 a51.92653269845667,51.92653269845667 0 0,0 -0.27621886096551623,0.8501142410508756 l -29.329535414206457 -9.80962675821659" fill="#93ff23" stroke="none" /><path d="M 119.54520255179757 107.68017299344265 l 58.635607655392704 23.040518980327946 a84.0,84.0 0 0,0 -0.5403895429704302,1.341202528628746 l -58.230315498164885 -24.046420876799505" fill="#4dd2ff" stroke="none" /><path d="M 119.26925614724726 108.34839909993367 l 28.500880574777817 12.34799744834898 a52.06079900006084,52.06079900006084 0 0,0 -0.36333210616534045,0.8192179825280917 l -28.284107383881206 -12.83676376736976" fill="#91ff24" stroke="none" /><path d="M 119.12269723197855 108.67885076344098 l 27.06959911842839 12.285558262259121 a50.72706070649741,50.72706070649741 0 0,0 -0.3677117263159859,0.7920183453137641 l -26.854112775272572 -12.749696674851714" fill="#a0ff22" stroke="none" /><line stroke="#e1ed5e" stroke-width="0.3" x1="174.80103733775053" x2="179.2010983576182" y1="140.37084112569926" y2="142.7455964860345" /><path d="M 175.68104954172406 140.8457921977663 a86.0,86.0 0 0,1 -30.038265399797805,32.042727171017184" fill="none" id="id17" stroke="none" /><text fill="#e1ed5e" style="font-size:6.75px; font-family:Arial;" text-anchor="middle"><textPath startOffset="22.206326154141568" xlink:href="#id17">May</textPath></text><path d="M 114.55890576462653 115.13401014063108 l 20.04199915810725 20.83369611707184 a49.90890216096187,49.90890216096187 0 0,0 -0.6242514353609461,0.5902686959437886 l -19.680411888355493 -21.175599449761553" fill="#aaff21" stroke="none" /><path d="M 112.92097659922987 116.55440617244103 l 19.10593485283188 24.478599077164787 a52.0521908950275,52.0521908950275 0 0,0 -0.7110608660359965,0.5452111508855977 l -18.68174525830239 -24.80384956987776" fill="#91ff24" stroke="none" /><path d="M 112.63410532772338 116.77436683061366 l 18.574227870644794 24.661098179537493 a51.873478981342956,51.873478981342956 0 0,0 -0.7178672680311888,0.5310610431069255 l -18.14697563219504 -24.97716917138419" fill="#93ff23" stroke="none" /><path d="M 112.34349029814194 116.9893568818739 l 18.165349259631782 25.002458300001592 a51.9047380634058,51.9047380634058 0 0,0 -0.7273402841534351,0.5189379806611816 l -17.73228164762946 -25.311440542506993" fill="#93ff23" stroke="none" /><path d="M 112.04921762599082 117.19931262002967 l 17.622316254473464 25.154473573116817 a51.71308468573797,51.71308468573797 0 0,0 -0.7334469642171839,0.5044715099150571 l -17.186712405633397 -25.45408587239697" fill="#95ff23" stroke="none" /><path d="M 111.45004920935366 117.60387380957326 l 16.82174180885973 25.862580557162957 a51.85197028650979,51.85197028650979 0 0,0 -0.7523923307629223,0.48021238370394614 l -16.37406767604988 -26.14830736969071" fill="#94ff23" stroke="none" /><line stroke="#e1ed5e" stroke-width="0.3" x1="143.8653032363475" x2="146.44561519142675" y1="172.8068346515853" y2="177.08958963109032" /><path d="M 144.38136562736335 173.6633856474863 a86.0,86.0 0 0,1 -40.68145358897372,12.25698825130547" fill="none" id="id18" stroke="none" /><text fill="#e1ed5e" style="font-size:6.75px; font-family:Arial;" text-anchor="middle"><textPath startOffset="21.466115282336833" xlink:href="#id18">June</textPath></text><path d="M 108.59647513512805 119.15986991738527 l 12.501085884339096 27.862487310786666 a51.53842411506151,51.53842411506151 0 0,0 -0.8125384135817675,0.3561929622113956 l -12.019626796099574 -28.07354482629252" fill="#97ff23" stroke="none" /><path d="M 104.13013068566511 120.58985236759428 l 6.18057932520293 30.81191021238607 a52.42568013156226,52.42568013156226 0 0,0 -0.8863244892766359,0.16986619783993076 l -5.64928722135459 -30.913733608574468" fill="#8dff24" stroke="none" /><line stroke="#e1ed5e" stroke-width="0.3" x1="102.19456741930631" x2="102.32365962044197" y1="184.97166512339345" y2="189.96999836594603" /><path d="M 102.22038585953345 185.97133177190398 a86.0,86.0 0 0,1 -42.740103519485714,-10.115201625700543" fill="none" id="id19" stroke="none" /><text fill="#e1ed5e" style="font-size:6.75px; font-family:Arial;" text-anchor="middle"><textPath startOffset="22.20632615414155" xlink:href="#id19">July</textPath></text><path d="M 100.54218724476979 120.99299961872073 l 0.763893776888446 29.57727597182987 a50.58713888864811,50.58713888864811 0 0,0 -0.8706776746359833,0.014989505767472325 l -0.2546564123597947 -29.586042954876504" fill="#a2ff22" stroke="none" /><path d="M 100.18074693466247 120.99922214144158 l 0.26524163582480226 30.815836751233796 a51.81697823934181,51.81697823934181 0 0,0 -0.8919771409744942,0.0 l 0.265241635824781 -30.815836751233796" fill="#94ff23" stroke="none" /><path d="M 97.65516085044442 120.86867818915974 l -3.4357785388162996 30.57785719304804 a51.77027664299153,51.77027664299153 0 0,0 -0.8847110756291828,-0.10712619044112534 l 3.9616170374968718 -30.514185473881565" fill="#94ff23" stroke="none" /><path d="M 96.22490169976321 120.6578951692458 l -6.931920851011004 37.932494169148455 a59.56067479411068,59.56067479411068 0 0,0 -1.0069508785653634,-0.19298453244033653 l 7.583839344148062 -37.80755243835965" fill="#40ff2d" stroke="none" /><path d="M 94.11515582081647 120.15858648285463 l -1.3587799653569843 4.654512950352957 a25.848790962627582,25.848790962627582 0 0,0 -0.42604349679181974,-0.1283634106952797 l 1.4386984365890498 -4.630434170551951" fill="#ff1101" stroke="none" /><path d="M 93.76903079525671 120.05430185196036 l -9.362592206459247 30.13339402836622 a52.554390637330144,52.554390637330144 0 0,0 -0.8615883294373952,-0.2758533750231748 l 9.879901880987582 -29.967767806683337" fill="#8cff24" stroke="none" /><path d="M 90.42595943632237 118.69057910512821 l -14.057908240861819 27.444049801219197 a51.83505559586832,51.83505559586832 0 0,0 -0.7906304702572144,-0.41362049453488403 l 14.528229613645529 -27.1979998877396" fill="#94ff23" stroke="none" /><line stroke="#e1ed5e" stroke-width="0.3" x1="58.666819895761336" x2="56.23545636021788" y1="174.27360380694188" y2="178.64263932499728" /><path d="M 58.180547188652646 175.14741091055294 a86.0,86.0 0 0,1 -31.652253787137756,-30.449443065178592" fill="none" id="id20" stroke="none" /><text fill="#e1ed5e" style="font-size:6.75px; font-family:Arial;" text-anchor="middle"><textPath startOffset="22.20632615414155" xlink:href="#id20">August</textPath></text><path d="M 89.7882731507175 118.34994917583269 l -15.041619706030643 27.02901881352803 a51.93247777664928,51.93247777664928 0 0,0 -0.7773827821869859,-0.44141823217011744 l 15.504651255138835 -26.766097415563276" fill="#93ff23" stroke="none" /><path d="M 89.4739219176387 118.17145234162733 l -15.735825098646105 27.165179053287627 a52.39368000939612,52.39368000939612 0 0,0 -0.77650459876105,-0.45877260394819974 l 16.201097568435536 -26.89028787704568" fill="#8dff24" stroke="none" /><path d="M 88.8546689885994 117.79835938074946 l -16.706586027110045 26.679317270321693 a52.478500388228696,52.478500388228696 0 0,0 -0.7614835271228988,-0.48601481535594626 l 17.16335135627987 -26.387788026141944" fill="#8cff24" stroke="none" /><path d="M 84.19399662182784 113.82643327865904 l -22.151104283016064 19.376863213928885 a50.43015883355649,50.43015883355649 0 0,0 -0.5659164129839498,-0.6582886394856801 l 22.48136320557079 -18.992697475281673" fill="#a4ff21" stroke="none" /><path d="M 83.95833913139862 113.55231037782056 l -22.554103951290536 19.0541502868816 a50.52538311691636,50.52538311691636 0 0,0 -0.5555482413622652,-0.669193644951653 l 22.878748192546336 -18.663095384816188" fill="#a3ff22" stroke="none" /><path d="M 83.72743513129214 113.27417163493432 l -14.27987519173774 11.648656235199832 a39.428402740809275,39.428402740809275 0 0,0 -0.42447883885638116,-0.5296026180785218 l 14.47827194264898 -11.40112578354305" fill="#ffd213" stroke="none" /><path d="M 83.50135304334701 112.99209946851258 l -15.029589890544994 11.8352691188517 a40.13013767314854,40.13013767314854 0 0,0 -0.4226910894000392,-0.5463852123818075 l 15.231087797163102 -11.57480591235664" fill="#ffdb14" stroke="none" /><path d="M 83.28015986056508 112.70617746262583 l -15.569594035842734 11.832052411426023 a40.55529909532662,40.55529909532662 0 0,0 -0.4176012621512091,-0.5594451340744776 l 15.770956564689028 -11.56229439784224" fill="#ffe015" stroke="none" /><path d="M 83.06392112726016 112.41649034213515 l -15.77805815137086 11.56750084398077 a40.56410475343905,40.56410475343905 0 0,0 -0.4079980299104287,-0.5666735790294603 l 15.974835973656896 -11.294193659500168" fill="#ffe015" stroke="none" /><path d="M 82.85270091963577 112.12312394758628 l -16.60515959867736 11.73983185577829 a41.336051172720175,41.336051172720175 0 0,0 -0.40576076620210694,-0.5845286467821018 l 16.8047812720416 -11.452261946809177" fill="#ffea16" stroke="none" /><path d="M 82.64656182679789 111.8261652097733 l -50.18965048999692 34.203659965900535 a81.7362442975444,81.7362442975444 0 0,0 -0.7823205371045777,-1.169463056326994 l 50.77097413251223 -33.334659995367716" fill="#4ae8ff" stroke="none" /><line stroke="#e1ed5e" stroke-width="0.3" x1="26.63291911575756" x2="22.317208475507996" y1="142.92168965132927" y2="145.44649492493687" /><path d="M 25.769776987707644 143.4266507060508 a86.0,86.0 0 0,1 -11.730757126820373,-40.83630448921669" fill="none" id="id21" stroke="none" /><text fill="#e1ed5e" style="font-size:6.75px; font-family:Arial;" text-anchor="middle"><textPath startOffset="21.46611528233685" xlink:href="#id21">September</textPath></text><path d="M 81.87401531095188 110.60418214915194 l -16.893578264933396 9.883191680093791 a40.57218598876746,40.57218598876746 0 0,0 -0.3474679362768767,-0.6058396350582447 l 17.06119819736265 -9.590932199177239" fill="#ffe115" stroke="none" /><path d="M 81.51974371655577 109.97397251340807 l -16.995141544345213 9.172441768388 a40.3123930186499,40.3123930186499 0 0,0 -0.3243179851406435,-0.6134874054622562 l 17.15051203771074 -8.878539347839618" fill="#ffdd14" stroke="none" /><path d="M 79.76711848015287 105.62410040840567 l -18.836460317726278 5.23593953050747 a40.55063426256058,40.55063426256058 0 0,0 -0.1811491907491445,-0.6741235279305973 l 18.923797584817198 -4.910925069401334" fill="#ffe015" stroke="none" /><path d="M 79.67330655649465 105.27499134158121 l -18.91200052680362 4.907863608418971 a40.53844643580097,40.53844643580097 0 0,0 -0.16946747300566864,-0.6769383142435917 l 18.99367931410435 -4.581597454777987" fill="#ffe015" stroke="none" /><line stroke="#e1ed5e" stroke-width="0.3" x1="15.007084014347285" x2="10.007500721073583" y1="101.09737516637583" y2="101.16192664675087" /><path d="M 14.007167355692545 101.11028546245083 a86.0,86.0 0 0,1 10.666146001902534,-42.60595125391555" fill="none" id="id22" stroke="none" /><text fill="#e1ed5e" style="font-size:6.75px; font-family:Arial;" text-anchor="middle"><textPath startOffset="22.20632615414155" xlink:href="#id22">October</textPath></text><path d="M 79.00486145842228 99.54816195383935 l -17.61040444657422 -0.37899491453610307 a38.614482164320506,38.614482164320506 0 0,0 0.020021251440103135,-0.66440786417591 l 17.60127150067847 0.6820729261370075" fill="#ffc712" stroke="none" /><path d="M 79.71946130924805 94.55025226153421 l -29.54623105666909 -7.939606947161411 a51.59439700548927,51.59439700548927 0 0,0 0.23785810451346198,-0.8557021563774986 l 29.40518618158927 8.447020406957853" fill="#96ff23" stroke="none" /><path d="M 79.81627453868168 94.20196356495316 l -30.243507477080783 -8.687839051902799 a52.46662186997531,52.46662186997531 0 0,0 0.2568218727001623,-0.8658756817530848 l 30.089479707268914 9.207144120402422" fill="#8dff24" stroke="none" /><path d="M 80.02781315780177 93.51064311812611 l -30.04909015864265 -9.763541246421378 a52.59548317454262,52.59548317454262 0 0,0 0.2871781160082985,-0.8586260141442695 l 29.876574748862577 10.279340363487968" fill="#8bff24" stroke="none" /><path d="M 80.2630227832202 92.82701384747504 l -16.17062558607725 -5.876871221596443 a38.20542784124605,38.20542784124605 0 0,0 0.22995194159360324,-0.6161568785583368 l 16.06706905598202 6.154351237184121" fill="#ffc112" stroke="none" /><path d="M 80.52162464483688 92.15188598940014 l -13.564721314765897 -5.465418827760605 a35.624379211101726,35.624379211101726 0 0,0 0.23406627377495956,-0.5668100479163568 l 13.468633354104737 5.698103446130272" fill="#ff9e0e" stroke="none" /><path d="M 81.26839172434947 90.50648371742162 l -22.832339011854934 -11.57184044149389 a46.597327906554355,46.597327906554355 0 0,0 0.3687636351435384,-0.7123339679896974 l 22.629765943551284 11.963147131743924" fill="#d2ff1c" stroke="none" /><path d="M 81.6062741919709 89.86733742301443 l -39.999464583767924 -22.03474609317518 a66.66713481683303,66.66713481683303 0 0,0 0.5623606433204512,-1.0003768345802353 l 39.61424629915504 22.720006437690202" fill="#36ff73" stroke="none" /><line stroke="#e1ed5e" stroke-width="0.3" x1="26.266209847984257" x2="21.92892807433627" y1="57.711370442889674" y2="55.22380399835377" /><path d="M 25.39875349325466 57.213857153982495 a86.0,86.0 0 0,1 29.58750427330802,-30.492523968695096" fill="none" id="id23" stroke="none" /><text fill="#e1ed5e" style="font-size:6.75px; font-family:Arial;" text-anchor="middle"><textPath startOffset="21.46611528233685" xlink:href="#id23">November</textPath></text><path d="M 82.15384107792192 88.93136811851018 l -25.26172331840416 -15.667949463206048 a50.72607113961048,50.72607113961048 0 0,0 0.4666131950017551,-0.7380700170916203 l 24.988282527156443 16.100467128011882" fill="#a0ff22" stroke="none" /><path d="M 82.54541684631803 88.32363383020206 l -24.71950923325941 -16.53628956955938 a50.740595311148624,50.740595311148624 0 0,0 0.49188303822634705,-0.7217776634181995 l 24.43120172936432 16.959345256247992" fill="#a0ff22" stroke="none" /><path d="M 83.6137871275137 86.86637796730984 l -24.23663857739758 -19.42577292846794 a52.06083230371966,52.06083230371966 0 0,0 0.5664751754837141,-0.6944315843643243 l 23.898664909837475 19.840088682440346" fill="#91ff24" stroke="none" /><path d="M 83.84228863543731 86.58626213691792 l -21.562185504776902 -17.90040047073545 a49.024135682570424,49.024135682570424 0 0,0 0.5446100256052779,-0.6446464914718922 l 21.2508648656845 18.268905911836455" fill="#b4ff20" stroke="none" /><path d="M 84.31358615837235 86.03803664274997 l -22.969177773323345 -20.444113081236047 a51.74971361266472,51.74971361266472 0 0,0 0.5979712906862629,-0.6602948343862908 l 22.61386284202104 20.836460702891898" fill="#95ff23" stroke="none" /><path d="M 84.5562425177563 85.77008943001954 l -22.542133519051752 -20.770369154104515 a51.652178036618096,51.652178036618096 0 0,0 0.608100300097709,-0.6486790015769553 l 22.181265896983586 21.15531757255952" fill="#96ff23" stroke="none" /><path d="M 86.10567301691215 84.25364557470407 l -21.141695191116472 -23.959751777549627 a52.95373187588376,52.95373187588376 0 0,0 0.6886663123857085,-0.5972046398703524 l 20.72613508008399 24.32012141083966" fill="#87ff25" stroke="none" /><path d="M 86.93701828274178 83.55741782278169 l -18.310965395420617 -23.048302430112983 a50.4366387113448,50.4366387113448 0 0,0 0.6844190504723393,-0.5341999249687486 l 17.911513789788852 23.360080744304952" fill="#a4ff21" stroke="none" /><path d="M 87.51073957382395 83.11751280151077 l -17.551116289900875 -23.72490331472497 a50.511230410043424,50.511230410043424 0 0,0 0.703440281435732,-0.5110792803751248 l 17.14013069211136 24.023501829916764" fill="#a3ff22" stroke="none" /><line stroke="#e1ed5e" stroke-width="0.3" x1="56.762969772571076" x2="54.21961505331055" y1="26.818313649435495" y2="22.513508569990535" /><path d="M 56.25429882871897 25.957352633546506 a86.0,86.0 0 0,1 42.265352541879196,-11.944610805530505" fill="none" id="id24" stroke="none" /><text fill="#e1ed5e" style="font-size:6.75px; font-family:Arial;" text-anchor="middle"><textPath startOffset="22.20632615414155" xlink:href="#id24">December</textPath></text><path d="M 89.94658935756843 81.56283822128135 l -11.81427005061104 -21.666438979548413 a45.67815947114492,45.67815947114492 0 0,0 0.6935574958497411,-0.3704743948657844 l 11.439567508232992 21.86659210091595" fill="#ddff1b" stroke="none" /><path d="M 90.91171255644093 81.06846463323043 l -12.725988972397149 -26.509120866197904 a50.405514524052506,50.405514524052506 0 0,0 0.7854182201392393,-0.36876438566391223 l 12.2677925409583 26.724250234501824" fill="#a4ff21" stroke="none" /><path d="M 91.56875222667455 80.76684994638697 l -5.982112168044277 -13.646243599855687 a35.89985336765653,35.89985336765653 0 0,0 0.5681002079532651,-0.2432308611055682 l 5.746328202300704 13.747193988924042" fill="#ffa20f" stroke="none" /></svg>