<?xml version="1.0" encoding="utf-8" ?>
<svg baseProfile="full" height="200mm" version="1.1" viewBox="0,0,200,200" width="200mm" xmlns="http://www.w3.org/2000/svg" xmlns:ev="http://www.w3.org/2001/xml-events" xmlns:xlink="http://www.w3.org/1999/xlink"><defs /><rect fill="#1a1a1a" height="200" width="200" x="0" y="0" /><text alignment-baseline="middle" fill="#e1ed5e" style="dominant-baseline: central; font-size:9.0px; font-family:Arial;" text-anchor="middle" x="100.0" y="100.0">2025</text><line stroke="#e1ed5e" stroke-width="0.3" x1="100.0" x2="100.0" y1="15.0" y2="10.0" /><path d="M 100.0 14.0 a86.0,86.0 0 0,1 42.46469731375804,11.215312516191453" fill="none" id="id61" stroke="none" /><text fill="#e1ed5e" style="font-size:6.75px; font-family:Arial;" text-anchor="middle"><textPath startOffset="22.20632615414155" xlink:href="#id61">January</textPath></text><path d="M 100.0 79.0 l 0.0 -22.16416345053092 a43.16416345053092,43.16416345053092 0 0,0 0.7430001186426509,0.006395236594666362 l -0.38151963937012257 22.160879590544813" fill="#ffcf13" stroke="none" /><path d="M 100.36148047927253 79.00311137660856 l 0.3791631114546023 -22.023998743535678 a43.027262320142036,43.027262320142036 0 0,0 0.7404241220468003,0.019122970608528692 l -0.7582138686962704 22.01420898078479" fill="#ffcd13" stroke="none" /><path d="M 100.72285384407766 79.0124445844662 l 0.7507811280953856 -21.798404559837977 a42.811329937825185,42.811329937825185 0 0,0 0.7362716326024111,0.03170540528838025 l -1.1258935930871283 21.7822514280254" fill="#ffca12" stroke="none" /><path d="M 101.08401301168833 79.027996857942 l 1.14914489528671 -22.232085865000563 a43.26176488733814,43.26176488733814 0 0,0 0.7433565050252149,0.04484129440168137 l -1.5316634491515368 22.209011301218577" fill="#ffd013" stroke="none" /><path d="M 101.44485096284872 79.0497635885617 l 1.589634183016956 -23.049582827731285 a44.10433304313849,44.10433304313849 0 0,0 0.7569349676370373,0.05875272158259237 l -1.9861593400163344 23.01880484396023" fill="#ffdc14" stroke="none" /><path d="M 101.80526077348638 79.07773832637324 l 1.9097928703175813 -22.133747523935067 a43.21598722228696,43.21598722228696 0 0,0 0.7405879956804834,0.07032775388384156 l -2.290505993088309 22.09759422553605" fill="#ffcf13" stroke="none" /><path d="M 102.16513564639614 79.11191278185805 l 2.2909512529913236 -22.101889858331337 a43.2203058699333,43.2203058699333 0 0,0 0.7393415691892433,0.08307363986423105 l -2.6710595256902923 22.059180264996506" fill="#ffd013" stroke="none" /><path d="M 102.52436894288641 79.15227682838746 l 2.685802993491273 -22.180940491912065 a43.342955463089275,43.342955463089275 0 0,0 0.7398957693551378,0.0960597060130627 l -3.067213491354257 22.131422462734864" fill="#ffd113" stroke="none" /><path d="M 102.88285421437855 79.19881850522331 l 4.83938655621357 -34.918504576854055 a56.25225700751993,56.25225700751993 0 0,0 0.9579786679423165,0.14118115346148033 l -5.439734204584542 34.8300289392316" fill="#80ff25" stroke="none" /><path d="M 103.2404852339499 79.25152402106235 l 3.4241909961553327 -21.924724077332993 a43.190507201173574,43.190507201173574 0 0,0 0.7335615471765337,0.12104394068200557 l -3.801081749470742 21.86253387371136" fill="#ffcf13" stroke="none" /><path d="M 103.59715602781102 79.31037775812273 l 3.889704366598313 -22.37226112943225 a43.707881189204755,43.707881189204755 0 0,0 0.7401302760540931,0.13525407715521814 l -4.274229763755307 22.301991570926294" fill="#ffd714" stroke="none" /><path d="M 103.95276090670814 79.375362276772 l 4.249111622278339 -22.17093062884804 a43.574434976932935,43.574434976932935 0 0,0 0.7354401640150294,0.14752237823956446 l -4.6301181957604935 22.09450429453127" fill="#ffd513" stroke="none" /><path d="M 104.307194497241 79.44645832069477 l 4.744117318004597 -22.63849777147996 a44.13024492901651,44.13024492901651 0 0,0 0.7421389086461468,0.16220282067824915 l -5.133098950804271 22.55348145270584" fill="#ffdd14" stroke="none" /><path d="M 104.66035177308747 79.52364482259891 l 4.9112291610189525 -21.57864417861532 a43.13047799888949,43.13047799888949 0 0,0 0.7224895490473008,0.1709899335583751 l -5.281942397028778 21.490908332916078" fill="#ffce13" stroke="none" /><path d="M 105.01212808612495 79.60689891045804 l 5.662905223884963 -23.04095121010088 a44.72665016897566,44.72665016897566 0 0,0 0.7460641901469808,0.19018837388060603 l -6.058678302716969 22.940059840051404" fill="#ffe515" stroke="none" /><path d="M 105.36241919743992 79.69619591428918 l 5.955016897464805 -22.54756518679971 a44.32069729021998,44.32069729021998 0 0,0 0.7359390807703174,0.201159951034361 l -6.342253867458833 22.441718694939055" fill="#ffdf14" stroke="none" /><path d="M 105.71112130821622 79.79150937346287 l 5.88291025865084 -20.816356439088924 a42.63167419573756,42.63167419573756 0 0,0 0.7044575228927943,0.2056504684296001 l -6.240357999267062 20.71200764174062" fill="#ffc712" stroke="none" /><path d="M 106.0581310904928 79.89281104454417 l 6.734837443837548 -22.353205476196667 a44.345745446568735,44.345745446568735 0 0,0 0.7289904755334566,0.2265008892920495 l -7.118613292081723 22.233964452022096" fill="#ffe015" stroke="none" /><path d="M 106.40334571778207 80.00007090966166 l 6.741073162805792 -21.054772175505256 a43.10758916636391,43.10758916636391 0 0,0 0.7047417072633047,0.23234226066207747 l -7.1024976923115135 20.935616190583943" fill="#ffce13" stroke="none" /><path d="M 106.74666289553966 80.11325718540242 l 7.10555008334179 -20.944613544731993 a43.11709019118585,43.11709019118585 0 0,0 0.7007923245085065,0.2444926816030187 l -7.4650244119135705 20.81920000995677" fill="#ffce13" stroke="none" /><path d="M 107.08798089147638 80.2323363322302 l 3.307828070598376 -9.22519879378183 a30.80030710383263,30.80030710383263 0 0,0 0.4975242162501189,0.1832423676244996 l -3.4661346126210715 9.166893158351005" fill="#ff0e01" stroke="none" /><path d="M 107.4271985657038 80.35727306442388 l 8.316248678155352 -21.993999550202137 a44.51374084001124,44.51374084001124 0 0,0 0.7143752405678881,0.27716649485508615 l -8.693607083722908 21.847590351456503" fill="#ffe215" stroke="none" /><path d="M 107.76421540070413 80.48803036053334 l 8.165415406808563 -20.520210902035632 a43.08513219860295,43.08513219860295 0 0,0 0.6867280346566262,0.2801336080505038 l -8.517427311053575 20.37661640780155" fill="#ffce13" stroke="none" /><path d="M 108.09893153111575 80.62456947434976 l 9.069388712505141 -21.697097973249733 a44.516332028599045,44.516332028599045 0 0,0 0.7044523893667937,0.30160974925686695 l -9.44152485966225 21.537768696030074" fill="#ffe215" stroke="none" /><path d="M 108.43124777332544 80.76684994638697 l 8.798947019508203 -20.071936312369164 a42.91584121086654,42.91584121086654 0 0,0 0.6740196110659072,0.3024129522851932 l -9.143148749040892 19.91750302956744" fill="#ffcb12" stroke="none" /><path d="M 108.76106565485865 80.91482961587045 l 9.885093820642174 -21.53376167492103 a44.69426031162813,44.69426031162813 0 0,0 0.6964255144672544,0.3269811170890103 l -10.254297546409028 21.360415575192015" fill="#ffe515" stroke="none" /><path d="M 109.08828744355905 81.06846463323043 l 9.599211190805937 -19.995825096908085 a43.180574311587,43.180574311587 0 0,0 0.6673017652905345,0.32744207816831716 l -9.941984223106903 19.827627858604938" fill="#ffcf13" stroke="none" /><path d="M 109.41281617654863 81.2277094730956 l 10.181048680185118 -20.304402009799976 a43.71392729590963,43.71392729590963 0 0,0 0.669737983512693,0.34306580791961033 l -10.529047151286566 20.126143676567864" fill="#ffd714" stroke="none" /><path d="M 109.73455568895987 81.39251694778311 l 17.2046171922943 -32.88641341777581 a58.1148897373851,58.1148897373851 0 0,0 0.8823914506298216,0.4713429537753129 l -17.768153689452433 32.585391737498746" fill="#6aff28" stroke="none" /><path d="M 110.05341064243156 81.56283822128135 l 10.867309693611759 -19.929788411795844 a43.70010762344135,43.70010762344135 0 0,0 0.6573243477716495,0.36580028786495183 l -11.208758130455443 19.73977272637071" fill="#ffd614" stroke="none" /><path d="M 110.36928655335952 81.73862282372117 l 15.769199912277637 -27.771178459037486 a52.93596747989772,52.93596747989772 0 0,0 0.7885020760867203,0.4567512967568097 l -16.244898720829685 27.495623004890625" fill="#aaff21" stroke="none" /><line stroke="#e1ed5e" stroke-width="0.3" x1="143.23703022742887" x2="145.7803849466894" y1="26.81831364943548" y2="22.513508569990506" /><path d="M 143.74570117128098 25.957352633546492 a86.0,86.0 0 0,1 28.547481713284135,27.462654790039103" fill="none" id="id62" stroke="none" /><text fill="#e1ed5e" style="font-size:6.75px; font-family:Arial;" text-anchor="middle"><textPath startOffset="19.985693538727396" xlink:href="#id62">February</textPath></text><path d="M 110.68208982089419 81.91981866633111 l 9.700060148439544 -16.418027686702334 a40.069420547165805,40.069420547165805 0 0,0 0.5908101231467124,0.35595648857630646 l -9.981232337803894 16.24862458866741" fill="#ffa10e" stroke="none" /><path d="M 110.99172775467656 82.1063720568725 l 11.533481691542894 -18.775558755040702 a43.035035885905444,43.035035885905444 0 0,0 0.6278624177339895,0.39316738838481535 l -11.854963261649146 18.574247025332944" fill="#ffcd13" stroke="none" /><path d="M 111.2981086023043 82.29822771554956 l 12.342424071929605 -19.337996123958042 a43.94108816210695,43.94108816210695 0 0,0 0.6340761255256394,0.4124207500167766 l -12.673467223239525 19.12267644978174" fill="#ffda14" stroke="none" /><path d="M 111.90073688211348 82.69761687909136 l 13.268254155709178 -19.29060519712106 a44.41311634985159,44.41311634985159 0 0,0 0.6261590831066324,0.4386644529070519 l -13.598344378399462 19.059355901450072" fill="#ffe115" stroke="none" /><path d="M 112.48926042617603 83.11751280151076 l 13.628780550884885 -18.422845335108583 a43.9160400057582,43.9160400057582 0 0,0 0.6038535934934955,0.45481000742142574 l -13.943880298136763 18.18551873818131" fill="#ffda14" stroke="none" /><path d="M 112.77801427241765 83.33499621200491 l 14.154629633815215 -18.460376662309635 a44.262395546994426,44.262395546994426 0 0,0 0.600635321978553,0.4688053959238662 l -14.470297510953198 18.213992877162543" fill="#ffdf14" stroke="none" /><path d="M 113.06298171725822 83.55741782278167 l 14.573992578979341 -18.344515503182873 a44.42909534614304,44.42909534614304 0 0,0 0.5947079860311901,0.48087916553566906 l -14.887603963575023 18.090930240383077" fill="#ffe115" stroke="none" /><path d="M 113.34407831869373 83.78471172551755 l 14.49298682288414 -17.611404375686185 a43.80807381459977,43.80807381459977 0 0,0 0.5781465465740465,0.4841811061511779 l -14.793990906417303 17.359322112141186" fill="#ffd814" stroke="none" /><path d="M 113.6212207817346 84.01681056812373 l 15.05842442497633 -17.669609353423848 a44.215754152413986,44.215754152413986 0 0,0 0.5750284122159213,0.4986589726495744 l -15.360346635839015 17.4077853873546" fill="#ffde14" stroke="none" /><path d="M 113.89432698308785 84.25364557470405 l 15.595793659071921 -17.674616035627015 a44.57161071847216,44.57161071847216 0 0,0 0.5709177880198958,0.5125756271076256 l -15.897722434687807 17.403541399750093" fill="#ffe315" stroke="none" /><path d="M 114.42810811169701 84.74124197986012 l 15.657294818571678 -16.5587110269078 a43.789071764955885,43.789071764955885 0 0,0 0.5432279495918737,0.522584857108442 l -15.94000601177597 16.28674308303706" fill="#ffd814" stroke="none" /><path d="M 114.68862486808459 84.99185889309783 l 15.751815525973013 -16.094458959010986 a43.52002001658909,43.52002001658909 0 0,0 0.530870052583412,0.5285903278676765 l -16.02652137872375 15.820932780493191" fill="#ffd413" stroke="none" /><path d="M 114.94478906791727 85.2469230424477 l 16.402090149574832 -16.1916837462003 a44.04775875897148,44.04775875897148 0 0,0 0.5280188087341673,0.5441697965641982 l -16.67837322201211 15.906949754085984" fill="#ffdb14" stroke="none" /><path d="M 115.19652480421416 85.50635884689758 l 6.47096379731267 -6.17166282431615 a29.94219181650546,29.94219181650546 0 0,0 0.3525089651842254,0.37603198608172 l -6.576240084467359 6.059361421356376" fill="#ff0000" stroke="none" /><path d="M 115.4437574822437 85.77008943001954 l 15.963563960474394 -14.70886135041222 a42.706818664783825,42.706818664783825 0 0,0 0.4934800541936943,0.5449130012292203 l -16.214387655284124 14.431895561913452" fill="#ffc812" stroke="none" /><path d="M 115.68641384162765 86.03803664274999 l 16.53246230717737 -14.715003395191342 a43.132637322712654,43.132637322712654 0 0,0 0.4888532680072138,0.5588437921642975 l -16.783307438762428 14.428244046824096" fill="#ffce13" stroke="none" /><path d="M 115.92442197804982 86.31012108654704 l 10.005338813812365 -8.601371970547133 a34.194332289088905,34.194332289088905 0 0,0 0.3798654667590062,0.44964089690668413 l -10.151914894058491 8.427872124011342" fill="#ff4606" stroke="none" /><path d="M 116.15771136456269 86.58626213691792 l 17.363456166176565 -14.414717787385856 a43.56709327593417,43.56709327593417 0 0,0 0.47405459568565267,0.5811348814642678 l -17.609009253938627 14.113698736313488" fill="#ffd513" stroke="none" /><path d="M 116.38621287248628 86.86637796730983 l 17.063097953749544 -13.676148416672728 a42.86747235722757,42.86747235722757 0 0,0 0.45653025085452337,0.579747057212405 l -17.29598228519803 13.380408965507284" fill="#ffca12" stroke="none" /><path d="M 116.60985879189232 87.15038557335679 l 17.469505717623836 -13.514649071253858 a43.08685965766149,43.08685965766149 0 0,0 0.4487682317770326,0.5905263889977284 l -17.69954988962498 13.211937906375097" fill="#ffce13" stroke="none" /><path d="M 116.82858285166822 87.43820079747576 l 17.843865090218877 -13.319662875715151 a43.266947264513746,43.266947264513746 0 0,0 0.44036972727751267,0.6006638131090803 l -18.07049743001002 13.010536618934577" fill="#ffd013" stroke="none" /><path d="M 117.04232023915458 87.72973835380427 l 17.901918895024856 -12.889162140390985 a43.05922031272493,43.05922031272493 0 0,0 0.4279007562071427,0.6052352739376837 l -18.12113227103588 12.579100366121507" fill="#ffcd13" stroke="none" /><path d="M 117.2510076193507 88.02491185347247 l 18.8388254636259 -13.077299626887454 a43.932882731578914,43.932882731578914 0 0,0 0.42588857508543115,0.624938932047937 l -19.061138504380065 12.751082671569112" fill="#ffda14" stroke="none" /><path d="M 117.45458315368197 88.32363383020206 l 18.40892034569567 -12.314776746853635 a43.14818445423947,43.14818445423947 0 0,0 0.40765452256752327,0.6208858054395483 l -18.618171503621117 11.996072877436413" fill="#ffce13" stroke="none" /><path d="M 117.65298651832404 88.62581576622439 l 19.42955130883889 -12.518861663262104 a44.113402203195804,44.113402203195804 0 0,0 0.4057853305409661,0.6418549433578951 l -19.642164235625813 12.182559072190003" fill="#ffdc14" stroke="none" /><line stroke="#e1ed5e" stroke-width="0.3" x1="172.23445277983987" x2="176.4835382374775" y1="55.19839476539836" y2="52.563006222186495" /><path d="M 173.08426987136738 54.67131705675599 a86.0,86.0 0 0,1 12.851231095245387,41.99856678651699" fill="none" id="id63" stroke="none" /><text fill="#e1ed5e" style="font-size:6.75px; font-family:Arial;" text-anchor="middle"><textPath startOffset="22.20632615414155" xlink:href="#id63">March</textPath></text><path d="M 117.84615892207809 88.93136811851018 l 18.483893115901683 -11.464170499098975 a42.75043700601183,42.75043700601183 0 0,0 0.3824824633233144,0.6287006027112868 l -18.67849137751122 11.144302123180605" fill="#ffc912" stroke="none" /><path d="M 118.03404312379186 89.2402003453031 l 20.14379833153685 -12.018560277590234 a44.45673469107959,44.45673469107959 0 0,0 0.3864355629759982,0.6605436420541725 l -20.347693568983175 11.670037223182167" fill="#ffe115" stroke="none" /><path d="M 118.21658344932153 89.55222093294921 l 16.30138153292339 -9.349351003029529 a39.79216336827096,39.79216336827096 0 0,0 0.33566084176820776,0.5971031834624198 l -16.459900015984033 9.067364309632316" fill="#ff9d0e" stroke="none" /><path d="M 118.3937258080291 89.86733742301442 l 20.359830364028234 -11.21574244155099 a44.244689091644446,44.244689091644446 0 0,0 0.36173594141107096,0.6702417612664271 l -20.54987440465777 10.863619696952103" fill="#ffde14" stroke="none" /><path d="M 118.56541770881063 90.18545643968196 l 19.779406833525947 -10.456314692707728 a43.373185996613635,43.373185996613635 0 0,0 0.3432483031632821,0.6630464679708885 l -19.956464569849345 10.114295502476496" fill="#ffd213" stroke="none" /><path d="M 118.73160827565052 90.50648371742162 l 20.191831126853895 -10.233583510661125 a43.63705536780482,43.63705536780482 0 0,0 0.33380266709693235,0.6729258079525725 l -20.364993806904234 9.884498114209602" fill="#ffd614" stroke="none" /><path d="M 118.89224826269711 90.83032412892265 l 11.859150103247899 -5.756041368985902 a34.18224007567916,34.18224007567916 0 0,0 0.2523655352318096,0.5315461784337572 l -11.956473832321464 5.5510527749116045" fill="#ff4606" stroke="none" /><path d="M 119.04729006885535 91.15688171328212 l 20.953207254571478 -9.727981753229313 a44.10130998978606,44.10130998978606 0 0,0 0.3137444538740589,0.6912943157081545 l -21.117554025408882 9.365865428679097" fill="#ffdc14" stroke="none" /><path d="M 119.196687751892 91.48605970444005 l 21.346921012785728 -9.467592188083538 a44.352223418038236,44.352223418038236 0 0,0 0.3035155497288146,0.7005557355833043 l -21.506727272357224 9.098737307913632" fill="#ffe015" stroke="none" /><path d="M 119.34039704204932 91.81776055985345 l 21.212403336538166 -8.974219237751889 a44.0326434922093,44.0326434922093 0 0,0 0.28931189861888085,0.7005917105195715 l -21.363736922043245 8.607752956779015" fill="#ffdb14" stroke="none" /><path d="M 119.47837535516314 92.15188598940014 l 10.180551888581723 -4.101888912990805 a31.97584299316557,31.97584299316557 0 0,0 0.20130536626983442,0.512300199730796 l -10.249650804733257 3.926039708364225" fill="#ff2203" stroke="none" /><path d="M 119.7369772167798 92.82701384747503 l 22.05447790396728 -8.01523267057486 a44.465803851136904,44.465803851136904 0 0,0 0.25524836493189806,0.7216214997769543 l -22.189179349708986 7.634413544371292" fill="#ffe115" stroke="none" /><path d="M 119.85752413597 93.16781622104841 l 22.356610951839816 -7.6920200953355184 a44.64286840463672,44.64286840463672 0 0,0 0.2437558145269709,0.7287988596099558 l -22.485704060138556 7.306048132803249" fill="#ffe415" stroke="none" /><path d="M 119.97218684219823 93.5106431181261 l 22.143978531734007 -7.195014777919013 a44.28355692046148,44.28355692046148 0 0,0 0.2293139987780328,0.7269880418273947 l -22.264548014280248 6.8127765696652" fill="#ffdf14" stroke="none" /><path d="M 120.08093135843002 93.85539295169968 l 22.584595213728754 -6.910708495352227 a44.61825211305259,44.61825211305259 0 0,0 0.21840443801929213,0.7363511903389798 l -22.70020554885975 6.520927918266718" fill="#ffe415" stroke="none" /><path d="M 120.18372546131832 94.20196356495316 l 22.647905709785057 -6.505904112424567 a44.56383715270876,44.56383715270876 0 0,0 0.20544614241468692,0.7390990836460485 l -22.756538622766108 6.115093725359566" fill="#ffe315" stroke="none" /><path d="M 120.28053869075195 94.5502522615342 l 22.53507495675271 -6.055582430742957 a44.334516962688255,44.334516962688255 0 0,0 0.19170175071287032,0.7387050455623687 l -22.635973039335884 5.666780959631739" fill="#ffe015" stroke="none" /><path d="M 120.37134235888165 94.90015583598534 l 23.0603556401807 -5.773022614801025 a44.77199596926219,44.77199596926219 0 0,0 0.18072365357373046,0.7492162186516322 l -23.15631209401525 5.375221164489987" fill="#ffe615" stroke="none" /><path d="M 120.45610955862082 95.25157060432595 l 22.52907871528554 -5.229622931112667 a44.12808560519334,44.12808560519334 0 0,0 0.16538704895158587,0.7413977113085812 l -22.615760151239165 4.841047050254121" fill="#ffdd14" stroke="none" /><path d="M 120.53481517161879 95.60439243477599 l 23.340846235932705 -4.99625633033192 a44.86959740606942,44.86959740606942 0 0,0 0.1551648455066376,0.7566388923636291 l -23.42339037735434 4.593741781804879" fill="#ffe715" stroke="none" /><path d="M 120.6074358757038 95.95851677861258 l 22.746595051909978 -4.461010229534384 a44.17990937694938,44.17990937694938 0 0,0 0.13993308047313371,0.7475281113022574 l -22.82001385629297 4.068804040769565" fill="#ffdd14" stroke="none" /><path d="M 120.67395015179393 96.31383870115 l 21.819613427708237 -3.8904328385500406 a43.163731585766286,43.163731585766286 0 0,0 0.12412273334786561,0.7325793984041743 l -21.883348022576325 3.5142676518300284" fill="#ffcf13" stroke="none" /><path d="M 120.73433829027371 96.67025291283417 l 22.789877472431105 -3.6598480775386197 a44.08187607537754,44.08187607537754 0 0,0 0.1138658087251598,0.750233411274389 l -22.849499174595564 3.267015553872149" fill="#ffdc14" stroke="none" /><path d="M 120.78858239683441 97.02765380044208 l 23.110712039596 -3.3043637025692867 a44.345745446568735,44.345745446568735 0 0,0 0.10153908884922702,0.7565841524273813 l -23.164167127503063 2.906061208077241" fill="#ffe015" stroke="none" /><path d="M 120.83666639777658 97.38593545837742 l 8.966055587995747 -1.1248367441971252 a30.03633833519561,30.03633833519561 0 0,0 0.059943444604419895,0.5135588265259644 l -8.984089385603756 0.9703341793463081" fill="#ff0200" stroke="none" /><path d="M 120.91429891909075 98.10471618934814 l 14.279827221452008 -1.2940584552427539 a35.338342050603586,35.338342050603586 0 0,0 0.04968489476225359,0.6062815633230453 l -14.299986600033757 1.0480629747119399" fill="#ff5808" stroke="none" /><path d="M 120.94382443527127 98.46500227214037 l 23.38106600954286 -1.7136260528971314 a44.44377874814059,44.44377874814059 0 0,0 0.04935250733034078,0.7634614444635858 l -23.407099107877617 1.3109055441805104" fill="#ffe115" stroke="none" /><path d="M 120.96714384426684 98.82574320788733 l 23.482126007477326 -1.315107396712285 a44.518923217186845,44.518923217186845 0 0,0 0.03626467340838513,0.7654899389918877 l -23.50128428911921 0.9107063510973976" fill="#ffe215" stroke="none" /><path d="M 120.98425023603335 99.18683210126433 l 23.824508401433985 -0.9232317198513585 a44.84238992589749,44.84238992589749 0 0,0 0.02325036394534646,0.7715663876683452 l -23.836870459834977 0.5129951847580143" fill="#ffe715" stroke="none" /><line stroke="#e1ed5e" stroke-width="0.3" x1="184.98032266829074" x2="189.97916517819016" y1="98.17113171792111" y2="98.06355123074" /><path d="M 185.9800911702706 98.14961562048488 a86.0,86.0 0 0,1 -9.607161424134198,41.387399972396054" fill="none" id="id64" stroke="none" /><text fill="#e1ed5e" style="font-size:6.75px; font-family:Arial;" text-anchor="middle"><textPath startOffset="21.466115282336823" xlink:href="#id64">April</textPath></text><path d="M 120.99980553446 99.90962569577887 l 23.62364759175818 -0.10166621356406863 a44.623866354992835,44.623866354992835 0 0,0 -0.003305784278157983,0.7681478444397808 l -23.621897510190518 -0.3049911090793969" fill="#ffe415" stroke="none" /><path d="M 120.99824983174949 100.27111621757518 l 23.41289238432799 0.302292566123117 a44.41484380891013,44.41484380891013 0 0,0 -0.01645027957147084,0.7643798515538803 l -23.40422004207151 -0.7052622334671121" fill="#ffe115" stroke="none" /><path d="M 120.9904718944345 100.63252640178507 l 31.854568847700484 0.9599048518291354 a52.8690284413795,52.8690284413795 0 0,0 -0.03524064935278048,0.9094045714899957 l -31.8333260654965 -1.5080866703331373" fill="#abff21" stroke="none" /><path d="M 120.9764740272857 100.99374915477107 l 14.192864743487283 0.6723793200074607 a35.20878262121347,35.20878262121347 0 0,0 -0.03389037988487931,0.6051354991139882 l -14.179188012714874 -0.9165865354568723" fill="#ff5608" stroke="none" /><path d="M 120.89721153311464 102.0752229133903 l 22.58727865496006 2.2430570768557665 a43.69838016438281,43.69838016438281 0 0,0 -0.08077478791016318,0.7478742170836121 l -22.545321565548846 -2.63152761582417" fill="#ffd614" stroke="none" /><path d="M 120.76222939487914 103.15116336523771 l 37.901291139133896 5.752424648689435 a59.335339562239945,59.335339562239945 0 0,0 -0.16195226514689667,1.0084769096652348 l -37.796657119625706 -6.403980788047875" fill="#5bff2a" stroke="none" /><path d="M 120.70491114924044 103.5080841355445 l 23.016842940039513 3.899800437986143 a44.34488171703947,44.34488171703947 0 0,0 -0.13399240519019145,0.751500566859413 l -22.946304092510132 -4.2954197555787745" fill="#ffe015" stroke="none" /><path d="M 120.5718875245553 104.21870165774334 l 22.700164565942938 4.65514998422393 a44.17256767595062,44.17256767595062 0 0,0 -0.1591599902481141,0.7435424873501226 l -22.616670536970382 -5.045206290990221" fill="#ffdd14" stroke="none" /><path d="M 120.13307415673323 105.97154293290107 l 22.587344186889634 6.699488339544801 a44.55995036982705,44.55995036982705 0 0,0 -0.22444046512300728,0.7334844260603903 l -22.468676949260495 -7.087299738157248" fill="#ffe315" stroke="none" /><path d="M 119.9155931802556 106.66101706037122 l 22.22990254343806 7.435066520591085 a44.440323830023516,44.440323830023516 0 0,0 -0.24888521706013358,0.7233769413644328 l -22.098626495434697 -7.8166161650448185" fill="#ffe115" stroke="none" /><path d="M 119.54520255179757 107.68017299344265 l 36.243951342512744 14.241848634657158 a59.941677691785664,59.941677691785664 0 0,0 -0.3856173311041058,0.9570705915532407 l -35.99343139715125 -14.86361859405321" fill="#54ff2b" stroke="none" /><line stroke="#e1ed5e" stroke-width="0.3" x1="174.80103733775053" x2="179.2010983576182" y1="140.37084112569926" y2="142.7455964860345" /><path d="M 175.68104954172406 140.8457921977663 a86.0,86.0 0 0,1 -30.038265399797805,32.042727171017184" fill="none" id="id65" stroke="none" /><text fill="#e1ed5e" style="font-size:6.75px; font-family:Arial;" text-anchor="middle"><textPath startOffset="22.206326154141568" xlink:href="#id65">May</textPath></text><path d="M 118.48025628344425 109.97397251340804 l 20.589006316651314 11.112085240107508 a44.396273624030876,44.396273624030876 0 0,0 -0.36875035487984814,0.6693890048879094 l -20.394679552319957 -11.464844763393224" fill="#ffe015" stroke="none" /><path d="M 118.30583269289576 110.29060199501025 l 19.89775335002993 11.1854982920009 a43.82621213471439,43.82621213471439 0 0,0 -0.3753360366014591,0.6544300169833295 l -19.70226531727609 -11.526348154842546" fill="#ffd814" stroke="none" /><path d="M 117.94076556474637 110.91462005526583 l 19.726737483468366 12.001151443900035 a44.09051337067021,44.09051337067021 0 0,0 -0.40003818344310227,0.6449889266408786 l -19.5172346603573 -12.338936701906185" fill="#ffdc14" stroke="none" /><path d="M 117.14729908036423 112.12312394758627 l 51.44189724109271 36.36937184275882 a84.0,84.0 0 0,0 -0.8448808304975888,1.1734655781954753 l -50.80823661821952 -37.24947102640542" fill="#4dd2ff" stroke="none" /><path d="M 116.93607887273984 112.41649034213515 l 18.77214909101924 13.762583986599852 a44.27664708422734,44.27664708422734 0 0,0 -0.4559202895467508,0.6107797332767668 l -18.5324675347774 -14.083676599385933" fill="#ffdf14" stroke="none" /><path d="M 116.27256486870786 113.27417163493432 l 18.021308686849828 14.700690796162913 a44.25678130505419,44.25678130505419 0 0,0 -0.4866222778654124,0.5861678817323123 l -17.765590409090873 -15.008719935008996" fill="#ffde14" stroke="none" /><line stroke="#e1ed5e" stroke-width="0.3" x1="143.8653032363475" x2="146.44561519142675" y1="172.8068346515853" y2="177.08958963109032" /><path d="M 144.38136562736335 173.6633856474863 a86.0,86.0 0 0,1 -40.68145358897372,12.25698825130547" fill="none" id="id66" stroke="none" /><text fill="#e1ed5e" style="font-size:6.75px; font-family:Arial;" text-anchor="middle"><textPath startOffset="21.466115282336833" xlink:href="#id66">June</textPath></text><line stroke="#e1ed5e" stroke-width="0.3" x1="102.19456741930631" x2="102.32365962044197" y1="184.97166512339345" y2="189.96999836594603" /><path d="M 102.22038585953345 185.97133177190398 a86.0,86.0 0 0,1 -42.740103519485714,-10.115201625700543" fill="none" id="id67" stroke="none" /><text fill="#e1ed5e" style="font-size:6.75px; font-family:Arial;" text-anchor="middle"><textPath startOffset="22.20632615414155" xlink:href="#id67">July</textPath></text><line stroke="#e1ed5e" stroke-width="0.3" x1="58.666819895761336" x2="56.23545636021788" y1="174.27360380694188" y2="178.64263932499728" /><path d="M 58.180547188652646 175.14741091055294 a86.0,86.0 0 0,1 -31.652253787137756,-30.449443065178592" fill="none" id="id68" stroke="none" /><text fill="#e1ed5e" style="font-size:6.75px; font-family:Arial;" text-anchor="middle"><textPath startOffset="22.20632615414155" xlink:href="#id68">August</textPath></text><line stroke="#e1ed5e" stroke-width="0.3" x1="26.63291911575756" x2="22.317208475507996" y1="142.92168965132927" y2="145.44649492493687" /><path d="M 25.769776987707644 143.4266507060508 a86.0,86.0 0 0,1 -11.730757126820373,-40.83630448921669" fill="none" id="id69" stroke="none" /><text fill="#e1ed5e" style="font-size:6.75px; font-family:Arial;" text-anchor="middle"><textPath startOffset="21.46611528233685" xlink:href="#id69">September</textPath></text><line stroke="#e1ed5e" stroke-width="0.3" x1="15.007084014347285" x2="10.007500721073583" y1="101.09737516637583" y2="101.16192664675087" /><path d="M 14.007167355692545 101.11028546245083 a86.0,86.0 0 0,1 10.666146001902534,-42.60595125391555" fill="none" id="id70" stroke="none" /><text fill="#e1ed5e" style="font-size:6.75px; font-family:Arial;" text-anchor="middle"><textPath startOffset="22.20632615414155" xlink:href="#id70">October</textPath></text><line stroke="#e1ed5e" stroke-width="0.3" x1="26.266209847984257" x2="21.92892807433627" y1="57.711370442889674" y2="55.22380399835377" /><path d="M 25.39875349325466 57.213857153982495 a86.0,86.0 0 0,1 29.58750427330802,-30.492523968695096" fill="none" id="id71" stroke="none" /><text fill="#e1ed5e" style="font-size:6.75px; font-family:Arial;" text-anchor="middle"><textPath startOffset="21.46611528233685" xlink:href="#id71">November</textPath></text><line stroke="#e1ed5e" stroke-width="0.3" x1="56.762969772571076" x2="54.21961505331055" y1="26.818313649435495" y2="22.513508569990535" /><path d="M 56.25429882871897 25.957352633546506 a86.0,86.0 0 0,1 42.265352541879196,-11.944610805530505" fill="none" id="id72" stroke="none" /><text fill="#e1ed5e" style="font-size:6.75px; font-family:Arial;" text-anchor="middle"><textPath startOffset="22.20632615414155" xlink:href="#id72">December</textPath></text></svg>